<svg width="62.699646mm" height="85.80183754mm" viewBox="0 0 24684900 33780251"  version="1.1" xmlns="http://www.w3.org/2000/svg" xmlns:xlink="http://www.w3.org/1999/xlink">
<desc>
Origin 52372468 49564998 Bound 52372608 15784745 24684900 33780251
</desc>
<g fill-rule="evenodd" fill="rgb(0, 255, 255)" stroke="black" stroke-width="1" transform="translate(0, 33780251) scale(1, -1) translate(-52372608, -15784745)">
<path id="N" d="M 74036065.00 37517959.00 L 74220696.77 37333327.23 L 74225725.00 37336687.00 A 100349.83 100349.83 0 1 0 74171414.00 37282376.00 L 74174774.57 37287405.43 L 73999654.00 37462526.00 L 70451481.00 37462526.00 L 66020992.00 33032037.00 L 65998031.00 33022526.00 L 65220355.00 33022526.00 L 64366448.00 32168619.00 L 64366448.00 29892943.78 L 64372379.00 29891764.00 A 100354.75 100354.75 0 1 0 64295573.00 29891764.00 L 64301504.00 29892943.78 L 64301504.00 32182069.00 L 64311015.00 32205030.00 L 65183944.00 33077959.00 L 65206905.00 33087470.00 L 65984581.00 33087470.00 L 70415070.00 37517959.00 L 70438031.00 37527470.00 L 74013104.00 37527470.00 L 74036065.00 37517959.00  z"/>
<path id="N" d="M 67430871.00 46503859.00 L 67424940.00 46502679.22 L 67424940.00 41879435.00 L 67415429.00 41856474.00 L 67004940.00 41445985.00 L 67004940.00 41258891.78 L 67010871.00 41257712.00 A 100354.75 100354.75 0 1 0 66934065.00 41257712.00 L 66939996.00 41258891.78 L 66939996.00 41459435.00 L 66949507.00 41482396.00 L 67359996.00 41892885.00 L 67359996.00 46502679.22 L 67354065.00 46503859.00 A 100354.75 100354.75 0 1 0 67430871.00 46503859.00  z"/>
<path id="N" d="M 73421823.00 36445547.00 L 73408811.00 36442958.70 L 73408811.00 36048869.00 L 73399300.00 36025908.00 L 72935429.00 35562037.00 L 72912468.00 35552526.00 L 70188249.00 35552526.00 L 69354940.00 34719217.00 L 69354940.00 33794775.00 L 69345429.00 33771814.00 L 68441821.83 32868206.83 L 68445182.00 32863178.00 A 100349.83 100349.83 0 1 0 68390871.00 32917489.00 L 68395899.83 32914128.83 L 69289996.00 33808225.00 L 69289996.00 34732667.00 L 69299507.00 34755628.00 L 70151838.00 35607959.00 L 70174799.00 35617470.00 L 72899018.00 35617470.00 L 73343867.00 36062319.00 L 73343867.00 36446315.41 A 98582.99 98582.99 0 1 0 73421823.00 36445547.00  z"/>
<path id="N" d="M 66344940.00 45115136.72 L 66344940.00 41792874.00 L 66335429.00 41769913.00 L 66309800.93 41744284.93 L 66320880.00 41727704.00 A 100349.83 100349.83 0 1 0 66228166.00 41789654.00 L 66257492.47 41783820.47 L 66279996.00 41806324.00 L 66279996.00 45138366.47 L 66271508.00 45144038.00 A 100353.26 100353.26 0 1 0 66344940.00 45115136.72  z"/>
<path id="N" d="M 67911508.00 24619786.00 L 67900255.82 24636626.00 L 66864680.18 24636626.00 L 66853428.00 24619786.00 A 100353.26 100353.26 0 1 0 66853428.00 24761706.00 L 66864680.18 24744866.00 L 67900255.82 24744866.00 L 67911508.00 24761706.00 A 100353.26 100353.26 0 1 0 67911508.00 24619786.00  z"/>
<path id="N" d="M 66455458.00 22218126.00 L 66461804.64 22186220.00 L 74925808.06 22186220.00 L 74944008.00 22213458.00 A 100353.26 100353.26 0 1 0 74922254.00 22104095.00 L 74918836.41 22121276.00 L 66442064.96 22121276.00 L 66433704.00 22108763.00 A 100353.26 100353.26 0 1 0 66455458.00 22218126.00  z"/>
<path id="N" d="M 74860871.00 45072284.00 L 74838090.00 45067752.48 L 74838090.00 38215298.00 L 74965429.00 38087959.00 L 74974940.00 38064998.00 L 74974940.00 36443872.00 L 74965429.00 36420911.00 L 74149354.00 35604836.00 L 74126393.00 35595325.00 L 73763562.78 35595325.00 L 73762383.00 35589394.00 A 100354.75 100354.75 0 1 0 73762383.00 35666200.00 L 73763562.78 35660269.00 L 74112943.00 35660269.00 L 74909996.00 36457322.00 L 74909996.00 38051548.00 L 74782657.00 38178887.00 L 74773146.00 38201848.00 L 74773146.00 45079579.88 L 74751508.00 45094038.00 A 100353.26 100353.26 0 1 0 74860871.00 45072284.00  z"/>
<path id="N" d="M 53222468.00 49057334.19 L 53265169.00 49080158.00 A 753624.65 753624.65 0 1 0 53265169.00 47687634.00 L 53222468.00 47710457.81 L 53222468.00 17639223.19 L 53265169.00 17662047.00 A 753624.65 753624.65 0 1 0 53265169.00 16269523.00 L 53222468.00 16292346.81 L 53222468.00 15814998.00 L 52422468.00 15814998.00 L 52422468.00 49514998.00 L 53222468.00 49514998.00 L 53222468.00 49057334.19  zM 53553572.13 16965778.97 m -431849.03 0 a 431849.03 431849.03 0 1 1 863698.07 0a 431849.03 431849.03 0 1 1 -863698.07 0M 52822466.90 18664999.70 m -203916.30 0 a 203916.30 203916.30 0 1 1 407832.60 0a 203916.30 203916.30 0 1 1 -407832.60 0M 52822466.90 20664999.70 m -203916.30 0 a 203916.30 203916.30 0 1 1 407832.60 0a 203916.30 203916.30 0 1 1 -407832.60 0M 52822466.90 22664999.70 m -203916.30 0 a 203916.30 203916.30 0 1 1 407832.60 0a 203916.30 203916.30 0 1 1 -407832.60 0M 52822466.90 24664999.70 m -203916.30 0 a 203916.30 203916.30 0 1 1 407832.60 0a 203916.30 203916.30 0 1 1 -407832.60 0M 52822466.90 26664999.70 m -203916.30 0 a 203916.30 203916.30 0 1 1 407832.60 0a 203916.30 203916.30 0 1 1 -407832.60 0M 52822466.90 28664999.70 m -203916.30 0 a 203916.30 203916.30 0 1 1 407832.60 0a 203916.30 203916.30 0 1 1 -407832.60 0M 52822466.90 30664999.70 m -203916.30 0 a 203916.30 203916.30 0 1 1 407832.60 0a 203916.30 203916.30 0 1 1 -407832.60 0M 52822466.90 32664999.70 m -203916.30 0 a 203916.30 203916.30 0 1 1 407832.60 0a 203916.30 203916.30 0 1 1 -407832.60 0M 52822466.90 34664999.70 m -203916.30 0 a 203916.30 203916.30 0 1 1 407832.60 0a 203916.30 203916.30 0 1 1 -407832.60 0M 52822466.90 36664999.70 m -203916.30 0 a 203916.30 203916.30 0 1 1 407832.60 0a 203916.30 203916.30 0 1 1 -407832.60 0M 52822466.90 38664999.70 m -203916.30 0 a 203916.30 203916.30 0 1 1 407832.60 0a 203916.30 203916.30 0 1 1 -407832.60 0M 52822466.90 40664999.70 m -203916.30 0 a 203916.30 203916.30 0 1 1 407832.60 0a 203916.30 203916.30 0 1 1 -407832.60 0M 52822466.90 42664999.70 m -203916.30 0 a 203916.30 203916.30 0 1 1 407832.60 0a 203916.30 203916.30 0 1 1 -407832.60 0M 52822466.90 44664999.70 m -203916.30 0 a 203916.30 203916.30 0 1 1 407832.60 0a 203916.30 203916.30 0 1 1 -407832.60 0M 52822466.90 46664999.70 m -203916.30 0 a 203916.30 203916.30 0 1 1 407832.60 0a 203916.30 203916.30 0 1 1 -407832.60 0M 53553573.10 48383882.63 m -431856.37 0 a 431856.37 431856.37 0 1 1 863712.74 0a 431856.37 431856.37 0 1 1 -863712.74 0"/>
<path id="N" d="M 77007509.00 15814998.00 L 76207509.00 15814998.00 L 76207509.00 16292347.88 L 76164806.00 16269523.00 A 753624.65 753624.65 0 1 0 76164806.00 17662047.00 L 76207509.00 17639222.12 L 76207509.00 47710458.88 L 76164806.00 47687634.00 A 753624.65 753624.65 0 1 0 76164806.00 49080158.00 L 76207509.00 49057333.12 L 76207509.00 49514998.00 L 77007509.00 49514998.00 L 77007509.00 15814998.00  zM 75876407.13 16965778.97 m -431849.03 0 a 431849.03 431849.03 0 1 1 863698.07 0a 431849.03 431849.03 0 1 1 -863698.07 0M 76607505.90 18664999.70 m -203916.30 0 a 203916.30 203916.30 0 1 1 407832.60 0a 203916.30 203916.30 0 1 1 -407832.60 0M 76607505.90 20664999.70 m -203916.30 0 a 203916.30 203916.30 0 1 1 407832.60 0a 203916.30 203916.30 0 1 1 -407832.60 0M 76607505.90 22664999.70 m -203916.30 0 a 203916.30 203916.30 0 1 1 407832.60 0a 203916.30 203916.30 0 1 1 -407832.60 0M 76607505.90 24664999.70 m -203916.30 0 a 203916.30 203916.30 0 1 1 407832.60 0a 203916.30 203916.30 0 1 1 -407832.60 0M 76607505.90 26664999.70 m -203916.30 0 a 203916.30 203916.30 0 1 1 407832.60 0a 203916.30 203916.30 0 1 1 -407832.60 0M 76607505.90 28664999.70 m -203916.30 0 a 203916.30 203916.30 0 1 1 407832.60 0a 203916.30 203916.30 0 1 1 -407832.60 0M 76607505.90 30664999.70 m -203916.30 0 a 203916.30 203916.30 0 1 1 407832.60 0a 203916.30 203916.30 0 1 1 -407832.60 0M 76607505.90 32664999.70 m -203916.30 0 a 203916.30 203916.30 0 1 1 407832.60 0a 203916.30 203916.30 0 1 1 -407832.60 0M 76607505.90 34664999.70 m -203916.30 0 a 203916.30 203916.30 0 1 1 407832.60 0a 203916.30 203916.30 0 1 1 -407832.60 0M 76607505.90 36664999.70 m -203916.30 0 a 203916.30 203916.30 0 1 1 407832.60 0a 203916.30 203916.30 0 1 1 -407832.60 0M 76607505.90 38664999.70 m -203916.30 0 a 203916.30 203916.30 0 1 1 407832.60 0a 203916.30 203916.30 0 1 1 -407832.60 0M 76607505.90 40664999.70 m -203916.30 0 a 203916.30 203916.30 0 1 1 407832.60 0a 203916.30 203916.30 0 1 1 -407832.60 0M 75876408.10 48383882.63 m -431856.37 0 a 431856.37 431856.37 0 1 1 863712.74 0a 431856.37 431856.37 0 1 1 -863712.74 0M 76607505.90 46664999.70 m -203916.30 0 a 203916.30 203916.30 0 1 1 407832.60 0a 203916.30 203916.30 0 1 1 -407832.60 0M 76607505.90 42664999.70 m -203916.30 0 a 203916.30 203916.30 0 1 1 407832.60 0a 203916.30 203916.30 0 1 1 -407832.60 0M 76607505.90 44664999.70 m -203916.30 0 a 203916.30 203916.30 0 1 1 407832.60 0a 203916.30 203916.30 0 1 1 -407832.60 0"/>
<path id="N" d="M 64714976.95 48383865.41 m -753660.98 0 a 753660.98 753660.98 0 1 1 1507321.97 0a 753660.98 753660.98 0 1 1 -1507321.97 0M 64714991.10 48383882.63 m -431856.37 0 a 431856.37 431856.37 0 1 1 863712.74 0a 431856.37 431856.37 0 1 1 -863712.74 0"/>
<path id="N" d="M 64714976.95 16965754.41 m -753660.98 0 a 753660.98 753660.98 0 1 1 1507321.97 0a 753660.98 753660.98 0 1 1 -1507321.97 0M 64714990.13 16965778.97 m -431849.03 0 a 431849.03 431849.03 0 1 1 863698.07 0a 431849.03 431849.03 0 1 1 -863698.07 0"/>
<path id="N" d="M 60847548.26 17030748.70 m -496370.60 0 a 496370.60 496370.60 0 1 1 992741.20 0a 496370.60 496370.60 0 1 1 -992741.20 0M 60847547.00 17030745.99 m -297823.01 0 a 297823.01 297823.01 0 1 1 595646.03 0a 297823.01 297823.01 0 1 1 -595646.03 0"/>
<path id="N" d="M 73926052.26 18975000.70 m -496370.60 0 a 496370.60 496370.60 0 1 1 992741.20 0a 496370.60 496370.60 0 1 1 -992741.20 0M 73926051.00 18974997.99 m -297823.01 0 a 297823.01 297823.01 0 1 1 595646.03 0a 297823.01 297823.01 0 1 1 -595646.03 0"/>
<path id="N" d="M 71957548.26 17006496.70 m -496370.60 0 a 496370.60 496370.60 0 1 1 992741.20 0a 496370.60 496370.60 0 1 1 -992741.20 0M 71957547.00 17006493.99 m -297823.01 0 a 297823.01 297823.01 0 1 1 595646.03 0a 297823.01 297823.01 0 1 1 -595646.03 0"/>
<path id="N" d="M 62816052.26 18999252.70 m -496370.60 0 a 496370.60 496370.60 0 1 1 992741.20 0a 496370.60 496370.60 0 1 1 -992741.20 0M 62816051.00 18999249.99 m -297823.01 0 a 297823.01 297823.01 0 1 1 595646.03 0a 297823.01 297823.01 0 1 1 -595646.03 0"/>
<path id="N" d="M 62816052.26 17030748.70 m -496370.60 0 a 496370.60 496370.60 0 1 1 992741.20 0a 496370.60 496370.60 0 1 1 -992741.20 0M 62816051.00 17030745.99 m -297823.01 0 a 297823.01 297823.01 0 1 1 595646.03 0a 297823.01 297823.01 0 1 1 -595646.03 0"/>
<path id="N" d="M 73926052.26 17006496.70 m -496370.60 0 a 496370.60 496370.60 0 1 1 992741.20 0a 496370.60 496370.60 0 1 1 -992741.20 0M 73926051.00 17006493.99 m -297823.01 0 a 297823.01 297823.01 0 1 1 595646.03 0a 297823.01 297823.01 0 1 1 -595646.03 0"/>
<path id="N" d="M 60847548.26 18999252.70 m -496370.60 0 a 496370.60 496370.60 0 1 1 992741.20 0a 496370.60 496370.60 0 1 1 -992741.20 0M 60847547.00 18999249.99 m -297823.01 0 a 297823.01 297823.01 0 1 1 595646.03 0a 297823.01 297823.01 0 1 1 -595646.03 0"/>
<path id="N" d="M 71957548.26 18975000.70 m -496370.60 0 a 496370.60 496370.60 0 1 1 992741.20 0a 496370.60 496370.60 0 1 1 -992741.20 0M 71957547.00 18974997.99 m -297823.01 0 a 297823.01 297823.01 0 1 1 595646.03 0a 297823.01 297823.01 0 1 1 -595646.03 0"/>
<path id="N" d="M 66651508.00 28464038.00 L 66634776.57 28489078.23 L 66149161.01 28416598.40 L 66145182.00 28396595.00 A 100354.75 100354.75 0 1 0 66123428.00 28505958.00 L 66140159.51 28480917.66 L 66625774.98 28553397.58 L 66629754.00 28573401.00 A 100354.75 100354.75 0 1 0 66651508.00 28464038.00  z"/>
<path id="N" d="M 55545570.00 28469756.00 L 55529395.00 28493963.48 L 55049348.42 28417540.55 L 55045182.00 28396595.00 A 100354.75 100354.75 0 1 0 55023428.00 28505958.00 L 55039602.99 28481750.54 L 55519649.61 28558173.59 L 55523816.00 28579119.00 A 100354.75 100354.75 0 1 0 55545570.00 28469756.00  z"/>
<path id="N" d="M 60422466.47 35490746.47 m -100354.75 0 a 100354.75 100354.75 0 1 1 200709.51 0a 100354.75 100354.75 0 1 1 -200709.51 0"/>
<path id="N" d="M 69382466.47 35044996.47 m -100354.75 0 a 100354.75 100354.75 0 1 1 200709.51 0a 100354.75 100354.75 0 1 1 -200709.51 0"/>
<path id="N" d="M 63772466.47 35564996.47 m -100354.75 0 a 100354.75 100354.75 0 1 1 200709.51 0a 100354.75 100354.75 0 1 1 -200709.51 0"/>
<path id="N" d="M 54422466.47 35740746.47 m -100354.75 0 a 100354.75 100354.75 0 1 1 200709.51 0a 100354.75 100354.75 0 1 1 -200709.51 0"/>
<path id="N" d="M 64052466.47 35564996.47 m -100354.75 0 a 100354.75 100354.75 0 1 1 200709.51 0a 100354.75 100354.75 0 1 1 -200709.51 0"/>
<path id="N" d="M 71032466.47 34886571.47 m -100354.75 0 a 100354.75 100354.75 0 1 1 200709.51 0a 100354.75 100354.75 0 1 1 -200709.51 0"/>
<path id="N" d="M 59922466.47 34890746.47 m -100354.75 0 a 100354.75 100354.75 0 1 1 200709.51 0a 100354.75 100354.75 0 1 1 -200709.51 0"/>
<path id="N" d="M 65532466.47 35140744.47 m -100354.75 0 a 100354.75 100354.75 0 1 1 200709.51 0a 100354.75 100354.75 0 1 1 -200709.51 0"/>
<path id="N" d="M 58312466.47 35034996.47 m -100354.75 0 a 100354.75 100354.75 0 1 1 200709.51 0a 100354.75 100354.75 0 1 1 -200709.51 0"/>
<path id="N" d="M 65532466.47 35740744.47 m -100354.75 0 a 100354.75 100354.75 0 1 1 200709.51 0a 100354.75 100354.75 0 1 1 -200709.51 0"/>
<path id="N" d="M 59272466.47 34890746.47 m -100354.75 0 a 100354.75 100354.75 0 1 1 200709.51 0a 100354.75 100354.75 0 1 1 -200709.51 0"/>
<path id="N" d="M 66206456.47 23816754.47 m -100354.75 0 a 100354.75 100354.75 0 1 1 200709.51 0a 100354.75 100354.75 0 1 1 -200709.51 0"/>
<path id="N" d="M 65232466.47 24994996.47 m -100354.75 0 a 100354.75 100354.75 0 1 1 200709.51 0a 100354.75 100354.75 0 1 1 -200709.51 0"/>
<path id="N" d="M 54132466.47 24984996.47 m -100354.75 0 a 100354.75 100354.75 0 1 1 200709.51 0a 100354.75 100354.75 0 1 1 -200709.51 0"/>
<path id="N" d="M 55096456.47 23816756.47 m -100354.75 0 a 100354.75 100354.75 0 1 1 200709.51 0a 100354.75 100354.75 0 1 1 -200709.51 0"/>
<path id="N" d="M 70462466.47 16584996.47 m -100354.75 0 a 100354.75 100354.75 0 1 1 200709.51 0a 100354.75 100354.75 0 1 1 -200709.51 0"/>
<path id="N" d="M 54710654.47 22744996.47 m -100354.75 0 a 100354.75 100354.75 0 1 1 200709.51 0a 100354.75 100354.75 0 1 1 -200709.51 0"/>
<path id="N" d="M 66462466.47 22714996.47 m -100354.75 0 a 100354.75 100354.75 0 1 1 200709.51 0a 100354.75 100354.75 0 1 1 -200709.51 0"/>
<path id="N" d="M 70382466.47 32340744.47 m -100354.75 0 a 100354.75 100354.75 0 1 1 200709.51 0a 100354.75 100354.75 0 1 1 -200709.51 0"/>
<path id="N" d="M 62022466.47 32240746.47 m -100354.75 0 a 100354.75 100354.75 0 1 1 200709.51 0a 100354.75 100354.75 0 1 1 -200709.51 0"/>
<path id="N" d="M 61812466.47 32394996.47 m -100354.75 0 a 100354.75 100354.75 0 1 1 200709.51 0a 100354.75 100354.75 0 1 1 -200709.51 0"/>
<path id="N" d="M 74772466.47 23414996.47 m -100354.75 0 a 100354.75 100354.75 0 1 1 200709.51 0a 100354.75 100354.75 0 1 1 -200709.51 0"/>
<path id="N" d="M 66462466.47 23354996.47 m -100354.75 0 a 100354.75 100354.75 0 1 1 200709.51 0a 100354.75 100354.75 0 1 1 -200709.51 0"/>
<path id="N" d="M 55292466.47 23354996.47 m -100354.75 0 a 100354.75 100354.75 0 1 1 200709.51 0a 100354.75 100354.75 0 1 1 -200709.51 0"/>
<path id="N" d="M 63372466.47 23690746.47 m -100354.75 0 a 100354.75 100354.75 0 1 1 200709.51 0a 100354.75 100354.75 0 1 1 -200709.51 0"/>
<path id="N" d="M 62622466.47 29740746.47 m -100354.75 0 a 100354.75 100354.75 0 1 1 200709.51 0a 100354.75 100354.75 0 1 1 -200709.51 0"/>
<path id="N" d="M 73482466.47 28640744.47 m -100354.75 0 a 100354.75 100354.75 0 1 1 200709.51 0a 100354.75 100354.75 0 1 1 -200709.51 0"/>
<path id="N" d="M 72782466.47 28640744.47 m -100354.75 0 a 100354.75 100354.75 0 1 1 200709.51 0a 100354.75 100354.75 0 1 1 -200709.51 0"/>
<path id="N" d="M 70388404.47 30040776.47 m -100354.75 0 a 100354.75 100354.75 0 1 1 200709.51 0a 100354.75 100354.75 0 1 1 -200709.51 0"/>
<path id="N" d="M 61172466.47 28040746.47 m -100354.75 0 a 100354.75 100354.75 0 1 1 200709.51 0a 100354.75 100354.75 0 1 1 -200709.51 0"/>
<path id="N" d="M 73732466.47 29740744.47 m -100354.75 0 a 100354.75 100354.75 0 1 1 200709.51 0a 100354.75 100354.75 0 1 1 -200709.51 0"/>
<path id="N" d="M 71542466.47 28644996.47 m -100354.75 0 a 100354.75 100354.75 0 1 1 200709.51 0a 100354.75 100354.75 0 1 1 -200709.51 0"/>
<path id="N" d="M 66022466.47 23144996.47 m -100354.75 0 a 100354.75 100354.75 0 1 1 200709.51 0a 100354.75 100354.75 0 1 1 -200709.51 0"/>
<path id="N" d="M 62272466.47 23140746.47 m -100354.75 0 a 100354.75 100354.75 0 1 1 200709.51 0a 100354.75 100354.75 0 1 1 -200709.51 0"/>
<path id="N" d="M 59402466.47 16614996.47 m -100354.75 0 a 100354.75 100354.75 0 1 1 200709.51 0a 100354.75 100354.75 0 1 1 -200709.51 0"/>
<path id="N" d="M 54922466.47 22990746.47 m -100354.75 0 a 100354.75 100354.75 0 1 1 200709.51 0a 100354.75 100354.75 0 1 1 -200709.51 0"/>
<path id="N" d="M 62372466.47 28640746.47 m -100354.75 0 a 100354.75 100354.75 0 1 1 200709.51 0a 100354.75 100354.75 0 1 1 -200709.51 0"/>
<path id="N" d="M 61672466.47 28640746.47 m -100354.75 0 a 100354.75 100354.75 0 1 1 200709.51 0a 100354.75 100354.75 0 1 1 -200709.51 0"/>
<path id="N" d="M 73382466.47 23140744.47 m -100354.75 0 a 100354.75 100354.75 0 1 1 200709.51 0a 100354.75 100354.75 0 1 1 -200709.51 0"/>
<path id="N" d="M 59272466.47 32340746.47 m -100354.75 0 a 100354.75 100354.75 0 1 1 200709.51 0a 100354.75 100354.75 0 1 1 -200709.51 0"/>
<path id="N" d="M 70382466.47 30640744.47 m -100354.75 0 a 100354.75 100354.75 0 1 1 200709.51 0a 100354.75 100354.75 0 1 1 -200709.51 0"/>
<path id="N" d="M 54422466.47 30340746.47 m -100354.75 0 a 100354.75 100354.75 0 1 1 200709.51 0a 100354.75 100354.75 0 1 1 -200709.51 0"/>
<path id="N" d="M 70842466.47 31644996.47 m -100354.75 0 a 100354.75 100354.75 0 1 1 200709.51 0a 100354.75 100354.75 0 1 1 -200709.51 0"/>
<path id="N" d="M 59278404.47 30040778.47 m -100354.75 0 a 100354.75 100354.75 0 1 1 200709.51 0a 100354.75 100354.75 0 1 1 -200709.51 0"/>
<path id="N" d="M 73132466.47 31040744.47 m -100354.75 0 a 100354.75 100354.75 0 1 1 200709.51 0a 100354.75 100354.75 0 1 1 -200709.51 0"/>
<path id="N" d="M 54422466.47 30890714.47 m -100354.75 0 a 100354.75 100354.75 0 1 1 200709.51 0a 100354.75 100354.75 0 1 1 -200709.51 0"/>
<path id="N" d="M 65532466.47 30340744.47 m -100354.75 0 a 100354.75 100354.75 0 1 1 200709.51 0a 100354.75 100354.75 0 1 1 -200709.51 0"/>
<path id="N" d="M 62022466.47 31040746.47 m -100354.75 0 a 100354.75 100354.75 0 1 1 200709.51 0a 100354.75 100354.75 0 1 1 -200709.51 0"/>
<path id="N" d="M 74844041.47 31290744.47 m -100354.75 0 a 100354.75 100354.75 0 1 1 200709.51 0a 100354.75 100354.75 0 1 1 -200709.51 0"/>
<path id="N" d="M 60732466.47 31050746.47 m -100354.75 0 a 100354.75 100354.75 0 1 1 200709.51 0a 100354.75 100354.75 0 1 1 -200709.51 0"/>
<path id="N" d="M 71842466.47 31050744.47 m -100354.75 0 a 100354.75 100354.75 0 1 1 200709.51 0a 100354.75 100354.75 0 1 1 -200709.51 0"/>
<path id="N" d="M 63952466.47 31304996.47 m -100354.75 0 a 100354.75 100354.75 0 1 1 200709.51 0a 100354.75 100354.75 0 1 1 -200709.51 0"/>
<path id="N" d="M 59272466.47 31740746.47 m -100354.75 0 a 100354.75 100354.75 0 1 1 200709.51 0a 100354.75 100354.75 0 1 1 -200709.51 0"/>
<path id="N" d="M 70382466.47 31740744.47 m -100354.75 0 a 100354.75 100354.75 0 1 1 200709.51 0a 100354.75 100354.75 0 1 1 -200709.51 0"/>
<path id="N" d="M 55972466.47 32590746.47 m -100354.75 0 a 100354.75 100354.75 0 1 1 200709.51 0a 100354.75 100354.75 0 1 1 -200709.51 0"/>
<path id="N" d="M 67382466.47 32590744.47 m -100354.75 0 a 100354.75 100354.75 0 1 1 200709.51 0a 100354.75 100354.75 0 1 1 -200709.51 0"/>
<path id="N" d="M 54422466.47 32740746.47 m -100354.75 0 a 100354.75 100354.75 0 1 1 200709.51 0a 100354.75 100354.75 0 1 1 -200709.51 0"/>
<path id="N" d="M 54422466.47 32140746.47 m -100354.75 0 a 100354.75 100354.75 0 1 1 200709.51 0a 100354.75 100354.75 0 1 1 -200709.51 0"/>
<path id="N" d="M 65532466.47 32140744.47 m -100354.75 0 a 100354.75 100354.75 0 1 1 200709.51 0a 100354.75 100354.75 0 1 1 -200709.51 0"/>
<path id="N" d="M 59952466.47 31870746.47 m -100354.75 0 a 100354.75 100354.75 0 1 1 200709.51 0a 100354.75 100354.75 0 1 1 -200709.51 0"/>
<path id="N" d="M 73132466.47 32240744.47 m -100354.75 0 a 100354.75 100354.75 0 1 1 200709.51 0a 100354.75 100354.75 0 1 1 -200709.51 0"/>
<path id="N" d="M 68732467.47 32434997.47 m -100354.75 0 a 100354.75 100354.75 0 1 1 200709.51 0a 100354.75 100354.75 0 1 1 -200709.51 0"/>
<path id="N" d="M 65532466.47 30890712.47 m -100354.75 0 a 100354.75 100354.75 0 1 1 200709.51 0a 100354.75 100354.75 0 1 1 -200709.51 0"/>
<path id="N" d="M 59272466.47 30640746.47 m -100354.75 0 a 100354.75 100354.75 0 1 1 200709.51 0a 100354.75 100354.75 0 1 1 -200709.51 0"/>
<path id="N" d="M 67082466.47 32590744.47 m -100354.75 0 a 100354.75 100354.75 0 1 1 200709.51 0a 100354.75 100354.75 0 1 1 -200709.51 0"/>
<path id="N" d="M 56272466.47 32590746.47 m -100354.75 0 a 100354.75 100354.75 0 1 1 200709.51 0a 100354.75 100354.75 0 1 1 -200709.51 0"/>
<path id="N" d="M 72922466.47 32404996.47 m -100354.75 0 a 100354.75 100354.75 0 1 1 200709.51 0a 100354.75 100354.75 0 1 1 -200709.51 0"/>
<path id="N" d="M 57622466.47 32404996.47 m -100354.75 0 a 100354.75 100354.75 0 1 1 200709.51 0a 100354.75 100354.75 0 1 1 -200709.51 0"/>
<path id="N" d="M 65532466.47 28544996.47 m -100354.75 0 a 100354.75 100354.75 0 1 1 200709.51 0a 100354.75 100354.75 0 1 1 -200709.51 0"/>
<path id="N" d="M 63422466.47 33614996.47 m -100354.75 0 a 100354.75 100354.75 0 1 1 200709.51 0a 100354.75 100354.75 0 1 1 -200709.51 0"/>
<path id="N" d="M 71542466.47 35964996.47 m -100354.75 0 a 100354.75 100354.75 0 1 1 200709.51 0a 100354.75 100354.75 0 1 1 -200709.51 0"/>
<path id="N" d="M 66490891.47 42264996.47 m -100354.75 0 a 100354.75 100354.75 0 1 1 200709.51 0a 100354.75 100354.75 0 1 1 -200709.51 0"/>
<path id="N" d="M 74532466.47 33640744.47 m -100354.75 0 a 100354.75 100354.75 0 1 1 200709.51 0a 100354.75 100354.75 0 1 1 -200709.51 0"/>
<path id="N" d="M 74902466.47 34844996.47 m -100354.75 0 a 100354.75 100354.75 0 1 1 200709.51 0a 100354.75 100354.75 0 1 1 -200709.51 0"/>
<path id="N" d="M 65532466.47 33343421.47 m -100354.75 0 a 100354.75 100354.75 0 1 1 200709.51 0a 100354.75 100354.75 0 1 1 -200709.51 0"/>
<path id="N" d="M 54422466.47 33340746.47 m -100354.75 0 a 100354.75 100354.75 0 1 1 200709.51 0a 100354.75 100354.75 0 1 1 -200709.51 0"/>
<path id="N" d="M 64512466.47 39574996.47 m -100354.75 0 a 100354.75 100354.75 0 1 1 200709.51 0a 100354.75 100354.75 0 1 1 -200709.51 0"/>
<path id="N" d="M 63862466.47 41259090.47 m -100354.75 0 a 100354.75 100354.75 0 1 1 200709.51 0a 100354.75 100354.75 0 1 1 -200709.51 0"/>
<path id="N" d="M 64312466.47 43764996.47 m -100354.75 0 a 100354.75 100354.75 0 1 1 200709.51 0a 100354.75 100354.75 0 1 1 -200709.51 0"/>
<path id="N" d="M 64112466.47 39414996.47 m -100354.75 0 a 100354.75 100354.75 0 1 1 200709.51 0a 100354.75 100354.75 0 1 1 -200709.51 0"/>
<path id="N" d="M 66847741.47 42264996.47 m -100354.75 0 a 100354.75 100354.75 0 1 1 200709.51 0a 100354.75 100354.75 0 1 1 -200709.51 0"/>
<path id="N" d="M 65924278.47 42276808.47 m -100354.75 0 a 100354.75 100354.75 0 1 1 200709.51 0a 100354.75 100354.75 0 1 1 -200709.51 0"/>
<path id="N" d="M 68562466.47 41309090.47 m -100354.75 0 a 100354.75 100354.75 0 1 1 200709.51 0a 100354.75 100354.75 0 1 1 -200709.51 0"/>
<path id="N" d="M 59282466.47 32990746.47 m -100354.75 0 a 100354.75 100354.75 0 1 1 200709.51 0a 100354.75 100354.75 0 1 1 -200709.51 0"/>
<path id="N" d="M 61952466.47 33064996.47 m -100354.75 0 a 100354.75 100354.75 0 1 1 200709.51 0a 100354.75 100354.75 0 1 1 -200709.51 0"/>
<path id="N" d="M 73059497.47 33062025.47 m -100354.75 0 a 100354.75 100354.75 0 1 1 200709.51 0a 100354.75 100354.75 0 1 1 -200709.51 0"/>
<path id="N" d="M 70392466.47 32994996.47 m -100354.75 0 a 100354.75 100354.75 0 1 1 200709.51 0a 100354.75 100354.75 0 1 1 -200709.51 0"/>
<path id="N" d="M 54422466.47 35140746.47 m -100354.75 0 a 100354.75 100354.75 0 1 1 200709.51 0a 100354.75 100354.75 0 1 1 -200709.51 0"/>
<path id="N" d="M 63492466.47 35564996.47 m -100354.75 0 a 100354.75 100354.75 0 1 1 200709.51 0a 100354.75 100354.75 0 1 1 -200709.51 0"/>
<path id="N" d="M 63212466.47 35564996.47 m -100354.75 0 a 100354.75 100354.75 0 1 1 200709.51 0a 100354.75 100354.75 0 1 1 -200709.51 0"/>
<path id="N" d="M 73894526.47 34837056.47 m -100354.75 0 a 100354.75 100354.75 0 1 1 200709.51 0a 100354.75 100354.75 0 1 1 -200709.51 0"/>
<path id="N" d="M 59272466.47 34290746.47 m -100354.75 0 a 100354.75 100354.75 0 1 1 200709.51 0a 100354.75 100354.75 0 1 1 -200709.51 0"/>
<path id="N" d="M 70382466.47 34886571.47 m -100354.75 0 a 100354.75 100354.75 0 1 1 200709.51 0a 100354.75 100354.75 0 1 1 -200709.51 0"/>
<path id="N" d="M 55972466.47 32890746.47 m -100354.75 0 a 100354.75 100354.75 0 1 1 200709.51 0a 100354.75 100354.75 0 1 1 -200709.51 0"/>
<path id="N" d="M 67382466.47 32890744.47 m -100354.75 0 a 100354.75 100354.75 0 1 1 200709.51 0a 100354.75 100354.75 0 1 1 -200709.51 0"/>
<path id="N" d="M 67082466.47 32890744.47 m -100354.75 0 a 100354.75 100354.75 0 1 1 200709.51 0a 100354.75 100354.75 0 1 1 -200709.51 0"/>
<path id="N" d="M 56272466.47 32890746.47 m -100354.75 0 a 100354.75 100354.75 0 1 1 200709.51 0a 100354.75 100354.75 0 1 1 -200709.51 0"/>
<path id="N" d="M 71698450.47 43894996.47 m -100354.75 0 a 100354.75 100354.75 0 1 1 200709.51 0a 100354.75 100354.75 0 1 1 -200709.51 0"/>
<path id="N" d="M 72412466.47 38059997.47 m -100354.75 0 a 100354.75 100354.75 0 1 1 200709.51 0a 100354.75 100354.75 0 1 1 -200709.51 0"/>
<path id="N" d="M 71917468.47 38324996.47 m -100354.75 0 a 100354.75 100354.75 0 1 1 200709.51 0a 100354.75 100354.75 0 1 1 -200709.51 0"/>
<path id="N" d="M 72172466.47 38324996.47 m -100354.75 0 a 100354.75 100354.75 0 1 1 200709.51 0a 100354.75 100354.75 0 1 1 -200709.51 0"/>
<path id="N" d="M 72412466.47 38324996.47 m -100354.75 0 a 100354.75 100354.75 0 1 1 200709.51 0a 100354.75 100354.75 0 1 1 -200709.51 0"/>
<path id="N" d="M 71917468.47 38589995.47 m -100354.75 0 a 100354.75 100354.75 0 1 1 200709.51 0a 100354.75 100354.75 0 1 1 -200709.51 0"/>
<path id="N" d="M 65842466.47 38594996.47 m -100354.75 0 a 100354.75 100354.75 0 1 1 200709.51 0a 100354.75 100354.75 0 1 1 -200709.51 0"/>
<path id="N" d="M 68535513.47 39210374.47 m -100354.75 0 a 100354.75 100354.75 0 1 1 200709.51 0a 100354.75 100354.75 0 1 1 -200709.51 0"/>
<path id="N" d="M 75182434.47 28640712.47 m -100354.75 0 a 100354.75 100354.75 0 1 1 200709.51 0a 100354.75 100354.75 0 1 1 -200709.51 0"/>
<path id="N" d="M 72282466.47 28040744.47 m -100354.75 0 a 100354.75 100354.75 0 1 1 200709.51 0a 100354.75 100354.75 0 1 1 -200709.51 0"/>
<path id="N" d="M 71862466.47 27394996.47 m -100354.75 0 a 100354.75 100354.75 0 1 1 200709.51 0a 100354.75 100354.75 0 1 1 -200709.51 0"/>
<path id="N" d="M 64072434.47 28640714.47 m -100354.75 0 a 100354.75 100354.75 0 1 1 200709.51 0a 100354.75 100354.75 0 1 1 -200709.51 0"/>
<path id="N" d="M 65522466.47 32764996.47 m -100354.75 0 a 100354.75 100354.75 0 1 1 200709.51 0a 100354.75 100354.75 0 1 1 -200709.51 0"/>
<path id="N" d="M 60392466.47 28634996.47 m -100354.75 0 a 100354.75 100354.75 0 1 1 200709.51 0a 100354.75 100354.75 0 1 1 -200709.51 0"/>
<path id="N" d="M 54412466.47 28554996.47 m -100354.75 0 a 100354.75 100354.75 0 1 1 200709.51 0a 100354.75 100354.75 0 1 1 -200709.51 0"/>
<path id="N" d="M 72172466.47 38059997.47 m -100354.75 0 a 100354.75 100354.75 0 1 1 200709.51 0a 100354.75 100354.75 0 1 1 -200709.51 0"/>
<path id="N" d="M 68112466.47 43764996.47 m -100354.75 0 a 100354.75 100354.75 0 1 1 200709.51 0a 100354.75 100354.75 0 1 1 -200709.51 0"/>
<path id="N" d="M 67002466.47 43774996.47 m -100354.75 0 a 100354.75 100354.75 0 1 1 200709.51 0a 100354.75 100354.75 0 1 1 -200709.51 0"/>
<path id="N" d="M 59222466.47 36914996.47 m -100354.75 0 a 100354.75 100354.75 0 1 1 200709.51 0a 100354.75 100354.75 0 1 1 -200709.51 0"/>
<path id="N" d="M 71698450.47 44144996.47 m -100354.75 0 a 100354.75 100354.75 0 1 1 200709.51 0a 100354.75 100354.75 0 1 1 -200709.51 0"/>
<path id="N" d="M 71442466.47 43894996.47 m -100354.75 0 a 100354.75 100354.75 0 1 1 200709.51 0a 100354.75 100354.75 0 1 1 -200709.51 0"/>
<path id="N" d="M 65412466.47 43764996.47 m -100354.75 0 a 100354.75 100354.75 0 1 1 200709.51 0a 100354.75 100354.75 0 1 1 -200709.51 0"/>
<path id="N" d="M 71442466.47 44144996.47 m -100354.75 0 a 100354.75 100354.75 0 1 1 200709.51 0a 100354.75 100354.75 0 1 1 -200709.51 0"/>
<path id="N" d="M 72292466.47 36314996.47 m -100354.75 0 a 100354.75 100354.75 0 1 1 200709.51 0a 100354.75 100354.75 0 1 1 -200709.51 0"/>
<path id="N" d="M 65439554.47 36890744.47 m -100354.75 0 a 100354.75 100354.75 0 1 1 200709.51 0a 100354.75 100354.75 0 1 1 -200709.51 0"/>
<path id="N" d="M 70382466.47 36890744.47 m -100354.75 0 a 100354.75 100354.75 0 1 1 200709.51 0a 100354.75 100354.75 0 1 1 -200709.51 0"/>
<path id="N" d="M 65842530.47 38005060.47 m -100354.75 0 a 100354.75 100354.75 0 1 1 200709.51 0a 100354.75 100354.75 0 1 1 -200709.51 0"/>
<path id="N" d="M 71917468.47 38059997.47 m -100354.75 0 a 100354.75 100354.75 0 1 1 200709.51 0a 100354.75 100354.75 0 1 1 -200709.51 0"/>
<path id="N" d="M 54379554.47 36914996.47 m -100354.75 0 a 100354.75 100354.75 0 1 1 200709.51 0a 100354.75 100354.75 0 1 1 -200709.51 0"/>
<path id="N" d="M 75543607.00 36496595.00 L 75540877.77 36492510.43 L 75805429.00 36227960.00 L 75814940.00 36204998.00 L 75814940.00 29654998.00 L 75805429.00 29632037.00 L 75565429.00 29392037.00 L 75542468.00 29382526.00 L 73612468.00 29382526.00 L 73589507.00 29392037.00 L 73349507.00 29632037.00 L 73339996.00 29654998.00 L 73339996.00 30051104.22 L 73334065.00 30052284.00 A 100354.75 100354.75 0 1 0 73410871.00 30052284.00 L 73404940.00 30051104.22 L 73404940.00 29668448.00 L 73625918.00 29447470.00 L 75529018.00 29447470.00 L 75749996.00 29668448.00 L 75749996.00 36191547.03 L 75495268.85 36446274.95 L 75489296.00 36442284.00 A 100349.83 100349.83 0 1 0 75543607.00 36496595.00  z"/>
<path id="N" d="M 71695429.00 46837959.00 L 72805429.00 45727959.00 L 72814940.00 45704998.00 L 72814940.00 42388891.78 L 72820871.00 42387712.00 A 100354.75 100354.75 0 1 0 72744065.00 42387712.00 L 72749996.00 42388891.78 L 72749996.00 45691548.00 L 71659018.00 46782526.00 L 64342607.00 46782526.00 L 63274940.00 45714859.00 L 63274940.00 39068309.00 L 63265429.00 39045348.00 L 60754940.00 36534859.00 L 60754940.00 36258891.78 L 60760871.00 36257712.00 A 100354.75 100354.75 0 0 0 60760871.00 36072284.00 L 60754940.00 36071104.22 L 60754940.00 35734011.00 L 63253854.00 33235097.00 L 63263365.00 33212136.00 L 63263365.00 30608891.78 L 63269296.00 30607712.00 A 100354.75 100354.75 0 1 0 63192490.00 30607712.00 L 63198421.00 30608891.78 L 63198421.00 33198686.00 L 60699507.00 35697600.00 L 60689996.00 35720561.00 L 60689996.00 36071104.22 L 60684065.00 36072284.00 A 100354.75 100354.75 0 0 0 60684065.00 36257712.00 L 60689996.00 36258891.78 L 60689996.00 36548309.00 L 60699507.00 36571270.00 L 63209996.00 39081759.00 L 63209996.00 45728309.00 L 63219507.00 45751270.00 L 64306196.00 46837959.00 L 64329157.00 46847470.00 L 71672468.00 46847470.00 L 71695429.00 46837959.00  z"/>
<path id="N" d="M 75022446.00 41092284.00 L 75016515.00 41091104.22 L 75016515.00 38192436.00 L 75105429.00 38103522.00 L 75114940.00 38080561.00 L 75114940.00 30214998.00 L 75105429.00 30192037.00 L 74781821.83 29868429.83 L 74785182.00 29863401.00 A 100349.83 100349.83 0 1 0 74730871.00 29917712.00 L 74735899.83 29914351.83 L 75049996.00 30228448.00 L 75049996.00 35094810.00 L 70041659.98 35094810.00 L 69574940.00 34628090.98 L 69574940.00 33266966.00 L 69565429.00 33244005.00 L 69195838.83 32874414.83 L 69199199.00 32869386.00 A 100349.83 100349.83 0 1 0 69144888.00 32923697.00 L 69149916.83 32920336.83 L 69509996.00 33280416.00 L 69509996.00 34641541.00 L 69519507.00 34664502.00 L 70005248.00 35150244.00 L 70028209.00 35159754.00 L 75049996.00 35159754.00 L 75049996.00 38067111.00 L 74961082.00 38156025.00 L 74951571.00 38178986.00 L 74951571.00 41091104.22 L 74945640.00 41092284.00 A 100354.75 100354.75 0 1 0 75022446.00 41092284.00  z"/>
<path id="N" d="M 60179754.00 36126595.00 L 60178574.22 36132526.00 L 59385918.00 36132526.00 L 58523365.00 35269973.00 L 58523365.00 33321847.00 L 58513854.00 33298886.00 L 58111821.83 32896854.83 L 58115182.00 32891826.00 A 100349.83 100349.83 0 1 0 58060871.00 32946137.00 L 58065899.83 32942776.83 L 58458421.00 33335297.00 L 58458421.00 35283423.00 L 58467932.00 35306384.00 L 59349507.00 36187959.00 L 59372468.00 36197470.00 L 60178574.22 36197470.00 L 60179754.00 36203401.00 A 100354.75 100354.75 0 1 0 60179754.00 36126595.00  z"/>
<path id="N" d="M 74112466.47 30184996.47 m -100354.75 0 a 100354.75 100354.75 0 1 1 200709.51 0a 100354.75 100354.75 0 1 1 -200709.51 0"/>
<path id="N" d="M 75332517.00 23682902.00 L 75322517.00 23672902.00 L 75289439.00 23650800.00 L 75250421.00 23643039.00 L 70762468.00 23643039.00 L 70723450.00 23650800.00 L 70690372.00 23672902.00 L 70680372.00 23682902.00 A 101958.15 101958.15 0 0 0 70791486.00 23849196.00 L 70794836.90 23846957.00 L 75218052.10 23846957.00 L 75221403.00 23849196.00 A 101960.92 101960.92 0 0 0 75332517.00 23682902.00  z"/>
<path id="N" d="M 64732652.00 24496957.00 A 101953.65 101953.65 0 1 0 64732284.00 24293039.00 L 59182284.00 24303039.00 A 101953.65 101953.65 0 0 0 59182652.00 24506957.00 L 64732652.00 24496957.00  z"/>
<path id="N" d="M 72526560.47 31640744.47 m -100354.75 0 a 100354.75 100354.75 0 1 1 200709.51 0a 100354.75 100354.75 0 1 1 -200709.51 0"/>
<path id="N" d="M 66345461.47 32440744.47 m -100354.75 0 a 100354.75 100354.75 0 1 1 200709.51 0a 100354.75 100354.75 0 1 1 -200709.51 0"/>
<path id="N" d="M 73432466.47 31390744.47 m -100354.75 0 a 100354.75 100354.75 0 1 1 200709.51 0a 100354.75 100354.75 0 1 1 -200709.51 0"/>
<path id="N" d="M 54422466.47 31540746.47 m -100354.75 0 a 100354.75 100354.75 0 1 1 200709.51 0a 100354.75 100354.75 0 1 1 -200709.51 0"/>
<path id="N" d="M 62322466.47 31390746.47 m -100354.75 0 a 100354.75 100354.75 0 1 1 200709.51 0a 100354.75 100354.75 0 1 1 -200709.51 0"/>
<path id="N" d="M 65532466.47 31540744.47 m -100354.75 0 a 100354.75 100354.75 0 1 1 200709.51 0a 100354.75 100354.75 0 1 1 -200709.51 0"/>
<path id="N" d="M 59272466.47 29513421.47 m -100354.75 0 a 100354.75 100354.75 0 1 1 200709.51 0a 100354.75 100354.75 0 1 1 -200709.51 0"/>
<path id="N" d="M 55235461.47 32464996.47 m -100354.75 0 a 100354.75 100354.75 0 1 1 200709.51 0a 100354.75 100354.75 0 1 1 -200709.51 0"/>
<path id="N" d="M 54422466.47 33940746.47 m -100354.75 0 a 100354.75 100354.75 0 1 1 200709.51 0a 100354.75 100354.75 0 1 1 -200709.51 0"/>
<path id="N" d="M 68812466.47 38314996.47 m -100354.75 0 a 100354.75 100354.75 0 1 1 200709.51 0a 100354.75 100354.75 0 1 1 -200709.51 0"/>
<path id="N" d="M 65532466.47 33940744.47 m -100354.75 0 a 100354.75 100354.75 0 1 1 200709.51 0a 100354.75 100354.75 0 1 1 -200709.51 0"/>
<path id="N" d="M 59522466.47 32690746.47 m -100354.75 0 a 100354.75 100354.75 0 1 1 200709.51 0a 100354.75 100354.75 0 1 1 -200709.51 0"/>
<path id="N" d="M 63227746.47 37474997.47 m -100354.75 0 a 100354.75 100354.75 0 1 1 200709.51 0a 100354.75 100354.75 0 1 1 -200709.51 0"/>
<path id="N" d="M 67012466.47 44354996.47 m -100354.75 0 a 100354.75 100354.75 0 1 1 200709.51 0a 100354.75 100354.75 0 1 1 -200709.51 0"/>
<path id="N" d="M 62957746.47 37474997.47 m -100354.75 0 a 100354.75 100354.75 0 1 1 200709.51 0a 100354.75 100354.75 0 1 1 -200709.51 0"/>
<path id="N" d="M 63862466.47 38520902.47 m -100354.75 0 a 100354.75 100354.75 0 1 1 200709.51 0a 100354.75 100354.75 0 1 1 -200709.51 0"/>
<path id="N" d="M 65422466.47 44364996.47 m -100354.75 0 a 100354.75 100354.75 0 1 1 200709.51 0a 100354.75 100354.75 0 1 1 -200709.51 0"/>
<path id="N" d="M 59522466.47 33940746.47 m -100354.75 0 a 100354.75 100354.75 0 1 1 200709.51 0a 100354.75 100354.75 0 1 1 -200709.51 0"/>
<path id="N" d="M 74392466.47 34844996.47 m -100354.75 0 a 100354.75 100354.75 0 1 1 200709.51 0a 100354.75 100354.75 0 1 1 -200709.51 0"/>
<path id="N" d="M 70402466.47 34174996.47 m -100354.75 0 a 100354.75 100354.75 0 1 1 200709.51 0a 100354.75 100354.75 0 1 1 -200709.51 0"/>
<path id="N" d="M 58772466.47 35990746.47 m -100354.75 0 a 100354.75 100354.75 0 1 1 200709.51 0a 100354.75 100354.75 0 1 1 -200709.51 0"/>
<path id="N" d="M 55235461.47 32832921.47 m -100354.75 0 a 100354.75 100354.75 0 1 1 200709.51 0a 100354.75 100354.75 0 1 1 -200709.51 0"/>
<path id="N" d="M 66345461.47 32832919.47 m -100354.75 0 a 100354.75 100354.75 0 1 1 200709.51 0a 100354.75 100354.75 0 1 1 -200709.51 0"/>
<path id="N" d="M 69882466.47 35990744.47 m -100354.75 0 a 100354.75 100354.75 0 1 1 200709.51 0a 100354.75 100354.75 0 1 1 -200709.51 0"/>
<path id="N" d="M 70632466.47 32690744.47 m -100354.75 0 a 100354.75 100354.75 0 1 1 200709.51 0a 100354.75 100354.75 0 1 1 -200709.51 0"/>
<path id="N" d="M 62962466.47 36904996.47 m -100354.75 0 a 100354.75 100354.75 0 1 1 200709.51 0a 100354.75 100354.75 0 1 1 -200709.51 0"/>
<path id="N" d="M 55210865.47 21932872.47 m -100354.75 0 a 100354.75 100354.75 0 1 1 200709.51 0a 100354.75 100354.75 0 1 1 -200709.51 0"/>
<path id="N" d="M 73232466.47 23490744.47 m -100354.75 0 a 100354.75 100354.75 0 1 1 200709.51 0a 100354.75 100354.75 0 1 1 -200709.51 0"/>
<path id="N" d="M 55672466.47 23690746.47 m -100354.75 0 a 100354.75 100354.75 0 1 1 200709.51 0a 100354.75 100354.75 0 1 1 -200709.51 0"/>
<path id="N" d="M 66420577.47 21936887.47 m -100354.75 0 a 100354.75 100354.75 0 1 1 200709.51 0a 100354.75 100354.75 0 1 1 -200709.51 0"/>
<path id="N" d="M 66782466.47 23690744.47 m -100354.75 0 a 100354.75 100354.75 0 1 1 200709.51 0a 100354.75 100354.75 0 1 1 -200709.51 0"/>
<path id="N" d="M 61416560.47 31640746.47 m -100354.75 0 a 100354.75 100354.75 0 1 1 200709.51 0a 100354.75 100354.75 0 1 1 -200709.51 0"/>
<path id="N" d="M 74844041.47 31990744.47 m -100354.75 0 a 100354.75 100354.75 0 1 1 200709.51 0a 100354.75 100354.75 0 1 1 -200709.51 0"/>
<path id="N" d="M 62122466.47 23490746.47 m -100354.75 0 a 100354.75 100354.75 0 1 1 200709.51 0a 100354.75 100354.75 0 1 1 -200709.51 0"/>
<path id="N" d="M 63922466.47 31964996.47 m -100354.75 0 a 100354.75 100354.75 0 1 1 200709.51 0a 100354.75 100354.75 0 1 1 -200709.51 0"/>
<path id="N" d="M 63422466.47 37324996.47 m -100354.75 0 a 100354.75 100354.75 0 1 1 200709.51 0a 100354.75 100354.75 0 1 1 -200709.51 0"/>
<path id="N" d="M 63422466.47 37074996.47 m -100354.75 0 a 100354.75 100354.75 0 1 1 200709.51 0a 100354.75 100354.75 0 1 1 -200709.51 0"/>
<path id="N" d="M 72292466.47 36824996.47 m -100354.75 0 a 100354.75 100354.75 0 1 1 200709.51 0a 100354.75 100354.75 0 1 1 -200709.51 0"/>
<path id="N" d="M 63232466.47 36904996.47 m -100354.75 0 a 100354.75 100354.75 0 1 1 200709.51 0a 100354.75 100354.75 0 1 1 -200709.51 0"/>
<path id="N" d="M 64072466.47 28040746.47 m -100354.75 0 a 100354.75 100354.75 0 1 1 200709.51 0a 100354.75 100354.75 0 1 1 -200709.51 0"/>
<path id="N" d="M 70382466.47 29440744.47 m -100354.75 0 a 100354.75 100354.75 0 1 1 200709.51 0a 100354.75 100354.75 0 1 1 -200709.51 0"/>
<path id="N" d="M 54422466.47 29140746.47 m -100354.75 0 a 100354.75 100354.75 0 1 1 200709.51 0a 100354.75 100354.75 0 1 1 -200709.51 0"/>
<path id="N" d="M 75182466.47 28040744.47 m -100354.75 0 a 100354.75 100354.75 0 1 1 200709.51 0a 100354.75 100354.75 0 1 1 -200709.51 0"/>
<path id="N" d="M 65532466.47 29140744.47 m -100354.75 0 a 100354.75 100354.75 0 1 1 200709.51 0a 100354.75 100354.75 0 1 1 -200709.51 0"/>
<path id="N" d="M 65815182.00 40603401.00 L 65816361.78 40597470.00 L 67772468.00 40597470.00 L 67795429.00 40587959.00 L 68243418.00 40139970.00 L 68881366.22 40139970.00 L 68882546.00 40145901.00 A 100354.75 100354.75 0 1 0 68882546.00 40069095.00 L 68881366.22 40075026.00 L 68229968.00 40075026.00 L 68207007.00 40084537.00 L 67759018.00 40532526.00 L 65816361.78 40532526.00 L 65815182.00 40526595.00 A 100354.75 100354.75 0 1 0 65815182.00 40603401.00  z"/>
<path id="N" d="M 71832118.00 47167959.00 L 74125430.00 44874648.00 L 74134940.00 44851687.00 L 74134940.00 41914993.17 L 74163428.00 41895958.00 A 100353.26 100353.26 0 1 0 74054065.00 41917712.00 L 74069996.00 41920880.94 L 74069996.00 44838236.00 L 71795707.00 47112526.00 L 64205918.00 47112526.00 L 62944940.00 45851548.00 L 62944940.00 39204998.00 L 62935429.00 39182037.00 L 61445429.00 37692037.00 L 61422468.00 37682526.00 L 54055918.00 37682526.00 L 53354940.00 36981548.00 L 53354940.00 22238448.00 L 53963041.62 21630346.38 L 53974065.00 21637712.00 A 100349.83 100349.83 0 1 0 53919486.71 21582057.29 L 53299507.00 22202037.00 L 53289996.00 22224998.00 L 53289996.00 36994998.00 L 53299507.00 37017959.00 L 54019507.00 37737959.00 L 54042468.00 37747470.00 L 61409018.00 37747470.00 L 62879996.00 39218448.00 L 62879996.00 45864998.00 L 62889507.00 45887959.00 L 64169507.00 47167959.00 L 64192468.00 47177470.00 L 71809157.00 47177470.00 L 71832118.00 47167959.00  z"/>
<path id="N" d="M 63491853.00 45564038.00 L 63474940.00 45552737.04 L 63474940.00 39112746.00 L 63465429.00 39089785.00 L 60944940.00 36569296.00 L 60944940.00 35928891.78 L 60950871.00 35927712.00 A 100354.75 100354.75 0 1 0 60874065.00 35927712.00 L 60879996.00 35928891.78 L 60879996.00 36582746.00 L 60889507.00 36605707.00 L 63409996.00 39126196.00 L 63409996.00 45536812.60 L 63382490.00 45542284.00 A 100354.75 100354.75 0 1 0 63491853.00 45564038.00  z"/>
<path id="N" d="M 64328476.00 26905220.00 L 64327457.00 26904201.00 L 65464127.57 25766310.49 L 65597040.00 25657232.00 L 65752523.00 25574124.00 L 65921231.00 25522947.00 L 66092344.37 25506094.21 L 69502591.63 25506094.21 L 69673705.00 25522947.00 L 69842413.00 25574124.00 L 69997896.00 25657232.00 L 70130808.43 25766310.49 L 70700372.00 26337094.00 A 101958.15 101958.15 0 1 0 70844564.00 26192902.00 L 70277457.00 25625795.00 L 70278476.00 25624776.00 A 1103374.91 1103374.91 0 0 0 69498254.00 25301597.00 L 69498254.00 25303039.00 L 66096682.00 25303039.00 L 66096682.00 25301597.00 A 1103439.71 1103439.71 0 0 0 65316460.00 25624776.00 L 65317479.00 25625795.00 L 64180808.43 26763685.51 L 64047896.00 26872764.00 L 63892413.00 26955872.00 L 63723705.00 27007049.00 L 63552591.63 27023901.79 L 61392468.00 27023039.00 A 101958.15 101958.15 0 1 0 61392468.00 27226957.00 L 63548254.00 27226957.00 L 63548254.00 27228399.00 A 1103348.93 1103348.93 0 0 0 64328476.00 26905220.00  z"/>
<path id="N" d="M 68356757.00 42073401.00 L 68357936.78 42067470.00 L 69212468.00 42067470.00 L 69235429.00 42057959.00 L 69309036.17 41984351.83 L 69314065.00 41987712.00 A 100349.83 100349.83 0 1 0 69259754.00 41933401.00 L 69263114.17 41938429.83 L 69199018.00 42002526.00 L 68357936.78 42002526.00 L 68356757.00 41996595.00 A 100354.75 100354.75 0 1 0 68356757.00 42073401.00  z"/>
<path id="N" d="M 68357020.00 41218683.00 L 68360941.25 41198970.00 L 68452731.00 41198970.00 L 68475692.00 41189459.00 L 68567681.00 41097470.00 L 69178574.22 41097470.00 L 69179754.00 41103401.00 A 100354.75 100354.75 0 1 0 69179754.00 41026595.00 L 69178574.22 41032526.00 L 68554231.00 41032526.00 L 68531270.00 41042037.00 L 68439281.00 41134026.00 L 68351774.10 41134026.00 L 68335266.00 41109320.00 A 100353.26 100353.26 0 1 0 68357020.00 41218683.00  z"/>
<path id="N" d="M 67045430.00 40287959.00 L 67385919.00 39947470.00 L 69148574.22 39947470.00 L 69149754.00 39953401.00 A 100354.75 100354.75 0 1 0 69149754.00 39876595.00 L 69148574.22 39882526.00 L 67372469.00 39882526.00 L 67349508.00 39892037.00 L 67009019.00 40232526.00 L 66685918.00 40232526.00 L 66572052.00 40118660.00 L 66572052.00 40090528.48 L 66585790.00 40081349.00 A 100353.26 100353.26 0 1 0 66476427.00 40103103.00 L 66507108.00 40109205.96 L 66507108.00 40132110.00 L 66516619.00 40155071.00 L 66649507.00 40287959.00 L 66672468.00 40297470.00 L 67022469.00 40297470.00 L 67045430.00 40287959.00  z"/>
<path id="N" d="M 66713428.00 44934038.00 L 66701790.00 44926261.70 L 66701790.00 41680364.00 L 66692279.00 41657403.00 L 66537006.83 41502130.83 L 66540367.00 41497102.00 A 100349.83 100349.83 0 1 0 66486056.00 41551413.00 L 66491084.83 41548052.83 L 66636846.00 41693814.00 L 66636846.00 44905763.31 L 66604065.00 44912284.00 A 100354.75 100354.75 0 1 0 66713428.00 44934038.00  z"/>
<path id="N" d="M 74959756.00 22886595.00 L 74958576.22 22892526.00 L 63786361.78 22892526.00 L 63785182.00 22886595.00 A 100354.75 100354.75 0 1 0 63785182.00 22963401.00 L 63786361.78 22957470.00 L 74958576.22 22957470.00 L 74959756.00 22963401.00 A 100354.75 100354.75 0 1 0 74959756.00 22886595.00  z"/>
<path id="N" d="M 65230871.00 46312284.00 L 65214940.00 46309115.06 L 65214940.00 40366287.17 L 65243428.00 40347252.00 A 100353.26 100353.26 0 1 0 65134065.00 40369006.00 L 65149996.00 40372174.94 L 65149996.00 46315002.83 L 65121508.00 46334038.00 A 100353.26 100353.26 0 1 0 65230871.00 46312284.00  z"/>
<path id="N" d="M 74002821.00 45574998.00 L 73998687.09 45554215.91 L 74525429.00 45027474.00 L 74534940.00 45004513.00 L 74534940.00 38207322.00 L 74745429.00 37996833.00 L 74754940.00 37973872.00 L 74754940.00 36534998.00 L 74745429.00 36512037.00 L 74305429.00 36072037.00 L 74282468.00 36062526.00 L 73746361.78 36062526.00 L 73745182.00 36056595.00 A 100354.75 100354.75 0 1 0 73745182.00 36133401.00 L 73746361.78 36127470.00 L 74269018.00 36127470.00 L 74689996.00 36548448.00 L 74689996.00 37960422.00 L 74479507.00 38170911.00 L 74469996.00 38193872.00 L 74469996.00 44991063.00 L 73963592.74 45497466.26 L 73940871.00 45482284.00 A 100349.83 100349.83 0 1 0 74002821.00 45574998.00  z"/>
<path id="N" d="M 73688094.00 37205570.00 L 73685026.70 37220990.00 L 70365508.00 37220990.00 L 65708130.00 32563612.00 L 65685169.00 32554101.00 L 64907493.00 32554101.00 L 64564940.00 32211548.00 L 64564940.00 29744998.00 L 64555429.00 29722037.00 L 64145429.00 29312037.00 L 64122468.00 29302526.00 L 57642468.00 29302526.00 L 57619507.00 29312037.00 L 57219507.00 29712037.00 L 57209996.00 29734998.00 L 57209996.00 32701104.22 L 57204065.00 32702284.00 A 100354.75 100354.75 0 1 0 57280871.00 32702284.00 L 57274940.00 32701104.22 L 57274940.00 29748448.00 L 57655918.00 29367470.00 L 64109018.00 29367470.00 L 64499996.00 29758448.00 L 64499996.00 32224998.00 L 64509507.00 32247959.00 L 64871082.00 32609534.00 L 64894043.00 32619045.00 L 65671719.00 32619045.00 L 70329097.00 37276423.00 L 70352058.00 37285934.00 L 73690471.39 37285934.00 L 73709848.00 37314933.00 A 100353.26 100353.26 0 1 0 73688094.00 37205570.00  z"/>
<path id="N" d="M 65754940.00 45753427.83 L 65754940.00 42304998.00 L 65745429.00 42282037.00 L 65581821.83 42118429.83 L 65585182.00 42113401.00 A 100349.83 100349.83 0 1 0 65530871.00 42167712.00 L 65535899.83 42164351.83 L 65689996.00 42318448.00 L 65689996.00 45747540.06 L 65674065.00 45750709.00 A 100354.75 100354.75 0 1 0 65754940.00 45753427.83  z"/>
<path id="N" d="M 67935182.00 42473401.00 L 67936361.78 42467470.00 L 69132468.00 42467470.00 L 69155429.00 42457959.00 L 69399036.17 42214351.83 L 69404065.00 42217712.00 A 100349.83 100349.83 0 1 0 69349754.00 42163401.00 L 69353114.17 42168429.83 L 69119018.00 42402526.00 L 67936361.78 42402526.00 L 67935182.00 42396595.00 A 100354.75 100354.75 0 1 0 67935182.00 42473401.00  z"/>
<path id="N" d="M 68356757.00 41712378.00 L 68357936.78 41706447.00 L 68926459.00 41706447.00 L 68949420.00 41696936.00 L 69006837.15 41639518.85 L 69034065.00 41657712.00 A 100349.83 100349.83 0 1 0 68972115.00 41564998.00 L 68975001.73 41579510.27 L 68913009.00 41641503.00 L 68357936.78 41641503.00 L 68356757.00 41635572.00 A 100354.75 100354.75 0 1 0 68356757.00 41712378.00  z"/>
<path id="N" d="M 72941800.26 17990748.70 m -496370.60 0 a 496370.60 496370.60 0 1 1 992741.20 0a 496370.60 496370.60 0 1 1 -992741.20 0M 72941799.00 17990745.99 m -297823.01 0 a 297823.01 297823.01 0 1 1 595646.03 0a 297823.01 297823.01 0 1 1 -595646.03 0"/>
<path id="N" d="M 64644940.00 45925002.83 L 64644940.00 42560880.94 L 64660871.00 42557712.00 A 100354.75 100354.75 0 1 0 64551508.00 42535958.00 L 64579996.00 42554993.17 L 64579996.00 45919115.06 L 64564065.00 45922284.00 A 100354.75 100354.75 0 1 0 64644940.00 45925002.83  z"/>
<path id="N" d="M 74053428.00 27869786.00 L 74036588.00 27858533.82 L 74036578.82 27740723.83 A 854093.52 854093.52 0 0 0 73182468.00 26886626.00 L 70436021.00 26886626.00 L 70430200.71 26889036.76 L 70279477.00 26874192.00 L 70128949.00 26828530.00 L 69990222.00 26754378.00 L 69873148.45 26658299.43 L 69870735.29 26652476.29 L 69363630.00 26145370.00 L 69237337.00 26038651.00 L 69096418.00 25952296.00 L 68943725.00 25889049.00 L 68783018.00 25850466.00 L 68618254.00 25836626.00 L 67314680.18 25836626.00 L 67303428.00 25819786.00 A 100353.26 100353.26 0 1 0 67303428.00 25961706.00 L 67314680.18 25944866.00 L 68618254.00 25944866.00 L 68625455.20 25941883.27 L 68803506.00 25959420.00 L 68981639.00 26013456.00 L 69145808.00 26101206.00 L 69284108.71 26214705.91 L 69287092.00 26221908.00 L 69794021.00 26729193.00 A 907926.39 907926.39 0 0 0 70436021.00 26994866.00 L 73182468.00 26994866.00 L 73187783.11 26992664.48 L 73328514.00 27006525.00 L 73468947.00 27049125.00 L 73598371.00 27118304.00 L 73707681.31 27208012.05 L 73709884.00 27213330.00 L 73715201.95 27215532.69 L 73804910.00 27324843.00 L 73874089.00 27454267.00 L 73916689.00 27594700.00 L 73930549.52 27735430.89 L 73928348.00 27740746.00 L 73928348.00 27858533.82 L 73911508.00 27869786.00 A 100353.26 100353.26 0 1 0 74053428.00 27869786.00  z"/>
<path id="N" d="M 65082468.00 24644998.00 L 64612468.00 24644998.00 L 64612468.00 25474998.00 L 56102468.00 25474998.00 L 56102468.00 25204998.00 L 55822468.00 25204998.00 L 55822468.00 25474998.00 L 53952468.00 25474998.00 L 53952468.00 24624998.00 L 53532468.00 24624998.00 L 53532466.00 25724997.00 L 65082469.00 25724999.00 L 65082468.00 24644998.00  z"/>
<path id="N" d="M 56801508.00 24619788.00 L 56790255.82 24636628.00 L 55754680.18 24636628.00 L 55743428.00 24619788.00 A 100353.26 100353.26 0 1 0 55743428.00 24761708.00 L 55754680.18 24744868.00 L 56790255.82 24744868.00 L 56801508.00 24761708.00 A 100353.26 100353.26 0 1 0 56801508.00 24619788.00  z"/>
<path id="N" d="M 75489296.00 36092284.00 L 75483365.00 36091104.22 L 75483365.00 29879363.73 L 75503428.00 29865958.00 A 100353.26 100353.26 0 1 0 75394065.00 29887712.00 L 75418421.00 29892556.82 L 75418421.00 36091104.22 L 75412490.00 36092284.00 A 100354.75 100354.75 0 1 0 75489296.00 36092284.00  z"/>
<path id="N" d="M 66180871.00 45363859.00 L 66174940.00 45362679.22 L 66174940.00 42184998.00 L 66165429.00 42162037.00 L 65911821.83 41908429.83 L 65915182.00 41903401.00 A 100349.83 100349.83 0 1 0 65860871.00 41957712.00 L 65865899.83 41954351.83 L 66109996.00 42198448.00 L 66109996.00 45362679.22 L 66104065.00 45363859.00 A 100354.75 100354.75 0 1 0 66180871.00 45363859.00  z"/>
<path id="N" d="M 62860871.00 32401183.00 L 62854940.00 32400003.22 L 62854940.00 31940747.00 L 62856271.00 31940747.00 A 1233778.08 1233778.08 0 0 0 61815478.00 30722135.00 L 61717586.07 30714430.81 L 61715182.00 30702345.00 A 100354.75 100354.75 0 0 0 61584065.00 30648034.00 L 61579036.17 30651394.17 L 61542572.00 30614930.00 L 61544348.00 30613154.00 A 1034983.13 1034983.13 0 0 0 60812504.00 30310014.00 L 60812504.00 30312526.00 L 58524340.00 30312526.00 L 58524340.00 30310445.00 L 58386603.00 30328578.00 L 58258252.00 30381743.00 L 58224849.02 30407373.86 L 58210871.00 30398034.00 A 100349.83 100349.83 0 1 0 58272821.00 30490748.00 L 58266219.40 30457560.22 L 58291033.00 30438520.00 L 58403571.00 30391905.00 L 58521658.05 30376359.07 L 58524340.00 30377470.00 L 60812504.00 30377470.00 L 60816679.80 30375740.28 L 61001677.00 30393961.00 L 61183580.00 30449141.00 L 61351223.00 30538748.00 L 61494920.15 30656675.87 L 61496650.00 30660852.00 L 61533114.17 30697316.17 L 61529754.00 30702345.00 A 100349.83 100349.83 0 0 0 61714996.97 30779427.92 L 61805278.00 30786533.00 A 1168573.63 1168573.63 0 0 1 62790898.53 31938568.16 L 62789996.00 32400003.22 L 62784065.00 32401183.00 A 100354.75 100354.75 0 1 0 62860871.00 32401183.00  z"/>
<path id="N" d="M 68356388.00 40971833.00 L 68357567.78 40965902.00 L 68821551.00 40965902.00 L 68844512.00 40956391.00 L 68893433.00 40907470.00 L 69358574.22 40907470.00 L 69359754.00 40913401.00 A 100354.75 100354.75 0 1 0 69359754.00 40836595.00 L 69358574.22 40842526.00 L 68879983.00 40842526.00 L 68857022.00 40852037.00 L 68808101.00 40900958.00 L 68357567.78 40900958.00 L 68356388.00 40895027.00 A 100354.75 100354.75 0 1 0 68356388.00 40971833.00  z"/>
<path id="N" d="M 68893098.00 41537959.00 L 69052638.24 41378418.76 L 69059065.00 41382713.00 A 100349.83 100349.83 0 1 0 69004754.00 41328402.00 L 69007180.10 41332032.90 L 68856687.00 41482526.00 L 68529493.00 41482526.00 L 68476693.00 41429726.00 L 68453732.00 41420215.00 L 68364284.89 41420215.00 L 68358021.00 41388725.00 A 100354.75 100354.75 0 1 0 68336267.00 41498088.00 L 68344905.92 41485159.00 L 68440282.00 41485159.00 L 68493082.00 41537959.00 L 68516043.00 41547470.00 L 68870137.00 41547470.00 L 68893098.00 41537959.00  z"/>
<path id="N" d="M 71786555.00 47057959.00 L 73858192.00 44986322.00 L 73867703.00 44963361.00 L 73867703.00 41743895.50 L 73890871.00 41739287.00 A 100354.75 100354.75 0 1 0 73781508.00 41717533.00 L 73802759.00 41731732.53 L 73802759.00 44949911.00 L 71750144.00 47002526.00 L 64251481.00 47002526.00 L 63054940.00 45805985.00 L 63054940.00 39159435.00 L 63045429.00 39136474.00 L 61490992.00 37582037.00 L 61468031.00 37572526.00 L 54101481.00 37572526.00 L 53464940.00 36935985.00 L 53464940.00 22478448.00 L 54065918.00 21877470.00 L 54738574.22 21877470.00 L 54739754.00 21883401.00 A 100354.75 100354.75 0 1 0 54739754.00 21806595.00 L 54738574.22 21812526.00 L 54052468.00 21812526.00 L 54029507.00 21822037.00 L 53409507.00 22442037.00 L 53399996.00 22464998.00 L 53399996.00 36949435.00 L 53409507.00 36972396.00 L 54065070.00 37627959.00 L 54088031.00 37637470.00 L 61454581.00 37637470.00 L 62989996.00 39172885.00 L 62989996.00 45819435.00 L 62999507.00 45842396.00 L 64215070.00 47057959.00 L 64238031.00 47067470.00 L 71763594.00 47067470.00 L 71786555.00 47057959.00  z"/>
<path id="N" d="M 66912814.00 40048792.00 L 66913993.78 40042861.00 L 67121515.00 40042861.00 L 67144476.00 40033350.00 L 67580356.00 39597470.00 L 69148574.22 39597470.00 L 69149754.00 39603401.00 A 100354.75 100354.75 0 1 0 69149754.00 39526595.00 L 69148574.22 39532526.00 L 67566906.00 39532526.00 L 67543945.00 39542037.00 L 67108065.00 39977917.00 L 66913993.78 39977917.00 L 66912814.00 39971986.00 A 100354.75 100354.75 0 1 0 66912814.00 40048792.00  z"/>
<path id="N" d="M 74134403.00 37677959.00 L 74479035.57 37333326.43 L 74484065.00 37336687.00 A 100349.83 100349.83 0 1 0 74429754.00 37282376.00 L 74433113.77 37287404.23 L 74097992.00 37622526.00 L 70455918.00 37622526.00 L 65975429.00 33142037.00 L 65952468.00 33132526.00 L 65174792.00 33132526.00 L 64163365.00 32121099.00 L 64163365.00 29933423.00 L 64153854.00 29910462.00 L 63665429.00 29422037.00 L 63642468.00 29412526.00 L 62492468.00 29412526.00 L 62469507.00 29422037.00 L 62219507.00 29672037.00 L 62209996.00 29694998.00 L 62209996.00 30071104.22 L 62204065.00 30072284.00 A 100354.75 100354.75 0 1 0 62280871.00 30072284.00 L 62274940.00 30071104.22 L 62274940.00 29708448.00 L 62505918.00 29477470.00 L 63629018.00 29477470.00 L 64098421.00 29946873.00 L 64098421.00 32134549.00 L 64107932.00 32157510.00 L 65138381.00 33187959.00 L 65161342.00 33197470.00 L 65939018.00 33197470.00 L 70419507.00 37677959.00 L 70442468.00 37687470.00 L 74111442.00 37687470.00 L 74134403.00 37677959.00  z"/>
<path id="N" d="M 61831800.26 18015000.70 m -496370.60 0 a 496370.60 496370.60 0 1 1 992741.20 0a 496370.60 496370.60 0 1 1 -992741.20 0M 61831799.00 18014997.99 m -297823.01 0 a 297823.01 297823.01 0 1 1 595646.03 0a 297823.01 297823.01 0 1 1 -595646.03 0"/>
<path id="N" d="M 65615182.00 41303401.00 L 65616361.78 41297470.00 L 66178032.00 41297470.00 L 66200993.00 41287959.00 L 66561482.00 40927470.00 L 67909157.00 40927470.00 L 67932118.00 40917959.00 L 68131032.00 40719045.00 L 68951690.22 40719045.00 L 68952870.00 40724976.00 A 100354.75 100354.75 0 1 0 68952870.00 40648170.00 L 68951690.22 40654101.00 L 68117582.00 40654101.00 L 68094621.00 40663612.00 L 67895707.00 40862526.00 L 66548032.00 40862526.00 L 66525071.00 40872037.00 L 66164582.00 41232526.00 L 65616361.78 41232526.00 L 65615182.00 41226595.00 A 100354.75 100354.75 0 1 0 65615182.00 41303401.00  z"/>
<path id="N" d="M 65665182.00 40903401.00 L 65666361.78 40897470.00 L 66242474.00 40897470.00 L 66265435.00 40887959.00 L 66445924.00 40707470.00 L 67818031.00 40707470.00 L 67840992.00 40697959.00 L 68216099.00 40322852.00 L 69453192.22 40322852.00 L 69454372.00 40328783.00 A 100354.75 100354.75 0 1 0 69454372.00 40251977.00 L 69453192.22 40257908.00 L 68202649.00 40257908.00 L 68179688.00 40267419.00 L 67804581.00 40642526.00 L 66432474.00 40642526.00 L 66409513.00 40652037.00 L 66229024.00 40832526.00 L 65666361.78 40832526.00 L 65665182.00 40826595.00 A 100354.75 100354.75 0 1 0 65665182.00 40903401.00  z"/>
<path id="N" d="M 73970871.00 32401181.00 L 73964940.00 32400001.22 L 73964940.00 31940745.00 L 73966271.00 31940745.00 A 1233778.08 1233778.08 0 0 0 72925478.00 30722133.00 L 72827586.07 30714428.81 L 72825182.00 30702343.00 A 100354.75 100354.75 0 0 0 72694065.00 30648032.00 L 72689036.17 30651392.17 L 72652572.00 30614928.00 L 72654348.00 30613152.00 A 1034983.13 1034983.13 0 0 0 71922504.00 30310012.00 L 71922504.00 30312524.00 L 69634340.00 30312524.00 L 69634340.00 30310443.00 L 69496603.00 30328576.00 L 69368252.00 30381741.00 L 69334849.02 30407371.86 L 69320871.00 30398032.00 A 100349.83 100349.83 0 1 0 69382821.00 30490746.00 L 69376219.40 30457558.22 L 69401033.00 30438518.00 L 69513571.00 30391903.00 L 69631658.05 30376357.07 L 69634340.00 30377468.00 L 71922504.00 30377468.00 L 71926679.80 30375738.28 L 72111677.00 30393959.00 L 72293580.00 30449139.00 L 72461223.00 30538746.00 L 72604920.15 30656673.87 L 72606650.00 30660850.00 L 72643114.17 30697314.17 L 72639754.00 30702343.00 A 100349.83 100349.83 0 0 0 72824996.97 30779425.92 L 72915278.00 30786531.00 A 1168573.63 1168573.63 0 0 1 73900898.53 31938566.16 L 73899996.00 32400001.22 L 73894065.00 32401181.00 A 100354.75 100354.75 0 1 0 73970871.00 32401181.00  z"/>
<path id="N" d="M 73914065.00 21752284.00 L 73909035.57 21755644.57 L 72805428.00 20652037.00 L 72782467.00 20642526.00 L 67256361.78 20642526.00 L 67255182.00 20636595.00 A 100354.75 100354.75 0 1 0 67255182.00 20713401.00 L 67256361.78 20707470.00 L 72769017.00 20707470.00 L 73863113.77 21801566.77 L 73859754.00 21806595.00 A 100349.83 100349.83 0 1 0 73914065.00 21752284.00  z"/>
<path id="N" d="M 72452465.00 39614996.00 L 72922465.00 39144998.00 L 72922467.00 38844999.00 L 71352463.00 38844995.00 L 68622466.00 36114996.00 L 62992468.00 36114997.00 L 62992468.00 35814998.00 L 62112468.00 35814998.00 L 62112468.00 34894998.00 L 61692468.00 34894998.00 L 61602468.00 34984998.00 L 61602465.00 36664997.00 L 68372470.00 36664999.00 L 71832464.00 40124995.00 L 71832468.00 43674998.00 L 72452468.00 43674998.00 L 72452465.00 39614996.00  z"/>
<path id="N" d="M 71740992.00 46947959.00 L 73015429.00 45673522.00 L 73024940.00 45650561.00 L 73024940.00 41582870.11 L 73050871.00 41577712.00 A 100354.75 100354.75 0 1 0 72941508.00 41555958.00 L 72959996.00 41568311.35 L 72959996.00 45637111.00 L 71704581.00 46892526.00 L 64297044.00 46892526.00 L 63164940.00 45760422.00 L 63164940.00 39113872.00 L 63155429.00 39090911.00 L 60554940.00 36490422.00 L 60554940.00 35778448.00 L 63045429.00 33287959.00 L 63054940.00 33264998.00 L 63054940.00 30158891.78 L 63060871.00 30157712.00 A 100354.75 100354.75 0 1 0 62984065.00 30157712.00 L 62989996.00 30158891.78 L 62989996.00 33251548.00 L 60509018.00 35732526.00 L 59141481.00 35732526.00 L 58633365.00 35224410.00 L 58633365.00 33141092.00 L 58623854.00 33118131.00 L 58157760.00 32652037.00 L 58134799.00 32642526.00 L 57716361.78 32642526.00 L 57715182.00 32636595.00 A 100354.75 100354.75 0 1 0 57715182.00 32713401.00 L 57716361.78 32707470.00 L 58121349.00 32707470.00 L 58568421.00 33154542.00 L 58568421.00 35237860.00 L 58577932.00 35260821.00 L 59105070.00 35787959.00 L 59128031.00 35797470.00 L 60489996.00 35797470.00 L 60489996.00 36503872.00 L 60499507.00 36526833.00 L 63099996.00 39127322.00 L 63099996.00 45773872.00 L 63109507.00 45796833.00 L 64260633.00 46947959.00 L 64283594.00 46957470.00 L 71718031.00 46957470.00 L 71740992.00 46947959.00  z"/>
<path id="N" d="M 75255182.00 41356595.00 L 75251822.07 41351566.53 L 75295429.00 41307960.00 L 75304940.00 41284998.00 L 75304940.00 35538891.78 L 75310871.00 35537712.00 A 100354.75 100354.75 0 0 0 75310871.00 35352284.00 L 75304940.00 35351104.22 L 75304940.00 29974998.00 L 75295429.00 29952037.00 L 75181821.83 29838429.83 L 75185182.00 29833401.00 A 100349.83 100349.83 0 1 0 75130871.00 29887712.00 L 75135899.83 29884351.83 L 75239996.00 29988448.00 L 75239996.00 35351104.22 L 75234065.00 35352284.00 A 100354.75 100354.75 0 0 0 75234065.00 35537712.00 L 75239996.00 35538891.78 L 75239996.00 41271547.09 L 75205899.47 41305643.93 L 75200871.00 41302284.00 A 100349.83 100349.83 0 1 0 75255182.00 41356595.00  z"/>
<path id="N" d="M 74781594.00 35396860.00 L 74780414.22 35402791.00 L 70194077.00 35402791.00 L 69464940.00 34673654.00 L 69464940.00 33524998.00 L 69455429.00 33502037.00 L 68821598.83 32868206.83 L 68824959.00 32863178.00 A 100349.83 100349.83 0 1 0 68770648.00 32917489.00 L 68775676.83 32914128.83 L 69399996.00 33538448.00 L 69399996.00 34687104.00 L 69409507.00 34710065.00 L 70157666.00 35458224.00 L 70180627.00 35467735.00 L 74780414.22 35467735.00 L 74781594.00 35473666.00 A 100354.75 100354.75 0 1 0 74781594.00 35396860.00  z"/>
<path id="N" d="M 74695871.00 45327284.00 L 74676515.00 45323433.77 L 74676515.00 38221310.00 L 74855429.00 38042396.00 L 74864940.00 38019435.00 L 74864940.00 36489435.00 L 74855429.00 36466474.00 L 74180992.00 35792037.00 L 74158031.00 35782526.00 L 73535918.00 35782526.00 L 73434932.05 35681540.05 L 73445182.00 35666200.00 A 100349.83 100349.83 0 1 0 73352468.00 35728150.00 L 73383521.03 35721973.03 L 73499507.00 35837959.00 L 73522468.00 35847470.00 L 74144581.00 35847470.00 L 74799996.00 36502885.00 L 74799996.00 38005985.00 L 74621082.00 38184899.00 L 74611571.00 38207860.00 L 74611571.00 45332291.36 L 74586508.00 45349038.00 A 100353.26 100353.26 0 1 0 74695871.00 45327284.00  z"/>
<path id="N" d="M 67252446.00 46132284.00 L 67246515.00 46131104.22 L 67246515.00 41856573.00 L 67237004.00 41833612.00 L 66761821.83 41358429.83 L 66765182.00 41353401.00 A 100349.83 100349.83 0 1 0 66710871.00 41407712.00 L 66715899.83 41404351.83 L 67181571.00 41870023.00 L 67181571.00 46131104.22 L 67175640.00 46132284.00 A 100354.75 100354.75 0 1 0 67252446.00 46132284.00  z"/>
<path id="N" d="M 65465182.00 41103401.00 L 65466361.78 41097470.00 L 66222468.00 41097470.00 L 66245429.00 41087959.00 L 66515918.00 40817470.00 L 67863594.00 40817470.00 L 67886555.00 40807959.00 L 68184445.00 40510069.00 L 69141173.22 40510069.00 L 69142353.00 40516000.00 A 100354.75 100354.75 0 1 0 69142353.00 40439194.00 L 69141173.22 40445125.00 L 68170995.00 40445125.00 L 68148034.00 40454636.00 L 67850144.00 40752526.00 L 66502468.00 40752526.00 L 66479507.00 40762037.00 L 66209018.00 41032526.00 L 65466361.78 41032526.00 L 65465182.00 41026595.00 A 100354.75 100354.75 0 1 0 65465182.00 41103401.00  z"/>
</g>
</svg>
