<svg width="62.699646mm" height="85.80183754mm" viewBox="0 0 24684900 33780251"  version="1.1" xmlns="http://www.w3.org/2000/svg" xmlns:xlink="http://www.w3.org/1999/xlink">
<desc>
Origin 52372468 49564998 Bound 52372608 15784745 24684900 33780251
</desc>
<g fill-rule="evenodd" fill="rgb(128, 0, 0)" stroke="black" stroke-width="1" transform="translate(0, 33780251) scale(1, -1) translate(-52372608, -15784745)">
<path id="N" d="M 76856526.00 15985713.00 L 52573576.00 15985713.00 L 52573576.00 49364028.00 L 76856540.00 49364028.00 L 76856526.00 15985713.00  zM 54012469.60 21544985.94 m -139740.06 0 a 139740.06 139740.06 0 1 1 279480.11 0a 139740.06 139740.06 0 1 1 -279480.11 0M 54832469.60 21844985.94 m -139740.06 0 a 139740.06 139740.06 0 1 1 279480.11 0a 139740.06 139740.06 0 1 1 -279480.11 0M 55210868.60 21932861.94 m -139740.06 0 a 139740.06 139740.06 0 1 1 279480.11 0a 139740.06 139740.06 0 1 1 -279480.11 0M 55672469.60 24690735.94 m -139740.06 0 a 139740.06 139740.06 0 1 1 279480.11 0a 139740.06 139740.06 0 1 1 -279480.11 0M 53742469.60 24844987.94 m -139740.06 0 a 139740.06 139740.06 0 1 1 279480.11 0a 139740.06 139740.06 0 1 1 -279480.11 0M 53742469.60 25164987.94 m -139740.06 0 a 139740.06 139740.06 0 1 1 279480.11 0a 139740.06 139740.06 0 1 1 -279480.11 0M 53742469.60 25474987.94 m -139740.06 0 a 139740.06 139740.06 0 1 1 279480.11 0a 139740.06 139740.06 0 1 1 -279480.11 0M 54422469.60 29140735.94 m -139740.06 0 a 139740.06 139740.06 0 1 1 279480.11 0a 139740.06 139740.06 0 1 1 -279480.11 0M 55962469.60 25344985.94 m -139740.06 0 a 139740.06 139740.06 0 1 1 279480.11 0a 139740.06 139740.06 0 1 1 -279480.11 0M 62122469.60 23490735.94 m -139740.06 0 a 139740.06 139740.06 0 1 1 279480.11 0a 139740.06 139740.06 0 1 1 -279480.11 0M 63692469.60 22924985.94 m -139740.06 0 a 139740.06 139740.06 0 1 1 279480.11 0a 139740.06 139740.06 0 1 1 -279480.11 0M 63022469.60 30064985.94 m -139740.06 0 a 139740.06 139740.06 0 1 1 279480.11 0a 139740.06 139740.06 0 1 1 -279480.11 0M 64732469.60 24394985.94 m -139740.06 0 a 139740.06 139740.06 0 1 1 279480.11 0a 139740.06 139740.06 0 1 1 -279480.11 0M 64852469.60 24844985.94 m -139740.06 0 a 139740.06 139740.06 0 1 1 279480.11 0a 139740.06 139740.06 0 1 1 -279480.11 0M 64852469.60 25474985.94 m -139740.06 0 a 139740.06 139740.06 0 1 1 279480.11 0a 139740.06 139740.06 0 1 1 -279480.11 0M 64333977.60 29799037.94 m -139740.06 0 a 139740.06 139740.06 0 1 1 279480.11 0a 139740.06 139740.06 0 1 1 -279480.11 0M 54422469.60 31540735.94 m -139740.06 0 a 139740.06 139740.06 0 1 1 279480.11 0a 139740.06 139740.06 0 1 1 -279480.11 0M 55235464.60 32464985.94 m -139740.06 0 a 139740.06 139740.06 0 1 1 279480.11 0a 139740.06 139740.06 0 1 1 -279480.11 0M 55235464.60 32832910.94 m -139740.06 0 a 139740.06 139740.06 0 1 1 279480.11 0a 139740.06 139740.06 0 1 1 -279480.11 0M 54422469.60 33940735.94 m -139740.06 0 a 139740.06 139740.06 0 1 1 279480.11 0a 139740.06 139740.06 0 1 1 -279480.11 0M 57242469.60 32794985.94 m -139740.06 0 a 139740.06 139740.06 0 1 1 279480.11 0a 139740.06 139740.06 0 1 1 -279480.11 0M 57622469.60 32674985.94 m -139740.06 0 a 139740.06 139740.06 0 1 1 279480.11 0a 139740.06 139740.06 0 1 1 -279480.11 0M 58022469.60 32853410.94 m -139740.06 0 a 139740.06 139740.06 0 1 1 279480.11 0a 139740.06 139740.06 0 1 1 -279480.11 0M 60912469.60 35834985.94 m -139740.06 0 a 139740.06 139740.06 0 1 1 279480.11 0a 139740.06 139740.06 0 1 1 -279480.11 0M 61622469.60 30740735.94 m -139740.06 0 a 139740.06 139740.06 0 1 1 279480.11 0a 139740.06 139740.06 0 1 1 -279480.11 0M 62242469.60 30164985.94 m -139740.06 0 a 139740.06 139740.06 0 1 1 279480.11 0a 139740.06 139740.06 0 1 1 -279480.11 0M 62322469.60 31390735.94 m -139740.06 0 a 139740.06 139740.06 0 1 1 279480.11 0a 139740.06 139740.06 0 1 1 -279480.11 0M 63230894.60 30514985.94 m -139740.06 0 a 139740.06 139740.06 0 1 1 279480.11 0a 139740.06 139740.06 0 1 1 -279480.11 0M 61416563.60 31640735.94 m -139740.06 0 a 139740.06 139740.06 0 1 1 279480.11 0a 139740.06 139740.06 0 1 1 -279480.11 0M 63922469.60 31964985.94 m -139740.06 0 a 139740.06 139740.06 0 1 1 279480.11 0a 139740.06 139740.06 0 1 1 -279480.11 0M 62822469.60 32493884.94 m -139740.06 0 a 139740.06 139740.06 0 1 1 279480.11 0a 139740.06 139740.06 0 1 1 -279480.11 0M 61872468.00 35635476.60 A 133951.83 133951.83 0 0 1 61820097.00 35701178.00 A 139723.37 139723.37 0 1 1 61691989.40 35454998.00 A 133951.83 133951.83 0 0 1 61626288.00 35402627.00 A 139723.37 139723.37 0 0 1 61691989.40 35194998.00 A 133951.83 133951.83 0 0 1 61626288.00 35142627.00 A 139723.37 139723.37 0 1 1 61858648.00 34987369.00 L 61865399.31 35000000.00 L 61879536.69 35000000.00 L 61886288.00 34987369.00 A 139726.39 139726.39 0 1 1 62052946.60 35194998.00 A 133951.83 133951.83 0 0 1 62118648.00 35247369.00 A 139723.37 139723.37 0 0 1 62052946.60 35454998.00 A 133951.83 133951.83 0 0 1 62118648.00 35507369.00 A 139723.37 139723.37 0 1 1 61872468.00 35635476.60  zM 64852469.60 25164985.94 m -139740.06 0 a 139740.06 139740.06 0 1 1 279480.11 0a 139740.06 139740.06 0 1 1 -279480.11 0M 56522468.00 32334998.00 L 55752468.00 32334998.00 L 55752468.00 31764998.00 L 55352468.00 31764998.00 L 55352468.00 29801264.36 L 55285087.00 29706222.00 A 1407923.22 1407923.22 0 0 1 55061611.38 28946128.72 L 55061500.00 28318257.00 A 65254.55 65254.55 0 0 0 55042275.91 28268659.22 L 54935631.00 28162373.00 L 54877665.00 28108125.00 L 54814655.00 28059776.00 A 910432.02 910432.02 0 0 0 54450558.00 27908962.00 L 54420449.27 27904998.00 L 54092468.00 27904998.00 L 54092468.00 25914998.00 L 55232468.00 25914998.00 L 55232468.00 25974225.00 L 56132468.00 25974225.00 A 250720.11 250720.11 0 0 1 56246317.00 26001558.00 L 56462467.00 26115106.02 L 56462467.00 25569643.00 L 56298588.00 25405984.00 A 1457977.40 1457977.40 0 0 1 55875254.00 24479013.00 L 55871695.00 24374998.00 L 55871695.00 23574998.00 L 55750620.96 23574998.00 A 137997.70 137997.70 0 1 1 55594315.04 23574998.00 L 55402468.00 23574998.00 L 55402468.00 20514998.00 L 59021610.00 20514998.00 L 59021607.00 19464998.00 A 1608165.13 1608165.13 0 0 1 59492571.47 18327995.47 L 59564428.00 18255995.00 A 2360309.91 2360309.91 0 0 1 61233583.00 17564678.79 L 61972175.00 17564140.00 A 400849.33 400849.33 0 1 1 61965672.46 18365861.17 L 61929136.00 18378263.00 A 376019.87 376019.87 0 0 1 61734462.00 18378263.00 L 61698499.72 18366056.07 L 61233583.00 18366376.08 L 61122322.00 18369517.00 L 61011628.00 18381418.00 A 1559579.10 1559579.10 0 0 0 60212258.00 18746478.00 L 60136976.53 18816566.34 L 60059464.73 18894888.73 L 60005694.00 18952993.00 L 59958513.00 19016609.00 A 807159.75 807159.75 0 0 0 59826382.00 19385891.00 L 59822851.59 19457759.20 L 59823326.00 20514998.00 L 60972468.00 20514998.00 L 60972468.00 21464998.00 L 60735200.86 21464998.00 L 60714140.00 21522086.00 A 1265034.82 1265034.82 0 0 1 60507355.00 21859529.00 L 60459271.38 21911545.12 L 60541253.00 21975502.00 L 60606182.00 22034469.00 L 60678288.00 22111161.00 A 1190003.02 1190003.02 0 0 1 60959713.00 22790581.00 L 60963237.00 22883940.00 L 60963238.85 23844998.00 L 64592468.00 23844998.00 L 64592468.00 26120352.00 L 65171482.00 25541118.00 A 1457977.40 1457977.40 0 0 1 66098453.00 25117784.00 L 66202468.00 25114225.00 L 67151696.34 25114225.00 L 67109887.00 25043760.00 A 1458059.00 1458059.00 0 0 1 66935254.00 24449013.00 L 66931695.00 24344998.00 L 66931695.00 23584998.00 L 66872808.47 23584998.00 L 66881271.00 23591943.00 A 139724.48 139724.48 0 1 1 66683665.00 23591943.00 L 66692127.53 23584998.00 L 66542468.00 23584998.00 L 66542468.00 22003837.06 L 66536759.00 22014518.00 A 139726.39 139726.39 0 0 1 66474051.00 22065981.00 L 66451630.63 22072781.87 L 66461547.00 22080920.00 A 139724.48 139724.48 0 1 1 66309272.00 22050631.00 L 66331692.37 22043830.13 L 66321776.00 22035692.00 A 139724.48 139724.48 0 1 1 66536759.00 21859260.00 L 66542468.00 21869940.94 L 66542468.00 20484998.00 L 70081610.00 20484998.00 L 70081607.00 19434998.00 A 1608165.13 1608165.13 0 0 1 70552571.47 18297995.47 L 70624428.00 18225995.00 A 2360309.91 2360309.91 0 0 1 72293583.00 17534678.79 L 73032175.00 17534140.00 A 400849.33 400849.33 0 0 1 73136500.00 18322121.00 L 73105951.66 18328221.16 L 73085719.00 18338199.00 A 376165.09 376165.09 0 0 1 72844462.00 18354011.00 L 72793481.90 18336030.55 L 72293583.00 18336376.08 L 72182322.00 18339517.00 L 72071628.00 18351418.00 A 1559579.10 1559579.10 0 0 0 71272258.00 18716478.00 L 71196976.53 18786566.34 L 71119464.73 18864888.73 L 71065694.00 18922993.00 L 71018513.00 18986609.00 A 807159.75 807159.75 0 0 0 70886382.00 19355891.00 L 70882851.59 19427759.20 L 70883326.00 20484998.00 L 72032468.00 20484998.00 L 72032468.00 21434998.00 L 71795200.86 21434998.00 L 71774140.00 21492086.00 A 1265034.82 1265034.82 0 0 1 71567355.00 21829529.00 L 71519271.38 21881545.12 L 71601253.00 21945502.00 L 71666182.00 22004469.00 L 71738288.00 22081161.00 A 1190003.02 1190003.02 0 0 1 72019713.00 22760581.00 L 72023237.00 22853940.00 L 72023238.85 23814998.00 L 75134818.24 23814998.00 L 75131329.00 23808470.00 A 139740.06 139740.06 0 1 1 75389513.00 23808470.00 L 75386023.76 23814998.00 L 75652468.00 23814998.00 L 75652468.00 27874998.00 L 74104998.44 27874998.00 L 74111560.00 27887274.00 A 139740.06 139740.06 0 1 1 73853376.00 27887274.00 L 73859937.56 27874998.00 L 72002468.00 27874998.00 L 72002468.00 26745771.00 L 71152467.00 26745771.00 L 71152468.00 29292321.00 L 71872468.00 29292321.00 L 71872468.00 30682321.00 L 70742468.00 30682321.00 L 70742468.00 29384996.00 L 70510342.40 29384996.00 A 134703.88 134703.88 0 0 1 70519511.00 29468006.00 A 139723.37 139723.37 0 1 1 70254593.60 29384996.00 L 69245012.67 29384996.00 L 69206902.95 29419683.95 L 69151261.00 29480868.00 L 69107817.00 29539446.00 L 69070324.00 29602000.00 L 69040527.80 29664998.00 L 69252468.00 29664998.00 L 69252468.00 30354534.14 A 134299.70 134299.70 0 0 1 69335940.00 30361654.00 A 139724.48 139724.48 0 0 1 69252468.00 30626957.86 L 69252468.00 31734998.00 L 67582468.00 31734998.00 L 67582468.00 32304998.00 L 66812468.00 32304998.00 L 66812468.00 31734998.00 L 66412468.00 31734998.00 L 66412468.00 29731253.46 L 66395087.00 29706220.00 A 1407923.22 1407923.22 0 0 1 66171611.38 28946126.72 L 66171500.00 28318255.00 A 65254.55 65254.55 0 0 0 66152275.91 28268657.22 L 66045631.00 28162371.00 L 65987665.00 28108123.00 L 65924655.00 28059774.00 A 910432.02 910432.02 0 0 0 65560558.00 27908960.00 L 65530449.27 27904996.00 L 65202468.00 27904996.00 L 65202468.00 26219644.00 L 64592468.00 26829644.00 L 64592468.00 27904998.00 L 64103990.62 27904998.00 L 64125940.00 27911656.00 A 139724.48 139724.48 0 1 1 64018996.00 27911656.00 L 64040945.38 27904998.00 L 60942468.00 27904998.00 L 60942468.00 26775771.00 L 60092467.00 26775771.00 L 60092468.00 29364998.00 L 60762468.00 29364998.00 L 60762468.00 30754998.00 L 59632468.00 30754998.00 L 59632468.00 29450769.18 L 59623256.10 29438763.53 L 59569365.29 29384998.00 L 59327187.89 29384998.00 A 136116.06 136116.06 0 1 1 59194839.00 29397243.00 L 59217748.11 29384998.00 L 58231882.42 29384998.00 L 58213023.00 29396302.00 L 58156351.00 29438333.00 L 58107042.14 29483024.11 L 58090677.00 29499947.00 L 58041261.00 29553545.00 L 57997817.00 29612123.00 L 57960324.00 29674677.00 L 57950712.77 29694998.00 L 58192468.00 29694998.00 L 58192468.00 30352989.92 L 58199728.00 30353705.00 A 139723.37 139723.37 0 0 1 58199728.00 30627791.00 L 58192468.00 30628506.08 L 58192468.00 31764998.00 L 56522468.00 31764998.00 L 56522468.00 32334998.00  zM 65532469.60 29140733.94 m -139740.06 0 a 139740.06 139740.06 0 1 1 279480.11 0a 139740.06 139740.06 0 1 1 -279480.11 0M 65532469.60 31540733.94 m -139740.06 0 a 139740.06 139740.06 0 1 1 279480.11 0a 139740.06 139740.06 0 1 1 -279480.11 0M 66782469.60 24690733.94 m -139740.06 0 a 139740.06 139740.06 0 1 1 279480.11 0a 139740.06 139740.06 0 1 1 -279480.11 0M 66345464.60 32440733.94 m -139740.06 0 a 139740.06 139740.06 0 1 1 279480.11 0a 139740.06 139740.06 0 1 1 -279480.11 0M 66345464.60 32832908.94 m -139740.06 0 a 139740.06 139740.06 0 1 1 279480.11 0a 139740.06 139740.06 0 1 1 -279480.11 0M 65532469.60 33940733.94 m -139740.06 0 a 139740.06 139740.06 0 1 1 279480.11 0a 139740.06 139740.06 0 1 1 -279480.11 0M 73232469.60 23490733.94 m -139740.06 0 a 139740.06 139740.06 0 1 1 279480.11 0a 139740.06 139740.06 0 1 1 -279480.11 0M 72732469.60 30740733.94 m -139740.06 0 a 139740.06 139740.06 0 1 1 279480.11 0a 139740.06 139740.06 0 1 1 -279480.11 0M 68352469.60 32824762.94 m -139740.06 0 a 139740.06 139740.06 0 1 1 279480.11 0a 139740.06 139740.06 0 1 1 -279480.11 0M 72526563.60 31640733.94 m -139740.06 0 a 139740.06 139740.06 0 1 1 279480.11 0a 139740.06 139740.06 0 1 1 -279480.11 0M 68732246.60 32824762.94 m -139740.06 0 a 139740.06 139740.06 0 1 1 279480.11 0a 139740.06 139740.06 0 1 1 -279480.11 0M 69106486.60 32830970.94 m -139740.06 0 a 139740.06 139740.06 0 1 1 279480.11 0a 139740.06 139740.06 0 1 1 -279480.11 0M 70402469.60 34174985.94 m -139740.06 0 a 139740.06 139740.06 0 1 1 279480.11 0a 139740.06 139740.06 0 1 1 -279480.11 0M 73352469.60 35627784.94 m -139740.06 0 a 139740.06 139740.06 0 1 1 279480.11 0a 139740.06 139740.06 0 1 1 -279480.11 0M 73952469.60 21844985.94 m -139740.06 0 a 139740.06 139740.06 0 1 1 279480.11 0a 139740.06 139740.06 0 1 1 -279480.11 0M 75014969.60 22142485.94 m -139740.06 0 a 139740.06 139740.06 0 1 1 279480.11 0a 139740.06 139740.06 0 1 1 -279480.11 0M 75000000.00 23054393.94 L 74974841.00 23041178.00 L 74953667.00 23023801.00 L 74936290.00 23002627.00 L 74923378.00 22978470.00 L 74915427.00 22952258.00 L 74912742.00 22924998.00 L 74915427.00 22897738.00 L 74923378.00 22871526.00 L 74936290.00 22847369.00 L 74953667.00 22826195.00 L 74974841.00 22808818.00 L 74998998.00 22795906.00 L 75025210.00 22787955.00 L 75052470.00 22785270.00 L 75079730.00 22787955.00 L 75105942.00 22795906.00 L 75130099.00 22808818.00 L 75151273.00 22826195.00 L 75168650.00 22847369.00 L 75181562.00 22871526.00 L 75189513.00 22897738.00 L 75192198.00 22924998.00 L 75189513.00 22952258.00 L 75181562.00 22978470.00 L 75168650.00 23002627.00 L 75151273.00 23023801.00 L 75130099.00 23041178.00 L 75105942.00 23054090.00 L 75079730.00 23062041.00 L 75052470.00 23064726.00 L 75025210.00 23062041.00 L 75000000.00 23054393.94  zM 75182469.60 28040733.94 m -139740.06 0 a 139740.06 139740.06 0 1 1 279480.11 0a 139740.06 139740.06 0 1 1 -279480.11 0M 73372469.60 30144985.94 m -139740.06 0 a 139740.06 139740.06 0 1 1 279480.11 0a 139740.06 139740.06 0 1 1 -279480.11 0M 74692469.60 29824985.94 m -139740.06 0 a 139740.06 139740.06 0 1 1 279480.11 0a 139740.06 139740.06 0 1 1 -279480.11 0M 75092469.60 29794985.94 m -139740.06 0 a 139740.06 139740.06 0 1 1 279480.11 0a 139740.06 139740.06 0 1 1 -279480.11 0M 75432469.60 29794985.94 m -139740.06 0 a 139740.06 139740.06 0 1 1 279480.11 0a 139740.06 139740.06 0 1 1 -279480.11 0M 74112469.60 30184985.94 m -139740.06 0 a 139740.06 139740.06 0 1 1 279480.11 0a 139740.06 139740.06 0 1 1 -279480.11 0M 73432469.60 31390733.94 m -139740.06 0 a 139740.06 139740.06 0 1 1 279480.11 0a 139740.06 139740.06 0 1 1 -279480.11 0M 73932469.60 32493882.94 m -139740.06 0 a 139740.06 139740.06 0 1 1 279480.11 0a 139740.06 139740.06 0 1 1 -279480.11 0M 74844044.60 31990733.94 m -139740.06 0 a 139740.06 139740.06 0 1 1 279480.11 0a 139740.06 139740.06 0 1 1 -279480.11 0M 74392469.60 34844985.94 m -139740.06 0 a 139740.06 139740.06 0 1 1 279480.11 0a 139740.06 139740.06 0 1 1 -279480.11 0M 73669670.60 35627784.94 m -139740.06 0 a 139740.06 139740.06 0 1 1 279480.11 0a 139740.06 139740.06 0 1 1 -279480.11 0M 74874309.60 35435250.94 m -139740.06 0 a 139740.06 139740.06 0 1 1 279480.11 0a 139740.06 139740.06 0 1 1 -279480.11 0M 75272469.60 35444985.94 m -139740.06 0 a 139740.06 139740.06 0 1 1 279480.11 0a 139740.06 139740.06 0 1 1 -279480.11 0M 58772469.60 35990735.94 m -139740.06 0 a 139740.06 139740.06 0 1 1 279480.11 0a 139740.06 139740.06 0 1 1 -279480.11 0M 60272469.60 36164985.94 m -139740.06 0 a 139740.06 139740.06 0 1 1 279480.11 0a 139740.06 139740.06 0 1 1 -279480.11 0M 65732468.00 39864998.00 L 64822468.00 39864998.00 L 64822468.00 39254821.39 L 64819147.00 39181970.00 A 643101.03 643101.03 0 0 0 64676281.00 38837061.00 L 64636781.56 38793481.04 L 64428698.00 38585874.00 L 64367627.00 38528986.00 L 64301390.00 38478162.00 A 957026.00 957026.00 0 0 0 63835878.00 38308729.00 L 63758058.35 38305331.10 L 57202468.00 38305927.00 A 1458012.54 1458012.54 0 0 1 56247658.00 37949801.00 L 56171591.00 37878768.00 L 55875145.00 37582321.00 L 55851807.86 37554998.00 L 55572468.00 37554998.00 L 55572468.00 36334998.00 L 55362468.00 36334998.00 L 55362468.00 33644998.00 L 55742468.00 33644998.00 L 55742468.00 33124998.00 L 56522468.00 33124998.00 L 56522468.00 33564998.00 L 58034784.04 33564998.00 L 58046969.00 33547825.00 A 620959.02 620959.02 0 0 1 58532468.00 33314225.00 L 59632468.00 33314225.00 L 59632468.00 32775907.37 L 59621271.00 32789551.00 A 139724.48 139724.48 0 1 1 59621271.00 32591945.00 L 59632468.00 32605588.63 L 59632468.00 31974998.00 L 61702468.00 31974998.00 L 61702468.00 34764998.00 L 59632468.00 34764998.00 L 59632468.00 34025907.37 L 59621271.00 34039551.00 A 139724.48 139724.48 0 1 1 59461297.27 33815771.00 L 58532468.00 33815771.00 A 111151.33 111151.33 0 0 0 58462468.00 33838501.42 L 58462468.00 34304998.00 L 58182468.00 34304998.00 L 58182468.00 36334998.00 L 58022468.00 36334998.00 L 58022468.00 37075821.87 L 58036316.00 37081558.00 L 58069869.00 37102118.00 L 58099791.00 37127675.00 L 58256238.00 37284121.00 L 58317309.00 37341010.00 L 58383546.00 37391834.00 A 957026.00 957026.00 0 0 0 58766284.00 37550370.00 L 58795566.72 37554225.00 L 62842878.62 37554225.00 A 135480.13 135480.13 0 0 1 62841568.00 37397370.00 A 139726.39 139726.39 0 0 1 63092748.00 37441003.86 L 63098656.00 37421527.00 A 139724.48 139724.48 0 0 1 63284998.37 37347926.55 L 63282740.00 37324998.00 A 139740.06 139740.06 0 0 1 63344839.00 37208818.00 L 63361340.30 37199998.00 L 63344839.00 37191178.00 A 139726.39 139726.39 0 0 1 63285425.00 37047738.00 L 63290266.35 37031777.55 L 63259728.00 37042041.00 A 139723.80 139723.80 0 0 1 63103376.00 36958470.00 L 63097468.00 36938993.14 L 63091560.00 36958470.00 A 139724.48 139724.48 0 1 1 63091560.00 36851526.00 L 63097468.00 36871002.86 L 63103376.00 36851526.00 A 139724.48 139724.48 0 0 1 63369511.00 36932258.00 L 63364669.65 36948218.45 L 63395208.00 36937955.00 A 139723.80 139723.80 0 0 1 63500097.00 37191178.00 L 63483595.70 37199998.00 L 63500097.00 37208818.00 A 139726.39 139726.39 0 0 1 63365217.63 37452070.45 L 63367476.00 37474999.00 A 139740.06 139740.06 0 0 1 63342617.38 37554225.00 L 64142468.00 37554069.00 A 1458012.54 1458012.54 0 0 1 65097278.00 37910195.00 L 65173344.00 37981228.00 L 65320469.00 38128175.00 A 1410029.12 1410029.12 0 0 1 65729774.00 39024430.00 L 65730865.80 39054998.00 L 65732468.00 39054998.00 L 65732468.00 39864998.00  zM 60722469.60 36164985.94 m -139740.06 0 a 139740.06 139740.06 0 1 1 279480.11 0a 139740.06 139740.06 0 1 1 -279480.11 0M 62882469.60 35940733.94 m -139740.06 0 a 139740.06 139740.06 0 1 1 279480.11 0a 139740.06 139740.06 0 1 1 -279480.11 0M 63834044.60 36240733.94 m -139740.06 0 a 139740.06 139740.06 0 1 1 279480.11 0a 139740.06 139740.06 0 1 1 -279480.11 0M 63862469.60 38520891.94 m -139740.06 0 a 139740.06 139740.06 0 1 1 279480.11 0a 139740.06 139740.06 0 1 1 -279480.11 0M 65172469.60 40276279.94 m -139740.06 0 a 139740.06 139740.06 0 1 1 279480.11 0a 139740.06 139740.06 0 1 1 -279480.11 0M 65722469.60 40564985.94 m -139740.06 0 a 139740.06 139740.06 0 1 1 279480.11 0a 139740.06 139740.06 0 1 1 -279480.11 0M 65572469.60 40864985.94 m -139740.06 0 a 139740.06 139740.06 0 1 1 279480.11 0a 139740.06 139740.06 0 1 1 -279480.11 0M 66514831.60 40010376.94 m -139740.06 0 a 139740.06 139740.06 0 1 1 279480.11 0a 139740.06 139740.06 0 1 1 -279480.11 0M 66820101.60 40010376.94 m -139740.06 0 a 139740.06 139740.06 0 1 1 279480.11 0a 139740.06 139740.06 0 1 1 -279480.11 0M 65393376.00 41211526.00 L 65398374.51 41202174.31 A 136255.51 136255.51 0 1 1 65501560.00 41118470.00 L 65496561.49 41127821.69 A 136255.51 136255.51 0 1 1 65393376.00 41211526.00  zM 66228167.60 41689288.94 m -139740.06 0 a 139740.06 139740.06 0 1 1 279480.11 0a 139740.06 139740.06 0 1 1 -279480.11 0M 66525282.00 41342519.00 L 66538892.31 41353688.66 L 66535425.00 41342258.00 A 139723.80 139723.80 0 1 1 66594839.00 41431178.00 L 66581228.69 41420008.34 L 66584696.00 41431439.00 A 139723.80 139723.80 0 1 1 66525282.00 41342519.00  zM 66972469.60 41164985.94 m -139740.06 0 a 139740.06 139740.06 0 1 1 279480.11 0a 139740.06 139740.06 0 1 1 -279480.11 0M 65492469.60 42074985.94 m -139740.06 0 a 139740.06 139740.06 0 1 1 279480.11 0a 139740.06 139740.06 0 1 1 -279480.11 0M 65822469.60 41864985.94 m -139740.06 0 a 139740.06 139740.06 0 1 1 279480.11 0a 139740.06 139740.06 0 1 1 -279480.11 0M 64622469.60 42464985.94 m -139740.06 0 a 139740.06 139740.06 0 1 1 279480.11 0a 139740.06 139740.06 0 1 1 -279480.11 0M 65422469.60 44364985.94 m -139740.06 0 a 139740.06 139740.06 0 1 1 279480.11 0a 139740.06 139740.06 0 1 1 -279480.11 0M 63420894.60 45634985.94 m -139740.06 0 a 139740.06 139740.06 0 1 1 279480.11 0a 139740.06 139740.06 0 1 1 -279480.11 0M 64602469.60 46014985.94 m -139740.06 0 a 139740.06 139740.06 0 1 1 279480.11 0a 139740.06 139740.06 0 1 1 -279480.11 0M 65712469.60 45843410.94 m -139740.06 0 a 139740.06 139740.06 0 1 1 279480.11 0a 139740.06 139740.06 0 1 1 -279480.11 0M 65192469.60 46404985.94 m -139740.06 0 a 139740.06 139740.06 0 1 1 279480.11 0a 139740.06 139740.06 0 1 1 -279480.11 0M 67842469.60 42434985.94 m -139740.06 0 a 139740.06 139740.06 0 1 1 279480.11 0a 139740.06 139740.06 0 1 1 -279480.11 0M 68264044.60 42034985.94 m -139740.06 0 a 139740.06 139740.06 0 1 1 279480.11 0a 139740.06 139740.06 0 1 1 -279480.11 0M 67012469.60 44354985.94 m -139740.06 0 a 139740.06 139740.06 0 1 1 279480.11 0a 139740.06 139740.06 0 1 1 -279480.11 0M 66642468.00 45144726.00 A 139740.06 139740.06 0 1 1 66669728.00 45142041.00 L 66642468.00 45144726.00  zM 66342469.60 45214985.94 m -139740.06 0 a 139740.06 139740.06 0 1 1 279480.11 0a 139740.06 139740.06 0 1 1 -279480.11 0M 66142469.60 45456560.94 m -139740.06 0 a 139740.06 139740.06 0 1 1 279480.11 0a 139740.06 139740.06 0 1 1 -279480.11 0M 67214044.60 46224985.94 m -139740.06 0 a 139740.06 139740.06 0 1 1 279480.11 0a 139740.06 139740.06 0 1 1 -279480.11 0M 67392469.60 46596560.94 m -139740.06 0 a 139740.06 139740.06 0 1 1 279480.11 0a 139740.06 139740.06 0 1 1 -279480.11 0M 67222468.00 39864998.00 L 66722468.00 39864998.00 L 66721695.00 37524998.00 L 66632468.00 37524998.00 L 66632468.00 36304998.00 L 66422468.00 36304998.00 L 66422468.00 33614998.00 L 66802468.00 33614998.00 L 66802468.00 33094998.00 L 67582468.00 33094998.00 L 67582468.00 33534998.00 L 69094784.04 33534998.00 L 69106969.00 33517825.00 A 620959.02 620959.02 0 0 1 69592468.00 33284225.00 L 70692468.00 33284225.00 L 70692468.00 32816348.76 L 70685940.00 32819838.00 A 139740.06 139740.06 0 1 1 70685940.00 32561654.00 L 70692468.00 32565143.24 L 70692468.00 31944998.00 L 72762468.00 31944998.00 L 72762468.00 34754998.00 L 70692468.00 34754998.00 L 70692468.00 33785771.00 L 69592468.00 33785771.00 A 111151.33 111151.33 0 0 0 69522468.00 33808501.42 L 69522468.00 34274998.00 L 69242468.00 34274998.00 L 69242468.00 36304998.00 L 69082468.00 36304998.00 L 69082468.00 37524998.00 L 68947114.97 37524998.00 L 67377781.00 39094331.00 L 67361600.82 39108150.82 L 67310565.00 39165731.00 A 425951.55 425951.55 0 0 0 67222468.00 39434821.39 L 67222468.00 39864998.00  zM 69882468.00 36130474.00 A 139740.06 139740.06 0 1 1 69909728.00 36127789.00 L 69882468.00 36130474.00  zM 68812469.60 38314985.94 m -139740.06 0 a 139740.06 139740.06 0 1 1 279480.11 0a 139740.06 139740.06 0 1 1 -279480.11 0M 69242469.60 39564985.94 m -139740.06 0 a 139740.06 139740.06 0 1 1 279480.11 0a 139740.06 139740.06 0 1 1 -279480.11 0M 68975261.60 40107485.94 m -139740.06 0 a 139740.06 139740.06 0 1 1 279480.11 0a 139740.06 139740.06 0 1 1 -279480.11 0M 69235068.60 40477584.94 m -139740.06 0 a 139740.06 139740.06 0 1 1 279480.11 0a 139740.06 139740.06 0 1 1 -279480.11 0M 69242469.60 39914985.94 m -139740.06 0 a 139740.06 139740.06 0 1 1 279480.11 0a 139740.06 139740.06 0 1 1 -279480.11 0M 69547087.60 40290367.94 m -139740.06 0 a 139740.06 139740.06 0 1 1 279480.11 0a 139740.06 139740.06 0 1 1 -279480.11 0M 73652469.60 36094985.94 m -139740.06 0 a 139740.06 139740.06 0 1 1 279480.11 0a 139740.06 139740.06 0 1 1 -279480.11 0M 73383421.60 36538248.94 m -139740.06 0 a 139740.06 139740.06 0 1 1 279480.11 0a 139740.06 139740.06 0 1 1 -279480.11 0M 72292469.60 36824985.94 m -139740.06 0 a 139740.06 139740.06 0 1 1 279480.11 0a 139740.06 139740.06 0 1 1 -279480.11 0M 72061286.00 39592627.00 L 72052466.00 39576125.70 L 72043646.00 39592627.00 A 139726.39 139726.39 0 0 1 71811286.00 39592627.00 L 71802466.00 39576125.70 L 71793646.00 39592627.00 A 139726.39 139726.39 0 0 1 71561286.00 39592627.00 L 71552466.00 39576125.70 L 71543646.00 39592627.00 A 139726.39 139726.39 0 1 1 71376987.40 39384998.00 A 133951.83 133951.83 0 0 1 71311286.00 39332627.00 A 139723.37 139723.37 0 0 1 71376987.40 39124998.00 A 133951.83 133951.83 0 0 1 71311286.00 39072627.00 A 139723.37 139723.37 0 1 1 71552466.00 38933870.30 L 71561286.00 38917369.00 A 139726.39 139726.39 0 0 1 71793646.00 38917369.00 L 71802466.00 38933870.30 L 71811286.00 38917369.00 A 139726.39 139726.39 0 0 1 72043646.00 38917369.00 L 72052466.00 38933870.30 L 72061286.00 38917369.00 A 139726.39 139726.39 0 0 1 72293646.00 38917369.00 L 72302466.00 38933870.30 L 72311286.00 38917369.00 A 139726.39 139726.39 0 0 1 72543646.00 38917369.00 L 72552466.00 38933870.30 L 72561286.00 38917369.00 A 139726.39 139726.39 0 1 1 72561286.00 39072627.00 L 72552466.00 39056125.70 L 72543646.00 39072627.00 L 72526269.00 39093801.00 L 72505095.00 39111178.00 L 72477944.60 39124998.00 A 133951.83 133951.83 0 0 1 72543646.00 39177369.00 A 139723.37 139723.37 0 1 1 72302466.00 39316125.70 L 72293646.00 39332627.00 L 72276269.00 39353801.00 L 72255095.00 39371178.00 L 72227944.60 39384998.00 A 133951.83 133951.83 0 0 1 72293646.00 39437369.00 A 139723.37 139723.37 0 0 1 72061286.00 39592627.00  zM 73780809.60 37243960.94 m -139740.06 0 a 139740.06 139740.06 0 1 1 279480.11 0a 139740.06 139740.06 0 1 1 -279480.11 0M 74393220.00 37297445.00 A 139724.48 139724.48 0 1 1 74393376.00 37190501.00 A 139724.48 139724.48 0 1 1 74393220.00 37297445.00  zM 75450894.60 36184985.94 m -139740.06 0 a 139740.06 139740.06 0 1 1 279480.11 0a 139740.06 139740.06 0 1 1 -279480.11 0M 75450894.60 36534985.94 m -139740.06 0 a 139740.06 139740.06 0 1 1 279480.11 0a 139740.06 139740.06 0 1 1 -279480.11 0M 69045585.60 40686560.94 m -139740.06 0 a 139740.06 139740.06 0 1 1 279480.11 0a 139740.06 139740.06 0 1 1 -279480.11 0M 68186414.00 41557795.00 L 68200597.83 41550213.69 L 68187678.00 41543308.00 A 139726.39 139726.39 0 0 1 68187678.00 41310948.00 L 68200730.27 41303971.52 L 68186677.00 41296460.00 A 139726.39 139726.39 0 0 1 68186677.00 41064100.00 L 68199915.64 41057023.90 L 68186045.00 41049610.00 A 139726.39 139726.39 0 1 1 68341303.00 41049610.00 L 68328064.36 41056686.10 L 68341935.00 41064100.00 A 139726.39 139726.39 0 0 1 68341935.00 41296460.00 L 68328882.73 41303436.48 L 68342936.00 41310948.00 A 139726.39 139726.39 0 0 1 68342936.00 41543308.00 L 68328752.17 41550889.31 L 68341672.00 41557795.00 A 139726.39 139726.39 0 1 1 68186414.00 41557795.00  zM 69327914.74 40936961.50 L 69323376.00 40928470.00 A 139740.06 139740.06 0 1 1 69397021.26 41003034.50 L 69401560.00 41011526.00 A 139740.06 139740.06 0 1 1 69327914.74 40936961.50  zM 69066352.15 41425872.39 L 69043996.00 41419091.00 A 139724.48 139724.48 0 1 1 69124728.00 41427042.00 L 69103583.85 41429124.61 L 69125940.00 41435906.00 A 139724.48 139724.48 0 1 1 69066352.15 41425872.39  zM 69326288.00 42047369.00 L 69337845.77 42033285.77 L 69325208.00 42032041.00 A 139723.37 139723.37 0 1 1 69468648.00 41972627.00 L 69457090.23 41986710.23 L 69469728.00 41987955.00 A 139723.37 139723.37 0 1 1 69326288.00 42047369.00  zM 72163376.00 43498470.00 L 72157468.00 43478993.14 L 72151560.00 43498470.00 A 139724.48 139724.48 0 1 1 72151560.00 43391526.00 L 72157468.00 43411002.86 L 72163376.00 43391526.00 A 139724.48 139724.48 0 1 1 72163376.00 43498470.00  zM 72782469.60 42294985.94 m -139740.06 0 a 139740.06 139740.06 0 1 1 279480.11 0a 139740.06 139740.06 0 1 1 -279480.11 0M 72163376.00 43168470.00 L 72157468.00 43148993.14 L 72151560.00 43168470.00 A 139724.48 139724.48 0 1 1 72151560.00 43061526.00 L 72157468.00 43081002.86 L 72163376.00 43061526.00 A 139724.48 139724.48 0 1 1 72163376.00 43168470.00  zM 73012469.60 41484985.94 m -139740.06 0 a 139740.06 139740.06 0 1 1 279480.11 0a 139740.06 139740.06 0 1 1 -279480.11 0M 73852469.60 41646560.94 m -139740.06 0 a 139740.06 139740.06 0 1 1 279480.11 0a 139740.06 139740.06 0 1 1 -279480.11 0M 74092469.60 41824985.94 m -139740.06 0 a 139740.06 139740.06 0 1 1 279480.11 0a 139740.06 139740.06 0 1 1 -279480.11 0M 75046288.00 41317369.00 L 75057937.35 41303174.18 L 75037515.00 41314090.00 A 139740.06 139740.06 0 1 1 75100223.00 41262627.00 L 75088573.65 41276821.82 L 75108996.00 41265906.00 A 139740.06 139740.06 0 1 1 75046288.00 41317369.00  zM 73902469.60 45574985.94 m -139740.06 0 a 139740.06 139740.06 0 1 1 279480.11 0a 139740.06 139740.06 0 1 1 -279480.11 0M 74657469.60 45419985.94 m -139740.06 0 a 139740.06 139740.06 0 1 1 279480.11 0a 139740.06 139740.06 0 1 1 -279480.11 0M 74822469.60 45164985.94 m -139740.06 0 a 139740.06 139740.06 0 1 1 279480.11 0a 139740.06 139740.06 0 1 1 -279480.11 0"/>
<path id="N" d="M 67522467.00 25615771.00 L 66202468.00 25615771.00 L 66119058.00 25618729.00 L 66036284.00 25629626.00 A 957186.71 957186.71 0 0 0 65587309.00 25838986.00 L 65529876.00 25891615.00 L 65507116.00 25914996.00 L 66342468.00 25914996.00 L 66342468.00 25944225.00 L 67103376.00 25944218.00 A 139740.06 139740.06 0 1 1 67334081.93 25986123.86 L 67522467.00 26085106.00 L 67522467.00 25615771.00  z"/>
<path id="N" d="M 71561286.00 39437369.00 L 71578663.00 39416195.00 L 71599837.00 39398818.00 L 71626987.40 39384998.00 A 133951.83 133951.83 0 0 1 71561286.00 39332627.00 L 71552466.00 39316125.70 L 71543646.00 39332627.00 L 71526269.00 39353801.00 L 71505095.00 39371178.00 L 71477944.60 39384998.00 A 133951.83 133951.83 0 0 1 71543646.00 39437369.00 L 71552466.00 39453870.30 L 71561286.00 39437369.00  z"/>
<path id="N" d="M 61886288.00 35247369.00 L 61903665.00 35226195.00 L 61924839.00 35208818.00 L 61951989.40 35194998.00 A 133951.83 133951.83 0 0 1 61872468.00 35115476.60 A 133951.83 133951.83 0 0 1 61792946.60 35194998.00 A 133951.83 133951.83 0 0 1 61872468.00 35274519.40 L 61886288.00 35247369.00  z"/>
<path id="N" d="M 61886288.00 35507369.00 L 61903665.00 35486195.00 L 61924839.00 35468818.00 L 61951989.40 35454998.00 A 133951.83 133951.83 0 0 1 61872468.00 35375476.60 A 133951.83 133951.83 0 0 1 61792946.60 35454998.00 A 133951.83 133951.83 0 0 1 61872468.00 35534519.40 L 61886288.00 35507369.00  z"/>
<path id="N" d="M 71811286.00 39437369.00 L 71828663.00 39416195.00 L 71849837.00 39398818.00 L 71876987.40 39384998.00 A 133951.83 133951.83 0 0 1 71811286.00 39332627.00 L 71802466.00 39316125.70 L 71793646.00 39332627.00 L 71776269.00 39353801.00 L 71755095.00 39371178.00 L 71727944.60 39384998.00 A 133951.83 133951.83 0 0 1 71793646.00 39437369.00 L 71802466.00 39453870.30 L 71811286.00 39437369.00  z"/>
<path id="N" d="M 71811286.00 39177369.00 L 71828663.00 39156195.00 L 71849837.00 39138818.00 L 71876987.40 39124998.00 A 133951.83 133951.83 0 0 1 71811286.00 39072627.00 L 71802466.00 39056125.70 L 71793646.00 39072627.00 L 71776269.00 39093801.00 L 71755095.00 39111178.00 L 71727944.60 39124998.00 A 133951.83 133951.83 0 0 1 71793646.00 39177369.00 L 71802466.00 39193870.30 L 71811286.00 39177369.00  z"/>
<path id="N" d="M 72061286.00 39177369.00 L 72078663.00 39156195.00 L 72099837.00 39138818.00 L 72126987.40 39124998.00 A 133951.83 133951.83 0 0 1 72061286.00 39072627.00 L 72052466.00 39056125.70 L 72043646.00 39072627.00 L 72026269.00 39093801.00 L 72005095.00 39111178.00 L 71977944.60 39124998.00 A 133951.83 133951.83 0 0 1 72043646.00 39177369.00 L 72052466.00 39193870.30 L 72061286.00 39177369.00  z"/>
<path id="N" d="M 71561286.00 39177369.00 L 71578663.00 39156195.00 L 71599837.00 39138818.00 L 71626987.40 39124998.00 A 133951.83 133951.83 0 0 1 71561286.00 39072627.00 L 71552466.00 39056125.70 L 71543646.00 39072627.00 L 71526269.00 39093801.00 L 71505095.00 39111178.00 L 71477944.60 39124998.00 A 133951.83 133951.83 0 0 1 71543646.00 39177369.00 L 71552466.00 39193870.30 L 71561286.00 39177369.00  z"/>
<path id="N" d="M 72061286.00 39437369.00 L 72078663.00 39416195.00 L 72099837.00 39398818.00 L 72126987.40 39384998.00 A 133951.83 133951.83 0 0 1 72061286.00 39332627.00 L 72052466.00 39316125.70 L 72043646.00 39332627.00 L 72026269.00 39353801.00 L 72005095.00 39371178.00 L 71977944.60 39384998.00 A 133951.83 133951.83 0 0 1 72043646.00 39437369.00 L 72052466.00 39453870.30 L 72061286.00 39437369.00  z"/>
<path id="N" d="M 72311286.00 39177369.00 L 72328663.00 39156195.00 L 72349837.00 39138818.00 L 72376987.40 39124998.00 A 133951.83 133951.83 0 0 1 72311286.00 39072627.00 L 72302466.00 39056125.70 L 72293646.00 39072627.00 L 72276269.00 39093801.00 L 72255095.00 39111178.00 L 72227944.60 39124998.00 A 133951.83 133951.83 0 0 1 72293646.00 39177369.00 L 72302466.00 39193870.30 L 72311286.00 39177369.00  z"/>
</g>
</svg>
