<svg width="62.699646mm" height="85.80183754mm" viewBox="0 0 24684900 33780251"  version="1.1" xmlns="http://www.w3.org/2000/svg" xmlns:xlink="http://www.w3.org/1999/xlink">
<desc>
Origin 52372468 49564998 Bound 52372608 15784745 24684900 33780251
</desc>
<g fill-rule="evenodd" fill="rgb(255, 0, 255)" stroke="black" stroke-width="1" transform="translate(0, 33780251) scale(1, -1) translate(-52372608, -15784745)">
<path id="N" d="M 77057494.00 15784745.00 L 52372608.00 15784745.00 L 52372608.00 49564996.00 L 77057508.00 49564996.00 L 77057494.00 15784745.00  zM 53553570.02 16965781.32 m -793825.68 0 a 793825.68 793825.68 0 1 1 1587651.37 0a 793825.68 793825.68 0 1 1 -1587651.37 0M 52882468.00 19207414.00 L 52762468.00 19207414.00 A 282405.37 282405.37 0 0 1 52480052.00 18924998.00 L 52480052.00 18404998.00 A 282405.37 282405.37 0 0 1 52762468.00 18122582.00 L 52882468.00 18122582.00 A 282405.37 282405.37 0 0 1 53164884.00 18404998.00 L 53164884.00 18924998.00 A 282405.37 282405.37 0 0 1 52882468.00 19207414.00  zM 52882468.00 21207414.00 L 52762468.00 21207414.00 A 282405.37 282405.37 0 0 1 52480052.00 20924998.00 L 52480052.00 20404998.00 A 282405.37 282405.37 0 0 1 52762468.00 20122582.00 L 52882468.00 20122582.00 A 282405.37 282405.37 0 0 1 53164884.00 20404998.00 L 53164884.00 20924998.00 A 282405.37 282405.37 0 0 1 52882468.00 21207414.00  zM 52882468.00 23207414.00 L 52762468.00 23207414.00 A 282405.37 282405.37 0 0 1 52480052.00 22924998.00 L 52480052.00 22404998.00 A 282405.37 282405.37 0 0 1 52762468.00 22122582.00 L 52882468.00 22122582.00 A 282405.37 282405.37 0 0 1 53164884.00 22404998.00 L 53164884.00 22924998.00 A 282405.37 282405.37 0 0 1 52882468.00 23207414.00  zM 52882468.00 25207414.00 L 52762468.00 25207414.00 A 282405.37 282405.37 0 0 1 52480052.00 24924998.00 L 52480052.00 24404998.00 A 282405.37 282405.37 0 0 1 52762468.00 24122582.00 L 52882468.00 24122582.00 A 282405.37 282405.37 0 0 1 53164884.00 24404998.00 L 53164884.00 24924998.00 A 282405.37 282405.37 0 0 1 52882468.00 25207414.00  zM 52882468.00 27207414.00 L 52762468.00 27207414.00 A 282405.37 282405.37 0 0 1 52480052.00 26924998.00 L 52480052.00 26404998.00 A 282405.37 282405.37 0 0 1 52762468.00 26122582.00 L 52882468.00 26122582.00 A 282405.37 282405.37 0 0 1 53164884.00 26404998.00 L 53164884.00 26924998.00 A 282405.37 282405.37 0 0 1 52882468.00 27207414.00  zM 60847544.35 17030758.63 m -536705.37 0 a 536705.37 536705.37 0 1 1 1073410.74 0a 536705.37 536705.37 0 1 1 -1073410.74 0M 61831796.35 18015010.63 m -536705.37 0 a 536705.37 536705.37 0 1 1 1073410.74 0a 536705.37 536705.37 0 1 1 -1073410.74 0M 60847544.35 18999262.63 m -536705.37 0 a 536705.37 536705.37 0 1 1 1073410.74 0a 536705.37 536705.37 0 1 1 -1073410.74 0M 62816048.35 17030758.63 m -536705.37 0 a 536705.37 536705.37 0 1 1 1073410.74 0a 536705.37 536705.37 0 1 1 -1073410.74 0M 64714988.02 16965781.32 m -793825.68 0 a 793825.68 793825.68 0 1 1 1587651.37 0a 793825.68 793825.68 0 1 1 -1587651.37 0M 62816048.35 18999262.63 m -536705.37 0 a 536705.37 536705.37 0 1 1 1073410.74 0a 536705.37 536705.37 0 1 1 -1073410.74 0M 71957544.35 17006506.63 m -536705.37 0 a 536705.37 536705.37 0 1 1 1073410.74 0a 536705.37 536705.37 0 1 1 -1073410.74 0M 72941796.35 17990758.63 m -536705.37 0 a 536705.37 536705.37 0 1 1 1073410.74 0a 536705.37 536705.37 0 1 1 -1073410.74 0M 71957544.35 18975010.63 m -536705.37 0 a 536705.37 536705.37 0 1 1 1073410.74 0a 536705.37 536705.37 0 1 1 -1073410.74 0M 73926048.35 17006506.63 m -536705.37 0 a 536705.37 536705.37 0 1 1 1073410.74 0a 536705.37 536705.37 0 1 1 -1073410.74 0M 75876405.02 16965781.32 m -793825.68 0 a 793825.68 793825.68 0 1 1 1587651.37 0a 793825.68 793825.68 0 1 1 -1587651.37 0M 76667507.00 19207414.00 L 76547507.00 19207414.00 A 282405.37 282405.37 0 0 1 76265091.00 18924998.00 L 76265091.00 18404998.00 A 282405.37 282405.37 0 0 1 76547507.00 18122582.00 L 76667507.00 18122582.00 A 282405.37 282405.37 0 0 1 76949923.00 18404998.00 L 76949923.00 18924998.00 A 282405.37 282405.37 0 0 1 76667507.00 19207414.00  zM 73926048.35 18975010.63 m -536705.37 0 a 536705.37 536705.37 0 1 1 1073410.74 0a 536705.37 536705.37 0 1 1 -1073410.74 0M 76667507.00 21207414.00 L 76547507.00 21207414.00 A 282405.37 282405.37 0 0 1 76265091.00 20924998.00 L 76265091.00 20404998.00 A 282405.37 282405.37 0 0 1 76547507.00 20122582.00 L 76667507.00 20122582.00 A 282405.37 282405.37 0 0 1 76949923.00 20404998.00 L 76949923.00 20924998.00 A 282405.37 282405.37 0 0 1 76667507.00 21207414.00  zM 76667507.00 23207414.00 L 76547507.00 23207414.00 A 282405.37 282405.37 0 0 1 76265091.00 22924998.00 L 76265091.00 22404998.00 A 282405.37 282405.37 0 0 1 76547507.00 22122582.00 L 76667507.00 22122582.00 A 282405.37 282405.37 0 0 1 76949923.00 22404998.00 L 76949923.00 22924998.00 A 282405.37 282405.37 0 0 1 76667507.00 23207414.00  zM 76667507.00 25207414.00 L 76547507.00 25207414.00 A 282405.37 282405.37 0 0 1 76265091.00 24924998.00 L 76265091.00 24404998.00 A 282405.37 282405.37 0 0 1 76547507.00 24122582.00 L 76667507.00 24122582.00 A 282405.37 282405.37 0 0 1 76949923.00 24404998.00 L 76949923.00 24924998.00 A 282405.37 282405.37 0 0 1 76667507.00 25207414.00  zM 76667507.00 27207414.00 L 76547507.00 27207414.00 A 282405.37 282405.37 0 0 1 76265091.00 26924998.00 L 76265091.00 26404998.00 A 282405.37 282405.37 0 0 1 76547507.00 26122582.00 L 76667507.00 26122582.00 A 282405.37 282405.37 0 0 1 76949923.00 26404998.00 L 76949923.00 26924998.00 A 282405.37 282405.37 0 0 1 76667507.00 27207414.00  zM 52882468.00 29207414.00 L 52762468.00 29207414.00 A 282405.37 282405.37 0 0 1 52480052.00 28924998.00 L 52480052.00 28404998.00 A 282405.37 282405.37 0 0 1 52762468.00 28122582.00 L 52882468.00 28122582.00 A 282405.37 282405.37 0 0 1 53164884.00 28404998.00 L 53164884.00 28924998.00 A 282405.37 282405.37 0 0 1 52882468.00 29207414.00  zM 52882468.00 31207414.00 L 52762468.00 31207414.00 A 282405.37 282405.37 0 0 1 52480052.00 30924998.00 L 52480052.00 30404998.00 A 282405.37 282405.37 0 0 1 52762468.00 30122582.00 L 52882468.00 30122582.00 A 282405.37 282405.37 0 0 1 53164884.00 30404998.00 L 53164884.00 30924998.00 A 282405.37 282405.37 0 0 1 52882468.00 31207414.00  zM 52882468.00 33207414.00 L 52762468.00 33207414.00 A 282405.37 282405.37 0 0 1 52480052.00 32924998.00 L 52480052.00 32404998.00 A 282405.37 282405.37 0 0 1 52762468.00 32122582.00 L 52882468.00 32122582.00 A 282405.37 282405.37 0 0 1 53164884.00 32404998.00 L 53164884.00 32924998.00 A 282405.37 282405.37 0 0 1 52882468.00 33207414.00  zM 52882468.00 35207414.00 L 52762468.00 35207414.00 A 282405.37 282405.37 0 0 1 52480052.00 34924998.00 L 52480052.00 34404998.00 A 282405.37 282405.37 0 0 1 52762468.00 34122582.00 L 52882468.00 34122582.00 A 282405.37 282405.37 0 0 1 53164884.00 34404998.00 L 53164884.00 34924998.00 A 282405.37 282405.37 0 0 1 52882468.00 35207414.00  zM 52882468.00 37207414.00 L 52762468.00 37207414.00 A 282405.37 282405.37 0 0 1 52480052.00 36924998.00 L 52480052.00 36404998.00 A 282405.37 282405.37 0 0 1 52762468.00 36122582.00 L 52882468.00 36122582.00 A 282405.37 282405.37 0 0 1 53164884.00 36404998.00 L 53164884.00 36924998.00 A 282405.37 282405.37 0 0 1 52882468.00 37207414.00  zM 52882468.00 39207414.00 L 52762468.00 39207414.00 A 282405.37 282405.37 0 0 1 52480052.00 38924998.00 L 52480052.00 38404998.00 A 282405.37 282405.37 0 0 1 52762468.00 38122582.00 L 52882468.00 38122582.00 A 282405.37 282405.37 0 0 1 53164884.00 38404998.00 L 53164884.00 38924998.00 A 282405.37 282405.37 0 0 1 52882468.00 39207414.00  zM 52882468.00 43207414.00 L 52762468.00 43207414.00 A 282405.37 282405.37 0 0 1 52480052.00 42924998.00 L 52480052.00 42404998.00 A 282405.37 282405.37 0 0 1 52762468.00 42122582.00 L 52882468.00 42122582.00 A 282405.37 282405.37 0 0 1 53164884.00 42404998.00 L 53164884.00 42924998.00 A 282405.37 282405.37 0 0 1 52882468.00 43207414.00  zM 52882468.00 45207414.00 L 52762468.00 45207414.00 A 282405.37 282405.37 0 0 1 52480052.00 44924998.00 L 52480052.00 44404998.00 A 282405.37 282405.37 0 0 1 52762468.00 44122582.00 L 52882468.00 44122582.00 A 282405.37 282405.37 0 0 1 53164884.00 44404998.00 L 53164884.00 44924998.00 A 282405.37 282405.37 0 0 1 52882468.00 45207414.00  zM 52882468.00 47207414.00 L 52762468.00 47207414.00 A 282405.37 282405.37 0 0 1 52480052.00 46924998.00 L 52480052.00 46404998.00 A 282405.37 282405.37 0 0 1 52762468.00 46122582.00 L 52882468.00 46122582.00 A 282405.37 282405.37 0 0 1 53164884.00 46404998.00 L 53164884.00 46924998.00 A 282405.37 282405.37 0 0 1 52882468.00 47207414.00  zM 52882468.00 41207414.00 L 52762468.00 41207414.00 A 282405.37 282405.37 0 0 1 52480052.00 40924998.00 L 52480052.00 40404998.00 A 282405.37 282405.37 0 0 1 52762468.00 40122582.00 L 52882468.00 40122582.00 A 282405.37 282405.37 0 0 1 53164884.00 40404998.00 L 53164884.00 40924998.00 A 282405.37 282405.37 0 0 1 52882468.00 41207414.00  zM 53553570.02 48383892.32 m -793825.68 0 a 793825.68 793825.68 0 1 1 1587651.37 0a 793825.68 793825.68 0 1 1 -1587651.37 0M 64714988.02 48383892.32 m -793825.68 0 a 793825.68 793825.68 0 1 1 1587651.37 0a 793825.68 793825.68 0 1 1 -1587651.37 0M 76667507.00 29207414.00 L 76547507.00 29207414.00 A 282405.37 282405.37 0 0 1 76265091.00 28924998.00 L 76265091.00 28404998.00 A 282405.37 282405.37 0 0 1 76547507.00 28122582.00 L 76667507.00 28122582.00 A 282405.37 282405.37 0 0 1 76949923.00 28404998.00 L 76949923.00 28924998.00 A 282405.37 282405.37 0 0 1 76667507.00 29207414.00  zM 76667507.00 31207414.00 L 76547507.00 31207414.00 A 282405.37 282405.37 0 0 1 76265091.00 30924998.00 L 76265091.00 30404998.00 A 282405.37 282405.37 0 0 1 76547507.00 30122582.00 L 76667507.00 30122582.00 A 282405.37 282405.37 0 0 1 76949923.00 30404998.00 L 76949923.00 30924998.00 A 282405.37 282405.37 0 0 1 76667507.00 31207414.00  zM 76667507.00 33207414.00 L 76547507.00 33207414.00 A 282405.37 282405.37 0 0 1 76265091.00 32924998.00 L 76265091.00 32404998.00 A 282405.37 282405.37 0 0 1 76547507.00 32122582.00 L 76667507.00 32122582.00 A 282405.37 282405.37 0 0 1 76949923.00 32404998.00 L 76949923.00 32924998.00 A 282405.37 282405.37 0 0 1 76667507.00 33207414.00  zM 76667507.00 35207414.00 L 76547507.00 35207414.00 A 282405.37 282405.37 0 0 1 76265091.00 34924998.00 L 76265091.00 34404998.00 A 282405.37 282405.37 0 0 1 76547507.00 34122582.00 L 76667507.00 34122582.00 A 282405.37 282405.37 0 0 1 76949923.00 34404998.00 L 76949923.00 34924998.00 A 282405.37 282405.37 0 0 1 76667507.00 35207414.00  zM 76667507.00 37207414.00 L 76547507.00 37207414.00 A 282405.37 282405.37 0 0 1 76265091.00 36924998.00 L 76265091.00 36404998.00 A 282405.37 282405.37 0 0 1 76547507.00 36122582.00 L 76667507.00 36122582.00 A 282405.37 282405.37 0 0 1 76949923.00 36404998.00 L 76949923.00 36924998.00 A 282405.37 282405.37 0 0 1 76667507.00 37207414.00  zM 76667507.00 39207414.00 L 76547507.00 39207414.00 A 282405.37 282405.37 0 0 1 76265091.00 38924998.00 L 76265091.00 38404998.00 A 282405.37 282405.37 0 0 1 76547507.00 38122582.00 L 76667507.00 38122582.00 A 282405.37 282405.37 0 0 1 76949923.00 38404998.00 L 76949923.00 38924998.00 A 282405.37 282405.37 0 0 1 76667507.00 39207414.00  zM 76667507.00 41207414.00 L 76547507.00 41207414.00 A 282405.37 282405.37 0 0 1 76265091.00 40924998.00 L 76265091.00 40404998.00 A 282405.37 282405.37 0 0 1 76547507.00 40122582.00 L 76667507.00 40122582.00 A 282405.37 282405.37 0 0 1 76949923.00 40404998.00 L 76949923.00 40924998.00 A 282405.37 282405.37 0 0 1 76667507.00 41207414.00  zM 76667507.00 43207414.00 L 76547507.00 43207414.00 A 282405.37 282405.37 0 0 1 76265091.00 42924998.00 L 76265091.00 42404998.00 A 282405.37 282405.37 0 0 1 76547507.00 42122582.00 L 76667507.00 42122582.00 A 282405.37 282405.37 0 0 1 76949923.00 42404998.00 L 76949923.00 42924998.00 A 282405.37 282405.37 0 0 1 76667507.00 43207414.00  zM 76667507.00 45207414.00 L 76547507.00 45207414.00 A 282405.37 282405.37 0 0 1 76265091.00 44924998.00 L 76265091.00 44404998.00 A 282405.37 282405.37 0 0 1 76547507.00 44122582.00 L 76667507.00 44122582.00 A 282405.37 282405.37 0 0 1 76949923.00 44404998.00 L 76949923.00 44924998.00 A 282405.37 282405.37 0 0 1 76667507.00 45207414.00  zM 76667507.00 47207414.00 L 76547507.00 47207414.00 A 282405.37 282405.37 0 0 1 76265091.00 46924998.00 L 76265091.00 46404998.00 A 282405.37 282405.37 0 0 1 76547507.00 46122582.00 L 76667507.00 46122582.00 A 282405.37 282405.37 0 0 1 76949923.00 46404998.00 L 76949923.00 46924998.00 A 282405.37 282405.37 0 0 1 76667507.00 47207414.00  zM 75876405.02 48383892.32 m -793825.68 0 a 793825.68 793825.68 0 1 1 1587651.37 0a 793825.68 793825.68 0 1 1 -1587651.37 0"/>
</g>
</svg>
