**ABCDEFGHIJKLMNOPQRSTUVWXYZabcdefghijklmnopqrstuvwxyz**************************
**PARASOLID !"#$%&'()*+,-./:;<=>?@[\]^_`{|}~0123456789**************************
**PART1;
MC=AMD64;
MC_MODEL=AMD64 Family 25 Model 80 Stepping 0, AuthenticAMD;
MC_ID=unknown;
OS=Windows_NT;
OS_RELEASE=unknown;
FRU=CAD Exchanger 3.10.0 (cadexchanger.com);
APPL=unknown;
SITE=unknown;
USER=unknown;
FORMAT=text;
GUISE=transmit;
KEY=GDT-1812_GDT-90V-3KA;
FILE=GDT-1812_GDT-90V-3KA.x_t;
DATE=Thu Jan 20 15:35:22 2022;
**PART2;
SCH=SCH_1200000_12103;
USFLD_SIZE=0;
**PART3;
**END_OF_HEADER*****************************************************************
T51 : TRANSMIT FILE created by modeller version 120000017 SCH_1200000_121030 74
 3 1 3 0 2 189 374 12 2 124 0 3 0 0 0 0 1000 1e-008 0 0 0 1 0 1 1 12 14 20 18 9
 19 17 70 3 0 2 0 0 4 1 20 0 4 4 1 T74 20 4 1 0 5 0 0 0 0 0 0 0 0 0 0 0 0 0 0 0
 0 0 0 0 81 1 5 7 6 13 0 0 42 0 8 80 1 6 0 7 8001 0 0 0 0 3 5 0 0 0 FFFFTFTFFFFF
FF2 79 15 7 SDL/TYSA_COLOUR83 3 8 1 1 1 19 9 1 0 2 11 0 10 V13 10 2 0 2 0 0 0 0
 9 13 19 11 3 0 2 0 9 12 S13 12 4 0 2 0 13 0 0 11 0 14 13 5 5 1e-008 40 0 15 12
 14 +0 0 40 0 10 50 14 6 0 13 41 0 0 +0.00225000762 -0.0015997936 -3.00001000000
0009e-005 0 0 -1 -2.449293598294706e-016 -1 0 15 15 8 0 16 13 0 17 16 0 15 24 36
 17 21 19 0 29 -18 17 9 0 16 0 22 18 ?2 29 18 10 0 17 23 0 0.00225000762 -0.0013
99793600000001 -3.000010000000009e-005 16 19 11 0 ?21 0 27 20 0 0 2 30 20 12 0 1
9 28 0 0 +0.00225000762 -0.001399793600000001 -3.000010000000009e-005 2.44929359
8294706e-016 1 0 17 21 0 65 60 96 22 16 19 0 36 +18 22 13 0 21 17 25 23 ?2 29 23
 14 0 22 26 18 0.002250007620000001 0.0014002064 -3.000010000000009e-005 17 24 0
 15 30 16 25 29 27 0 35 -18 25 15 0 24 22 31 26 ?2 29 26 16 0 25 32 23 0.0017500
0762 -0.001399793600000001 -3.000010000000009e-005 16 27 17 0 ?29 19 33 28 0 0 2
 30 28 18 0 27 34 20 0 +0.00175000762 -0.001399793600000001 -3.000010000000009e-
005 1 -2.449293598294706e-016 0 17 29 0 104 99 111 17 24 27 0 96 +17 30 0 15 36
 24 31 35 33 0 39 +18 31 19 0 30 25 46 32 ?2 29 32 20 0 31 47 26 0.0017500076200
00001 0.0014002064 -3.000010000000009e-005 16 33 21 0 ?30 27 37 34 0 0 2 30 34 2
2 0 33 38 28 0 +0.00175000762 -0.001399793600000001 -3.000010000000009e-005 2.44
9293598294706e-016 1 0 17 35 0 119 114 50 25 30 33 0 111 -17 36 0 15 16 30 22 39
 37 0 57 -16 37 23 0 ?39 33 48 38 0 0 2 30 38 24 0 37 49 34 0 +0.002250007620000
001 0.0014002064 -3.000010000000009e-005 -1 2.449293598294706e-016 0 17 39 0 44
 45 57 31 36 37 0 50 +14 40 25 42 1e-008 61 13 44 12 41 +0 0 61 13 10 51 41 26 0
 40 62 14 0 +0.00811620762 0.001400206399999998 0.0001699999000000001 1 -2.44929
3598294706e-016 0 0.0002 2.449293598294706e-016 1 0 81 1 42 27 6 40 0 0 63 5 43
 83 3 43 1 1 1 15 44 28 0 45 40 0 17 45 0 44 51 39 46 50 48 0 56 -18 46 29 0 45
 31 52 47 ?2 29 47 30 0 46 53 32 0.001750007620000001 0.0016002064 0.00016999990
00000001 16 48 31 0 ?50 37 54 49 0 0 2 31 49 32 0 48 55 38 0 +0.0017500076200000
01 0.0014002064 0.0001699999000000001 -1 2.449293598294706e-016 0 2.449293598294
706e-016 1 0 0.0002 17 50 0 119 35 140 31 45 48 0 0 +17 51 0 44 57 45 52 56 54 0
 60 -18 52 33 0 51 46 67 53 ?2 29 53 34 0 52 68 47 0.002250007620000001 0.001600
2064 0.0001699999000000001 16 54 35 0 ?56 48 58 55 0 0 2 30 55 36 0 54 59 49 0 +
0.002250007620000001 0.0016002064 0.0001699999000000001 -1 2.449293598294706e-01
6 0 17 56 0 188 143 71 46 51 54 0 140 +17 57 0 44 39 51 22 60 58 0 0 -16 58 37 0
 ?60 54 69 59 0 0 2 31 59 38 0 58 70 55 0 +0.002250007620000001 0.0014002064 0.0
001699999000000001 1 -2.449293598294706e-016 0 0 0 -1 0.0002 17 60 0 65 66 21 52
 57 58 0 71 +14 61 39 63 1e-008 100 40 65 12 62 +0 0 100 40 10 50 62 40 0 61 101
 41 0 +0.00225000762 -0.0015997936 0.0026699999 1 -2.449293598294706e-016 0 2.44
9293598294706e-016 1 0 81 1 63 41 6 61 0 0 102 42 64 83 3 64 1 1 1 15 65 42 0 66
 61 0 17 66 0 65 72 60 67 71 69 0 77 -18 67 43 0 66 52 73 68 ?2 29 68 44 0 67 74
 53 0.002250007620000001 0.0016002064 0.0024699999 16 69 45 0 ?71 58 75 70 0 0 2
 30 70 46 0 69 76 59 0 +0.002250007620000001 0.0016002064 0.0024699999 0 0 -1 17
 71 0 188 56 183 52 66 69 0 0 +17 72 0 65 78 66 73 77 75 0 83 +18 73 47 0 72 67
 79 74 ?2 29 74 48 0 73 80 68 0.002250007620000001 0.0014002064 0.0026699999 16
 75 49 0 ?72 69 81 76 0 0 2 31 76 50 0 75 82 70 0 +0.002250007620000001 0.001400
2064 0.0024699999 1 -2.449293598294706e-016 0 2.449293598294706e-016 1 0 0.0002
 17 77 0 179 180 174 67 72 75 0 183 -17 78 0 65 84 72 79 83 81 0 89 -18 79 51 0
 78 73 85 80 ?2 29 80 52 0 79 86 74 0.00225000762 -0.001399793600000001 0.002669
9999 16 81 53 0 ?83 75 87 82 0 0 2 30 82 54 0 81 88 76 0 +0.00225000762 -0.00139
9793600000001 0.0026699999 2.449293598294706e-016 1 0 17 83 0 170 171 165 73 78
 81 0 174 +17 84 0 65 90 78 85 89 87 0 95 +18 85 55 0 84 79 91 86 ?2 29 86 56 0
 85 92 80 0.00225000762 -0.0015997936 0.0024699999 16 87 57 0 ?84 81 93 88 0 0 2
 31 88 58 0 87 94 82 0 +0.00225000762 -0.001399793600000001 0.0024699999 1 -2.44
9293598294706e-016 0 0 0 1 0.0002 17 89 0 161 162 156 79 84 87 0 165 -17 90 0 65
 96 84 91 95 93 0 0 +18 91 59 0 99 85 106 92 ?2 29 92 60 0 91 107 86 0.002250007
62 -0.0015997936 0.0001699999000000001 16 93 61 0 ?90 87 97 94 0 0 2 30 94 62 0
 93 98 88 0 +0.00225000762 -0.0015997936 0.0024699999 0 0 -1 17 95 0 152 153 110
 85 90 93 0 156 -17 96 0 65 21 90 17 99 97 0 0 +16 97 63 0 ?96 93 108 98 0 0 2 3
1 98 64 0 97 109 94 0 +0.00225000762 -0.001399793600000001 0.0001699999000000001
 1 -2.449293598294706e-016 0 -2.449293598294706e-016 -1 0 0.0002 17 99 0 104 105
 29 91 96 97 0 110 -14 100 65 102 1e-008 115 61 104 12 101 +0 0 115 61 10 51 101
 66 0 100 116 62 0 +-0.00811619238 -0.001399793599999998 0.0001699999000000001 -
1 2.449293598294706e-016 0 0.0002 -2.449293598294706e-016 -1 0 81 1 102 67 6 100
 0 0 117 63 103 83 3 103 1 1 1 15 104 68 0 99 100 0 17 105 0 104 111 99 106 110
 108 0 114 -18 106 69 0 105 91 121 107 ?2 29 107 70 0 106 122 92 0.00175000762 -
0.0015997936 0.0001699999000000001 16 108 71 0 ?110 97 112 109 0 0 2 30 109 72 0
 108 113 98 0 +0.00175000762 -0.0015997936 0.0001699999000000001 1 -2.4492935982
94706e-016 0 17 110 0 152 95 147 91 105 108 0 90 +17 111 0 104 29 105 25 114 112
 0 0 -16 112 73 0 ?114 108 123 113 0 0 2 31 113 74 0 112 124 109 0 +0.0017500076
2 -0.001399793600000001 0.0001699999000000001 -1 2.449293598294706e-016 0 0 0 -1
 0.0002 17 114 0 119 144 35 106 111 112 0 147 +14 115 75 117 1e-008 148 100 119
 12 116 -0 0 148 100 10 50 116 76 0 115 149 101 0 +0.00175000762 -0.0015997936 0
.002881119330162 1 -2.449293598294706e-016 0 2.449293598294706e-016 1 0 81 1 117
 77 6 115 0 0 150 102 118 83 3 118 1 1 1 15 119 78 0 120 115 0 17 120 0 119 128
 144 121 125 123 0 162 +18 121 79 0 120 106 126 122 ?2 29 122 80 0 121 127 107 0
.00175000762 -0.001399793600000001 0.0026699999 16 123 81 0 ?120 112 131 124 0 0
 2 31 124 82 0 123 132 113 0 +0.00175000762 -0.001399793600000001 0.0024699999 -
1 2.449293598294706e-016 0 -2.449293598294706e-016 -1 0 0.0002 17 125 0 161 156
 162 126 120 123 0 144 -18 126 83 0 125 121 129 127 ?2 29 127 84 0 126 130 122 0
.00175000762 -0.0015997936 0.0024699999 17 128 0 119 134 120 129 133 131 0 171 +
18 129 85 0 139 126 135 130 ?2 29 130 86 0 129 136 127 0.001750007620000001 0.00
14002064 0.0026699999 16 131 87 0 ?128 123 137 132 0 0 2 30 132 88 0 131 138 124
 0 +0.00175000762 -0.001399793600000001 0.0026699999 2.449293598294706e-016 1 0
 17 133 0 170 165 171 121 128 131 0 0 -17 134 0 119 140 128 135 139 137 0 180 +1
8 135 89 0 143 129 0 136 ?2 29 136 90 0 135 0 130 0.001750007620000001 0.0016002
064 0.0024699999 16 137 91 0 ?134 131 141 138 0 0 2 31 138 92 0 137 142 132 0 +0
.001750007620000001 0.0014002064 0.0024699999 -1 2.449293598294706e-016 0 0 0 1
 0.0002 17 139 0 179 174 180 129 134 137 0 128 -17 140 0 119 50 134 46 143 141 0
 0 +16 141 93 0 ?140 137 145 142 0 0 2 30 142 94 0 141 146 138 0 +0.001750007620
000001 0.0016002064 0.0024699999 0 0 -1 17 143 0 188 183 56 135 140 141 0 134 -1
7 144 0 119 120 114 126 147 145 0 153 -16 145 95 0 ?147 141 154 146 0 0 2 30 146
 96 0 145 155 142 0 +0.00175000762 -0.0015997936 0.0024699999 0 0 -1 17 147 0 15
2 110 153 106 144 145 0 0 +14 148 97 150 1e-008 157 115 152 12 149 -0 0 157 115
 10 50 149 98 0 148 158 116 0 +7.62e-009 -0.0015997936 0.0013199999 2.4492935982
94706e-016 1 0 1 -2.449293598294706e-016 0 81 1 150 99 6 148 0 0 159 117 151 83
 3 151 1 1 1 15 152 100 0 95 148 0 17 153 0 152 147 95 126 156 154 0 0 +16 154 1
01 0 ?153 145 163 155 0 0 2 30 155 102 0 154 164 146 0 +0.00225000762 -0.0015997
936 0.0024699999 -1 2.449293598294706e-016 0 17 156 0 161 89 125 85 153 154 0 0
 -14 157 103 159 1e-008 166 148 161 12 158 +0 0 166 148 10 51 158 104 0 157 167
 149 0 +0.00811620762 -0.001399793600000002 0.0024699999 1 -2.449293598294706e-0
16 0 0.0002 -2.449293598294706e-016 -1 0 81 1 159 105 6 157 0 0 168 150 160 83 3
 160 1 1 1 15 161 106 0 125 157 0 17 162 0 161 125 89 121 165 163 0 133 +16 163
 107 0 ?162 154 172 164 0 0 2 30 164 108 0 163 173 155 0 +0.00225000762 -0.00139
9793600000001 0.0026699999 -1 2.449293598294706e-016 0 17 165 0 170 83 133 79 16
2 163 0 0 -14 166 109 168 1e-008 175 157 170 12 167 +0 0 175 157 10 50 167 110 0
 166 176 158 0 +-0.00224999238 -0.0015997936 0.0026699999 0 0 1 1 -2.44929359829
4706e-016 0 81 1 168 111 6 166 0 0 177 159 169 83 3 169 1 1 1 15 170 112 0 133 1
66 0 17 171 0 170 133 83 129 174 172 0 0 -16 172 113 0 ?174 163 181 173 0 0 2 30
 173 114 0 172 182 164 0 +0.001750007620000001 0.0014002064 0.0026699999 1 -2.44
9293598294706e-016 0 17 174 0 179 77 139 73 171 172 0 0 +14 175 115 177 1e-008 1
84 166 179 12 176 +0 0 184 166 10 51 176 116 0 175 185 167 0 +-0.00811619238 0.0
01400206400000002 0.0024699999 -1 2.449293598294706e-016 0 0.0002 2.449293598294
706e-016 1 0 81 1 177 117 6 175 0 0 186 168 178 83 3 178 1 1 1 15 179 118 0 77 1
75 0 17 180 0 179 139 77 135 183 181 0 0 -16 181 119 0 ?183 172 0 182 0 0 2 30 1
82 120 0 181 0 173 0 +0.001750007620000001 0.0016002064 0.0024699999 1 -2.449293
598294706e-016 0 17 183 0 188 71 143 67 180 181 0 0 +14 184 121 186 1e-008 0 175
 188 12 185 +0 0 0 175 10 50 185 122 0 184 0 176 0 +7.620000000783773e-009 0.001
6002064 0.0013199999 2.449293598294706e-016 1 0 1 -2.449293598294706e-016 0 81 1
 186 123 6 184 0 0 0 177 187 83 3 187 1 1 1 15 188 124 0 143 184 0 12 189 124 0
 190 0 0 0 0 1000 1e-008 0 0 0 1 0 1 1 197 199 205 203 194 204 202 70 190 0 189
 0 0 4 1 20 0 191 191 1 T74 20 191 1 0 192 0 0 0 0 0 0 0 0 0 0 0 0 0 0 0 0 0 0 0
 81 1 192 7 6 198 0 0 227 0 193 83 3 193 1 1 1 19 194 1 0 189 196 0 195 V13 195
 2 0 189 0 0 0 0 194 198 19 196 3 0 189 0 194 197 S13 197 4 0 189 0 198 0 0 196
 0 14 198 5 192 1e-008 225 0 200 197 199 +0 0 225 0 195 50 199 6 0 198 226 0 0 +
0.00225000762 -0.0015997936 -3.000010000000009e-005 0 0 -1 -2.449293598294706e-0
16 -1 0 15 200 8 0 201 198 0 17 201 0 200 209 221 202 206 204 0 214 -18 202 9 0
 201 0 207 203 ?189 29 203 10 0 202 208 0 -0.00174999238 -0.001399793599999999 -
3.000010000000009e-005 16 204 11 0 ?206 0 212 205 0 0 189 30 205 12 0 204 213 0
 0 +-0.00174999238 -0.001399793599999999 -3.000010000000009e-005 2.4492935982947
06e-016 1 0 17 206 0 250 245 259 207 201 204 0 242 +18 207 13 0 206 202 210 208
 ?189 29 208 14 0 207 211 203 -0.001749992379999999 0.001400206400000001 -3.0000
10000000009e-005 17 209 0 200 215 201 210 214 212 0 220 -18 210 15 0 326 207 216
 211 ?189 29 211 16 0 210 217 208 -0.00224999238 -0.001399793599999999 -3.000010
000000009e-005 16 212 17 0 ?214 204 218 213 0 0 189 30 213 18 0 212 219 205 0 +-
0.00224999238 -0.001399793599999999 -3.000010000000009e-005 1 -2.449293598294706
e-016 0 17 214 0 325 262 326 202 209 212 0 259 +17 215 0 200 221 209 216 220 218
 0 235 +18 216 19 0 224 210 231 217 ?189 29 217 20 0 216 232 211 -0.002249992379
999999 0.001400206400000001 -3.000010000000009e-005 16 218 21 0 ?215 212 222 219
 0 0 189 30 219 22 0 218 223 213 0 +-0.00224999238 -0.001399793599999999 -3.0000
10000000009e-005 2.449293598294706e-016 1 0 17 220 0 334 329 235 210 215 218 0 0
 -17 221 0 200 201 215 207 224 222 0 0 -16 222 23 0 ?224 218 233 223 0 0 189 30
 223 24 0 222 234 219 0 +-0.001749992379999999 0.001400206400000001 -3.000010000
000009e-005 -1 2.449293598294706e-016 0 17 224 0 229 230 242 216 221 222 0 215 +
14 225 25 227 1e-008 246 198 229 197 226 +0 0 246 198 195 51 226 26 0 225 247 19
9 0 +0.00811620762 0.001400206399999998 0.0001699999000000001 1 -2.4492935982947
06e-016 0 0.0002 2.449293598294706e-016 1 0 81 1 227 27 6 225 0 0 248 192 228 83
 3 228 1 1 1 15 229 28 0 230 225 0 17 230 0 229 236 224 231 235 233 0 241 -18 23
1 29 0 347 216 237 232 ?189 29 232 30 0 231 238 217 -0.002249992379999999 0.0016
00206400000001 0.0001699999000000001 16 233 31 0 ?235 222 239 234 0 0 189 31 234
 32 0 233 240 223 0 +-0.00224999238 0.001400206400000001 0.0001699999000000001 -
1 2.449293598294706e-016 0 2.449293598294706e-016 1 0 0.0002 17 235 0 334 220 34
7 216 230 233 0 0 +17 236 0 229 242 230 237 241 239 0 268 -18 237 33 0 245 231 2
52 238 ?189 29 238 34 0 237 253 232 -0.001749992379999999 0.001600206400000001 0
.0001699999000000001 16 239 35 0 ?241 233 243 240 0 0 189 30 240 36 0 239 244 23
4 0 +-0.001749992379999999 0.001600206400000001 0.0001699999000000001 -1 2.44929
3598294706e-016 0 17 241 0 355 350 268 231 236 239 0 0 +17 242 0 229 224 236 207
 245 243 0 221 -16 243 37 0 ?245 239 254 244 0 0 189 31 244 38 0 243 255 240 0 +
-0.001749992379999999 0.001400206400000001 0.0001699999000000001 1 -2.4492935982
94706e-016 0 0 0 -1 0.0002 17 245 0 250 263 206 237 242 243 0 236 +14 246 39 248
 1e-008 285 225 250 197 247 -0 0 285 225 195 50 247 40 0 246 286 226 0 +-0.00174
999238 -0.0015997936 -0.000241119530162 -1 2.449293598294706e-016 0 0 0 1 81 1 2
48 41 6 246 0 0 287 227 249 83 3 249 1 1 1 15 250 42 0 251 246 0 17 251 0 250 25
9 281 252 256 254 0 262 +18 252 43 0 251 237 257 253 ?189 29 253 44 0 252 258 23
8 -0.00174999238 -0.0015997936 0.0001699999000000001 16 254 45 0 ?251 243 260 25
5 0 0 189 30 255 46 0 254 261 244 0 +-0.00174999238 -0.0015997936 0.0024699999 0
 0 -1 17 256 0 310 305 317 257 251 254 0 302 -18 257 47 0 281 252 264 258 ?189 2
9 258 48 0 257 265 253 -0.00174999238 -0.0015997936 0.0024699999 17 259 0 250 20
6 251 202 262 260 0 0 +16 260 49 0 ?259 254 266 261 0 0 189 31 261 50 0 260 267
 255 0 +-0.00174999238 -0.0013997936 0.0001699999000000001 1 -2.449293598294706e
-016 0 -2.449293598294706e-016 -1 0 0.0002 17 262 0 325 320 214 252 259 260 0 31
7 -17 263 0 250 269 245 264 268 266 0 274 -18 264 51 0 356 257 270 265 ?189 29 2
65 52 0 264 271 258 -0.001749992379999999 0.001600206400000001 0.0024699999 16 2
66 53 0 ?268 260 272 267 0 0 189 30 267 54 0 266 273 261 0 +-0.00174999237999999
9 0.001600206400000001 0.0024699999 0 0 -1 17 268 0 355 241 356 237 263 266 0 0
 +17 269 0 250 275 263 270 274 272 0 280 +18 270 55 0 365 264 276 271 ?189 29 27
1 56 0 270 277 265 -0.001749992379999999 0.001400206400000001 0.0026699999 16 27
2 57 0 ?269 266 278 273 0 0 189 31 273 58 0 272 279 267 0 +-0.001749992379999999
 0.001400206400000001 0.0024699999 1 -2.449293598294706e-016 0 2.449293598294706
e-016 1 0 0.0002 17 274 0 364 359 365 264 269 272 0 0 -17 275 0 250 281 269 276
 280 278 0 0 -18 276 59 0 284 270 291 277 ?189 29 277 60 0 276 292 271 -0.001749
99238 -0.001399793599999999 0.0026699999 16 278 61 0 ?280 272 282 279 0 0 189 30
 279 62 0 278 283 273 0 +-0.00174999238 -0.001399793599999999 0.0026699999 2.449
293598294706e-016 1 0 17 280 0 373 368 295 270 275 278 0 0 +17 281 0 250 251 275
 257 284 282 0 256 +16 282 63 0 ?281 278 293 283 0 0 189 31 283 64 0 282 294 279
 0 +-0.00174999238 -0.0013997936 0.0024699999 1 -2.449293598294706e-016 0 0 0 1
 0.0002 17 284 0 289 290 302 276 281 282 0 295 -14 285 65 287 1e-008 306 246 289
 197 286 +0 0 306 246 195 51 286 66 0 285 307 247 0 +0.00811620762 -0.0013997936
00000002 0.0024699999 1 -2.449293598294706e-016 0 0.0002 -2.449293598294706e-016
 -1 0 81 1 287 67 6 285 0 0 308 248 288 83 3 288 1 1 1 15 289 68 0 290 285 0 17
 290 0 289 296 284 291 295 293 0 301 +18 291 69 0 340 276 297 292 ?189 29 292 70
 0 291 298 277 -0.00224999238 -0.001399793599999999 0.0026699999 16 293 71 0 ?29
0 282 299 294 0 0 189 30 294 72 0 293 300 283 0 +-0.00174999238 -0.0013997935999
99999 0.0026699999 -1 2.449293598294706e-016 0 17 295 0 373 280 340 276 290 293
 0 275 -17 296 0 289 302 290 297 301 299 0 0 -18 297 73 0 305 291 312 298 ?189 2
9 298 74 0 297 313 292 -0.00224999238 -0.0015997936 0.0024699999 16 299 75 0 ?30
1 293 303 300 0 0 189 31 300 76 0 299 304 294 0 +-0.00224999238 -0.0013997935999
99999 0.0024699999 -1 2.449293598294706e-016 0 -2.449293598294706e-016 -1 0 0.00
02 17 301 0 334 335 316 291 296 299 0 0 +17 302 0 289 284 296 257 305 303 0 0 -1
6 303 77 0 ?305 299 314 304 0 0 189 30 304 78 0 303 315 300 0 +-0.00174999238 -0
.0015997936 0.0024699999 -1 2.449293598294706e-016 0 17 305 0 310 311 256 297 30
2 303 0 316 +14 306 79 308 1e-008 321 285 310 197 307 -0 0 321 285 195 50 307 80
 0 306 322 286 0 +7.62e-009 -0.0015997936 0.0013199999 2.449293598294706e-016 1
 0 1 -2.449293598294706e-016 0 81 1 308 81 6 306 0 0 323 287 309 83 3 309 1 1 1
 15 310 82 0 311 306 0 17 311 0 310 317 305 312 316 314 0 320 -18 312 83 0 329 2
97 336 313 ?189 29 313 84 0 312 337 298 -0.00224999238 -0.0015997936 0.000169999
9000000001 16 314 85 0 ?316 303 318 315 0 0 189 30 315 86 0 314 319 304 0 +-0.00
224999238 -0.0015997936 0.0001699999000000001 0 0 1 17 316 0 334 301 329 297 311
 314 0 296 +17 317 0 310 256 311 252 320 318 0 0 +16 318 87 0 ?317 314 327 319 0
 0 189 30 319 88 0 318 328 315 0 +-0.00224999238 -0.0015997936 0.000169999900000
0001 1 -2.449293598294706e-016 0 17 320 0 325 326 262 312 317 318 0 0 -14 321 89
 323 1e-008 330 306 325 197 322 +0 0 330 306 195 51 322 90 0 321 331 307 0 +-0.0
0811619238 -0.001399793599999998 0.0001699999000000001 -1 2.449293598294706e-016
 0 0.0002 -2.449293598294706e-016 -1 0 81 1 323 91 6 321 0 0 332 308 324 83 3 32
4 1 1 1 15 325 92 0 320 321 0 17 326 0 325 214 320 210 329 327 0 209 -16 327 93
 0 ?329 318 338 328 0 0 189 31 328 94 0 327 339 319 0 +-0.00224999238 -0.0013997
93599999999 0.0001699999000000001 -1 2.449293598294706e-016 0 0 0 -1 0.0002 17 3
29 0 334 316 220 312 326 327 0 311 +14 330 95 332 1e-008 351 321 334 197 331 +0
 0 351 321 195 50 331 96 0 330 352 322 0 +-0.00224999238 -0.0015997936 -3.000010
000000009e-005 -1 2.449293598294706e-016 0 0 0 1 81 1 332 97 6 330 0 0 353 323 3
33 83 3 333 1 1 1 15 334 98 0 220 330 0 17 335 0 334 341 301 336 340 338 0 346 +
18 336 99 0 335 312 342 337 ?189 29 337 100 0 336 343 313 -0.002249992379999999
 0.001400206400000001 0.0026699999 16 338 101 0 ?335 327 344 339 0 0 189 30 339
 102 0 338 345 328 0 +-0.00224999238 -0.001399793599999999 0.0026699999 2.449293
598294706e-016 1 0 17 340 0 373 295 368 291 335 338 0 290 -17 341 0 334 347 335
 342 346 344 0 0 +18 342 103 0 350 336 0 343 ?189 29 343 104 0 342 0 337 -0.0022
49992379999999 0.001600206400000001 0.0024699999 16 344 105 0 ?341 338 348 345 0
 0 189 31 345 106 0 344 349 339 0 +-0.00224999238 0.001400206400000001 0.0024699
999 -1 2.449293598294706e-016 0 0 0 1 0.0002 17 346 0 364 365 359 336 341 344 0
 368 -17 347 0 334 235 341 231 350 348 0 230 -16 348 107 0 ?350 344 357 349 0 0
 189 30 349 108 0 348 358 345 0 +-0.002249992379999999 0.001600206400000001 0.00
01699999000000001 0 0 1 17 350 0 355 356 241 342 347 348 0 359 +14 351 109 353 1
e-008 360 330 355 197 352 +0 0 360 330 195 50 352 110 0 351 361 331 0 +7.6200000
00783773e-009 0.0016002064 0.0013199999 2.449293598294706e-016 1 0 1 -2.44929359
8294706e-016 0 81 1 353 111 6 351 0 0 362 332 354 83 3 354 1 1 1 15 355 112 0 26
8 351 0 17 356 0 355 268 350 264 359 357 0 263 +16 357 113 0 ?356 348 366 358 0
 0 189 30 358 114 0 357 367 349 0 +-0.002249992379999999 0.001600206400000001 0.
0024699999 1 -2.449293598294706e-016 0 17 359 0 364 346 274 342 356 357 0 341 -1
4 360 115 362 1e-008 369 351 364 197 361 +0 0 369 351 195 51 361 116 0 360 370 3
52 0 +-0.00811619238 0.001400206400000002 0.0024699999 -1 2.449293598294706e-016
 0 0.0002 2.449293598294706e-016 1 0 81 1 362 117 6 360 0 0 371 353 363 83 3 363
 1 1 1 15 364 118 0 346 360 0 17 365 0 364 274 346 270 368 366 0 269 +16 366 119
 0 ?365 357 0 367 0 0 189 30 367 120 0 366 0 358 0 +-0.002249992379999999 0.0014
00206400000001 0.0026699999 1 -2.449293598294706e-016 0 17 368 0 373 340 280 336
 365 366 0 0 -14 369 121 371 1e-008 0 360 373 197 370 +0 0 0 360 195 50 370 122
 0 369 0 361 0 +-0.00224999238 -0.0015997936 0.0026699999 0 0 1 1 -2.44929359829
4706e-016 0 81 1 371 123 6 369 0 0 0 362 372 83 3 372 1 1 1 15 373 124 0 340 369
 0 12 374 124 0 375 0 0 0 0 1000 1e-008 0 0 0 1 0 1 1 382 384 390 388 379 389 38
7 70 375 0 374 0 0 4 1 20 0 376 376 1 T74 20 376 1 0 377 0 0 0 0 0 0 0 0 0 0 0 0
 0 0 0 0 0 0 0 81 1 377 7 6 383 0 0 412 0 378 83 3 378 1 1 1 19 379 1 0 374 381
 0 380 V13 380 2 0 374 0 0 0 0 379 383 19 381 3 0 374 0 379 382 S13 382 4 0 374
 0 383 0 0 381 0 14 383 5 377 1e-008 410 0 385 382 384 +0 0 410 0 380 50 384 6 0
 383 411 0 0 +0.00225000762 -0.0015997936 -3.000010000000009e-005 0 0 -1 -2.4492
93598294706e-016 -1 0 15 385 8 0 386 383 0 17 386 0 385 394 406 387 391 389 0 39
9 +18 387 9 0 386 0 392 388 ?374 29 388 10 0 387 393 0 -0.001739992379999999 0.0
01300206400000001 -3.000010000000009e-005 16 389 11 0 ?386 0 397 390 0 0 374 30
 390 12 0 389 398 0 0 +-0.00173999238 -0.001299793599999999 -3.000010000000009e-
005 2.449293598294706e-016 1 0 17 391 0 525 426 532 392 386 389 0 406 -18 392 13
 0 391 387 395 393 ?374 29 393 14 0 392 396 388 -0.00173999238 -0.00129979359999
9999 -3.000010000000009e-005 17 394 0 385 400 386 395 399 397 0 405 -18 395 15 0
 394 392 401 396 ?374 29 396 16 0 395 402 393 0.001740007620000001 0.0013002064
 -3.000010000000009e-005 16 397 17 0 ?399 389 403 398 0 0 374 30 398 18 0 397 40
4 390 0 +0.001740007620000001 0.0013002064 -3.000010000000009e-005 -1 2.44929359
8294706e-016 0 17 399 0 549 535 459 387 394 397 0 532 +17 400 0 385 406 394 401
 405 403 0 0 -18 401 19 0 409 395 416 402 ?374 29 402 20 0 401 417 396 0.0017400
0762 -0.0012997936 -3.000010000000009e-005 16 403 21 0 ?405 397 407 404 0 0 374
 30 404 22 0 403 408 398 0 +0.00174000762 -0.0012997936 -3.000010000000009e-005
 2.449293598294706e-016 1 0 17 405 0 435 454 430 395 400 403 0 459 +17 406 0 385
 386 400 392 409 407 0 423 -16 407 23 0 ?409 403 418 408 0 0 374 30 408 24 0 407
 419 404 0 +-0.00173999238 -0.001299793599999999 -3.000010000000009e-005 1 -2.44
9293598294706e-016 0 17 409 0 414 427 423 401 406 407 0 430 +14 410 25 412 1e-00
8 431 383 414 382 411 +0 0 431 383 380 51 411 26 0 410 432 384 0 +-0.00811619238
 -0.001299793599999998 0.0002699999 -1 2.449293598294706e-016 0 0.0003 -2.449293
598294706e-016 -1 0 81 1 412 27 6 410 0 0 433 377 413 83 3 413 1 1 1 15 414 28 0
 415 410 0 17 415 0 414 423 427 416 420 418 0 426 -18 416 29 0 415 401 421 417 ?
374 29 417 30 0 416 422 402 -0.00173999238 -0.0015997936 0.0002699999 16 418 31
 0 ?420 407 424 419 0 0 374 30 419 32 0 418 425 408 0 +-0.00173999238 -0.0015997
936 0.0002699999 1 -2.449293598294706e-016 0 17 420 0 544 453 539 421 415 418 0
 450 +18 421 33 0 427 416 437 422 ?374 29 422 34 0 421 438 417 0.00174000762 -0.
0015997936 0.0002699999 17 423 0 414 409 415 392 426 424 0 0 -16 424 35 0 ?426 4
18 428 425 0 0 374 31 425 36 0 424 429 419 0 +-0.00173999238 -0.0012997935999999
99 0.0002699999 -1 2.449293598294706e-016 0 0 0 -1 0.0003 17 426 0 525 536 391 4
16 423 424 0 539 +17 427 0 414 415 409 421 430 428 0 420 -16 428 37 0 ?430 424 4
39 429 0 0 374 31 429 38 0 428 440 425 0 +0.00174000762 -0.0012997936 0.00026999
99 1 -2.449293598294706e-016 0 -2.449293598294706e-016 -1 0 0.0003 17 430 0 435
 405 450 401 427 428 0 400 +14 431 39 433 1e-008 470 410 435 382 432 -0 0 470 41
0 380 50 432 40 0 431 471 411 0 +0.00174000762 -0.0015997936 -0.000241119530162
 -1 2.449293598294706e-016 0 0 0 1 81 1 433 41 6 431 0 0 472 412 434 83 3 434 1
 1 1 15 435 42 0 436 431 0 17 436 0 435 444 466 437 441 439 0 449 -18 437 43 0 4
36 421 442 438 ?374 29 438 44 0 437 443 422 0.00174000762 -0.0012997936 0.002669
9999 16 439 45 0 ?441 428 447 440 0 0 374 30 440 46 0 439 448 429 0 +0.001740007
62 -0.0012997936 0.0026699999 2.449293598294706e-016 1 0 17 441 0 495 490 502 44
2 436 439 0 487 +18 442 47 0 466 437 445 443 ?374 29 443 48 0 442 446 438 0.0017
40007620000001 0.0013002064 0.0026699999 17 444 0 435 450 436 445 449 447 0 511
 +18 445 49 0 444 442 455 446 ?374 29 446 50 0 445 456 443 0.00174000762 -0.0015
997936 0.0023699999 16 447 51 0 ?444 439 451 448 0 0 374 31 448 52 0 447 452 440
 0 +0.00174000762 -0.0012997936 0.0023699999 1 -2.449293598294706e-016 0 0 0 1 0
.0003 17 449 0 510 505 511 437 444 447 0 502 -17 450 0 435 430 444 421 453 451 0
 0 +16 451 53 0 ?450 447 457 452 0 0 374 30 452 54 0 451 458 448 0 +0.0017400076
2 -0.0015997936 0.0023699999 0 0 -1 17 453 0 544 514 420 445 450 451 0 0 -17 454
 0 435 460 405 455 459 457 0 465 +18 455 55 0 454 445 461 456 ?374 29 456 56 0 4
55 462 446 0.001740007620000001 0.0016002064 0.0002699999 16 457 57 0 ?454 451 4
63 458 0 0 374 31 458 58 0 457 464 452 0 +0.001740007620000001 0.0013002064 0.00
02699999 1 -2.449293598294706e-016 0 0 0 -1 0.0003 17 459 0 549 399 550 395 454
 457 0 0 -17 460 0 435 466 454 461 465 463 0 0 -18 461 59 0 469 455 476 462 ?374
 29 462 60 0 461 477 456 0.001740007620000001 0.0016002064 0.0023699999 16 463 6
1 0 ?465 457 467 464 0 0 374 30 464 62 0 463 468 458 0 +0.001740007620000001 0.0
016002064 0.0023699999 0 0 -1 17 465 0 558 553 480 455 460 463 0 550 +17 466 0 4
35 436 460 442 469 467 0 441 +16 467 63 0 ?466 463 478 468 0 0 374 31 468 64 0 4
67 479 464 0 +0.001740007620000001 0.0013002064 0.0023699999 1 -2.44929359829470
6e-016 0 2.449293598294706e-016 1 0 0.0003 17 469 0 474 475 487 461 466 467 0 48
0 -14 470 65 472 1e-008 491 431 474 382 471 +0 0 491 431 380 51 471 66 0 470 492
 432 0 +-0.00811619238 0.001300206400000002 0.0023699999 -1 2.449293598294706e-0
16 0 0.0003 2.449293598294706e-016 1 0 81 1 472 67 6 470 0 0 493 433 473 83 3 47
3 1 1 1 15 474 68 0 475 470 0 17 475 0 474 481 469 476 480 478 0 486 -18 476 69
 0 475 461 482 477 ?374 29 477 70 0 476 483 462 -0.001739992379999999 0.00160020
6400000001 0.0023699999 16 478 71 0 ?480 467 484 479 0 0 374 30 479 72 0 478 485
 468 0 +-0.001739992379999999 0.001600206400000001 0.0023699999 1 -2.44929359829
4706e-016 0 17 480 0 558 465 531 461 475 478 0 460 +17 481 0 474 487 475 482 486
 484 0 490 -18 482 73 0 481 476 497 483 ?374 29 483 74 0 482 498 477 -0.00173999
2379999999 0.001300206400000001 0.0026699999 16 484 75 0 ?486 478 488 485 0 0 37
4 31 485 76 0 484 489 479 0 +-0.001739992379999999 0.001300206400000001 0.002369
9999 -1 2.449293598294706e-016 0 0 0 1 0.0003 17 486 0 525 526 501 476 481 484 0
 531 +17 487 0 474 469 481 442 490 488 0 0 +16 488 77 0 ?487 484 499 489 0 0 374
 30 489 78 0 488 500 485 0 +-0.001739992379999999 0.001300206400000001 0.0026699
999 1 -2.449293598294706e-016 0 17 490 0 495 496 441 482 487 488 0 501 -14 491 7
9 493 1e-008 506 470 495 382 492 +0 0 506 470 380 50 492 80 0 491 507 471 0 +-0.
00224999238 -0.0015997936 0.0026699999 0 0 1 1 -2.449293598294706e-016 0 81 1 49
3 81 6 491 0 0 508 472 494 83 3 494 1 1 1 15 495 82 0 496 491 0 17 496 0 495 502
 490 497 501 499 0 505 -18 497 83 0 496 482 515 498 ?374 29 498 84 0 497 516 483
 -0.00173999238 -0.001299793599999999 0.0026699999 16 499 85 0 ?501 488 503 500
 0 0 374 30 500 86 0 499 504 489 0 +-0.00173999238 -0.001299793599999999 0.00266
99999 2.449293598294706e-016 1 0 17 501 0 525 486 520 482 496 499 0 0 +17 502 0
 495 441 496 437 505 503 0 0 -16 503 87 0 ?505 499 512 504 0 0 374 30 504 88 0 5
03 513 500 0 +0.00174000762 -0.0012997936 0.0026699999 -1 2.449293598294706e-016
 0 17 505 0 510 517 449 497 502 503 0 520 +14 506 89 508 1e-008 521 491 510 382
 507 +0 0 521 491 380 51 507 90 0 506 522 492 0 +0.00811620762 -0.00129979360000
0002 0.0023699999 1 -2.449293598294706e-016 0 0.0003 -2.449293598294706e-016 -1
 0 81 1 508 91 6 506 0 0 523 493 509 83 3 509 1 1 1 15 510 92 0 511 506 0 17 511
 0 510 449 517 445 514 512 0 453 -16 512 93 0 ?514 503 518 513 0 0 374 30 513 94
 0 512 519 504 0 +0.00174000762 -0.0015997936 0.0023699999 -1 2.449293598294706e
-016 0 17 514 0 544 539 453 515 511 512 0 517 +18 515 95 0 514 497 527 516 ?374
 29 516 96 0 515 528 498 -0.00173999238 -0.0015997936 0.0023699999 17 517 0 510
 511 505 515 520 518 0 536 -16 518 97 0 ?520 512 529 519 0 0 374 31 519 98 0 518
 530 513 0 +-0.00173999238 -0.001299793599999999 0.0023699999 -1 2.4492935982947
06e-016 0 -2.449293598294706e-016 -1 0 0.0003 17 520 0 525 501 536 497 517 518 0
 0 +14 521 99 523 1e-008 540 506 525 382 522 -0 0 540 506 380 50 522 100 0 521 5
41 507 0 +-0.00173999238 -0.0015997936 0.002881119330162 1 -2.449293598294706e-0
16 0 2.449293598294706e-016 1 0 81 1 523 101 6 521 0 0 542 508 524 83 3 524 1 1
 1 15 525 102 0 526 521 0 17 526 0 525 532 486 527 531 529 0 553 +18 527 103 0 5
35 515 0 528 ?374 29 528 104 0 527 0 516 -0.001739992379999999 0.001600206400000
001 0.0002699999 16 529 105 0 ?526 518 533 530 0 0 374 30 530 106 0 529 534 519
 0 +-0.001739992379999999 0.001600206400000001 0.0023699999 0 0 -1 17 531 0 558
 480 553 476 526 529 0 0 -17 532 0 525 391 526 387 535 533 0 0 +16 533 107 0 ?53
2 529 537 534 0 0 374 31 534 108 0 533 538 530 0 +-0.001739992379999999 0.001300
206400000001 0.0002699999 -1 2.449293598294706e-016 0 2.449293598294706e-016 1 0
 0.0003 17 535 0 549 550 399 527 532 533 0 526 -17 536 0 525 520 426 515 539 537
 0 0 -16 537 109 0 ?539 533 551 538 0 0 374 30 538 110 0 537 552 534 0 +-0.00173
999238 -0.0015997936 0.0023699999 0 0 -1 17 539 0 544 420 514 416 536 537 0 0 +1
4 540 111 542 1e-008 545 521 544 382 541 -0 0 545 521 380 50 541 112 0 540 546 5
22 0 +7.62e-009 -0.0015997936 0.0013199999 2.449293598294706e-016 1 0 1 -2.44929
3598294706e-016 0 81 1 542 113 6 540 0 0 547 523 543 83 3 543 1 1 1 15 544 114 0
 539 540 0 14 545 115 547 1e-008 554 540 549 382 546 +0 0 554 540 380 51 546 116
 0 545 555 541 0 +0.00811620762 0.001300206399999998 0.0002699999 1 -2.449293598
294706e-016 0 0.0003 2.449293598294706e-016 1 0 81 1 547 117 6 545 0 0 556 542 5
48 83 3 548 1 1 1 15 549 118 0 550 545 0 17 550 0 549 459 535 455 553 551 0 0 -1
6 551 119 0 ?553 537 0 552 0 0 374 30 552 120 0 551 0 538 0 +0.00174000762000000
1 0.0016002064 0.0002699999 -1 2.449293598294706e-016 0 17 553 0 558 531 465 527
 550 551 0 0 +14 554 121 556 1e-008 0 545 558 382 555 +0 0 0 545 380 50 555 122
 0 554 0 546 0 +7.620000000783773e-009 0.0016002064 0.0013199999 2.4492935982947
06e-016 1 0 1 -2.449293598294706e-016 0 81 1 556 123 6 554 0 0 0 547 557 83 3 55
7 1 1 1 15 558 124 0 465 554 0 1 0 
