<svg width="58.00704934mm" height="85.80704708mm" viewBox="0 0 22837421 33782302"  version="1.1" xmlns="http://www.w3.org/2000/svg" xmlns:xlink="http://www.w3.org/1999/xlink">
<desc>
Origin 52372468 49564998 Bound 52371080 15784084 22837421 33782302
</desc>
<g fill-rule="evenodd" fill="rgb(255, 0, 255)" stroke="black" stroke-width="1" transform="translate(0, 33782302) scale(1, -1) translate(-52371080, -15784084)">
<path id="N" d="M 74395822.00 49565063.00 A 905044.58 905044.58 0 0 0 75208431.00 48753706.00 L 75208499.00 16596693.00 A 905740.55 905740.55 0 0 0 74395890.00 15784085.00 L 53183756.00 15785402.00 A 905044.58 905044.58 0 0 0 52371148.00 16596761.00 L 52372399.00 48753708.00 A 905044.58 905044.58 0 0 0 53183758.00 49566317.00 L 74395822.00 49565063.00  zM 53553566.76 16966582.08 m -472180.92 0 a 472180.92 472180.92 0 1 1 944361.85 0a 472180.92 472180.92 0 1 1 -944361.85 0M 62222471.68 19034037.80 m -437460.20 0 a 437460.20 437460.20 0 1 1 874920.41 0a 437460.20 437460.20 0 1 1 -874920.41 0M 53572469.01 24814993.89 m -377882.11 0 a 377882.11 377882.11 0 1 1 755764.21 0a 377882.11 377882.11 0 1 1 -755764.21 0M 53572469.01 25814994.89 m -377882.11 0 a 377882.11 377882.11 0 1 1 755764.21 0a 377882.11 377882.11 0 1 1 -755764.21 0M 62222471.68 16947423.80 m -437460.20 0 a 437460.20 437460.20 0 1 1 874920.41 0a 437460.20 437460.20 0 1 1 -874920.41 0M 66222471.68 19034037.80 m -437460.20 0 a 437460.20 437460.20 0 1 1 874920.41 0a 437460.20 437460.20 0 1 1 -874920.41 0M 66222471.68 16947423.80 m -437460.20 0 a 437460.20 437460.20 0 1 1 874920.41 0a 437460.20 437460.20 0 1 1 -874920.41 0M 69165224.00 21657754.00 L 68179712.00 21657754.00 L 68179712.00 20672242.00 L 69165224.00 20672242.00 L 69165224.00 21657754.00  zM 70672469.01 21164995.08 m -497010.92 0 a 497010.92 497010.92 0 1 1 994021.83 0a 497010.92 497010.92 0 1 1 -994021.83 0M 74026007.76 16966582.08 m -472180.92 0 a 472180.92 472180.92 0 1 1 944361.85 0a 472180.92 472180.92 0 1 1 -944361.85 0M 72644272.00 24926267.00 L 72329312.00 24926267.00 A 278596.85 278596.85 0 1 1 72329312.00 24369061.00 L 72644272.00 24369061.00 A 278596.85 278596.85 0 0 1 72644272.00 24926267.00  zM 72695492.89 25210661.08 m -191318.92 0 a 191318.92 191318.92 0 1 1 382637.84 0a 191318.92 191318.92 0 1 1 -382637.84 0M 74250602.00 24926267.00 L 74014382.00 24926267.00 A 278596.85 278596.85 0 0 1 74014382.00 24369061.00 L 74250602.00 24369061.00 A 278596.85 278596.85 0 0 1 74250602.00 24926267.00  zM 53572469.01 26814992.89 m -377882.11 0 a 377882.11 377882.11 0 1 1 755764.21 0a 377882.11 377882.11 0 1 1 -755764.21 0M 53947113.00 28189643.00 L 53197823.00 28189643.00 L 53197823.00 27440353.00 L 53947113.00 27440353.00 L 53947113.00 28189643.00  zM 56601720.00 34074767.00 A 311272.96 311272.96 0 0 1 56601721.00 33455236.00 L 65543210.00 33455305.00 A 311209.73 311209.73 0 0 1 65543214.00 34074760.00 L 56601720.00 34074767.00  zM 72695492.89 27486261.08 m -191318.92 0 a 191318.92 191318.92 0 1 1 382637.84 0a 191318.92 191318.92 0 1 1 -382637.84 0M 72644272.00 28327867.00 L 72329312.00 28327867.00 A 278596.85 278596.85 0 1 1 72329312.00 27770661.00 L 72644272.00 27770661.00 A 278596.85 278596.85 0 0 1 72644272.00 28327867.00  zM 74250602.00 28327867.00 L 74014382.00 28327867.00 A 278596.85 278596.85 0 0 1 74014382.00 27770661.00 L 74250602.00 27770661.00 A 278596.85 278596.85 0 0 1 74250602.00 28327867.00  zM 53553566.76 48383907.08 m -472180.92 0 a 472180.92 472180.92 0 1 1 944361.85 0a 472180.92 472180.92 0 1 1 -944361.85 0M 69242501.49 49020907.70 m -241485.30 0 a 241485.30 241485.30 0 1 1 482970.60 0a 241485.30 241485.30 0 1 1 -482970.60 0M 70148101.49 49020907.70 m -241485.30 0 a 241485.30 241485.30 0 1 1 482970.60 0a 241485.30 241485.30 0 1 1 -482970.60 0M 71184983.51 42300449.04 m -288514.96 0 a 288514.96 288514.96 0 1 1 577029.92 0a 288514.96 288514.96 0 1 1 -577029.92 0M 71184983.51 44229583.04 m -288514.96 0 a 288514.96 288514.96 0 1 1 577029.92 0a 288514.96 288514.96 0 1 1 -577029.92 0M 74026007.76 48383907.08 m -472180.92 0 a 472180.92 472180.92 0 1 1 944361.85 0a 472180.92 472180.92 0 1 1 -944361.85 0"/>
</g>
</svg>
