<svg width="58.00704934mm" height="85.80704708mm" viewBox="0 0 22837421 33782302"  version="1.1" xmlns="http://www.w3.org/2000/svg" xmlns:xlink="http://www.w3.org/1999/xlink">
<desc>
Origin 52372468 49564998 Bound 52371080 15784084 22837421 33782302
</desc>
<g fill-rule="evenodd" fill="rgb(0, 128, 0)" stroke="black" stroke-width="1" transform="translate(0, 33782302) scale(1, -1) translate(-52371080, -15784084)">
<path id="N" d="M 74376182.00 49364080.00 A 703105.28 703105.28 0 0 0 75007479.00 48733757.00 L 75007532.00 35836450.00 L 59385303.04 35836448.39 A 133960.25 133960.25 0 0 1 59422109.00 35906244.00 A 139723.80 139723.80 0 1 1 59184828.98 35836448.37 L 55603448.00 35836448.00 L 55603448.00 49365264.00 L 74376182.00 49364080.00  zM 58435067.60 36133491.94 m -139740.06 0 a 139740.06 139740.06 0 1 1 279480.11 0a 139740.06 139740.06 0 1 1 -279480.11 0M 58635067.60 36764987.94 m -139740.06 0 a 139740.06 139740.06 0 1 1 279480.11 0a 139740.06 139740.06 0 1 1 -279480.11 0M 58067790.60 38010306.94 m -139740.06 0 a 139740.06 139740.06 0 1 1 279480.11 0a 139740.06 139740.06 0 1 1 -279480.11 0M 57322469.60 38864985.94 m -139740.06 0 a 139740.06 139740.06 0 1 1 279480.11 0a 139740.06 139740.06 0 1 1 -279480.11 0M 60185067.60 36383491.94 m -139740.06 0 a 139740.06 139740.06 0 1 1 279480.11 0a 139740.06 139740.06 0 1 1 -279480.11 0M 60035067.60 37214987.94 m -139740.06 0 a 139740.06 139740.06 0 1 1 279480.11 0a 139740.06 139740.06 0 1 1 -279480.11 0M 59422469.60 38014985.94 m -139740.06 0 a 139740.06 139740.06 0 1 1 279480.11 0a 139740.06 139740.06 0 1 1 -279480.11 0M 60822469.60 37964985.94 m -139740.06 0 a 139740.06 139740.06 0 1 1 279480.11 0a 139740.06 139740.06 0 1 1 -279480.11 0M 61372469.60 38564985.94 m -139740.06 0 a 139740.06 139740.06 0 1 1 279480.11 0a 139740.06 139740.06 0 1 1 -279480.11 0M 60272469.60 39314985.94 m -139740.06 0 a 139740.06 139740.06 0 1 1 279480.11 0a 139740.06 139740.06 0 1 1 -279480.11 0M 60522469.60 39764985.94 m -139740.06 0 a 139740.06 139740.06 0 1 1 279480.11 0a 139740.06 139740.06 0 1 1 -279480.11 0M 60922469.60 39364985.94 m -139740.06 0 a 139740.06 139740.06 0 1 1 279480.11 0a 139740.06 139740.06 0 1 1 -279480.11 0M 61511681.60 39738373.94 m -139740.06 0 a 139740.06 139740.06 0 1 1 279480.11 0a 139740.06 139740.06 0 1 1 -279480.11 0M 62085067.60 36564987.94 m -139740.06 0 a 139740.06 139740.06 0 1 1 279480.11 0a 139740.06 139740.06 0 1 1 -279480.11 0M 62197718.60 36926562.94 m -139740.06 0 a 139740.06 139740.06 0 1 1 279480.11 0a 139740.06 139740.06 0 1 1 -279480.11 0M 63035067.60 36764987.94 m -139740.06 0 a 139740.06 139740.06 0 1 1 279480.11 0a 139740.06 139740.06 0 1 1 -279480.11 0M 63613238.60 36886165.94 m -139740.06 0 a 139740.06 139740.06 0 1 1 279480.11 0a 139740.06 139740.06 0 1 1 -279480.11 0M 63398973.60 37176562.94 m -139740.06 0 a 139740.06 139740.06 0 1 1 279480.11 0a 139740.06 139740.06 0 1 1 -279480.11 0M 63185067.60 37964987.94 m -139740.06 0 a 139740.06 139740.06 0 1 1 279480.11 0a 139740.06 139740.06 0 1 1 -279480.11 0M 61722469.60 38564985.94 m -139740.06 0 a 139740.06 139740.06 0 1 1 279480.11 0a 139740.06 139740.06 0 1 1 -279480.11 0M 62322469.60 38564985.94 m -139740.06 0 a 139740.06 139740.06 0 1 1 279480.11 0a 139740.06 139740.06 0 1 1 -279480.11 0M 62589331.60 37998123.94 m -139740.06 0 a 139740.06 139740.06 0 1 1 279480.11 0a 139740.06 139740.06 0 1 1 -279480.11 0M 64557864.60 38250380.94 m -139740.06 0 a 139740.06 139740.06 0 1 1 279480.11 0a 139740.06 139740.06 0 1 1 -279480.11 0M 63772469.60 39314985.94 m -139740.06 0 a 139740.06 139740.06 0 1 1 279480.11 0a 139740.06 139740.06 0 1 1 -279480.11 0M 63665828.60 40214987.94 m -139740.06 0 a 139740.06 139740.06 0 1 1 279480.11 0a 139740.06 139740.06 0 1 1 -279480.11 0M 56014044.60 41654229.94 m -139740.06 0 a 139740.06 139740.06 0 1 1 279480.11 0a 139740.06 139740.06 0 1 1 -279480.11 0M 56672469.60 41564985.94 m -139740.06 0 a 139740.06 139740.06 0 1 1 279480.11 0a 139740.06 139740.06 0 1 1 -279480.11 0M 56972469.60 41114985.94 m -139740.06 0 a 139740.06 139740.06 0 1 1 279480.11 0a 139740.06 139740.06 0 1 1 -279480.11 0M 57543735.00 41802378.00 L 57554462.20 41796644.27 L 57538198.00 41787951.00 A 139726.39 139726.39 0 1 1 57693456.00 41787951.00 L 57682728.80 41793684.73 L 57698993.00 41802378.00 A 139726.39 139726.39 0 1 1 57543735.00 41802378.00  zM 58504680.00 43001819.00 L 58518010.70 42994693.69 L 58504234.00 42987330.00 A 139726.39 139726.39 0 1 1 58659492.00 42987330.00 L 58646161.30 42994455.31 L 58659938.00 43001819.00 A 139726.39 139726.39 0 1 1 58504680.00 43001819.00  zM 58722469.60 44064985.94 m -139740.06 0 a 139740.06 139740.06 0 1 1 279480.11 0a 139740.06 139740.06 0 1 1 -279480.11 0M 59859974.00 45412287.00 L 59864435.20 45397579.80 L 59849728.00 45402041.00 A 139723.80 139723.80 0 1 1 59959511.00 45292258.00 L 59955049.80 45306965.20 L 59969757.00 45302504.00 A 139723.80 139723.80 0 1 1 59859974.00 45412287.00  zM 58133901.60 45866152.94 m -139740.06 0 a 139740.06 139740.06 0 1 1 279480.11 0a 139740.06 139740.06 0 1 1 -279480.11 0M 59057212.60 45428722.94 m -139740.06 0 a 139740.06 139740.06 0 1 1 279480.11 0a 139740.06 139740.06 0 1 1 -279480.11 0M 57622469.60 46914985.94 m -139740.06 0 a 139740.06 139740.06 0 1 1 279480.11 0a 139740.06 139740.06 0 1 1 -279480.11 0M 60935067.60 45714987.94 m -139740.06 0 a 139740.06 139740.06 0 1 1 279480.11 0a 139740.06 139740.06 0 1 1 -279480.11 0M 59735067.60 47114987.94 m -139740.06 0 a 139740.06 139740.06 0 1 1 279480.11 0a 139740.06 139740.06 0 1 1 -279480.11 0M 59272469.60 47414985.94 m -139740.06 0 a 139740.06 139740.06 0 1 1 279480.11 0a 139740.06 139740.06 0 1 1 -279480.11 0M 62100631.60 40799054.94 m -139740.06 0 a 139740.06 139740.06 0 1 1 279480.11 0a 139740.06 139740.06 0 1 1 -279480.11 0M 62310763.60 41077072.94 m -139740.06 0 a 139740.06 139740.06 0 1 1 279480.11 0a 139740.06 139740.06 0 1 1 -279480.11 0M 62889826.60 41077072.94 m -139740.06 0 a 139740.06 139740.06 0 1 1 279480.11 0a 139740.06 139740.06 0 1 1 -279480.11 0M 64665828.60 41307508.94 m -139740.06 0 a 139740.06 139740.06 0 1 1 279480.11 0a 139740.06 139740.06 0 1 1 -279480.11 0M 64665828.60 41671758.94 m -139740.06 0 a 139740.06 139740.06 0 1 1 279480.11 0a 139740.06 139740.06 0 1 1 -279480.11 0M 64665828.60 42664987.94 m -139740.06 0 a 139740.06 139740.06 0 1 1 279480.11 0a 139740.06 139740.06 0 1 1 -279480.11 0M 61133901.60 46766152.94 m -139740.06 0 a 139740.06 139740.06 0 1 1 279480.11 0a 139740.06 139740.06 0 1 1 -279480.11 0M 62308490.60 46757649.94 m -139740.06 0 a 139740.06 139740.06 0 1 1 279480.11 0a 139740.06 139740.06 0 1 1 -279480.11 0M 64661395.60 44459387.94 m -139740.06 0 a 139740.06 139740.06 0 1 1 279480.11 0a 139740.06 139740.06 0 1 1 -279480.11 0M 64665828.60 44033963.94 m -139740.06 0 a 139740.06 139740.06 0 1 1 279480.11 0a 139740.06 139740.06 0 1 1 -279480.11 0M 65000000.00 45302512.99 L 64968996.00 45294090.00 A 139724.48 139724.48 0 0 1 64885425.00 45137738.00 L 64889803.56 45123303.22 L 64875501.00 45140731.00 A 139724.48 139724.48 0 0 1 64663339.49 44960860.99 L 64638567.00 44958421.00 L 64612355.00 44950470.00 A 139724.48 139724.48 0 1 1 64779185.51 44902445.01 L 64803958.00 44904885.00 L 64830170.00 44912836.00 A 139724.48 139724.48 0 0 1 64905790.00 44988456.00 L 64909291.69 45000000.00 L 65000000.00 45000000.00 L 65000000.00 45027483.01 L 65022468.00 45025270.00 A 139740.06 139740.06 0 1 1 65000000.00 45302512.99  zM 64728017.60 46964985.94 m -139740.06 0 a 139740.06 139740.06 0 1 1 279480.11 0a 139740.06 139740.06 0 1 1 -279480.11 0M 66272469.60 37134985.94 m -139740.06 0 a 139740.06 139740.06 0 1 1 279480.11 0a 139740.06 139740.06 0 1 1 -279480.11 0M 68072469.60 39714985.94 m -139740.06 0 a 139740.06 139740.06 0 1 1 279480.11 0a 139740.06 139740.06 0 1 1 -279480.11 0M 64922469.60 40014985.94 m -139740.06 0 a 139740.06 139740.06 0 1 1 279480.11 0a 139740.06 139740.06 0 1 1 -279480.11 0M 65272469.60 40614985.94 m -139740.06 0 a 139740.06 139740.06 0 1 1 279480.11 0a 139740.06 139740.06 0 1 1 -279480.11 0M 64901115.60 41477368.94 m -139740.06 0 a 139740.06 139740.06 0 1 1 279480.11 0a 139740.06 139740.06 0 1 1 -279480.11 0M 67734839.00 41108818.00 L 67747018.82 41102307.84 L 67722468.00 41104726.00 L 67695208.00 41102041.00 A 139723.37 139723.37 0 1 1 67800097.00 41081178.00 L 67787917.18 41087688.16 L 67812468.00 41085270.00 L 67839728.00 41087955.00 A 139723.37 139723.37 0 1 1 67734839.00 41108818.00  zM 69222469.60 41304985.94 m -139740.06 0 a 139740.06 139740.06 0 1 1 279480.11 0a 139740.06 139740.06 0 1 1 -279480.11 0M 69582469.60 37194985.94 m -139740.06 0 a 139740.06 139740.06 0 1 1 279480.11 0a 139740.06 139740.06 0 1 1 -279480.11 0M 69582469.60 37544985.94 m -139740.06 0 a 139740.06 139740.06 0 1 1 279480.11 0a 139740.06 139740.06 0 1 1 -279480.11 0M 69572469.60 41304985.94 m -139740.06 0 a 139740.06 139740.06 0 1 1 279480.11 0a 139740.06 139740.06 0 1 1 -279480.11 0M 69222469.60 41594985.94 m -139740.06 0 a 139740.06 139740.06 0 1 1 279480.11 0a 139740.06 139740.06 0 1 1 -279480.11 0M 69572469.60 41594985.94 m -139740.06 0 a 139740.06 139740.06 0 1 1 279480.11 0a 139740.06 139740.06 0 1 1 -279480.11 0M 69922469.60 41304985.94 m -139740.06 0 a 139740.06 139740.06 0 1 1 279480.11 0a 139740.06 139740.06 0 1 1 -279480.11 0M 69932469.60 37194985.94 m -139740.06 0 a 139740.06 139740.06 0 1 1 279480.11 0a 139740.06 139740.06 0 1 1 -279480.11 0M 69932469.60 37544985.94 m -139740.06 0 a 139740.06 139740.06 0 1 1 279480.11 0a 139740.06 139740.06 0 1 1 -279480.11 0M 70282469.60 37194985.94 m -139740.06 0 a 139740.06 139740.06 0 1 1 279480.11 0a 139740.06 139740.06 0 1 1 -279480.11 0M 70282469.60 37544985.94 m -139740.06 0 a 139740.06 139740.06 0 1 1 279480.11 0a 139740.06 139740.06 0 1 1 -279480.11 0M 73662469.60 36704985.94 m -139740.06 0 a 139740.06 139740.06 0 1 1 279480.11 0a 139740.06 139740.06 0 1 1 -279480.11 0M 73872469.60 37134985.94 m -139740.06 0 a 139740.06 139740.06 0 1 1 279480.11 0a 139740.06 139740.06 0 1 1 -279480.11 0M 72464044.60 38114985.94 m -139740.06 0 a 139740.06 139740.06 0 1 1 279480.11 0a 139740.06 139740.06 0 1 1 -279480.11 0M 73652469.60 38114985.94 m -139740.06 0 a 139740.06 139740.06 0 1 1 279480.11 0a 139740.06 139740.06 0 1 1 -279480.11 0M 73882469.60 37604985.94 m -139740.06 0 a 139740.06 139740.06 0 1 1 279480.11 0a 139740.06 139740.06 0 1 1 -279480.11 0M 72562469.60 38994985.94 m -139740.06 0 a 139740.06 139740.06 0 1 1 279480.11 0a 139740.06 139740.06 0 1 1 -279480.11 0M 70872469.60 41164985.94 m -139740.06 0 a 139740.06 139740.06 0 1 1 279480.11 0a 139740.06 139740.06 0 1 1 -279480.11 0M 73182469.60 38974985.94 m -139740.06 0 a 139740.06 139740.06 0 1 1 279480.11 0a 139740.06 139740.06 0 1 1 -279480.11 0M 64901115.60 42464987.94 m -139740.06 0 a 139740.06 139740.06 0 1 1 279480.11 0a 139740.06 139740.06 0 1 1 -279480.11 0M 65550894.60 43114987.94 m -139740.06 0 a 139740.06 139740.06 0 1 1 279480.11 0a 139740.06 139740.06 0 1 1 -279480.11 0M 64978795.00 43976854.00 A 139740.06 139740.06 0 1 1 65032267.00 43966218.00 L 65000000.00 43974765.39 L 64978795.00 43976854.00  zM 65997871.60 42891914.94 m -139740.06 0 a 139740.06 139740.06 0 1 1 279480.11 0a 139740.06 139740.06 0 1 1 -279480.11 0M 66286642.60 42872104.94 m -139740.06 0 a 139740.06 139740.06 0 1 1 279480.11 0a 139740.06 139740.06 0 1 1 -279480.11 0M 68435067.60 42014987.94 m -139740.06 0 a 139740.06 139740.06 0 1 1 279480.11 0a 139740.06 139740.06 0 1 1 -279480.11 0M 64982369.00 44388187.00 A 139740.06 139740.06 0 1 1 65009629.00 44385502.00 L 64982369.00 44388187.00  zM 64988098.00 44780125.00 A 139740.06 139740.06 0 1 1 65015358.00 44777440.00 L 64988098.00 44780125.00  zM 66222469.60 44964985.94 m -139740.06 0 a 139740.06 139740.06 0 1 1 279480.11 0a 139740.06 139740.06 0 1 1 -279480.11 0M 66372469.60 46664985.94 m -139740.06 0 a 139740.06 139740.06 0 1 1 279480.11 0a 139740.06 139740.06 0 1 1 -279480.11 0M 65994392.60 47283490.94 m -139740.06 0 a 139740.06 139740.06 0 1 1 279480.11 0a 139740.06 139740.06 0 1 1 -279480.11 0M 66744392.60 47533490.94 m -139740.06 0 a 139740.06 139740.06 0 1 1 279480.11 0a 139740.06 139740.06 0 1 1 -279480.11 0M 69922469.60 41594985.94 m -139740.06 0 a 139740.06 139740.06 0 1 1 279480.11 0a 139740.06 139740.06 0 1 1 -279480.11 0M 68872469.60 42914985.94 m -139740.06 0 a 139740.06 139740.06 0 1 1 279480.11 0a 139740.06 139740.06 0 1 1 -279480.11 0M 71184994.96 42300371.15 m -326824.85 0 a 326824.85 326824.85 0 1 1 653649.71 0a 326824.85 326824.85 0 1 1 -653649.71 0M 68566510.60 43609026.94 m -139740.06 0 a 139740.06 139740.06 0 1 1 279480.11 0a 139740.06 139740.06 0 1 1 -279480.11 0M 69572469.60 44214985.94 m -139740.06 0 a 139740.06 139740.06 0 1 1 279480.11 0a 139740.06 139740.06 0 1 1 -279480.11 0M 71184994.96 44229505.15 m -326824.85 0 a 326824.85 326824.85 0 1 1 653649.71 0a 326824.85 326824.85 0 1 1 -653649.71 0M 70772469.60 45314985.94 m -139740.06 0 a 139740.06 139740.06 0 1 1 279480.11 0a 139740.06 139740.06 0 1 1 -279480.11 0M 70148102.13 49020909.67 m -277699.33 0 a 277699.33 277699.33 0 1 1 555398.66 0a 277699.33 277699.33 0 1 1 -555398.66 0M 69242502.13 49020909.67 m -277699.33 0 a 277699.33 277699.33 0 1 1 555398.66 0a 277699.33 277699.33 0 1 1 -555398.66 0M 72286595.60 47995771.94 m -139740.06 0 a 139740.06 139740.06 0 1 1 279480.11 0a 139740.06 139740.06 0 1 1 -279480.11 0M 71622469.60 49014985.94 m -139740.06 0 a 139740.06 139740.06 0 1 1 279480.11 0a 139740.06 139740.06 0 1 1 -279480.11 0M 74026010.50 48383885.63 m -508962.37 0 a 508962.37 508962.37 0 1 1 1017924.73 0a 508962.37 508962.37 0 1 1 -1017924.73 0"/>
<path id="N" d="M 55501488.00 49365270.00 L 55501488.00 35785468.00 A 50982.36 50982.36 0 0 1 55552468.00 35734488.00 L 62705219.53 35734488.74 L 62698023.00 35710764.00 L 62695338.00 35683504.00 A 139740.06 139740.06 0 1 1 62964912.46 35734488.76 L 75007532.00 35734490.00 L 75007531.00 16616485.00 A 703815.48 703815.48 0 0 0 74376094.00 15985053.00 L 53203396.00 15986385.00 A 703107.81 703107.81 0 0 0 52572101.00 16616708.00 L 52573382.00 48734067.00 A 703093.58 703093.58 0 0 0 53203706.00 49365364.00 L 55501488.00 49365270.00  zM 53553569.50 16966560.63 m -508962.37 0 a 508962.37 508962.37 0 1 1 1017924.73 0a 508962.37 508962.37 0 1 1 -1017924.73 0M 62222467.13 16947447.67 m -277699.33 0 a 277699.33 277699.33 0 1 1 555398.66 0a 277699.33 277699.33 0 1 1 -555398.66 0M 62222467.13 19034061.67 m -277699.33 0 a 277699.33 277699.33 0 1 1 555398.66 0a 277699.33 277699.33 0 1 1 -555398.66 0M 53420843.00 25023692.00 L 53393103.65 25000000.00 L 53363774.00 24966623.00 A 257991.98 257991.98 0 1 1 53420843.00 25023692.00  zM 53572470.11 25814976.88 m -257982.12 0 a 257982.12 257982.12 0 1 1 515964.24 0a 257982.12 257982.12 0 1 1 -515964.24 0M 53572470.11 26814974.88 m -257982.12 0 a 257982.12 257982.12 0 1 1 515964.24 0a 257982.12 257982.12 0 1 1 -515964.24 0M 64272469.60 16514985.94 m -139740.06 0 a 139740.06 139740.06 0 1 1 279480.11 0a 139740.06 139740.06 0 1 1 -279480.11 0M 66222467.13 16947447.67 m -277699.33 0 a 277699.33 277699.33 0 1 1 555398.66 0a 277699.33 277699.33 0 1 1 -555398.66 0M 66222467.13 19034061.67 m -277699.33 0 a 277699.33 277699.33 0 1 1 555398.66 0a 277699.33 277699.33 0 1 1 -555398.66 0M 65772469.60 23264985.94 m -139740.06 0 a 139740.06 139740.06 0 1 1 279480.11 0a 139740.06 139740.06 0 1 1 -279480.11 0M 66172469.60 23264985.94 m -139740.06 0 a 139740.06 139740.06 0 1 1 279480.11 0a 139740.06 139740.06 0 1 1 -279480.11 0M 66172469.60 23564985.94 m -139740.06 0 a 139740.06 139740.06 0 1 1 279480.11 0a 139740.06 139740.06 0 1 1 -279480.11 0M 67872469.60 18864985.94 m -139740.06 0 a 139740.06 139740.06 0 1 1 279480.11 0a 139740.06 139740.06 0 1 1 -279480.11 0M 68672464.21 21165023.61 m -317172.39 0 a 317172.39 317172.39 0 1 1 634344.78 0a 317172.39 317172.39 0 1 1 -634344.78 0M 66972469.60 23264985.94 m -139740.06 0 a 139740.06 139740.06 0 1 1 279480.11 0a 139740.06 139740.06 0 1 1 -279480.11 0M 66572469.60 23264985.94 m -139740.06 0 a 139740.06 139740.06 0 1 1 279480.11 0a 139740.06 139740.06 0 1 1 -279480.11 0M 66572469.60 23564985.94 m -139740.06 0 a 139740.06 139740.06 0 1 1 279480.11 0a 139740.06 139740.06 0 1 1 -279480.11 0M 66972469.60 23564985.94 m -139740.06 0 a 139740.06 139740.06 0 1 1 279480.11 0a 139740.06 139740.06 0 1 1 -279480.11 0M 66572469.60 23864985.94 m -139740.06 0 a 139740.06 139740.06 0 1 1 279480.11 0a 139740.06 139740.06 0 1 1 -279480.11 0M 66972469.60 23864985.94 m -139740.06 0 a 139740.06 139740.06 0 1 1 279480.11 0a 139740.06 139740.06 0 1 1 -279480.11 0M 66972469.60 24164985.94 m -139740.06 0 a 139740.06 139740.06 0 1 1 279480.11 0a 139740.06 139740.06 0 1 1 -279480.11 0M 68172469.60 25914985.94 m -139740.06 0 a 139740.06 139740.06 0 1 1 279480.11 0a 139740.06 139740.06 0 1 1 -279480.11 0M 68772469.60 27064985.94 m -139740.06 0 a 139740.06 139740.06 0 1 1 279480.11 0a 139740.06 139740.06 0 1 1 -279480.11 0M 69972468.00 16704726.00 A 139740.06 139740.06 0 1 1 69999728.00 16702041.00 L 69972468.00 16704726.00  zM 69625619.60 17314985.94 m -139740.06 0 a 139740.06 139740.06 0 1 1 279480.11 0a 139740.06 139740.06 0 1 1 -279480.11 0M 74026010.50 16966560.63 m -508962.37 0 a 508962.37 508962.37 0 1 1 1017924.73 0a 508962.37 508962.37 0 1 1 -1017924.73 0M 69622469.60 19264985.94 m -139740.06 0 a 139740.06 139740.06 0 1 1 279480.11 0a 139740.06 139740.06 0 1 1 -279480.11 0M 71572469.60 18514985.94 m -139740.06 0 a 139740.06 139740.06 0 1 1 279480.11 0a 139740.06 139740.06 0 1 1 -279480.11 0M 70672465.21 21165023.61 m -317172.39 0 a 317172.39 317172.39 0 1 1 634344.78 0a 317172.39 317172.39 0 1 1 -634344.78 0M 71672469.60 22664985.94 m -139740.06 0 a 139740.06 139740.06 0 1 1 279480.11 0a 139740.06 139740.06 0 1 1 -279480.11 0M 71622469.60 24064985.94 m -139740.06 0 a 139740.06 139740.06 0 1 1 279480.11 0a 139740.06 139740.06 0 1 1 -279480.11 0M 72644277.00 24885878.00 L 72329307.00 24885878.00 A 238226.28 238226.28 0 0 1 72329307.00 24409450.00 L 72644277.00 24409450.00 A 238226.28 238226.28 0 0 1 72644277.00 24885878.00  zM 74072469.60 23964985.94 m -139740.06 0 a 139740.06 139740.06 0 1 1 279480.11 0a 139740.06 139740.06 0 1 1 -279480.11 0M 74522469.60 23757536.94 m -139740.06 0 a 139740.06 139740.06 0 1 1 279480.11 0a 139740.06 139740.06 0 1 1 -279480.11 0M 68772469.60 26764985.94 m -139740.06 0 a 139740.06 139740.06 0 1 1 279480.11 0a 139740.06 139740.06 0 1 1 -279480.11 0M 69072469.60 26764985.94 m -139740.06 0 a 139740.06 139740.06 0 1 1 279480.11 0a 139740.06 139740.06 0 1 1 -279480.11 0M 69372469.60 27064985.94 m -139740.06 0 a 139740.06 139740.06 0 1 1 279480.11 0a 139740.06 139740.06 0 1 1 -279480.11 0M 69372469.60 26764985.94 m -139740.06 0 a 139740.06 139740.06 0 1 1 279480.11 0a 139740.06 139740.06 0 1 1 -279480.11 0M 69672469.60 27064985.94 m -139740.06 0 a 139740.06 139740.06 0 1 1 279480.11 0a 139740.06 139740.06 0 1 1 -279480.11 0M 69672469.60 26764985.94 m -139740.06 0 a 139740.06 139740.06 0 1 1 279480.11 0a 139740.06 139740.06 0 1 1 -279480.11 0M 71622469.60 24664985.94 m -139740.06 0 a 139740.06 139740.06 0 1 1 279480.11 0a 139740.06 139740.06 0 1 1 -279480.11 0M 71622469.60 25264985.94 m -139740.06 0 a 139740.06 139740.06 0 1 1 279480.11 0a 139740.06 139740.06 0 1 1 -279480.11 0M 71622469.60 25864985.94 m -139740.06 0 a 139740.06 139740.06 0 1 1 279480.11 0a 139740.06 139740.06 0 1 1 -279480.11 0M 72695487.74 25210692.98 m -228315.02 0 a 228315.02 228315.02 0 1 1 456630.03 0a 228315.02 228315.02 0 1 1 -456630.03 0M 74250602.00 24885878.00 L 74014382.00 24885878.00 A 238226.28 238226.28 0 0 1 74014382.00 24409450.00 L 74250602.00 24409450.00 A 238226.28 238226.28 0 1 1 74250602.00 24885878.00  zM 53572470.11 27814975.88 m -257982.12 0 a 257982.12 257982.12 0 1 1 515964.24 0a 257982.12 257982.12 0 1 1 -515964.24 0M 54072469.60 34144040.94 m -139740.06 0 a 139740.06 139740.06 0 1 1 279480.11 0a 139740.06 139740.06 0 1 1 -279480.11 0M 54372469.60 34144040.94 m -139740.06 0 a 139740.06 139740.06 0 1 1 279480.11 0a 139740.06 139740.06 0 1 1 -279480.11 0M 54672469.60 34144040.94 m -139740.06 0 a 139740.06 139740.06 0 1 1 279480.11 0a 139740.06 139740.06 0 1 1 -279480.11 0M 54972468.00 34283781.00 A 139740.06 139740.06 0 1 1 54999728.00 34281096.00 L 54972468.00 34283781.00  zM 58786263.00 34286278.00 L 58799111.80 34275733.29 L 56601718.00 34275735.00 L 56562511.00 34271873.00 L 56502664.00 34259968.00 L 56464965.00 34248532.00 L 56408592.00 34225181.00 L 56373847.00 34206608.00 L 56323112.00 34172707.00 L 56292658.00 34147714.00 L 56249511.00 34104566.00 L 56224518.66 34074110.48 L 56190620.00 34023375.00 L 56172051.00 33988635.00 L 56148699.00 33932257.00 L 56137263.00 33894556.00 L 56125360.00 33834710.00 L 56121499.00 33795500.00 L 56121500.00 33734489.00 L 56125361.00 33695286.00 L 56137265.00 33635435.00 L 56148701.00 33597734.00 L 56172052.00 33541361.00 L 56190624.00 33506617.00 L 56224524.00 33455882.00 L 56249516.00 33425430.00 L 56292662.00 33382284.00 L 56323115.00 33357292.00 L 56373849.00 33323392.00 L 56408593.00 33304820.00 L 56464966.00 33281469.00 L 56502672.00 33270032.00 L 56562517.00 33258129.00 L 56601721.00 33254268.00 L 65543184.00 33254337.00 L 65582392.00 33258194.00 L 65642233.00 33270089.00 L 65679938.87 33281522.60 L 65736304.00 33304862.00 L 65766585.75 33321043.00 L 65821784.00 33357320.00 L 65846773.00 33377823.50 L 65895387.00 33425445.00 L 65920382.00 33455894.00 L 65954285.00 33506621.00 L 65972861.00 33541363.00 L 65996215.00 33597728.00 L 66007655.00 33635424.00 L 66019565.00 33695261.00 L 66023431.00 33734472.00 L 66023436.00 33795506.00 L 66019574.00 33834713.00 L 66007671.00 33894559.00 L 65996234.00 33932261.00 L 65972883.00 33988634.00 L 65954311.00 34023378.00 L 65920411.00 34074112.00 L 65895419.00 34104565.00 L 65852273.00 34147711.00 L 65821821.00 34172703.00 L 65771086.00 34206603.00 L 65736342.00 34225175.00 L 65679969.00 34248526.00 L 65653643.44 34256511.44 L 65582421.00 34271867.00 L 65546728.78 34275381.78 L 58971020.03 34275733.16 L 58983869.00 34286278.00 A 139724.48 139724.48 0 1 1 58786263.00 34286278.00  zM 61365069.60 34563493.94 m -139740.06 0 a 139740.06 139740.06 0 1 1 279480.11 0a 139740.06 139740.06 0 1 1 -279480.11 0M 61185067.60 34783491.94 m -139740.06 0 a 139740.06 139740.06 0 1 1 279480.11 0a 139740.06 139740.06 0 1 1 -279480.11 0M 68172469.60 30514985.94 m -139740.06 0 a 139740.06 139740.06 0 1 1 279480.11 0a 139740.06 139740.06 0 1 1 -279480.11 0M 68772469.60 27364985.94 m -139740.06 0 a 139740.06 139740.06 0 1 1 279480.11 0a 139740.06 139740.06 0 1 1 -279480.11 0M 68172469.60 28864985.94 m -139740.06 0 a 139740.06 139740.06 0 1 1 279480.11 0a 139740.06 139740.06 0 1 1 -279480.11 0M 68422468.00 30254726.00 A 139740.06 139740.06 0 1 1 68449728.00 30252041.00 L 68422468.00 30254726.00  zM 55842480.00 35010630.00 L 55845854.49 35004316.68 A 135179.39 135179.39 0 0 1 55742739.00 34983279.00 A 139726.39 139726.39 0 1 1 55949460.00 34920571.00 L 55946085.51 34926884.32 A 135179.39 135179.39 0 0 1 56049201.00 34947922.00 A 139726.39 139726.39 0 1 1 55842480.00 35010630.00  zM 59635067.60 35233491.94 m -139740.06 0 a 139740.06 139740.06 0 1 1 279480.11 0a 139740.06 139740.06 0 1 1 -279480.11 0M 59785067.60 34983491.94 m -139740.06 0 a 139740.06 139740.06 0 1 1 279480.11 0a 139740.06 139740.06 0 1 1 -279480.11 0M 60485067.60 34983491.94 m -139740.06 0 a 139740.06 139740.06 0 1 1 279480.11 0a 139740.06 139740.06 0 1 1 -279480.11 0M 61585067.60 35233491.94 m -139740.06 0 a 139740.06 139740.06 0 1 1 279480.11 0a 139740.06 139740.06 0 1 1 -279480.11 0M 66522469.60 35214985.94 m -139740.06 0 a 139740.06 139740.06 0 1 1 279480.11 0a 139740.06 139740.06 0 1 1 -279480.11 0M 54753376.00 38644770.00 L 54747468.00 38625293.14 L 54741560.00 38644770.00 A 139724.48 139724.48 0 0 1 54477468.00 38625293.14 L 54471560.00 38644770.00 A 139724.48 139724.48 0 0 1 54207468.00 38625293.14 L 54201560.00 38644770.00 A 139724.48 139724.48 0 0 1 53937468.00 38625293.14 L 53931560.00 38644770.00 A 139724.48 139724.48 0 1 1 53931560.00 38537826.00 L 53937468.00 38557302.86 L 53943376.00 38537826.00 A 139724.48 139724.48 0 0 1 54207468.00 38557302.86 L 54213376.00 38537826.00 A 139724.48 139724.48 0 0 1 54477468.00 38557302.86 L 54483376.00 38537826.00 A 139724.48 139724.48 0 0 1 54747468.00 38557302.86 L 54753376.00 38537826.00 A 139724.48 139724.48 0 1 1 54753376.00 38644770.00  zM 52772469.60 41214985.94 m -139740.06 0 a 139740.06 139740.06 0 1 1 279480.11 0a 139740.06 139740.06 0 1 1 -279480.11 0M 61785067.60 35483491.94 m -139740.06 0 a 139740.06 139740.06 0 1 1 279480.11 0a 139740.06 139740.06 0 1 1 -279480.11 0M 53022469.60 41464985.94 m -139740.06 0 a 139740.06 139740.06 0 1 1 279480.11 0a 139740.06 139740.06 0 1 1 -279480.11 0M 53553569.50 48383885.63 m -508962.37 0 a 508962.37 508962.37 0 1 1 1017924.73 0a 508962.37 508962.37 0 1 1 -1017924.73 0M 69072469.60 27064985.94 m -139740.06 0 a 139740.06 139740.06 0 1 1 279480.11 0a 139740.06 139740.06 0 1 1 -279480.11 0M 69372469.60 27364985.94 m -139740.06 0 a 139740.06 139740.06 0 1 1 279480.11 0a 139740.06 139740.06 0 1 1 -279480.11 0M 69672469.60 27364985.94 m -139740.06 0 a 139740.06 139740.06 0 1 1 279480.11 0a 139740.06 139740.06 0 1 1 -279480.11 0M 69072469.60 27364985.94 m -139740.06 0 a 139740.06 139740.06 0 1 1 279480.11 0a 139740.06 139740.06 0 1 1 -279480.11 0M 68789376.60 28538567.94 m -139740.06 0 a 139740.06 139740.06 0 1 1 279480.11 0a 139740.06 139740.06 0 1 1 -279480.11 0M 69272469.60 28564985.94 m -139740.06 0 a 139740.06 139740.06 0 1 1 279480.11 0a 139740.06 139740.06 0 1 1 -279480.11 0M 69722469.60 28564985.94 m -139740.06 0 a 139740.06 139740.06 0 1 1 279480.11 0a 139740.06 139740.06 0 1 1 -279480.11 0M 70772469.60 28764985.94 m -139740.06 0 a 139740.06 139740.06 0 1 1 279480.11 0a 139740.06 139740.06 0 1 1 -279480.11 0M 72644267.00 28287478.00 L 72329317.00 28287478.00 A 238226.28 238226.28 0 0 1 72329317.00 27811050.00 L 72644267.00 27811050.00 A 238226.28 238226.28 0 1 1 72644267.00 28287478.00  zM 72695487.74 27486292.98 m -228315.02 0 a 228315.02 228315.02 0 1 1 456630.03 0a 228315.02 228315.02 0 1 1 -456630.03 0M 74250602.00 28287478.00 L 74014382.00 28287478.00 A 238226.28 238226.28 0 0 1 74014382.00 27811050.00 L 74250602.00 27811050.00 A 238226.28 238226.28 0 1 1 74250602.00 28287478.00  zM 69272468.00 30011814.00 A 139740.06 139740.06 0 1 1 69350097.00 29988266.00 L 69328143.91 30000000.00 L 69299728.00 30009129.00 L 69272468.00 30011814.00  zM 70634501.60 30489985.94 m -139740.06 0 a 139740.06 139740.06 0 1 1 279480.11 0a 139740.06 139740.06 0 1 1 -279480.11 0M 70846067.60 30788583.94 m -139740.06 0 a 139740.06 139740.06 0 1 1 279480.11 0a 139740.06 139740.06 0 1 1 -279480.11 0M 69122469.60 31364985.94 m -139740.06 0 a 139740.06 139740.06 0 1 1 279480.11 0a 139740.06 139740.06 0 1 1 -279480.11 0M 70572469.60 32564985.94 m -139740.06 0 a 139740.06 139740.06 0 1 1 279480.11 0a 139740.06 139740.06 0 1 1 -279480.11 0M 70572469.60 32864985.94 m -139740.06 0 a 139740.06 139740.06 0 1 1 279480.11 0a 139740.06 139740.06 0 1 1 -279480.11 0M 70872469.60 32564985.94 m -139740.06 0 a 139740.06 139740.06 0 1 1 279480.11 0a 139740.06 139740.06 0 1 1 -279480.11 0M 73772469.60 32064985.94 m -139740.06 0 a 139740.06 139740.06 0 1 1 279480.11 0a 139740.06 139740.06 0 1 1 -279480.11 0M 73872469.60 29564985.94 m -139740.06 0 a 139740.06 139740.06 0 1 1 279480.11 0a 139740.06 139740.06 0 1 1 -279480.11 0M 70872469.60 32864985.94 m -139740.06 0 a 139740.06 139740.06 0 1 1 279480.11 0a 139740.06 139740.06 0 1 1 -279480.11 0M 74374158.60 33764985.94 m -139740.06 0 a 139740.06 139740.06 0 1 1 279480.11 0a 139740.06 139740.06 0 1 1 -279480.11 0"/>
</g>
</svg>
