<svg width="58.00704934mm" height="85.80704708mm" viewBox="0 0 22837421 33782302"  version="1.1" xmlns="http://www.w3.org/2000/svg" xmlns:xlink="http://www.w3.org/1999/xlink">
<desc>
Origin 52372468 49564998 Bound 52371080 15784084 22837421 33782302
</desc>
<g fill-rule="evenodd" fill="rgb(0, 255, 255)" stroke="black" stroke-width="1" transform="translate(0, 33782302) scale(1, -1) translate(-52371080, -15784084)">
<path id="N" d="M 64736787.00 41742731.00 L 64741844.80 41735161.50 L 64751617.00 41726665.00 L 64775807.00 41711495.00 L 64797088.77 41704243.00 L 65517169.00 41704243.00 L 65540130.00 41694732.00 L 66178027.00 41056835.00 L 66187538.00 41033874.00 L 66187538.00 38933226.00 L 66178028.00 38910265.00 L 64366651.00 37098889.00 L 64343690.00 37089378.00 L 63610028.00 37089378.00 L 63441114.00 36920464.00 L 63418153.00 36910953.00 L 62333528.68 36910953.00 L 62312362.00 36902751.00 L 62291201.00 36886099.00 L 62268677.00 36855615.00 L 62236120.00 36833861.00 A 100349.83 100349.83 0 1 0 62267103.06 36998586.68 L 62291353.00 36985328.00 L 62317685.00 36976401.00 L 63404703.00 36975897.00 L 63573617.00 37144811.00 L 63596578.00 37154322.00 L 64330239.99 37154322.00 L 66122594.00 38946676.99 L 66122594.00 41020424.00 L 65503719.00 41639299.00 L 64797088.77 41639299.00 L 64792558.00 41638270.00 L 64767619.00 41627768.00 L 64743804.00 41610264.00 L 64736787.00 41600811.00 A 100353.26 100353.26 0 1 0 64736787.00 41742731.00  z"/>
<path id="N" d="M 53093428.00 41394038.00 L 53085859.21 41388980.67 L 53077362.00 41379208.00 L 53062192.00 41355018.00 L 53054940.00 41333736.23 L 53054940.00 23578448.00 L 56335918.00 20297470.00 L 71659018.00 20297470.00 L 74039996.00 22678448.00 L 74039996.00 23833736.23 L 74038967.00 23838267.00 L 74028465.00 23863206.00 L 74010961.00 23887021.00 L 74001508.00 23894038.00 A 100353.26 100353.26 0 1 0 74143428.00 23894038.00 L 74135859.21 23888980.67 L 74127362.00 23879208.00 L 74112192.00 23855018.00 L 74104940.00 23833736.23 L 74104940.00 22664998.00 L 74095429.00 22642037.00 L 71695429.00 20242037.00 L 71672468.00 20232526.00 L 56322468.00 20232526.00 L 56299507.00 20242037.00 L 52999507.00 23542037.00 L 52989996.00 23564998.00 L 52989996.00 41333736.23 L 52988967.00 41338267.00 L 52978465.00 41363206.00 L 52960961.00 41387021.00 L 52951508.00 41394038.00 A 100353.26 100353.26 0 1 0 53093428.00 41394038.00  z"/>
<path id="N" d="M 73801508.00 29494038.00 L 73796450.67 29501606.79 L 73786678.00 29510104.00 L 73762488.00 29525274.00 L 73741206.23 29532526.00 L 70735917.00 29532526.00 L 69838245.15 28634854.15 L 69835769.00 28630923.00 L 69825560.00 28605861.00 L 69821098.00 28576645.00 L 69822821.00 28564998.00 A 100353.26 100353.26 0 1 0 69722468.00 28665351.00 L 69731398.77 28663574.52 L 69744314.00 28664477.00 L 69772145.00 28670855.00 L 69792323.95 28680776.95 L 70699506.00 29587959.00 L 70722467.00 29597470.00 L 73741206.23 29597470.00 L 73745737.00 29598499.00 L 73770676.00 29609001.00 L 73794491.00 29626505.00 L 73801508.00 29635958.00 A 100353.26 100353.26 0 1 0 73801508.00 29494038.00  z"/>
<path id="N" d="M 65059058.00 44711357.00 L 65064115.80 44703787.50 L 65073888.00 44695291.00 L 65098078.00 44680121.00 L 65119359.77 44672869.00 L 65392944.00 44672869.00 L 65415905.00 44663358.00 L 66948027.00 43131236.00 L 66957538.00 43108275.00 L 66957538.00 38614285.00 L 66948027.00 38591324.00 L 64041599.00 35684896.00 L 64018638.00 35675385.00 L 62971771.83 35675385.00 L 62950930.00 35666928.00 L 62931214.00 35649878.00 L 62906026.00 35612544.00 A 100353.26 100353.26 0 1 0 62873469.00 35776218.00 L 62887409.67 35766903.10 L 62914851.00 35752456.00 L 62950873.00 35740538.00 L 64005188.00 35740329.00 L 66892594.00 38627735.00 L 66892594.00 43094825.00 L 65379494.00 44607925.00 L 65119359.77 44607925.00 L 65114829.00 44606896.00 L 65089890.00 44596394.00 L 65066075.00 44578890.00 L 65059058.00 44569437.00 A 100353.26 100353.26 0 1 0 65059058.00 44711357.00  z"/>
<path id="N" d="M 63766180.00 40215000.00 L 63764403.52 40206069.23 L 63765306.00 40193153.00 L 63771684.00 40165322.00 L 63781604.15 40145144.85 L 64308027.00 39618722.00 L 64317538.00 39595761.00 L 64317538.00 37865000.00 L 64308027.00 37842039.00 L 63908027.00 37442039.00 L 63885066.00 37432528.00 L 63292953.00 37432528.00 L 63052464.00 37192039.00 L 63029503.00 37182528.00 L 60166327.77 37182528.00 L 60161797.00 37181499.00 L 60136858.00 37170997.00 L 60113043.00 37153493.00 L 60106026.00 37144040.00 A 100353.26 100353.26 0 1 0 60106026.00 37285960.00 L 60111083.33 37278391.21 L 60120856.00 37269894.00 L 60145046.00 37254724.00 L 60166327.77 37247472.00 L 63016053.00 37247472.00 L 63256542.00 37487961.00 L 63279503.00 37497472.00 L 63871616.00 37497472.00 L 64252594.00 37878450.00 L 64252594.00 39582311.00 L 63735682.15 40099222.85 L 63731751.00 40101699.00 L 63706690.00 40111908.00 L 63677473.00 40116370.00 L 63665827.00 40114647.00 A 100353.26 100353.26 0 1 0 63766180.00 40215000.00  z"/>
<path id="N" d="M 65017198.00 43929840.00 L 65049755.00 43908086.00 L 65074202.00 43872814.00 L 65094353.00 43855865.00 L 65115302.32 43847472.00 L 65596089.00 43847472.00 L 65619050.00 43837961.00 L 66508027.00 42948984.00 L 66517538.00 42926023.00 L 66517538.00 38796537.00 L 66508027.00 38773576.00 L 64276490.00 36542039.00 L 64253529.00 36532528.00 L 62216327.77 36532528.00 L 62211797.00 36531499.00 L 62186858.00 36520997.00 L 62163043.00 36503493.00 L 62156026.00 36494040.00 A 100353.26 100353.26 0 1 0 62156026.00 36635960.00 L 62161083.33 36628391.21 L 62170856.00 36619894.00 L 62195046.00 36604724.00 L 62216327.77 36597472.00 L 64240079.00 36597472.00 L 66452594.00 38809987.00 L 66452594.00 42912573.00 L 65582639.00 43782528.00 L 65097601.97 43782528.00 L 65078287.00 43777298.00 L 65041370.00 43760045.00 L 65017198.00 43744412.00 A 100349.83 100349.83 0 1 0 65017198.00 43929840.00  z"/>
<path id="N" d="M 62960785.00 41148045.00 L 62965842.80 41140475.50 L 62975615.00 41131979.00 L 62999805.00 41116809.00 L 63021086.77 41109557.00 L 63860381.00 41109557.00 L 63883342.00 41100046.00 L 64852612.85 40130775.15 L 64856544.00 40128299.00 L 64881605.00 40118090.00 L 64910822.00 40113628.00 L 64922468.00 40115351.00 A 100353.26 100353.26 0 1 0 64822115.00 40014998.00 L 64823891.48 40023928.77 L 64822989.00 40036845.00 L 64816611.00 40064676.00 L 64806690.85 40084853.15 L 63846931.00 41044613.00 L 63021086.77 41044613.00 L 63016556.00 41043584.00 L 62991617.00 41033082.00 L 62967802.00 41015578.00 L 62960785.00 41006125.00 A 100353.26 100353.26 0 1 0 62960785.00 41148045.00  z"/>
<path id="N" d="M 53572467.26 25814997.65 m -337534.65 0 a 337534.65 337534.65 0 1 1 675069.30 0a 337534.65 337534.65 0 1 1 -675069.30 0M 53572468.44 25814997.65 m -180637.35 0 a 180637.35 180637.35 0 1 1 361274.69 0a 180637.35 180637.35 0 1 1 -361274.69 0"/>
<path id="N" d="M 56050549.00 41559143.00 L 56033644.00 41538820.00 L 56025280.00 41517827.25 L 56025280.00 35183589.32 L 56034042.00 35155128.00 L 56048083.00 35127376.00 L 56064286.00 35102505.00 A 100349.83 100349.83 0 1 0 55900612.00 35135062.00 L 55935067.00 35159201.00 L 55951972.00 35179524.00 L 55960336.00 35200516.75 L 55960336.00 41534754.46 L 55951574.00 41563216.00 L 55937532.00 41590967.00 L 55921329.00 41615839.00 A 100349.83 100349.83 0 1 0 56050549.00 41559143.00  z"/>
<path id="N" d="M 57521748.00 41632701.00 L 57500884.00 41649450.00 L 57479773.79 41657714.00 L 57266669.98 41657714.00 L 56664940.00 41055984.98 L 56664940.00 37199552.00 L 58598516.00 35265976.00 L 59503804.23 35265976.00 L 59508335.00 35267005.00 L 59533274.00 35277507.00 L 59557089.00 35295011.00 L 59564106.00 35304464.00 A 100353.26 100353.26 0 1 0 59564106.00 35162544.00 L 59559048.67 35170112.79 L 59549276.00 35178610.00 L 59525086.00 35193780.00 L 59503804.23 35201032.00 L 58585066.00 35201032.00 L 58562105.00 35210543.00 L 56609507.00 37163141.00 L 56599996.00 37186102.00 L 56599996.00 41069435.00 L 56609507.00 41092396.00 L 57230257.00 41713147.00 L 57253219.00 41722658.00 L 57494289.75 41722658.00 L 57505380.00 41725373.00 L 57532099.00 41736070.00 L 57577424.00 41764485.00 A 100349.83 100349.83 0 1 0 57521748.00 41632701.00  z"/>
<path id="N" d="M 64736787.00 42735960.00 L 64741844.33 42728391.21 L 64751617.00 42719894.00 L 64775807.00 42704724.00 L 64797088.77 42697472.00 L 64987397.00 42697472.00 L 65010358.00 42687961.00 L 66398027.00 41300292.00 L 66407538.00 41277331.00 L 66407538.00 38842100.00 L 66398027.00 38819138.00 L 64263680.00 36684792.00 L 64240719.00 36675281.00 L 63292313.00 36675281.00 L 63269351.00 36684792.00 L 63221615.83 36732528.00 L 63161797.00 36731499.00 L 63136858.00 36720997.00 L 63113043.00 36703493.00 L 63106026.00 36694040.00 A 100353.26 100353.26 0 1 0 63106026.00 36835960.00 L 63111083.33 36828391.21 L 63136858.00 36809003.00 L 63161797.00 36798501.00 L 63235066.00 36797472.00 L 63258027.00 36787961.00 L 63305763.83 36740225.00 L 64227269.00 36740225.00 L 66342594.00 38855551.00 L 66342594.00 41263881.00 L 64973947.00 42632528.00 L 64797088.77 42632528.00 L 64792558.00 42631499.00 L 64767619.00 42620997.00 L 64743804.00 42603493.00 L 64736787.00 42594040.00 A 100353.26 100353.26 0 1 0 64736787.00 42735960.00  z"/>
<path id="N" d="M 61062940.00 46695205.00 L 61058204.90 46702291.55 L 61032583.00 46721119.00 L 61007532.00 46731530.00 L 59298516.00 46732528.00 L 56224940.00 43658952.00 L 56224940.00 36439552.00 L 58246939.00 34417553.00 L 58753804.23 34417553.00 L 58758335.00 34418582.00 L 58783274.00 34429084.00 L 58807089.00 34446588.00 L 58814106.00 34456041.00 A 100353.26 100353.26 0 1 0 58814106.00 34314121.00 L 58809048.20 34321690.50 L 58799276.00 34330187.00 L 58775086.00 34345357.00 L 58753804.23 34352609.00 L 58233489.00 34352609.00 L 58210528.00 34362120.00 L 56169507.00 36403141.00 L 56159996.00 36426102.00 L 56159996.00 43672402.00 L 56169507.00 43695363.00 L 59262105.00 46787961.00 L 59285066.00 46797472.00 L 61002203.94 46797472.00 L 61006819.00 46798530.00 L 61031647.00 46809121.00 L 61055221.00 46826773.00 L 61062940.00 46837125.00 A 100353.26 100353.26 0 1 0 61062940.00 46695205.00  z"/>
<path id="N" d="M 52843428.00 41144038.00 L 52835859.21 41138980.67 L 52827362.00 41129208.00 L 52812192.00 41105018.00 L 52804940.00 41083736.23 L 52804940.00 23572885.00 L 56190355.00 20187470.00 L 71704581.00 20187470.00 L 74489996.00 22972885.00 L 74489996.00 23626287.23 L 74488967.00 23630818.00 L 74478465.00 23655757.00 L 74460961.00 23679572.00 L 74451508.00 23686589.00 A 100353.26 100353.26 0 1 0 74593428.00 23686589.00 L 74585859.21 23681531.67 L 74577362.00 23671759.00 L 74562192.00 23647569.00 L 74554940.00 23626287.23 L 74554940.00 22959435.00 L 74545429.00 22936474.00 L 71740992.00 20132037.00 L 71718031.00 20122526.00 L 56176905.00 20122526.00 L 56153944.00 20132037.00 L 52749507.00 23536474.00 L 52739996.00 23559435.00 L 52739996.00 41083736.23 L 52738967.00 41088267.00 L 52728465.00 41113206.00 L 52710961.00 41137021.00 L 52701508.00 41144038.00 A 100353.26 100353.26 0 1 0 52843428.00 41144038.00  z"/>
<path id="N" d="M 73843428.00 31994038.00 L 73835859.21 31988980.67 L 73827362.00 31979208.00 L 73812192.00 31955018.00 L 73804940.00 31933736.23 L 73804940.00 30364998.00 L 73795429.00 30342037.00 L 73105429.00 29652037.00 L 73082468.00 29642526.00 L 70395917.00 29642526.00 L 69388245.15 28634854.15 L 69385769.00 28630923.00 L 69375560.00 28605861.00 L 69371098.00 28576645.00 L 69372821.00 28564998.00 A 100353.26 100353.26 0 1 0 69272468.00 28665351.00 L 69281398.77 28663574.52 L 69294314.00 28664477.00 L 69322145.00 28670855.00 L 69342323.95 28680776.95 L 70359506.00 29697959.00 L 70382467.00 29707470.00 L 73069018.00 29707470.00 L 73739996.00 30378448.00 L 73739996.00 31933736.23 L 73738967.00 31938267.00 L 73728465.00 31963206.00 L 73710961.00 31987021.00 L 73701508.00 31994038.00 A 100353.26 100353.26 0 1 0 73843428.00 31994038.00  z"/>
<path id="N" d="M 53553573.59 16966576.76 m -431839.06 0 a 431839.06 431839.06 0 1 1 863678.12 0a 431839.06 431839.06 0 1 1 -863678.12 0M 53553572.13 16966566.97 m -431849.03 0 a 431849.03 431849.03 0 1 1 863698.07 0a 431849.03 431849.03 0 1 1 -863698.07 0"/>
<path id="N" d="M 53553573.59 48383901.76 m -431839.06 0 a 431839.06 431839.06 0 1 1 863678.12 0a 431839.06 431839.06 0 1 1 -863678.12 0M 53553573.10 48383884.63 m -431856.37 0 a 431856.37 431856.37 0 1 1 863712.74 0a 431856.37 431856.37 0 1 1 -863712.74 0"/>
<path id="N" d="M 74026014.59 48383901.76 m -431839.06 0 a 431839.06 431839.06 0 1 1 863678.12 0a 431839.06 431839.06 0 1 1 -863678.12 0M 74026014.10 48383884.63 m -431856.37 0 a 431856.37 431856.37 0 1 1 863712.74 0a 431856.37 431856.37 0 1 1 -863712.74 0"/>
<path id="N" d="M 74026014.59 16966576.76 m -431839.06 0 a 431839.06 431839.06 0 1 1 863678.12 0a 431839.06 431839.06 0 1 1 -863678.12 0M 74026013.13 16966566.97 m -431849.03 0 a 431849.03 431849.03 0 1 1 863698.07 0a 431849.03 431849.03 0 1 1 -863698.07 0"/>
<path id="N" d="M 53572459.93 24814983.95 m -337548.83 0 a 337548.83 337548.83 0 1 1 675097.65 0a 337548.83 337548.83 0 1 1 -675097.65 0M 53572468.44 24814996.65 m -180637.35 0 a 180637.35 180637.35 0 1 1 361274.69 0a 180637.35 180637.35 0 1 1 -361274.69 0"/>
<path id="N" d="M 62222466.82 16947436.93 m -397102.15 0 a 397102.15 397102.15 0 1 1 794204.30 0a 397102.15 397102.15 0 1 1 -794204.30 0M 62222468.36 16947441.47 m -200706.53 0 a 200706.53 200706.53 0 1 1 401413.05 0a 200706.53 200706.53 0 1 1 -401413.05 0"/>
<path id="N" d="M 62222466.82 19034050.93 m -397102.15 0 a 397102.15 397102.15 0 1 1 794204.30 0a 397102.15 397102.15 0 1 1 -794204.30 0M 62222468.36 19034055.47 m -200706.53 0 a 200706.53 200706.53 0 1 1 401413.05 0a 200706.53 200706.53 0 1 1 -401413.05 0"/>
<path id="N" d="M 72644272.00 24406816.00 L 72329312.00 24406816.00 A 240838.32 240838.32 0 0 0 72329312.00 24888512.00 L 72644272.00 24888512.00 A 240860.29 240860.29 0 0 0 72644272.00 24406816.00  zM 72644277.00 24808229.00 L 72329307.00 24808229.00 A 160563.52 160563.52 0 0 1 72329307.00 24487099.00 L 72644277.00 24487099.00 A 160563.52 160563.52 0 0 1 72644277.00 24808229.00  z"/>
<path id="N" d="M 74250602.00 24406816.00 L 74014382.00 24406816.00 A 240838.32 240838.32 0 0 0 74014382.00 24888512.00 L 74250602.00 24888512.00 A 240860.29 240860.29 0 0 0 74250602.00 24406816.00  zM 74250602.00 24808229.00 L 74014382.00 24808229.00 A 160563.52 160563.52 0 0 1 74014382.00 24487099.00 L 74250602.00 24487099.00 A 160563.52 160563.52 0 0 1 74250602.00 24808229.00  z"/>
<path id="N" d="M 72644272.00 27808416.00 L 72329312.00 27808416.00 A 240838.32 240838.32 0 1 0 72329312.00 28290112.00 L 72644272.00 28290112.00 A 240860.29 240860.29 0 0 0 72644272.00 27808416.00  zM 72644267.00 28209829.00 L 72329317.00 28209829.00 A 160563.52 160563.52 0 1 1 72329317.00 27888699.00 L 72644267.00 27888699.00 A 160563.52 160563.52 0 0 1 72644267.00 28209829.00  z"/>
<path id="N" d="M 74250602.00 27808416.00 L 74014382.00 27808416.00 A 240838.32 240838.32 0 1 0 74014382.00 28290112.00 L 74250602.00 28290112.00 A 240860.29 240860.29 0 1 0 74250602.00 27808416.00  zM 74250602.00 28209829.00 L 74014382.00 28209829.00 A 160563.52 160563.52 0 0 1 74014382.00 27888699.00 L 74250602.00 27888699.00 A 160563.52 160563.52 0 0 1 74250602.00 28209829.00  z"/>
<path id="N" d="M 64272466.47 16514996.47 m -100354.75 0 a 100354.75 100354.75 0 1 1 200709.51 0a 100354.75 100354.75 0 1 1 -200709.51 0"/>
<path id="N" d="M 69972466.47 16564996.47 m -100354.75 0 a 100354.75 100354.75 0 1 1 200709.51 0a 100354.75 100354.75 0 1 1 -200709.51 0"/>
<path id="N" d="M 71572466.47 18514996.47 m -100354.75 0 a 100354.75 100354.75 0 1 1 200709.51 0a 100354.75 100354.75 0 1 1 -200709.51 0"/>
<path id="N" d="M 67872466.47 18864996.47 m -100354.75 0 a 100354.75 100354.75 0 1 1 200709.51 0a 100354.75 100354.75 0 1 1 -200709.51 0"/>
<path id="N" d="M 65772466.47 23264996.47 m -100354.75 0 a 100354.75 100354.75 0 1 1 200709.51 0a 100354.75 100354.75 0 1 1 -200709.51 0"/>
<path id="N" d="M 66172466.47 23264996.47 m -100354.75 0 a 100354.75 100354.75 0 1 1 200709.51 0a 100354.75 100354.75 0 1 1 -200709.51 0"/>
<path id="N" d="M 66572466.47 23264996.47 m -100354.75 0 a 100354.75 100354.75 0 1 1 200709.51 0a 100354.75 100354.75 0 1 1 -200709.51 0"/>
<path id="N" d="M 66972466.47 23264996.47 m -100354.75 0 a 100354.75 100354.75 0 1 1 200709.51 0a 100354.75 100354.75 0 1 1 -200709.51 0"/>
<path id="N" d="M 66172466.47 23564996.47 m -100354.75 0 a 100354.75 100354.75 0 1 1 200709.51 0a 100354.75 100354.75 0 1 1 -200709.51 0"/>
<path id="N" d="M 66572466.47 23564996.47 m -100354.75 0 a 100354.75 100354.75 0 1 1 200709.51 0a 100354.75 100354.75 0 1 1 -200709.51 0"/>
<path id="N" d="M 66972466.47 23864996.47 m -100354.75 0 a 100354.75 100354.75 0 1 1 200709.51 0a 100354.75 100354.75 0 1 1 -200709.51 0"/>
<path id="N" d="M 69072466.47 26764996.47 m -100354.75 0 a 100354.75 100354.75 0 1 1 200709.51 0a 100354.75 100354.75 0 1 1 -200709.51 0"/>
<path id="N" d="M 66572466.47 23864996.47 m -100354.75 0 a 100354.75 100354.75 0 1 1 200709.51 0a 100354.75 100354.75 0 1 1 -200709.51 0"/>
<path id="N" d="M 71622466.47 24664996.47 m -100354.75 0 a 100354.75 100354.75 0 1 1 200709.51 0a 100354.75 100354.75 0 1 1 -200709.51 0"/>
<path id="N" d="M 71622466.47 24064996.47 m -100354.75 0 a 100354.75 100354.75 0 1 1 200709.51 0a 100354.75 100354.75 0 1 1 -200709.51 0"/>
<path id="N" d="M 71622466.47 25864996.47 m -100354.75 0 a 100354.75 100354.75 0 1 1 200709.51 0a 100354.75 100354.75 0 1 1 -200709.51 0"/>
<path id="N" d="M 66972466.47 23564996.47 m -100354.75 0 a 100354.75 100354.75 0 1 1 200709.51 0a 100354.75 100354.75 0 1 1 -200709.51 0"/>
<path id="N" d="M 71622466.47 25264996.47 m -100354.75 0 a 100354.75 100354.75 0 1 1 200709.51 0a 100354.75 100354.75 0 1 1 -200709.51 0"/>
<path id="N" d="M 69372466.47 26764996.47 m -100354.75 0 a 100354.75 100354.75 0 1 1 200709.51 0a 100354.75 100354.75 0 1 1 -200709.51 0"/>
<path id="N" d="M 68772466.47 26764996.47 m -100354.75 0 a 100354.75 100354.75 0 1 1 200709.51 0a 100354.75 100354.75 0 1 1 -200709.51 0"/>
<path id="N" d="M 70872466.47 32564996.47 m -100354.75 0 a 100354.75 100354.75 0 1 1 200709.51 0a 100354.75 100354.75 0 1 1 -200709.51 0"/>
<path id="N" d="M 69672466.47 26764996.47 m -100354.75 0 a 100354.75 100354.75 0 1 1 200709.51 0a 100354.75 100354.75 0 1 1 -200709.51 0"/>
<path id="N" d="M 68772466.47 27064996.47 m -100354.75 0 a 100354.75 100354.75 0 1 1 200709.51 0a 100354.75 100354.75 0 1 1 -200709.51 0"/>
<path id="N" d="M 69072466.47 27064996.47 m -100354.75 0 a 100354.75 100354.75 0 1 1 200709.51 0a 100354.75 100354.75 0 1 1 -200709.51 0"/>
<path id="N" d="M 69372466.47 27064996.47 m -100354.75 0 a 100354.75 100354.75 0 1 1 200709.51 0a 100354.75 100354.75 0 1 1 -200709.51 0"/>
<path id="N" d="M 69672466.47 27064996.47 m -100354.75 0 a 100354.75 100354.75 0 1 1 200709.51 0a 100354.75 100354.75 0 1 1 -200709.51 0"/>
<path id="N" d="M 68772466.47 27364996.47 m -100354.75 0 a 100354.75 100354.75 0 1 1 200709.51 0a 100354.75 100354.75 0 1 1 -200709.51 0"/>
<path id="N" d="M 69072466.47 27364996.47 m -100354.75 0 a 100354.75 100354.75 0 1 1 200709.51 0a 100354.75 100354.75 0 1 1 -200709.51 0"/>
<path id="N" d="M 69372466.47 27364996.47 m -100354.75 0 a 100354.75 100354.75 0 1 1 200709.51 0a 100354.75 100354.75 0 1 1 -200709.51 0"/>
<path id="N" d="M 69672466.47 27364996.47 m -100354.75 0 a 100354.75 100354.75 0 1 1 200709.51 0a 100354.75 100354.75 0 1 1 -200709.51 0"/>
<path id="N" d="M 70772466.47 28764996.47 m -100354.75 0 a 100354.75 100354.75 0 1 1 200709.51 0a 100354.75 100354.75 0 1 1 -200709.51 0"/>
<path id="N" d="M 70846064.47 30788594.47 m -100354.75 0 a 100354.75 100354.75 0 1 1 200709.51 0a 100354.75 100354.75 0 1 1 -200709.51 0"/>
<path id="N" d="M 54672466.47 34144051.47 m -100354.75 0 a 100354.75 100354.75 0 1 1 200709.51 0a 100354.75 100354.75 0 1 1 -200709.51 0"/>
<path id="N" d="M 68422466.47 30114996.47 m -100354.75 0 a 100354.75 100354.75 0 1 1 200709.51 0a 100354.75 100354.75 0 1 1 -200709.51 0"/>
<path id="N" d="M 70572466.47 32864996.47 m -100354.75 0 a 100354.75 100354.75 0 1 1 200709.51 0a 100354.75 100354.75 0 1 1 -200709.51 0"/>
<path id="N" d="M 70572466.47 32564996.47 m -100354.75 0 a 100354.75 100354.75 0 1 1 200709.51 0a 100354.75 100354.75 0 1 1 -200709.51 0"/>
<path id="N" d="M 54072466.47 34144051.47 m -100354.75 0 a 100354.75 100354.75 0 1 1 200709.51 0a 100354.75 100354.75 0 1 1 -200709.51 0"/>
<path id="N" d="M 69272466.47 29872084.47 m -100354.75 0 a 100354.75 100354.75 0 1 1 200709.51 0a 100354.75 100354.75 0 1 1 -200709.51 0"/>
<path id="N" d="M 70872466.47 32864996.47 m -100354.75 0 a 100354.75 100354.75 0 1 1 200709.51 0a 100354.75 100354.75 0 1 1 -200709.51 0"/>
<path id="N" d="M 54972466.47 34144051.47 m -100354.75 0 a 100354.75 100354.75 0 1 1 200709.51 0a 100354.75 100354.75 0 1 1 -200709.51 0"/>
<path id="N" d="M 54372466.47 34144051.47 m -100354.75 0 a 100354.75 100354.75 0 1 1 200709.51 0a 100354.75 100354.75 0 1 1 -200709.51 0"/>
<path id="N" d="M 58067787.47 38010317.47 m -100354.75 0 a 100354.75 100354.75 0 1 1 200709.51 0a 100354.75 100354.75 0 1 1 -200709.51 0"/>
<path id="N" d="M 59422466.47 38014996.47 m -100354.75 0 a 100354.75 100354.75 0 1 1 200709.51 0a 100354.75 100354.75 0 1 1 -200709.51 0"/>
<path id="N" d="M 69932466.47 37194996.47 m -100354.75 0 a 100354.75 100354.75 0 1 1 200709.51 0a 100354.75 100354.75 0 1 1 -200709.51 0"/>
<path id="N" d="M 73662466.47 36704996.47 m -100354.75 0 a 100354.75 100354.75 0 1 1 200709.51 0a 100354.75 100354.75 0 1 1 -200709.51 0"/>
<path id="N" d="M 69582466.47 37194996.47 m -100354.75 0 a 100354.75 100354.75 0 1 1 200709.51 0a 100354.75 100354.75 0 1 1 -200709.51 0"/>
<path id="N" d="M 62589328.47 37998134.47 m -100354.75 0 a 100354.75 100354.75 0 1 1 200709.51 0a 100354.75 100354.75 0 1 1 -200709.51 0"/>
<path id="N" d="M 65022466.47 45164996.47 m -100354.75 0 a 100354.75 100354.75 0 1 1 200709.51 0a 100354.75 100354.75 0 1 1 -200709.51 0"/>
<path id="N" d="M 60822466.47 37964996.47 m -100354.75 0 a 100354.75 100354.75 0 1 1 200709.51 0a 100354.75 100354.75 0 1 1 -200709.51 0"/>
<path id="N" d="M 64557861.47 38250391.47 m -100354.75 0 a 100354.75 100354.75 0 1 1 200709.51 0a 100354.75 100354.75 0 1 1 -200709.51 0"/>
<path id="N" d="M 70282466.47 37544996.47 m -100354.75 0 a 100354.75 100354.75 0 1 1 200709.51 0a 100354.75 100354.75 0 1 1 -200709.51 0"/>
<path id="N" d="M 54612466.47 38591296.47 m -100354.75 0 a 100354.75 100354.75 0 1 1 200709.51 0a 100354.75 100354.75 0 1 1 -200709.51 0"/>
<path id="N" d="M 61722466.47 38564996.47 m -100354.75 0 a 100354.75 100354.75 0 1 1 200709.51 0a 100354.75 100354.75 0 1 1 -200709.51 0"/>
<path id="N" d="M 54342466.47 38591296.47 m -100354.75 0 a 100354.75 100354.75 0 1 1 200709.51 0a 100354.75 100354.75 0 1 1 -200709.51 0"/>
<path id="N" d="M 61372466.47 38564996.47 m -100354.75 0 a 100354.75 100354.75 0 1 1 200709.51 0a 100354.75 100354.75 0 1 1 -200709.51 0"/>
<path id="N" d="M 54072466.47 38591296.47 m -100354.75 0 a 100354.75 100354.75 0 1 1 200709.51 0a 100354.75 100354.75 0 1 1 -200709.51 0"/>
<path id="N" d="M 69582466.47 37544996.47 m -100354.75 0 a 100354.75 100354.75 0 1 1 200709.51 0a 100354.75 100354.75 0 1 1 -200709.51 0"/>
<path id="N" d="M 69932466.47 37544996.47 m -100354.75 0 a 100354.75 100354.75 0 1 1 200709.51 0a 100354.75 100354.75 0 1 1 -200709.51 0"/>
<path id="N" d="M 70282466.47 37194996.47 m -100354.75 0 a 100354.75 100354.75 0 1 1 200709.51 0a 100354.75 100354.75 0 1 1 -200709.51 0"/>
<path id="N" d="M 62322466.47 38564996.47 m -100354.75 0 a 100354.75 100354.75 0 1 1 200709.51 0a 100354.75 100354.75 0 1 1 -200709.51 0"/>
<path id="N" d="M 53802466.47 38591296.47 m -100354.75 0 a 100354.75 100354.75 0 1 1 200709.51 0a 100354.75 100354.75 0 1 1 -200709.51 0"/>
<path id="N" d="M 70772466.47 45314996.47 m -100354.75 0 a 100354.75 100354.75 0 1 1 200709.51 0a 100354.75 100354.75 0 1 1 -200709.51 0"/>
<path id="N" d="M 60272466.47 39314996.47 m -100354.75 0 a 100354.75 100354.75 0 1 1 200709.51 0a 100354.75 100354.75 0 1 1 -200709.51 0"/>
<path id="N" d="M 56972466.47 41114996.47 m -100354.75 0 a 100354.75 100354.75 0 1 1 200709.51 0a 100354.75 100354.75 0 1 1 -200709.51 0"/>
<path id="N" d="M 54882466.47 38591296.47 m -100354.75 0 a 100354.75 100354.75 0 1 1 200709.51 0a 100354.75 100354.75 0 1 1 -200709.51 0"/>
<path id="N" d="M 68072466.47 39714996.47 m -100354.75 0 a 100354.75 100354.75 0 1 1 200709.51 0a 100354.75 100354.75 0 1 1 -200709.51 0"/>
<path id="N" d="M 63772466.47 39314996.47 m -100354.75 0 a 100354.75 100354.75 0 1 1 200709.51 0a 100354.75 100354.75 0 1 1 -200709.51 0"/>
<path id="N" d="M 65272466.47 40614996.47 m -100354.75 0 a 100354.75 100354.75 0 1 1 200709.51 0a 100354.75 100354.75 0 1 1 -200709.51 0"/>
<path id="N" d="M 66972466.47 24164996.47 m -100354.75 0 a 100354.75 100354.75 0 1 1 200709.51 0a 100354.75 100354.75 0 1 1 -200709.51 0"/>
<path id="N" d="M 60522466.47 39764996.47 m -100354.75 0 a 100354.75 100354.75 0 1 1 200709.51 0a 100354.75 100354.75 0 1 1 -200709.51 0"/>
<path id="N" d="M 70872466.47 41164996.47 m -100354.75 0 a 100354.75 100354.75 0 1 1 200709.51 0a 100354.75 100354.75 0 1 1 -200709.51 0"/>
<path id="N" d="M 62310760.47 41077083.47 m -100354.75 0 a 100354.75 100354.75 0 1 1 200709.51 0a 100354.75 100354.75 0 1 1 -200709.51 0"/>
<path id="N" d="M 59272466.47 47414996.47 m -100354.75 0 a 100354.75 100354.75 0 1 1 200709.51 0a 100354.75 100354.75 0 1 1 -200709.51 0"/>
<path id="N" d="M 71622466.47 49014996.47 m -100354.75 0 a 100354.75 100354.75 0 1 1 200709.51 0a 100354.75 100354.75 0 1 1 -200709.51 0"/>
<path id="N" d="M 69572466.47 44214996.47 m -100354.75 0 a 100354.75 100354.75 0 1 1 200709.51 0a 100354.75 100354.75 0 1 1 -200709.51 0"/>
<path id="N" d="M 66222466.47 44964996.47 m -100354.75 0 a 100354.75 100354.75 0 1 1 200709.51 0a 100354.75 100354.75 0 1 1 -200709.51 0"/>
<path id="N" d="M 68435064.47 42014998.47 m -100354.75 0 a 100354.75 100354.75 0 1 1 200709.51 0a 100354.75 100354.75 0 1 1 -200709.51 0"/>
<path id="N" d="M 56672466.47 41564996.47 m -100354.75 0 a 100354.75 100354.75 0 1 1 200709.51 0a 100354.75 100354.75 0 1 1 -200709.51 0"/>
<path id="N" d="M 60922466.47 39364996.47 m -100354.75 0 a 100354.75 100354.75 0 1 1 200709.51 0a 100354.75 100354.75 0 1 1 -200709.51 0"/>
<path id="N" d="M 57622466.47 46914996.47 m -100354.75 0 a 100354.75 100354.75 0 1 1 200709.51 0a 100354.75 100354.75 0 1 1 -200709.51 0"/>
<path id="N" d="M 64728014.47 46964996.47 m -100354.75 0 a 100354.75 100354.75 0 1 1 200709.51 0a 100354.75 100354.75 0 1 1 -200709.51 0"/>
<path id="N" d="M 66372466.47 46664996.47 m -100354.75 0 a 100354.75 100354.75 0 1 1 200709.51 0a 100354.75 100354.75 0 1 1 -200709.51 0"/>
<path id="N" d="M 61658028.00 41287961.00 L 62031031.75 40914958.05 L 62034943.00 40912492.00 L 62060008.00 40902251.00 L 62089238.00 40897727.00 L 62100630.00 40899420.00 A 100353.26 100353.26 0 1 0 62000277.00 40799067.00 L 62002078.83 40808125.19 L 62001205.00 40821162.00 L 61994879.00 40848983.00 L 61984969.54 40869174.65 L 61621616.98 41232528.00 L 58685920.00 41232528.00 L 57354940.00 39901548.00 L 57354940.00 38996259.77 L 57355969.00 38991729.00 L 57366471.00 38966790.00 L 57383975.00 38942975.00 L 57393428.00 38935958.00 A 100353.26 100353.26 0 1 0 57251508.00 38935958.00 L 57259076.79 38941015.33 L 57267574.00 38950788.00 L 57282744.00 38974978.00 L 57289996.00 38996259.77 L 57289996.00 39914998.00 L 57299507.00 39937959.00 L 58649509.00 41287961.00 L 58672470.00 41297472.00 L 61635067.00 41297472.00 L 61658028.00 41287961.00  z"/>
<path id="N" d="M 69693428.00 19194038.00 L 69686509.63 19189415.27 L 69667881.00 19163851.00 L 69657502.00 19138762.00 L 69656515.00 17446845.19 L 69657584.00 17442198.00 L 69668205.00 17417411.00 L 69685908.00 17393922.00 L 69696578.00 17385958.00 A 100353.26 100353.26 0 1 0 69554658.00 17385958.00 L 69561576.37 17390580.73 L 69580205.00 17416145.00 L 69590584.00 17441234.00 L 69591571.00 19133150.81 L 69590502.00 19137798.00 L 69579881.00 19162585.00 L 69562178.00 19186074.00 L 69551508.00 19194038.00 A 100353.26 100353.26 0 1 0 69693428.00 19194038.00  z"/>
<path id="N" d="M 65959467.00 42799213.00 L 65945297.17 42808681.03 L 65917737.00 42823362.00 L 65881760.00 42835373.00 L 58707602.00 42834656.00 L 58682375.00 42824400.00 L 58657030.69 42806487.22 L 58652823.00 42800190.00 A 100353.26 100353.26 0 1 0 58652823.00 42942110.00 L 58658733.32 42933264.62 L 58669233.00 42923510.00 L 58692896.00 42908011.00 L 58714233.66 42900547.00 L 65861205.40 42900547.00 L 65882071.00 42908991.00 L 65901885.00 42926019.00 L 65926910.00 42962887.00 A 100353.26 100353.26 0 1 0 65959467.00 42799213.00  z"/>
<path id="N" d="M 58653269.00 43188959.00 L 58658804.74 43180674.23 L 58668994.00 43171480.00 L 58692890.00 43156122.00 L 58714206.41 43148749.00 L 65332466.00 43148749.00 L 65335548.87 43147472.00 L 65424162.00 43148501.00 L 65449101.00 43159003.00 L 65472916.00 43176507.00 L 65479933.00 43185960.00 A 100353.26 100353.26 0 1 0 65479933.00 43044040.00 L 65474875.67 43051608.79 L 65449101.00 43070997.00 L 65424162.00 43081499.00 L 65333743.00 43082528.00 L 65330660.13 43083805.00 L 58708497.00 43082821.00 L 58683395.00 43072455.00 L 58659229.00 43055177.00 L 58653269.00 43047039.00 A 100353.26 100353.26 0 1 0 58653269.00 43188959.00  z"/>
<path id="N" d="M 65053329.00 44319419.00 L 65058386.80 44311849.50 L 65068159.00 44303353.00 L 65092349.00 44288183.00 L 65113630.77 44280931.00 L 65473756.00 44280931.00 L 65496717.00 44271420.00 L 66728027.00 43040110.00 L 66737538.00 43017149.00 L 66737538.00 38705411.00 L 66728027.00 38682450.00 L 64156120.00 36110543.00 L 64133159.00 36101032.00 L 58566327.77 36101032.00 L 58561797.00 36100003.00 L 58536858.00 36089501.00 L 58513043.00 36071997.00 L 58506026.00 36062544.00 A 100353.26 100353.26 0 1 0 58506026.00 36204464.00 L 58511083.33 36196895.21 L 58520856.00 36188398.00 L 58545046.00 36173228.00 L 58566327.77 36165976.00 L 64119709.00 36165976.00 L 66672594.00 38718861.00 L 66672594.00 43003699.00 L 65460306.00 44215987.00 L 65113630.77 44215987.00 L 65109100.00 44214958.00 L 65084161.00 44204456.00 L 65060346.00 44186952.00 L 65053329.00 44177499.00 A 100353.26 100353.26 0 1 0 65053329.00 44319419.00  z"/>
<path id="N" d="M 64736787.00 41378481.00 L 64744257.52 41367300.63 L 64755822.00 41355250.00 L 64778515.00 41339227.00 L 64799857.69 41331428.00 L 65578858.00 41331428.00 L 65601819.00 41321917.00 L 65958027.00 40965709.00 L 65967538.00 40942748.00 L 65967538.00 39024352.00 L 65958027.00 39001391.00 L 64288675.00 37332039.00 L 64265714.00 37322528.00 L 63338516.00 37322528.00 L 63098027.00 37082039.00 L 63075066.00 37072528.00 L 62137261.00 37072528.00 L 61806772.00 36742039.00 L 61783811.00 36732528.00 L 58766327.77 36732528.00 L 58761797.00 36731499.00 L 58736858.00 36720997.00 L 58713043.00 36703493.00 L 58706026.00 36694040.00 A 100353.26 100353.26 0 1 0 58706026.00 36835960.00 L 58711083.33 36828391.21 L 58720856.00 36819894.00 L 58745046.00 36804724.00 L 58766327.77 36797472.00 L 61770361.00 36797472.00 L 62100850.00 37127961.00 L 62123811.00 37137472.00 L 63061616.00 37137472.00 L 63302105.00 37377961.00 L 63325066.00 37387472.00 L 64252264.00 37387472.00 L 65902594.00 39037802.00 L 65902594.00 40929298.00 L 65565408.00 41266484.00 L 64789535.00 41265699.00 L 64763827.00 41255928.00 L 64739347.17 41240392.54 L 64736787.00 41236561.00 A 100353.26 100353.26 0 1 0 64736787.00 41378481.00  z"/>
<path id="N" d="M 61582640.00 39809346.00 L 61587697.33 39801777.21 L 61597470.00 39793280.00 L 61621660.00 39778110.00 L 61642941.77 39770858.00 L 63951680.00 39770858.00 L 63974641.00 39761347.00 L 64198028.00 39537961.00 L 64207538.00 39515000.00 L 64207538.00 38255000.00 L 64198027.00 38232039.00 L 63908027.00 37942039.00 L 63885066.00 37932528.00 L 63316327.77 37932528.00 L 63311797.00 37931499.00 L 63286858.00 37920997.00 L 63263043.00 37903493.00 L 63256026.00 37894040.00 A 100353.26 100353.26 0 1 0 63256026.00 38035960.00 L 63261083.33 38028391.21 L 63270856.00 38019894.00 L 63295046.00 38004724.00 L 63316327.77 37997472.00 L 63871616.00 37997472.00 L 64142594.00 38268450.00 L 64142594.00 39501549.04 L 63938229.96 39705914.00 L 61642941.77 39705914.00 L 61638411.00 39704885.00 L 61613472.00 39694383.00 L 61589657.00 39676879.00 L 61582640.00 39667426.00 A 100353.26 100353.26 0 1 0 61582640.00 39809346.00  z"/>
<path id="N" d="M 58651508.00 43994038.00 L 58646450.67 44001606.79 L 58636678.00 44010104.00 L 58612488.00 44025274.00 L 58591206.23 44032526.00 L 57656407.00 44032526.00 L 56444940.00 42821059.00 L 56444940.00 36569553.00 L 58198517.00 34815976.00 L 61053804.23 34815976.00 L 61058335.00 34817005.00 L 61083274.00 34827507.00 L 61107089.00 34845011.00 L 61114106.00 34854464.00 A 100353.26 100353.26 0 1 0 61114106.00 34712544.00 L 61109048.67 34720112.79 L 61099276.00 34728610.00 L 61075086.00 34743780.00 L 61053804.23 34751032.00 L 58185067.00 34751032.00 L 58162106.00 34760543.00 L 56389507.00 36533142.00 L 56379996.00 36556103.00 L 56379996.00 42834509.00 L 56389507.00 42857470.00 L 57619996.00 44087959.00 L 57642957.00 44097470.00 L 58591206.23 44097470.00 L 58595737.00 44098499.00 L 58620676.00 44109001.00 L 58644491.00 44126505.00 L 58651508.00 44135958.00 A 100353.26 100353.26 0 1 0 58651508.00 43994038.00  z"/>
<path id="N" d="M 66343428.00 37064038.00 L 66335859.21 37058980.67 L 66327362.00 37049208.00 L 66312192.00 37025018.00 L 66304940.00 37003736.23 L 66304940.00 33514998.00 L 66295429.00 33492037.00 L 65625429.00 32822037.00 L 65602468.00 32812526.00 L 56592468.00 32812526.00 L 56569507.00 32822037.00 L 55797407.00 33594137.00 L 55787896.00 33617098.00 L 55787896.00 34735837.23 L 55786867.00 34740368.00 L 55776365.00 34765307.00 L 55758861.00 34789122.00 L 55749408.00 34796139.00 A 100353.26 100353.26 0 1 0 55891328.00 34796139.00 L 55883759.21 34791081.67 L 55875262.00 34781309.00 L 55860092.00 34757119.00 L 55852840.00 34735837.23 L 55852840.00 33630548.00 L 56605918.00 32877470.00 L 65589018.00 32877470.00 L 66239996.00 33528448.00 L 66239996.00 37003736.23 L 66238967.00 37008267.00 L 66228465.00 37033206.00 L 66210961.00 37057021.00 L 66201508.00 37064038.00 A 100353.26 100353.26 0 1 0 66343428.00 37064038.00  z"/>
<path id="N" d="M 53572467.26 26814995.65 m -337534.65 0 a 337534.65 337534.65 0 1 1 675069.30 0a 337534.65 337534.65 0 1 1 -675069.30 0M 53572468.44 26814995.65 m -180637.35 0 a 180637.35 180637.35 0 1 1 361274.69 0a 180637.35 180637.35 0 1 1 -361274.69 0"/>
<path id="N" d="M 64736787.00 44104936.00 L 64741844.33 44097367.21 L 64751617.00 44088870.00 L 64775807.00 44073700.00 L 64797088.77 44066448.00 L 65532676.00 44066448.00 L 65555637.00 44056937.00 L 66618027.00 42994547.00 L 66627538.00 42971586.00 L 66627538.00 38750974.00 L 66618027.00 38728013.00 L 64250557.00 36360543.00 L 64227596.00 36351032.00 L 60316327.77 36351032.00 L 60311797.00 36350003.00 L 60286858.00 36339501.00 L 60263043.00 36321997.00 L 60256026.00 36312544.00 A 100353.26 100353.26 0 1 0 60256026.00 36454464.00 L 60261083.33 36446895.21 L 60270856.00 36438398.00 L 60295046.00 36423228.00 L 60316327.77 36415976.00 L 64214146.00 36415976.00 L 66562594.00 38764424.00 L 66562594.00 42958136.00 L 65519226.00 44001504.00 L 64797088.77 44001504.00 L 64792558.00 44000475.00 L 64767619.00 43989973.00 L 64743804.00 43972469.00 L 64736787.00 43963016.00 A 100353.26 100353.26 0 1 0 64736787.00 44104936.00  z"/>
<path id="N" d="M 64972074.00 41548341.00 L 64977131.80 41540771.50 L 64986904.00 41532275.00 L 65011094.00 41517105.00 L 65032375.77 41509853.00 L 65555996.00 41509853.00 L 65578957.00 41500342.00 L 66068027.00 41011272.00 L 66077538.00 40988311.00 L 66077538.00 38978789.00 L 66068027.00 38955828.00 L 64328603.00 37216404.00 L 64305642.00 37206893.00 L 63571980.00 37206893.00 L 63544885.00 37179798.00 L 63521924.00 37170287.00 L 63498074.21 37170287.00 L 63491686.00 37138172.00 A 100354.75 100354.75 0 1 0 63469932.00 37247535.00 L 63478153.31 37235231.00 L 63508474.00 37235231.00 L 63535569.00 37262326.00 L 63558530.00 37271837.00 L 64292192.00 37271837.00 L 66012594.00 38992239.00 L 66012594.00 40974861.00 L 65542546.00 41444909.00 L 65032375.77 41444909.00 L 65027845.00 41443880.00 L 65002906.00 41433378.00 L 64979091.00 41415874.00 L 64972074.00 41406421.00 A 100353.26 100353.26 0 1 0 64972074.00 41548341.00  z"/>
<path id="N" d="M 64736787.00 44892338.00 L 64741844.33 44884769.21 L 64751617.00 44876272.00 L 64775807.00 44861102.00 L 64797088.77 44853850.00 L 65367526.00 44853850.00 L 65390487.00 44844339.00 L 67058027.00 43176799.00 L 67067538.00 43153838.00 L 67067538.00 38568722.00 L 67058027.00 38545761.00 L 63972809.00 35460543.00 L 63949848.00 35451032.00 L 61916327.77 35451032.00 L 61911797.00 35450003.00 L 61886858.00 35439501.00 L 61863043.00 35421997.00 L 61856026.00 35412544.00 A 100353.26 100353.26 0 1 0 61856026.00 35554464.00 L 61861083.33 35546895.21 L 61870856.00 35538398.00 L 61895046.00 35523228.00 L 61916327.77 35515976.00 L 63936398.00 35515976.00 L 67002594.00 38582172.00 L 67002594.00 43140388.00 L 65354076.00 44788906.00 L 64797088.77 44788906.00 L 64792558.00 44787877.00 L 64767619.00 44777375.00 L 64743804.00 44759871.00 L 64736787.00 44750418.00 A 100353.26 100353.26 0 1 0 64736787.00 44892338.00  z"/>
<path id="N" d="M 64877051.00 45041928.00 L 64875474.02 45034000.15 L 64884160.89 45017419.11 L 64902945.00 44998635.00 L 65473634.00 44998635.00 L 65496595.00 44989124.00 L 67168027.00 43317692.00 L 67177538.00 43294731.00 L 67177538.00 38523159.00 L 67168027.00 38500198.00 L 63878372.00 35210543.00 L 63855411.00 35201032.00 L 61716327.77 35201032.00 L 61711797.00 35200003.00 L 61686858.00 35189501.00 L 61663043.00 35171997.00 L 61656026.00 35162544.00 A 100353.26 100353.26 0 1 0 61656026.00 35304464.00 L 61661083.33 35296895.21 L 61670856.00 35288398.00 L 61695046.00 35273228.00 L 61716327.77 35265976.00 L 63841961.00 35265976.00 L 67112594.00 38536609.00 L 67112594.00 43281281.00 L 65460184.00 44933691.00 L 64889495.00 44933691.00 L 64866534.00 44943202.00 L 64850868.00 44958714.00 L 64843362.00 44961659.00 L 64833604.00 44961155.00 L 64815101.00 44949214.00 A 100349.83 100349.83 0 1 0 64877051.00 45041928.00  z"/>
<path id="N" d="M 69125224.00 20712242.00 L 68219712.00 20712242.00 L 68219712.00 21617754.00 L 69125224.00 21617754.00 L 69125224.00 20712242.00  zM 68672464.50 21165007.68 m -240838.32 0 a 240838.32 240838.32 0 1 1 481676.63 0a 240838.32 240838.32 0 1 1 -481676.63 0"/>
<path id="N" d="M 69845429.00 47837959.00 L 73095429.00 44587959.00 L 73104940.00 44564998.00 L 73104940.00 39521464.00 L 73905429.00 38720975.00 L 73914940.00 38698014.00 L 73914940.00 37736259.77 L 73915969.00 37731729.00 L 73926471.00 37706790.00 L 73943975.00 37682975.00 L 73953428.00 37675958.00 A 100353.26 100353.26 0 1 0 73811508.00 37675958.00 L 73819076.79 37681015.33 L 73827574.00 37690788.00 L 73842744.00 37714978.00 L 73849996.00 37736259.77 L 73849996.00 38684564.00 L 73049507.00 39485053.00 L 73039996.00 39508014.00 L 73039996.00 44551548.00 L 69809018.00 47782526.00 L 60748514.00 47782526.00 L 59818027.00 46852039.00 L 59795066.00 46842528.00 L 59156185.00 46842528.00 L 58249677.15 45936020.15 L 58247201.00 45932089.00 L 58236992.00 45907028.00 L 58232530.00 45877811.00 L 58234253.00 45866165.00 A 100353.26 100353.26 0 1 0 58133900.00 45966518.00 L 58142830.77 45964741.52 L 58155747.00 45965644.00 L 58183578.00 45972022.00 L 58203755.15 45981942.15 L 59119774.00 46897961.00 L 59142735.00 46907472.00 L 59781616.00 46907472.00 L 60712103.00 47837959.00 L 60735064.00 47847470.00 L 69822468.00 47847470.00 L 69845429.00 47837959.00  z"/>
<path id="N" d="M 60864106.00 45644040.00 L 60859048.67 45651608.79 L 60849276.00 45660106.00 L 60825086.00 45675276.00 L 60803804.23 45682528.00 L 58448516.00 45682528.00 L 56334940.00 43568952.00 L 56334940.00 36523990.00 L 58262952.00 34595978.00 L 61233806.23 34595978.00 L 61238337.00 34597007.00 L 61263276.00 34607509.00 L 61287091.00 34625013.00 L 61294108.00 34634466.00 A 100353.26 100353.26 0 1 0 61294108.00 34492546.00 L 61289050.67 34500114.79 L 61279278.00 34508612.00 L 61255088.00 34523782.00 L 61233806.23 34531034.00 L 58249502.00 34531034.00 L 58226541.00 34540545.00 L 56279507.00 36487579.00 L 56269996.00 36510540.00 L 56269996.00 43582402.00 L 56279507.00 43605363.00 L 58412105.00 45737961.00 L 58435066.00 45747472.00 L 60803804.23 45747472.00 L 60808335.00 45748501.00 L 60833274.00 45759003.00 L 60857089.00 45776507.00 L 60864106.00 45785960.00 A 100353.26 100353.26 0 1 0 60864106.00 45644040.00  z"/>
<path id="N" d="M 69908029.00 48087959.00 L 73318027.00 44677961.00 L 73327538.00 44655000.00 L 73327538.00 39555855.00 L 74083854.00 38799539.00 L 74093365.00 38776578.00 L 74093365.00 37323423.00 L 74083854.00 37300462.00 L 73985769.00 37200922.00 L 73975560.00 37175861.00 L 73971098.00 37146644.00 L 73972821.00 37134998.00 A 100353.26 100353.26 0 1 0 73872468.00 37235351.00 L 73881398.77 37233574.52 L 73913331.00 37238090.00 L 73938392.00 37248299.00 L 74028421.00 37336873.00 L 74028421.00 38763128.00 L 73272105.00 39519444.00 L 73262594.00 39542405.00 L 73262594.00 44641550.00 L 69871618.00 48032526.00 L 60698515.00 48032526.00 L 59850844.95 47184855.95 L 59848368.00 47180923.00 L 59838159.00 47155862.00 L 59833696.00 47126646.00 L 59835419.00 47115000.00 A 100353.26 100353.26 0 1 0 59735066.00 47215353.00 L 59743996.86 47213576.50 L 59756914.00 47214479.00 L 59784745.00 47220857.00 L 59804922.15 47230777.15 L 60662104.00 48087959.00 L 60685065.00 48097470.00 L 69885068.00 48097470.00 L 69908029.00 48087959.00  z"/>
<path id="N" d="M 74303197.00 33694038.00 L 74298139.67 33701606.79 L 74288367.00 33710104.00 L 74264177.00 33725274.00 L 74242895.23 33732526.00 L 74085918.00 33732526.00 L 73554940.00 33201548.00 L 73554940.00 30270561.00 L 73545429.00 30247600.00 L 73059866.00 29762037.00 L 73036905.00 29752526.00 L 70049242.00 29752526.00 L 68905152.15 28608436.15 L 68902676.00 28604505.00 L 68892467.00 28579443.00 L 68888005.00 28550227.00 L 68889728.00 28538580.00 A 100353.26 100353.26 0 1 0 68789375.00 28638933.00 L 68798305.77 28637156.52 L 68811221.00 28638059.00 L 68839052.00 28644437.00 L 68859230.95 28654358.95 L 70012831.00 29807959.00 L 70035792.00 29817470.00 L 73023455.00 29817470.00 L 73489996.00 30284011.00 L 73489996.00 33214998.00 L 73499507.00 33237959.00 L 74049507.00 33787959.00 L 74072468.00 33797470.00 L 74242895.23 33797470.00 L 74247426.00 33798499.00 L 74272365.00 33809001.00 L 74296180.00 33826505.00 L 74303197.00 33835958.00 A 100353.26 100353.26 0 1 0 74303197.00 33694038.00  z"/>
<path id="N" d="M 64732354.00 44530360.00 L 64737411.33 44522791.21 L 64747184.00 44514294.00 L 64771374.00 44499124.00 L 64792655.77 44491872.00 L 65418378.00 44491872.00 L 65441339.00 44482361.00 L 66838027.00 43085673.00 L 66847538.00 43062712.00 L 66847538.00 38659848.00 L 66838027.00 38636887.00 L 64111683.00 35910543.00 L 64088722.00 35901032.00 L 59416327.77 35901032.00 L 59411797.00 35900003.00 L 59386858.00 35889501.00 L 59363043.00 35871997.00 L 59356026.00 35862544.00 A 100353.26 100353.26 0 1 0 59356026.00 36004464.00 L 59361083.33 35996895.21 L 59370856.00 35988398.00 L 59395046.00 35973228.00 L 59416327.77 35965976.00 L 64075272.00 35965976.00 L 66782594.00 38673298.00 L 66782594.00 43049262.00 L 65404928.00 44426928.00 L 64792655.77 44426928.00 L 64788125.00 44425899.00 L 64763186.00 44415397.00 L 64739371.00 44397893.00 L 64732354.00 44388440.00 A 100353.26 100353.26 0 1 0 64732354.00 44530360.00  z"/>
<path id="N" d="M 59128171.00 45357775.00 L 59120601.50 45352717.20 L 59112105.00 45342945.00 L 59096935.00 45318755.00 L 59089683.00 45297473.23 L 59089683.00 43542196.00 L 59195982.00 43435897.00 L 65788977.00 43435897.00 L 65811938.00 43426386.00 L 66243353.42 42994970.58 L 66260357.00 42985097.00 L 66288220.00 42973810.00 L 66325044.00 42964831.00 L 66357601.00 42943077.00 A 100353.26 100353.26 0 1 0 66194637.00 42915827.00 L 66192656.00 42941885.00 L 66183867.46 42962612.54 L 65775527.00 43370953.00 L 59182532.00 43370953.00 L 59159571.00 43380464.00 L 59034250.00 43505785.00 L 59024739.00 43528746.00 L 59024739.00 45297473.23 L 59023710.00 45302004.00 L 59013208.00 45326943.00 L 58995704.00 45350758.00 L 58986251.00 45357775.00 A 100353.26 100353.26 0 1 0 59128171.00 45357775.00  z"/>
<path id="N" d="M 67912821.00 41224998.00 L 67910772.90 41214701.72 L 67911339.00 41200513.00 L 67917168.00 41172807.00 L 67926988.29 41152457.71 L 68402878.00 40676568.00 L 68412389.00 40653607.00 L 68412389.00 32120999.00 L 69052612.85 31480775.15 L 69056544.00 31478299.00 L 69081605.00 31468090.00 L 69110822.00 31463628.00 L 69122468.00 31465351.00 A 100353.26 100353.26 0 1 0 69022115.00 31364998.00 L 69023891.48 31373928.77 L 69022989.00 31386845.00 L 69016611.00 31414676.00 L 69006690.85 31434853.15 L 68356956.00 32084588.00 L 68347445.00 32107549.00 L 68347445.00 40640157.00 L 67875841.00 41110411.00 L 67850752.00 41120962.00 L 67821397.00 41126087.00 L 67812468.00 41124645.00 A 100353.26 100353.26 0 1 0 67912821.00 41224998.00  z"/>
<path id="N" d="M 73581508.00 38044038.00 L 73576450.67 38051606.79 L 73566678.00 38060104.00 L 73542488.00 38075274.00 L 73521206.23 38082526.00 L 72595304.77 38082526.00 L 72590774.00 38081497.00 L 72565835.00 38070995.00 L 72542020.00 38053491.00 L 72535003.00 38044038.00 A 100353.26 100353.26 0 1 0 72535003.00 38185958.00 L 72540060.33 38178389.21 L 72549833.00 38169892.00 L 72574023.00 38154722.00 L 72595304.77 38147470.00 L 73521206.23 38147470.00 L 73525737.00 38148499.00 L 73550676.00 38159001.00 L 73574491.00 38176505.00 L 73581508.00 38185958.00 A 100353.26 100353.26 0 1 0 73581508.00 38044038.00  z"/>
<path id="N" d="M 55734065.00 35922284.00 L 55727313.00 35926550.00 L 55710219.00 35929551.00 L 55694019.00 35928422.00 L 55673687.28 35920295.28 L 55566212.00 35812820.00 L 55566212.00 33525926.00 L 55556701.00 33502965.00 L 53604940.00 31551204.00 L 53604940.00 28178626.36 L 53607268.00 28169275.00 L 53613268.00 28157035.00 L 53621801.33 28149643.00 L 53907113.00 28149643.00 L 53907113.00 27480353.00 L 53237823.00 27480353.00 L 53237823.00 28149643.00 L 53523268.00 28149691.00 L 53527768.00 28152751.00 L 53534968.00 28162543.00 L 53539768.00 28177231.00 L 53539996.00 31564654.00 L 53549507.00 31587615.00 L 55501268.00 33539376.00 L 55501268.00 35826270.00 L 55510779.00 35849231.00 L 55649020.95 35987472.95 L 55658115.00 36001625.00 L 55677720.92 36043180.22 L 55679754.00 36053401.00 A 100354.75 100354.75 0 1 0 55734065.00 35922284.00  zM 53572468.44 27814996.65 m -180637.35 0 a 180637.35 180637.35 0 1 1 361274.69 0a 180637.35 180637.35 0 1 1 -361274.69 0"/>
<path id="N" d="M 67022466.47 37114996.47 m -100354.75 0 a 100354.75 100354.75 0 1 1 200709.51 0a 100354.75 100354.75 0 1 1 -200709.51 0"/>
<path id="N" d="M 60735064.47 40814998.47 m -100354.75 0 a 100354.75 100354.75 0 1 1 200709.51 0a 100354.75 100354.75 0 1 1 -200709.51 0"/>
<path id="N" d="M 59785064.47 38564998.47 m -100354.75 0 a 100354.75 100354.75 0 1 1 200709.51 0a 100354.75 100354.75 0 1 1 -200709.51 0"/>
<path id="N" d="M 62690832.47 40809230.47 m -100354.75 0 a 100354.75 100354.75 0 1 1 200709.51 0a 100354.75 100354.75 0 1 1 -200709.51 0"/>
<path id="N" d="M 59735064.47 40814998.47 m -100354.75 0 a 100354.75 100354.75 0 1 1 200709.51 0a 100354.75 100354.75 0 1 1 -200709.51 0"/>
<path id="N" d="M 65672466.47 39714996.47 m -100354.75 0 a 100354.75 100354.75 0 1 1 200709.51 0a 100354.75 100354.75 0 1 1 -200709.51 0"/>
<path id="N" d="M 66772466.47 36614996.47 m -100354.75 0 a 100354.75 100354.75 0 1 1 200709.51 0a 100354.75 100354.75 0 1 1 -200709.51 0"/>
<path id="N" d="M 67022466.47 36614996.47 m -100354.75 0 a 100354.75 100354.75 0 1 1 200709.51 0a 100354.75 100354.75 0 1 1 -200709.51 0"/>
<path id="N" d="M 67022466.47 36864996.47 m -100354.75 0 a 100354.75 100354.75 0 1 1 200709.51 0a 100354.75 100354.75 0 1 1 -200709.51 0"/>
<path id="N" d="M 73654797.47 36192665.47 m -100354.75 0 a 100354.75 100354.75 0 1 1 200709.51 0a 100354.75 100354.75 0 1 1 -200709.51 0"/>
<path id="N" d="M 67272466.47 37114996.47 m -100354.75 0 a 100354.75 100354.75 0 1 1 200709.51 0a 100354.75 100354.75 0 1 1 -200709.51 0"/>
<path id="N" d="M 67272466.47 36864996.47 m -100354.75 0 a 100354.75 100354.75 0 1 1 200709.51 0a 100354.75 100354.75 0 1 1 -200709.51 0"/>
<path id="N" d="M 66772466.47 37114996.47 m -100354.75 0 a 100354.75 100354.75 0 1 1 200709.51 0a 100354.75 100354.75 0 1 1 -200709.51 0"/>
<path id="N" d="M 62935064.47 38558699.47 m -100354.75 0 a 100354.75 100354.75 0 1 1 200709.51 0a 100354.75 100354.75 0 1 1 -200709.51 0"/>
<path id="N" d="M 58122466.47 38564996.47 m -100354.75 0 a 100354.75 100354.75 0 1 1 200709.51 0a 100354.75 100354.75 0 1 1 -200709.51 0"/>
<path id="N" d="M 66772466.47 36864996.47 m -100354.75 0 a 100354.75 100354.75 0 1 1 200709.51 0a 100354.75 100354.75 0 1 1 -200709.51 0"/>
<path id="N" d="M 65022466.47 46164996.47 m -100354.75 0 a 100354.75 100354.75 0 1 1 200709.51 0a 100354.75 100354.75 0 1 1 -200709.51 0"/>
<path id="N" d="M 58485064.47 47164998.47 m -100354.75 0 a 100354.75 100354.75 0 1 1 200709.51 0a 100354.75 100354.75 0 1 1 -200709.51 0"/>
<path id="N" d="M 57222466.47 40364996.47 m -100354.75 0 a 100354.75 100354.75 0 1 1 200709.51 0a 100354.75 100354.75 0 1 1 -200709.51 0"/>
<path id="N" d="M 66722466.47 44964996.47 m -100354.75 0 a 100354.75 100354.75 0 1 1 200709.51 0a 100354.75 100354.75 0 1 1 -200709.51 0"/>
<path id="N" d="M 65272466.47 41114996.47 m -100354.75 0 a 100354.75 100354.75 0 1 1 200709.51 0a 100354.75 100354.75 0 1 1 -200709.51 0"/>
<path id="N" d="M 63522466.47 38564996.47 m -100354.75 0 a 100354.75 100354.75 0 1 1 200709.51 0a 100354.75 100354.75 0 1 1 -200709.51 0"/>
<path id="N" d="M 67272466.47 36614996.47 m -100354.75 0 a 100354.75 100354.75 0 1 1 200709.51 0a 100354.75 100354.75 0 1 1 -200709.51 0"/>
<path id="N" d="M 68435064.47 41514998.47 m -100354.75 0 a 100354.75 100354.75 0 1 1 200709.51 0a 100354.75 100354.75 0 1 1 -200709.51 0"/>
<path id="N" d="M 68472466.47 42614996.47 m -100354.75 0 a 100354.75 100354.75 0 1 1 200709.51 0a 100354.75 100354.75 0 1 1 -200709.51 0"/>
<path id="N" d="M 68243428.00 28794038.00 L 68235859.21 28788980.67 L 68227362.00 28779208.00 L 68212192.00 28755018.00 L 68204940.00 28733736.23 L 68204940.00 26046259.77 L 68205969.00 26041729.00 L 68216471.00 26016790.00 L 68233975.00 25992975.00 L 68243428.00 25985958.00 A 100353.26 100353.26 0 1 0 68101508.00 25985958.00 L 68109076.79 25991015.33 L 68117574.00 26000788.00 L 68132744.00 26024978.00 L 68139996.00 26046259.77 L 68139996.00 28733736.23 L 68138967.00 28738267.00 L 68128465.00 28763206.00 L 68110961.00 28787021.00 L 68101508.00 28794038.00 A 100353.26 100353.26 0 1 0 68243428.00 28794038.00  z"/>
<path id="N" d="M 64993828.00 42503403.00 L 64997138.99 42486757.90 L 65006268.00 42456981.00 L 65023245.00 42423060.00 L 66288027.00 41157961.00 L 66297538.00 41135000.00 L 66297538.00 38887663.00 L 66288027.00 38864702.00 L 64294154.00 36870829.00 L 64271193.00 36861318.00 L 63747009.26 36861318.00 L 63741994.00 36860112.00 L 63717818.00 36849078.00 L 63695610.00 36830688.00 L 63684197.00 36815218.00 A 100353.26 100353.26 0 1 0 63684197.00 36957138.00 L 63687058.92 36952854.85 L 63711695.00 36936935.00 L 63737322.00 36927076.00 L 64257743.00 36926262.00 L 66232594.00 38901113.00 L 66232594.00 41121550.00 L 64991775.19 42362368.81 L 64971052.00 42371144.00 L 64945017.00 42373088.00 L 64901114.00 42364647.00 A 100353.26 100353.26 0 1 0 64993828.00 42503403.00  z"/>
<path id="N" d="M 70672461.01 21164982.91 m -456680.03 0 a 456680.03 456680.03 0 1 1 913360.05 0a 456680.03 456680.03 0 1 1 -913360.05 0M 70672465.50 21165007.68 m -240838.32 0 a 240838.32 240838.32 0 1 1 481676.63 0a 240838.32 240838.32 0 1 1 -481676.63 0"/>
<path id="N" d="M 72633428.00 39065958.00 L 72641316.79 39054151.66 L 72653108.00 39041494.00 L 72675541.00 39025348.00 L 72696869.10 39017470.00 L 73055778.51 39017470.00 L 73076569.00 39023919.00 L 73102367.00 39037835.00 L 73111508.00 39045958.00 A 100353.26 100353.26 0 1 0 73111508.00 38904038.00 L 73103619.21 38915844.34 L 73091828.00 38928502.00 L 73069395.00 38944648.00 L 73048066.90 38952526.00 L 72689157.49 38952526.00 L 72668367.00 38946077.00 L 72642569.00 38932161.00 L 72633428.00 38924038.00 A 100353.26 100353.26 0 1 0 72633428.00 39065958.00  z"/>
<path id="N" d="M 72386947.00 47995784.00 L 72385170.52 47986853.23 L 72386073.00 47973937.00 L 72392451.00 47946106.00 L 72402371.15 47925928.85 L 74193854.00 46134446.00 L 74203365.00 46111485.00 L 74203365.00 36283423.00 L 74193854.00 36260461.00 L 73025429.00 35092037.00 L 73002468.00 35082526.00 L 72372468.87 35082526.00 L 72372468.00 33464998.00 L 71622468.00 33464997.00 L 71622467.00 36564998.00 L 69072468.00 39114998.00 L 69072468.00 41774998.00 L 70122468.00 41774998.00 L 70122466.00 39444998.00 L 72372470.00 37194998.00 L 72372468.90 35147470.00 L 72989017.99 35147470.00 L 74138421.00 36296873.99 L 74138421.00 46098035.00 L 72356449.15 47880006.85 L 72352518.00 47882483.00 L 72327457.00 47892692.00 L 72298240.00 47897154.00 L 72286594.00 47895431.00 A 100353.26 100353.26 0 1 0 72386947.00 47995784.00  z"/>
<path id="N" d="M 54372466.47 34594052.47 m -100354.75 0 a 100354.75 100354.75 0 1 1 200709.51 0a 100354.75 100354.75 0 1 1 -200709.51 0"/>
<path id="N" d="M 72172466.47 29014996.47 m -100354.75 0 a 100354.75 100354.75 0 1 1 200709.51 0a 100354.75 100354.75 0 1 1 -200709.51 0"/>
<path id="N" d="M 72172466.47 28564996.47 m -100354.75 0 a 100354.75 100354.75 0 1 1 200709.51 0a 100354.75 100354.75 0 1 1 -200709.51 0"/>
<path id="N" d="M 54072466.47 34594052.47 m -100354.75 0 a 100354.75 100354.75 0 1 1 200709.51 0a 100354.75 100354.75 0 1 1 -200709.51 0"/>
<path id="N" d="M 72872466.47 29014996.47 m -100354.75 0 a 100354.75 100354.75 0 1 1 200709.51 0a 100354.75 100354.75 0 1 1 -200709.51 0"/>
<path id="N" d="M 71022466.47 16564996.47 m -100354.75 0 a 100354.75 100354.75 0 1 1 200709.51 0a 100354.75 100354.75 0 1 1 -200709.51 0"/>
<path id="N" d="M 54972466.47 34594052.47 m -100354.75 0 a 100354.75 100354.75 0 1 1 200709.51 0a 100354.75 100354.75 0 1 1 -200709.51 0"/>
<path id="N" d="M 54612466.47 38984996.47 m -100354.75 0 a 100354.75 100354.75 0 1 1 200709.51 0a 100354.75 100354.75 0 1 1 -200709.51 0"/>
<path id="N" d="M 53802466.47 38984996.47 m -100354.75 0 a 100354.75 100354.75 0 1 1 200709.51 0a 100354.75 100354.75 0 1 1 -200709.51 0"/>
<path id="N" d="M 54672466.47 34594052.47 m -100354.75 0 a 100354.75 100354.75 0 1 1 200709.51 0a 100354.75 100354.75 0 1 1 -200709.51 0"/>
<path id="N" d="M 54882466.47 38984996.47 m -100354.75 0 a 100354.75 100354.75 0 1 1 200709.51 0a 100354.75 100354.75 0 1 1 -200709.51 0"/>
<path id="N" d="M 72522466.47 28564996.47 m -100354.75 0 a 100354.75 100354.75 0 1 1 200709.51 0a 100354.75 100354.75 0 1 1 -200709.51 0"/>
<path id="N" d="M 72872466.47 28564996.47 m -100354.75 0 a 100354.75 100354.75 0 1 1 200709.51 0a 100354.75 100354.75 0 1 1 -200709.51 0"/>
<path id="N" d="M 54072466.47 38984996.47 m -100354.75 0 a 100354.75 100354.75 0 1 1 200709.51 0a 100354.75 100354.75 0 1 1 -200709.51 0"/>
<path id="N" d="M 54342466.47 38984996.47 m -100354.75 0 a 100354.75 100354.75 0 1 1 200709.51 0a 100354.75 100354.75 0 1 1 -200709.51 0"/>
<path id="N" d="M 66222466.82 16947436.93 m -397102.15 0 a 397102.15 397102.15 0 1 1 794204.30 0a 397102.15 397102.15 0 1 1 -794204.30 0M 66222468.36 16947441.47 m -200706.53 0 a 200706.53 200706.53 0 1 1 401413.05 0a 200706.53 200706.53 0 1 1 -401413.05 0"/>
<path id="N" d="M 66222466.82 19034050.93 m -397102.15 0 a 397102.15 397102.15 0 1 1 794204.30 0a 397102.15 397102.15 0 1 1 -794204.30 0M 66222468.36 19034055.47 m -200706.53 0 a 200706.53 200706.53 0 1 1 401413.05 0a 200706.53 200706.53 0 1 1 -401413.05 0"/>
<path id="N" d="M 66032794.00 47376217.00 L 66065351.00 47354463.00 L 66088503.00 47322492.00 L 66109350.00 47305738.00 L 66130455.28 47297470.00 L 67493970.00 47297470.00 L 67516931.00 47287959.00 L 68589470.00 46215420.00 L 68598981.00 46192459.00 L 68598981.00 43740300.77 L 68600010.00 43735770.00 L 68610512.00 43710831.00 L 68628016.00 43687016.00 L 68637469.00 43679999.00 A 100353.26 100353.26 0 1 0 68495549.00 43679999.00 L 68503118.50 43685056.80 L 68511615.00 43694829.00 L 68526785.00 43719019.00 L 68534037.00 43740300.77 L 68534037.00 46179009.00 L 67480520.00 47232526.00 L 66115862.15 47232526.00 L 66104790.00 47229817.00 L 66078062.00 47219132.00 L 66032794.00 47190789.00 A 100349.83 100349.83 0 0 0 65923431.00 47212543.00 L 65918373.20 47220112.50 L 65908601.00 47228609.00 L 65884411.00 47243779.00 L 65863129.23 47251031.00 L 62201407.00 47251031.00 L 61914940.00 46964564.00 L 61914940.00 45778014.00 L 61905430.00 45755053.00 L 61217768.00 45067392.00 L 61194807.00 45057881.00 L 59997113.00 45057881.00 L 59974152.00 45067392.00 L 59888392.00 45151697.00 L 59863331.00 45161906.00 L 59834114.00 45166368.00 L 59822468.00 45164645.00 A 100353.26 100353.26 0 1 0 59922821.00 45264998.00 L 59921044.52 45256067.23 L 59925560.00 45224135.00 L 59935769.00 45199074.00 L 60010563.00 45122825.00 L 61181356.99 45122825.00 L 61849996.00 45791464.99 L 61849996.00 46978014.00 L 61859507.00 47000975.00 L 62164996.00 47306464.00 L 62187957.00 47315975.00 L 65863129.23 47315975.00 L 65867660.00 47317004.00 L 65892599.00 47327506.00 L 65916414.00 47345010.00 L 65923431.00 47354463.00 A 100353.26 100353.26 0 0 0 66032794.00 47376217.00  z"/>
<path id="N" d="M 67793428.00 40894038.00 L 67785859.21 40888980.67 L 67777362.00 40879208.00 L 67762192.00 40855018.00 L 67754940.00 40833736.23 L 67754940.00 30978448.00 L 68102612.85 30630775.15 L 68106544.00 30628299.00 L 68131605.00 30618090.00 L 68160822.00 30613628.00 L 68172468.00 30615351.00 L 68210871.00 30607712.00 L 68243428.00 30585958.00 L 68252081.67 30573006.93 L 68264191.00 30559322.00 L 68286166.00 30542976.00 L 68307452.09 30534970.00 L 70509203.33 30534970.00 L 70521112.00 30538061.00 L 70547208.00 30549534.00 L 70596097.00 30582712.00 A 100349.83 100349.83 0 1 0 70563540.00 30419038.00 L 70554886.33 30431989.07 L 70542777.00 30445674.00 L 70520802.00 30462020.00 L 70499515.91 30470026.00 L 68297764.67 30470026.00 L 68285856.00 30466935.00 L 68259760.00 30455462.00 L 68210871.00 30422284.00 A 100349.83 100349.83 0 0 0 68072115.00 30514998.00 L 68073891.48 30523928.77 L 68072989.00 30536845.00 L 68066611.00 30564676.00 L 68056690.85 30584853.15 L 67699507.00 30942037.00 L 67689996.00 30964998.00 L 67689996.00 40833736.23 L 67688967.00 40838267.00 L 67678465.00 40863206.00 L 67660961.00 40887021.00 L 67651508.00 40894038.00 A 100353.26 100353.26 0 1 0 67793428.00 40894038.00  z"/>
<path id="N" d="M 66782794.00 47626217.00 L 66815351.00 47604463.00 L 66838503.00 47572492.00 L 66859350.00 47555738.00 L 66880455.28 47547470.00 L 67470244.00 47547470.00 L 67493205.00 47537959.00 L 68895429.00 46135735.00 L 68904940.00 46112774.00 L 68904940.00 43046259.77 L 68905969.00 43041729.00 L 68916471.00 43016790.00 L 68933975.00 42992975.00 L 68943428.00 42985958.00 A 100353.26 100353.26 0 1 0 68801508.00 42985958.00 L 68809076.79 42991015.33 L 68817574.00 43000788.00 L 68832744.00 43024978.00 L 68839996.00 43046259.77 L 68839996.00 46099324.00 L 67456794.00 47482526.00 L 66865862.15 47482526.00 L 66854790.00 47479817.00 L 66828062.00 47469132.00 L 66782794.00 47440789.00 L 66744391.00 47433150.00 L 66705988.00 47440789.00 L 66685567.19 47454433.82 L 66651715.00 47473342.00 L 66625274.00 47482084.00 L 62135918.00 47482526.00 L 61704940.00 47051548.00 L 61704940.00 45864998.00 L 61695429.00 45842037.00 L 61130784.00 45277392.00 L 61107823.00 45267881.00 L 60166724.00 45267881.00 L 60143763.00 45277392.00 L 60085799.31 45335355.69 L 60065043.00 45344267.00 L 60038753.00 45346626.00 L 59997017.00 45339194.00 L 59958614.00 45346833.00 A 100354.75 100354.75 0 1 0 60089731.00 45477950.00 L 60093325.90 45459877.62 L 60105607.00 45419707.00 L 60118505.00 45394951.00 L 60180174.00 45332825.00 L 61094373.00 45332825.00 L 61639996.00 45878448.00 L 61639996.00 47064998.00 L 61649507.00 47087959.00 L 62099507.00 47537959.00 L 62122468.00 47547470.00 L 66608326.72 47547470.00 L 66629432.00 47555738.00 L 66650279.00 47572492.00 L 66673431.00 47604463.00 L 66705988.00 47626217.00 L 66744391.00 47633856.00 L 66782794.00 47626217.00  z"/>
<path id="N" d="M 66593428.00 35144038.00 L 66585859.21 35138980.67 L 66577362.00 35129208.00 L 66562192.00 35105018.00 L 66554940.00 35083736.23 L 66554940.00 26828448.00 L 70685918.00 22697470.00 L 71541206.23 22697470.00 L 71545737.00 22698499.00 L 71570676.00 22709001.00 L 71594491.00 22726505.00 L 71601508.00 22735958.00 A 100353.26 100353.26 0 1 0 71601508.00 22594038.00 L 71596450.67 22601606.79 L 71586678.00 22610104.00 L 71562488.00 22625274.00 L 71541206.23 22632526.00 L 70672468.00 22632526.00 L 70649507.00 22642037.00 L 66499507.00 26792037.00 L 66489996.00 26814998.00 L 66489996.00 35083736.23 L 66488967.00 35088267.00 L 66478465.00 35113206.00 L 66460961.00 35137021.00 L 66451508.00 35144038.00 A 100353.26 100353.26 0 1 0 66593428.00 35144038.00  z"/>
<path id="N" d="M 57550404.00 41847598.00 L 57547272.31 41852284.89 L 57522509.00 41868543.00 L 57496953.00 41878479.00 L 57332711.99 41879319.00 L 56554940.00 41101547.99 L 56554940.00 37153988.00 L 58679559.00 35029369.00 L 59660293.90 35029369.00 L 59672095.00 35032406.00 L 59698289.00 35043767.00 L 59746663.00 35076218.00 A 100349.83 100349.83 0 1 0 59714106.00 34912544.00 L 59705168.22 34925920.27 L 59692969.00 34939963.00 L 59671159.00 34956376.00 L 59649894.87 34964425.00 L 58666109.00 34964425.00 L 58643148.00 34973936.00 L 56499507.00 37117577.00 L 56489996.00 37140538.00 L 56489996.00 41114998.00 L 56499507.00 41137959.00 L 57296299.00 41934752.00 L 57319261.00 41944263.00 L 57487832.62 41944263.00 L 57492802.00 41945451.00 L 57517066.00 41956432.00 L 57539457.00 41974733.00 L 57550404.00 41989518.00 A 100353.26 100353.26 0 1 0 57550404.00 41847598.00  z"/>
<path id="N" d="M 62379449.00 46828622.00 L 62384506.33 46821053.21 L 62394279.00 46812556.00 L 62418469.00 46797386.00 L 62439750.77 46790134.00 L 63929804.00 46790134.00 L 63952765.00 46780623.00 L 67278027.00 43455361.00 L 67287538.00 43432400.00 L 67287538.00 38477596.00 L 67278027.00 38454635.00 L 63783935.00 34960543.00 L 63760974.00 34951032.00 L 60616327.77 34951032.00 L 60611797.00 34950003.00 L 60586858.00 34939501.00 L 60563043.00 34921997.00 L 60556026.00 34912544.00 A 100353.26 100353.26 0 1 0 60556026.00 35054464.00 L 60561083.33 35046895.21 L 60570856.00 35038398.00 L 60595046.00 35023228.00 L 60616327.77 35015976.00 L 63747524.00 35015976.00 L 67222594.00 38491046.00 L 67222594.00 43418950.00 L 63916354.00 46725190.00 L 62439750.77 46725190.00 L 62435220.00 46724161.00 L 62410281.00 46713659.00 L 62386466.00 46696155.00 L 62379449.00 46686702.00 A 100353.26 100353.26 0 1 0 62379449.00 46828622.00  z"/>
</g>
</svg>
