<svg width="58.00704934mm" height="85.80704708mm" viewBox="0 0 22837421 33782302"  version="1.1" xmlns="http://www.w3.org/2000/svg" xmlns:xlink="http://www.w3.org/1999/xlink">
<desc>
Origin 52372468 49564998 Bound 52371080 15784084 22837421 33782302
</desc>
<g fill-rule="evenodd" fill="rgb(128, 0, 128)" stroke="black" stroke-width="1" transform="translate(0, 33782302) scale(1, -1) translate(-52371080, -15784084)">
<path id="N" d="M 74395822.00 49565063.00 A 905044.58 905044.58 0 0 0 75208431.00 48753706.00 L 75208499.00 16596693.00 A 905740.55 905740.55 0 0 0 74395890.00 15784085.00 L 53183756.00 15785402.00 A 905044.58 905044.58 0 0 0 52371148.00 16596761.00 L 52372399.00 48753708.00 A 905044.58 905044.58 0 0 0 53183758.00 49566317.00 L 74395822.00 49565063.00  zM 53553566.76 16966582.08 m -472180.92 0 a 472180.92 472180.92 0 1 1 944361.85 0a 472180.92 472180.92 0 1 1 -944361.85 0M 62222471.68 19034037.80 m -437460.20 0 a 437460.20 437460.20 0 1 1 874920.41 0a 437460.20 437460.20 0 1 1 -874920.41 0M 62222471.68 16947423.80 m -437460.20 0 a 437460.20 437460.20 0 1 1 874920.41 0a 437460.20 437460.20 0 1 1 -874920.41 0M 64046719.00 17070353.00 L 63750185.00 17070353.00 L 63750185.00 16596653.00 L 64046719.00 16596653.00 L 64046719.00 17070353.00  zM 64121296.00 16922086.00 L 64121296.00 16744920.00 A 151171.27 151171.27 0 0 1 64423640.00 16744920.00 L 64423640.00 16922086.00 A 151171.27 151171.27 0 0 1 64121296.00 16922086.00  zM 63747280.00 17985078.00 L 63747280.00 17807912.00 A 151171.27 151171.27 0 0 1 64049624.00 17807912.00 L 64049624.00 17985078.00 A 151171.27 151171.27 0 0 1 63747280.00 17985078.00  zM 64262436.00 20649126.00 L 63882436.00 20649126.00 L 63882436.00 20269126.00 L 64262436.00 20269126.00 L 64262436.00 20649126.00  zM 64262435.00 21160935.00 L 63882435.00 21160935.00 L 63882435.00 20780935.00 L 64262435.00 20780935.00 L 64262435.00 21160935.00  zM 64495312.00 16922086.00 L 64495312.00 16744920.00 A 151171.27 151171.27 0 1 1 64797656.00 16744920.00 L 64797656.00 16922086.00 A 151171.27 151171.27 0 1 1 64495312.00 16922086.00  zM 64131331.00 17994920.00 L 64131331.00 17798070.00 A 141132.04 141132.04 0 0 1 64413605.00 17798070.00 L 64413605.00 17994920.00 A 141132.04 141132.04 0 0 1 64131331.00 17994920.00  zM 64495312.00 17985078.00 L 64495312.00 17807912.00 A 151171.27 151171.27 0 1 1 64797656.00 17807912.00 L 64797656.00 17985078.00 A 151171.27 151171.27 0 1 1 64495312.00 17985078.00  zM 64862501.00 20649062.00 L 64482501.00 20649062.00 L 64482501.00 20269062.00 L 64862501.00 20269062.00 L 64862501.00 20649062.00  zM 65291191.00 20622479.00 L 65291191.00 20307519.00 A 181279.69 181279.69 0 0 1 65653747.00 20307519.00 L 65653747.00 20622479.00 A 181279.69 181279.69 0 0 1 65291191.00 20622479.00  zM 65791190.00 20622478.00 L 65791190.00 20307518.00 A 181279.69 181279.69 0 0 1 66153746.00 20307518.00 L 66153746.00 20622478.00 A 181279.69 181279.69 0 0 1 65791190.00 20622478.00  zM 64862501.00 21160874.00 L 64482501.00 21160874.00 L 64482501.00 20780874.00 L 64862501.00 20780874.00 L 64862501.00 21160874.00  zM 65291191.00 22905939.00 L 65291191.00 22590979.00 A 181279.69 181279.69 0 0 1 65653747.00 22590979.00 L 65653747.00 22905939.00 A 181279.69 181279.69 0 0 1 65291191.00 22905939.00  zM 66222471.68 16947423.80 m -437460.20 0 a 437460.20 437460.20 0 1 1 874920.41 0a 437460.20 437460.20 0 1 1 -874920.41 0M 67731331.00 17511848.00 L 67731331.00 17118148.00 A 141132.04 141132.04 0 0 1 68013605.00 17118148.00 L 68013605.00 17511848.00 A 141132.04 141132.04 0 0 1 67731331.00 17511848.00  zM 66222471.68 19034037.80 m -437460.20 0 a 437460.20 437460.20 0 1 1 874920.41 0a 437460.20 437460.20 0 1 1 -874920.41 0M 67731331.00 19480352.00 L 67731331.00 19086652.00 A 141132.04 141132.04 0 0 1 68013605.00 19086652.00 L 68013605.00 19480352.00 A 141132.04 141132.04 0 0 1 67731331.00 19480352.00  zM 66291188.00 20622478.00 L 66291188.00 20307518.00 A 181279.69 181279.69 0 0 1 66653744.00 20307518.00 L 66653744.00 20622478.00 A 181279.69 181279.69 0 0 1 66291188.00 20622478.00  zM 66791190.00 20622480.00 L 66791190.00 20307520.00 A 181279.69 181279.69 0 1 1 67153746.00 20307520.00 L 67153746.00 20622480.00 A 181279.69 181279.69 0 1 1 66791190.00 20622480.00  zM 66912067.00 22119164.00 L 65532855.00 22119164.00 L 65532855.00 21094282.00 L 66912067.00 21094282.00 L 66912067.00 22119164.00  zM 66791190.00 22905940.00 L 66791190.00 22590980.00 A 181279.69 181279.69 0 1 1 67153746.00 22590980.00 L 67153746.00 22905940.00 A 181279.69 181279.69 0 1 1 66791190.00 22905940.00  zM 65791191.00 22905940.00 L 65791191.00 22590980.00 A 181279.69 181279.69 0 1 1 66153747.00 22590980.00 L 66153747.00 22905940.00 A 181279.69 181279.69 0 1 1 65791191.00 22905940.00  zM 66291189.00 22905940.00 L 66291189.00 22590980.00 A 181279.69 181279.69 0 1 1 66653745.00 22590980.00 L 66653745.00 22905940.00 A 181279.69 181279.69 0 1 1 66291189.00 22905940.00  zM 67606594.00 23605030.00 L 67226594.00 23605030.00 L 67226594.00 23225030.00 L 67606594.00 23225030.00 L 67606594.00 23605030.00  zM 68118406.00 23605030.00 L 67738406.00 23605030.00 L 67738406.00 23225030.00 L 68118406.00 23225030.00 L 68118406.00 23605030.00  zM 67606530.00 24192530.00 L 67226530.00 24192530.00 L 67226530.00 23812530.00 L 67606530.00 23812530.00 L 67606530.00 24192530.00  zM 68118342.00 24192530.00 L 67738342.00 24192530.00 L 67738342.00 23812530.00 L 68118342.00 23812530.00 L 68118342.00 24192530.00  zM 67606594.00 24780030.00 L 67226594.00 24780030.00 L 67226594.00 24400030.00 L 67606594.00 24400030.00 L 67606594.00 24780030.00  zM 68118406.00 24780030.00 L 67738406.00 24780030.00 L 67738406.00 24400030.00 L 68118406.00 24400030.00 L 68118406.00 24780030.00  zM 68156530.00 16754966.00 L 67776530.00 16754966.00 L 67776530.00 16374966.00 L 68156530.00 16374966.00 L 68156530.00 16754966.00  zM 68231331.00 17511848.00 L 68231331.00 17118148.00 A 141132.04 141132.04 0 0 1 68513605.00 17118148.00 L 68513605.00 17511848.00 A 141132.04 141132.04 0 0 1 68231331.00 17511848.00  zM 68668342.00 16754966.00 L 68288342.00 16754966.00 L 68288342.00 16374966.00 L 68668342.00 16374966.00 L 68668342.00 16754966.00  zM 69231331.00 17511848.00 L 69231331.00 17118148.00 A 141132.04 141132.04 0 0 1 69513605.00 17118148.00 L 69513605.00 17511848.00 A 141132.04 141132.04 0 0 1 69231331.00 17511848.00  zM 68731331.00 17511848.00 L 68731331.00 17118148.00 A 141132.04 141132.04 0 0 1 69013605.00 17118148.00 L 69013605.00 17511848.00 A 141132.04 141132.04 0 0 1 68731331.00 17511848.00  zM 69731331.00 17511848.00 L 69731331.00 17118148.00 A 141132.04 141132.04 0 0 1 70013605.00 17118148.00 L 70013605.00 17511848.00 A 141132.04 141132.04 0 0 1 69731331.00 17511848.00  zM 69231331.00 19480352.00 L 69231331.00 19086652.00 A 141132.04 141132.04 0 0 1 69513605.00 19086652.00 L 69513605.00 19480352.00 A 141132.04 141132.04 0 0 1 69231331.00 19480352.00  zM 69731331.00 19480352.00 L 69731331.00 19086652.00 A 141132.04 141132.04 0 0 1 70013605.00 19086652.00 L 70013605.00 19480352.00 A 141132.04 141132.04 0 0 1 69731331.00 19480352.00  zM 70456530.00 16754966.00 L 70076530.00 16754966.00 L 70076530.00 16374966.00 L 70456530.00 16374966.00 L 70456530.00 16754966.00  zM 70968342.00 16754966.00 L 70588342.00 16754966.00 L 70588342.00 16374966.00 L 70968342.00 16374966.00 L 70968342.00 16754966.00  zM 70231331.00 17511848.00 L 70231331.00 17118148.00 A 141132.04 141132.04 0 0 1 70513605.00 17118148.00 L 70513605.00 17511848.00 A 141132.04 141132.04 0 0 1 70231331.00 17511848.00  zM 70231331.00 19480352.00 L 70231331.00 19086652.00 A 141132.04 141132.04 0 0 1 70513605.00 19086652.00 L 70513605.00 19480352.00 A 141132.04 141132.04 0 0 1 70231331.00 19480352.00  zM 70731331.00 17511848.00 L 70731331.00 17118148.00 A 141132.04 141132.04 0 0 1 71013605.00 17118148.00 L 71013605.00 17511848.00 A 141132.04 141132.04 0 0 1 70731331.00 17511848.00  zM 71010893.00 19618777.00 L 70734043.00 19618777.00 L 70734043.00 18948227.00 L 71010893.00 18948227.00 L 71010893.00 19618777.00  zM 71762436.00 18999124.00 L 71382436.00 18999124.00 L 71382436.00 18619124.00 L 71762436.00 18619124.00 L 71762436.00 18999124.00  zM 74026007.76 16966582.08 m -472180.92 0 a 472180.92 472180.92 0 1 1 944361.85 0a 472180.92 472180.92 0 1 1 -944361.85 0M 68231331.00 19480352.00 L 68231331.00 19086652.00 A 141132.04 141132.04 0 0 1 68513605.00 19086652.00 L 68513605.00 19480352.00 A 141132.04 141132.04 0 0 1 68231331.00 19480352.00  zM 69165224.00 21657754.00 L 68179712.00 21657754.00 L 68179712.00 20672242.00 L 69165224.00 20672242.00 L 69165224.00 21657754.00  zM 68731331.00 19480352.00 L 68731331.00 19086652.00 A 141132.04 141132.04 0 0 1 69013605.00 19086652.00 L 69013605.00 19480352.00 A 141132.04 141132.04 0 0 1 68731331.00 19480352.00  zM 70672469.01 21164995.08 m -497010.92 0 a 497010.92 497010.92 0 1 1 994021.83 0a 497010.92 497010.92 0 1 1 -994021.83 0M 70348295.00 24010510.00 L 68496641.00 24010510.00 L 68496641.00 23241534.00 L 70348295.00 23241534.00 L 70348295.00 24010510.00  zM 71006530.00 24879769.00 L 70626530.00 24879769.00 L 70626530.00 24499769.00 L 71006530.00 24499769.00 L 71006530.00 24879769.00  zM 71008308.00 24275642.00 L 70628308.00 24275642.00 L 70628308.00 23895642.00 L 71008308.00 23895642.00 L 71008308.00 24275642.00  zM 71518343.00 24879768.00 L 71138343.00 24879768.00 L 71138343.00 24499768.00 L 71518343.00 24499768.00 L 71518343.00 24879768.00  zM 71762436.00 19510936.00 L 71382436.00 19510936.00 L 71382436.00 19130936.00 L 71762436.00 19130936.00 L 71762436.00 19510936.00  zM 73858374.00 23649124.00 L 73478374.00 23649124.00 L 73478374.00 23269124.00 L 73858374.00 23269124.00 L 73858374.00 23649124.00  zM 73858374.00 24160936.00 L 73478374.00 24160936.00 L 73478374.00 23780936.00 L 73858374.00 23780936.00 L 73858374.00 24160936.00  zM 74712435.00 23649124.00 L 74332435.00 23649124.00 L 74332435.00 23269124.00 L 74712435.00 23269124.00 L 74712435.00 23649124.00  zM 71520122.00 24275642.00 L 71140122.00 24275642.00 L 71140122.00 23895642.00 L 71520122.00 23895642.00 L 71520122.00 24275642.00  zM 72644272.00 24926267.00 L 72329312.00 24926267.00 A 278596.85 278596.85 0 1 1 72329312.00 24369061.00 L 72644272.00 24369061.00 A 278596.85 278596.85 0 0 1 72644272.00 24926267.00  zM 74712437.00 24160936.00 L 74332437.00 24160936.00 L 74332437.00 23780936.00 L 74712437.00 23780936.00 L 74712437.00 24160936.00  zM 74250602.00 24926267.00 L 74014382.00 24926267.00 A 278596.85 278596.85 0 0 1 74014382.00 24369061.00 L 74250602.00 24369061.00 A 278596.85 278596.85 0 0 1 74250602.00 24926267.00  zM 53572469.01 24814993.89 m -377882.11 0 a 377882.11 377882.11 0 1 1 755764.21 0a 377882.11 377882.11 0 1 1 -755764.21 0M 53572469.01 25814994.89 m -377882.11 0 a 377882.11 377882.11 0 1 1 755764.21 0a 377882.11 377882.11 0 1 1 -755764.21 0M 53572469.01 26814992.89 m -377882.11 0 a 377882.11 377882.11 0 1 1 755764.21 0a 377882.11 377882.11 0 1 1 -755764.21 0M 53947113.00 28189643.00 L 53197823.00 28189643.00 L 53197823.00 27440353.00 L 53947113.00 27440353.00 L 53947113.00 28189643.00  zM 68341189.00 26089015.00 L 68341189.00 25774055.00 A 181279.69 181279.69 0 0 1 68703745.00 25774055.00 L 68703745.00 26089015.00 A 181279.69 181279.69 0 0 1 68341189.00 26089015.00  zM 68841188.00 26089016.00 L 68841188.00 25774056.00 A 181279.69 181279.69 0 1 1 69203744.00 25774056.00 L 69203744.00 26089016.00 A 181279.69 181279.69 0 1 1 68841188.00 26089016.00  zM 68341189.00 28372475.00 L 68341189.00 28057515.00 A 181279.69 181279.69 0 0 1 68703745.00 28057515.00 L 68703745.00 28372475.00 A 181279.69 181279.69 0 0 1 68341189.00 28372475.00  zM 68841190.00 28372477.00 L 68841190.00 28057517.00 A 181279.69 181279.69 0 1 1 69203746.00 28057517.00 L 69203746.00 28372477.00 A 181279.69 181279.69 0 1 1 68841190.00 28372477.00  zM 70348295.00 25388462.00 L 68496641.00 25388462.00 L 68496641.00 24619486.00 L 70348295.00 24619486.00 L 70348295.00 25388462.00  zM 69841190.00 26089015.00 L 69841190.00 25774055.00 A 181279.69 181279.69 0 1 1 70203746.00 25774055.00 L 70203746.00 26089015.00 A 181279.69 181279.69 0 1 1 69841190.00 26089015.00  zM 69341190.00 26089018.00 L 69341190.00 25774058.00 A 181279.69 181279.69 0 0 1 69703746.00 25774058.00 L 69703746.00 26089018.00 A 181279.69 181279.69 0 0 1 69341190.00 26089018.00  zM 69962066.00 27585702.00 L 68582854.00 27585702.00 L 68582854.00 26560820.00 L 69962066.00 26560820.00 L 69962066.00 27585702.00  zM 69341190.00 28372478.00 L 69341190.00 28057518.00 A 181279.69 181279.69 0 0 1 69703746.00 28057518.00 L 69703746.00 28372478.00 A 181279.69 181279.69 0 0 1 69341190.00 28372478.00  zM 69551050.00 29208936.00 L 69293886.00 29208936.00 L 69293886.00 28735236.00 L 69551050.00 28735236.00 L 69551050.00 29208936.00  zM 69841188.00 28372478.00 L 69841188.00 28057518.00 A 181279.69 181279.69 0 1 1 70203744.00 28057518.00 L 70203744.00 28372478.00 A 181279.69 181279.69 0 1 1 69841188.00 28372478.00  zM 70962468.00 28029801.00 L 70582468.00 28029801.00 L 70582468.00 27649801.00 L 70962468.00 27649801.00 L 70962468.00 28029801.00  zM 71006528.00 25479768.00 L 70626528.00 25479768.00 L 70626528.00 25099768.00 L 71006528.00 25099768.00 L 71006528.00 25479768.00  zM 71518343.00 26079765.00 L 71138343.00 26079765.00 L 71138343.00 25699765.00 L 71518343.00 25699765.00 L 71518343.00 26079765.00  zM 71518343.00 25479768.00 L 71138343.00 25479768.00 L 71138343.00 25099768.00 L 71518343.00 25099768.00 L 71518343.00 25479768.00  zM 72695492.89 25210661.08 m -191318.92 0 a 191318.92 191318.92 0 1 1 382637.84 0a 191318.92 191318.92 0 1 1 -382637.84 0M 71006529.00 26079765.00 L 70626529.00 26079765.00 L 70626529.00 25699765.00 L 71006529.00 25699765.00 L 71006529.00 26079765.00  zM 72362497.00 27766417.00 L 71770687.00 27766417.00 L 71770687.00 24930511.00 L 72362497.00 24930511.00 L 72362497.00 27766417.00  zM 70962468.00 27517989.00 L 70582468.00 27517989.00 L 70582468.00 27137989.00 L 70962468.00 27137989.00 L 70962468.00 27517989.00  zM 71562468.00 27517989.00 L 71182468.00 27517989.00 L 71182468.00 27137989.00 L 71562468.00 27137989.00 L 71562468.00 27517989.00  zM 71562468.00 28029801.00 L 71182468.00 28029801.00 L 71182468.00 27649801.00 L 71562468.00 27649801.00 L 71562468.00 28029801.00  zM 71518404.00 28655032.00 L 71138404.00 28655032.00 L 71138404.00 28275032.00 L 71518404.00 28275032.00 L 71518404.00 28655032.00  zM 71006595.00 28655034.00 L 70626595.00 28655034.00 L 70626595.00 28275034.00 L 71006595.00 28275034.00 L 71006595.00 28655034.00  zM 71288452.00 29208934.00 L 71031288.00 29208934.00 L 71031288.00 28735234.00 L 71288452.00 28735234.00 L 71288452.00 29208934.00  zM 72644272.00 28327867.00 L 72329312.00 28327867.00 A 278596.85 278596.85 0 1 1 72329312.00 27770661.00 L 72644272.00 27770661.00 A 278596.85 278596.85 0 0 1 72644272.00 28327867.00  zM 72638452.00 29208934.00 L 72381288.00 29208934.00 L 72381288.00 28735234.00 L 72638452.00 28735234.00 L 72638452.00 29208934.00  zM 72695492.89 27486261.08 m -191318.92 0 a 191318.92 191318.92 0 1 1 382637.84 0a 191318.92 191318.92 0 1 1 -382637.84 0M 74250602.00 28327867.00 L 74014382.00 28327867.00 A 278596.85 278596.85 0 0 1 74014382.00 27770661.00 L 74250602.00 27770661.00 A 278596.85 278596.85 0 0 1 74250602.00 28327867.00  zM 68612500.00 29499060.00 L 68232500.00 29499060.00 L 68232500.00 29119060.00 L 68612500.00 29119060.00 L 68612500.00 29499060.00  zM 68612500.00 30010872.00 L 68232500.00 30010872.00 L 68232500.00 29630872.00 L 68612500.00 29630872.00 L 68612500.00 30010872.00  zM 69177034.00 30101848.00 L 68919870.00 30101848.00 L 68919870.00 29628148.00 L 69177034.00 29628148.00 L 69177034.00 30101848.00  zM 68612503.00 30699060.00 L 68232503.00 30699060.00 L 68232503.00 30319060.00 L 68612503.00 30319060.00 L 68612503.00 30699060.00  zM 69356530.00 30654966.00 L 68976530.00 30654966.00 L 68976530.00 30274966.00 L 69356530.00 30274966.00 L 69356530.00 30654966.00  zM 69868343.00 30654965.00 L 69488343.00 30654965.00 L 69488343.00 30274965.00 L 69868343.00 30274965.00 L 69868343.00 30654965.00  zM 69925067.00 30101848.00 L 69667903.00 30101848.00 L 69667903.00 29628148.00 L 69925067.00 29628148.00 L 69925067.00 30101848.00  zM 70914437.00 30101846.00 L 70657273.00 30101846.00 L 70657273.00 29628146.00 L 70914437.00 29628146.00 L 70914437.00 30101846.00  zM 68612502.00 31210872.00 L 68232502.00 31210872.00 L 68232502.00 30830872.00 L 68612502.00 30830872.00 L 68612502.00 31210872.00  zM 69350656.00 31254998.00 L 68970656.00 31254998.00 L 68970656.00 30874998.00 L 69350656.00 30874998.00 L 69350656.00 31254998.00  zM 69044272.00 32663526.00 L 68464272.00 32663526.00 L 68464272.00 32233526.00 L 69044272.00 32233526.00 L 69044272.00 32663526.00  zM 69694273.00 32599125.00 L 69314273.00 32599125.00 L 69314273.00 32219125.00 L 69694273.00 32219125.00 L 69694273.00 32599125.00  zM 70480263.00 30653423.00 L 70124673.00 30653423.00 L 70124673.00 30376573.00 L 70480263.00 30376573.00 L 70480263.00 30653423.00  zM 70411051.00 31153423.00 L 70193885.00 31153423.00 L 70124673.00 31084210.00 L 70124673.00 30945786.00 L 70193885.00 30876573.00 L 70411051.00 30876573.00 L 70480263.00 30945786.00 L 70480263.00 31084210.00 L 70411051.00 31153423.00  zM 69862468.00 31254998.00 L 69482468.00 31254998.00 L 69482468.00 30874998.00 L 69862468.00 30874998.00 L 69862468.00 31254998.00  zM 70588367.00 32054968.00 L 70208367.00 32054968.00 L 70208367.00 31674968.00 L 70588367.00 31674968.00 L 70588367.00 32054968.00  zM 71093996.00 30654967.00 L 70713996.00 30654967.00 L 70713996.00 30274967.00 L 71093996.00 30274967.00 L 71093996.00 30654967.00  zM 71605808.00 30654967.00 L 71225808.00 30654967.00 L 71225808.00 30274967.00 L 71605808.00 30274967.00 L 71605808.00 30654967.00  zM 71662468.00 30101846.00 L 71405304.00 30101846.00 L 71405304.00 29628146.00 L 71662468.00 29628146.00 L 71662468.00 30101846.00  zM 72264436.00 30101846.00 L 72007272.00 30101846.00 L 72007272.00 29628146.00 L 72264436.00 29628146.00 L 72264436.00 30101846.00  zM 71093932.00 31254964.00 L 70713932.00 31254964.00 L 70713932.00 30874964.00 L 71093932.00 30874964.00 L 71093932.00 31254964.00  zM 71100180.00 32054967.00 L 70720180.00 32054967.00 L 70720180.00 31674967.00 L 71100180.00 31674967.00 L 71100180.00 32054967.00  zM 71605745.00 31254964.00 L 71225745.00 31254964.00 L 71225745.00 30874964.00 L 71605745.00 30874964.00 L 71605745.00 31254964.00  zM 72393932.00 31254964.00 L 72013932.00 31254964.00 L 72013932.00 30874964.00 L 72393932.00 30874964.00 L 72393932.00 31254964.00  zM 73012467.00 30101845.00 L 72755303.00 30101845.00 L 72755303.00 29628145.00 L 73012467.00 29628145.00 L 73012467.00 30101845.00  zM 72399870.00 30654996.00 L 72019870.00 30654996.00 L 72019870.00 30274996.00 L 72399870.00 30274996.00 L 72399870.00 30654996.00  zM 72911682.00 30654996.00 L 72531682.00 30654996.00 L 72531682.00 30274996.00 L 72911682.00 30274996.00 L 72911682.00 30654996.00  zM 72905745.00 31254964.00 L 72525745.00 31254964.00 L 72525745.00 30874964.00 L 72905745.00 30874964.00 L 72905745.00 31254964.00  zM 74062468.00 29329998.00 L 73482468.00 29329998.00 L 73482468.00 28899998.00 L 74062468.00 28899998.00 L 74062468.00 29329998.00  zM 74654968.00 29329998.00 L 74289968.00 29329998.00 L 74182468.00 29222498.00 L 74182468.00 29007498.00 L 74289968.00 28899998.00 L 74654968.00 28899998.00 L 74762468.00 29007498.00 L 74762468.00 29222498.00 L 74654968.00 29329998.00  zM 74054920.00 31029143.00 L 73689920.00 31029143.00 L 73582420.00 30921643.00 L 73582420.00 30706643.00 L 73689920.00 30599143.00 L 74054920.00 30599143.00 L 74162420.00 30706643.00 L 74162420.00 30921643.00 L 74054920.00 31029143.00  zM 74862420.00 31029144.00 L 74282420.00 31029144.00 L 74282420.00 30599144.00 L 74862420.00 30599144.00 L 74862420.00 31029144.00  zM 54795540.00 33430745.00 L 53849398.00 33430745.00 L 53849398.00 32642085.00 L 54795540.00 32642085.00 L 54795540.00 33430745.00  zM 55601443.00 35163030.00 L 55009633.00 35163030.00 L 55009633.00 33586967.00 L 55601443.00 33586967.00 L 55601443.00 35163030.00  zM 54795539.00 36107909.00 L 53849397.00 36107909.00 L 53849397.00 35319249.00 L 54795539.00 35319249.00 L 54795539.00 36107909.00  zM 57019094.00 37086497.00 L 56230434.00 37086497.00 L 56230434.00 36140355.00 L 57019094.00 36140355.00 L 57019094.00 37086497.00  zM 54795540.00 38251060.00 L 53849398.00 38251060.00 L 53849398.00 37462400.00 L 54795540.00 37462400.00 L 54795540.00 38251060.00  zM 57519192.00 38742764.00 L 57139192.00 38742764.00 L 57139192.00 38362764.00 L 57519192.00 38362764.00 L 57519192.00 38742764.00  zM 58031004.00 38742764.00 L 57651004.00 38742764.00 L 57651004.00 38362764.00 L 58031004.00 38362764.00 L 58031004.00 38742764.00  zM 59169192.00 38742764.00 L 58789192.00 38742764.00 L 58789192.00 38362764.00 L 59169192.00 38362764.00 L 59169192.00 38742764.00  zM 59681004.00 38742764.00 L 59301004.00 38742764.00 L 59301004.00 38362764.00 L 59681004.00 38362764.00 L 59681004.00 38742764.00  zM 60472500.00 39250872.00 L 60092500.00 39250872.00 L 60092500.00 38870872.00 L 60472500.00 38870872.00 L 60472500.00 39250872.00  zM 60472500.00 38739060.00 L 60092500.00 38739060.00 L 60092500.00 38359060.00 L 60472500.00 38359060.00 L 60472500.00 38739060.00  zM 61095106.00 39285359.00 L 60719830.00 39285359.00 L 60719830.00 38969139.00 L 61095106.00 38969139.00 L 61095106.00 39285359.00  zM 61095106.00 38935359.00 L 60719830.00 38935359.00 L 60719830.00 38619139.00 L 61095106.00 38619139.00 L 61095106.00 38935359.00  zM 56601720.00 34074767.00 A 311272.96 311272.96 0 0 1 56601721.00 33455236.00 L 65543210.00 33455305.00 A 311209.73 311209.73 0 0 1 65543214.00 34074760.00 L 56601720.00 34074767.00  zM 65050592.00 37892401.00 L 57175314.00 37892401.00 L 57175314.00 37300591.00 L 65050592.00 37300591.00 L 65050592.00 37892401.00  zM 63386850.00 40616798.00 L 63381732.50 40591071.38 L 63376615.00 40616798.00 A 100991.09 100991.09 0 0 1 63189999.00 40616798.00 L 63184882.00 40591073.89 L 63179765.00 40616798.00 A 100991.09 100991.09 0 0 1 62993149.00 40616798.00 L 62988032.00 40591073.89 L 62982915.00 40616798.00 A 100991.09 100991.09 0 0 1 62796299.00 40616798.00 L 62791181.50 40591071.38 L 62786064.00 40616798.00 A 100991.09 100991.09 0 0 1 62599448.00 40616798.00 L 62594331.00 40591073.89 L 62589214.00 40616798.00 A 100991.09 100991.09 0 0 1 62402598.00 40616798.00 L 62397480.50 40591071.38 L 62392363.00 40616798.00 A 100991.09 100991.09 0 0 1 62205747.00 40616798.00 L 62200630.00 40591073.89 L 62195513.00 40616798.00 A 100991.09 100991.09 0 0 1 62008897.00 40616798.00 L 62003780.00 40591073.89 L 61998663.00 40616798.00 A 100991.09 100991.09 0 0 1 61812047.00 40616798.00 L 61806929.50 40591071.38 L 61801812.00 40616798.00 A 100991.09 100991.09 0 0 1 61615196.00 40616798.00 L 61610079.00 40591073.89 L 61604962.00 40616798.00 A 100991.09 100991.09 0 0 1 61418346.00 40616798.00 L 61413228.50 40591071.38 L 61408111.00 40616798.00 A 100991.09 100991.09 0 0 1 61221495.00 40616798.00 L 61216378.00 40591073.89 L 61211261.00 40616798.00 A 100991.09 100991.09 0 0 1 61024645.00 40616798.00 L 61019528.00 40591073.89 L 61014411.00 40616798.00 A 100991.09 100991.09 0 0 1 60827795.00 40616798.00 L 60822677.50 40591071.38 L 60817560.00 40616798.00 A 100991.09 100991.09 0 0 1 60630944.00 40616798.00 L 60625827.00 40591073.89 L 60620710.00 40616798.00 A 100991.09 100991.09 0 0 1 60434094.00 40616798.00 L 60428976.50 40591071.38 L 60423859.00 40616798.00 A 100991.09 100991.09 0 0 1 60237243.00 40616798.00 L 60232126.00 40591073.89 L 60227009.00 40616798.00 A 100991.09 100991.09 0 0 1 60040393.00 40616798.00 L 60035276.00 40591073.89 L 60030159.00 40616798.00 A 100991.09 100991.09 0 0 1 59843543.00 40616798.00 L 59838425.50 40591071.38 L 59833308.00 40616798.00 A 100991.09 100991.09 0 0 1 59646692.00 40616798.00 L 59641575.00 40591073.89 L 59636458.00 40616798.00 A 100991.09 100991.09 0 0 1 59449842.00 40616798.00 L 59444724.50 40591071.38 L 59439607.00 40616798.00 A 100991.09 100991.09 0 0 1 59252991.00 40616798.00 L 59247874.00 40591073.89 L 59242757.00 40616798.00 A 100991.09 100991.09 0 0 1 59056141.00 40616798.00 L 59051024.00 40591073.89 L 59045907.00 40616798.00 A 100991.09 100991.09 0 0 1 58859291.00 40616798.00 L 58854173.50 40591071.38 L 58849056.00 40616798.00 A 100991.09 100991.09 0 0 1 58654752.00 40578149.00 L 58654752.00 39987599.00 A 101000.25 101000.25 0 0 1 58849056.00 39948950.00 L 58854173.50 39974676.62 L 58859291.00 39948950.00 A 100991.09 100991.09 0 0 1 59045907.00 39948950.00 L 59051024.00 39974674.11 L 59056141.00 39948950.00 A 100991.09 100991.09 0 0 1 59242757.00 39948950.00 L 59247874.00 39974674.11 L 59252991.00 39948950.00 A 100991.09 100991.09 0 0 1 59439607.00 39948950.00 L 59444724.50 39974676.62 L 59449842.00 39948950.00 A 100991.09 100991.09 0 0 1 59636458.00 39948950.00 L 59641575.00 39974674.11 L 59646692.00 39948950.00 A 100991.09 100991.09 0 0 1 59833308.00 39948950.00 L 59838425.50 39974676.62 L 59843543.00 39948950.00 A 100991.09 100991.09 0 0 1 60030159.00 39948950.00 L 60035276.00 39974674.11 L 60040393.00 39948950.00 A 100991.09 100991.09 0 0 1 60227009.00 39948950.00 L 60232126.00 39974674.11 L 60237243.00 39948950.00 A 100991.09 100991.09 0 0 1 60423859.00 39948950.00 L 60428976.50 39974676.62 L 60434094.00 39948950.00 A 100991.09 100991.09 0 0 1 60620710.00 39948950.00 L 60625827.00 39974674.11 L 60630944.00 39948950.00 A 100991.09 100991.09 0 0 1 60817560.00 39948950.00 L 60822677.50 39974676.62 L 60827795.00 39948950.00 A 100991.09 100991.09 0 0 1 61014411.00 39948950.00 L 61019528.00 39974674.11 L 61024645.00 39948950.00 A 100991.09 100991.09 0 0 1 61211261.00 39948950.00 L 61216378.00 39974674.11 L 61221495.00 39948950.00 A 100991.09 100991.09 0 0 1 61408111.00 39948950.00 L 61413228.50 39974676.62 L 61418346.00 39948950.00 A 100991.09 100991.09 0 0 1 61604962.00 39948950.00 L 61610079.00 39974674.11 L 61615196.00 39948950.00 A 100991.09 100991.09 0 0 1 61801812.00 39948950.00 L 61806929.50 39974676.62 L 61812047.00 39948950.00 A 100991.09 100991.09 0 0 1 61998663.00 39948950.00 L 62003780.00 39974674.11 L 62008897.00 39948950.00 A 100991.09 100991.09 0 0 1 62195513.00 39948950.00 L 62200630.00 39974674.11 L 62205747.00 39948950.00 A 100991.09 100991.09 0 0 1 62392363.00 39948950.00 L 62397480.50 39974676.62 L 62402598.00 39948950.00 A 100991.09 100991.09 0 0 1 62589214.00 39948950.00 L 62594331.00 39974674.11 L 62599448.00 39948950.00 A 100991.09 100991.09 0 0 1 62786064.00 39948950.00 L 62791181.50 39974676.62 L 62796299.00 39948950.00 A 100991.09 100991.09 0 0 1 62982915.00 39948950.00 L 62988032.00 39974674.11 L 62993149.00 39948950.00 A 100991.09 100991.09 0 0 1 63179765.00 39948950.00 L 63184882.00 39974674.11 L 63189999.00 39948950.00 A 100991.09 100991.09 0 0 1 63376615.00 39948950.00 L 63381732.50 39974676.62 L 63386850.00 39948950.00 A 100991.09 100991.09 0 0 1 63581154.00 39987599.00 L 63581154.00 40578149.00 A 101000.25 101000.25 0 0 1 63386850.00 40616798.00  zM 61565106.00 38935359.00 L 61189830.00 38935359.00 L 61189830.00 38619139.00 L 61565106.00 38619139.00 L 61565106.00 38935359.00  zM 61565106.00 39285359.00 L 61189830.00 39285359.00 L 61189830.00 38969139.00 L 61565106.00 38969139.00 L 61565106.00 39285359.00  zM 62155795.00 38742827.00 L 61775795.00 38742827.00 L 61775795.00 38362827.00 L 62155795.00 38362827.00 L 62155795.00 38742827.00  zM 62155795.00 39254639.00 L 61775795.00 39254639.00 L 61775795.00 38874639.00 L 62155795.00 38874639.00 L 62155795.00 39254639.00  zM 62775098.00 38742763.00 L 62395098.00 38742763.00 L 62395098.00 38362763.00 L 62775098.00 38362763.00 L 62775098.00 38742763.00  zM 62775098.00 39254575.00 L 62395098.00 39254575.00 L 62395098.00 38874575.00 L 62775098.00 38874575.00 L 62775098.00 39254575.00  zM 63375066.00 38742763.00 L 62995066.00 38742763.00 L 62995066.00 38362763.00 L 63375066.00 38362763.00 L 63375066.00 38742763.00  zM 63375066.00 39254575.00 L 62995066.00 39254575.00 L 62995066.00 38874575.00 L 63375066.00 38874575.00 L 63375066.00 39254575.00  zM 65995472.00 37086498.00 L 65206812.00 37086498.00 L 65206812.00 36140356.00 L 65995472.00 36140356.00 L 65995472.00 37086498.00  zM 63975098.00 38749062.00 L 63595098.00 38749062.00 L 63595098.00 38369062.00 L 63975098.00 38369062.00 L 63975098.00 38749062.00  zM 67368058.00 37730509.00 L 66736878.00 37730509.00 L 66736878.00 37178069.00 L 67368058.00 37178069.00 L 67368058.00 37730509.00  zM 66556527.00 38904965.00 L 66176527.00 38904965.00 L 66176527.00 38524965.00 L 66556527.00 38524965.00 L 66556527.00 38904965.00  zM 63975098.00 39260874.00 L 63595098.00 39260874.00 L 63595098.00 38880874.00 L 63975098.00 38880874.00 L 63975098.00 39260874.00  zM 65205859.00 40799062.00 L 64825859.00 40799062.00 L 64825859.00 40419062.00 L 65205859.00 40419062.00 L 65205859.00 40799062.00  zM 66109050.00 39643498.00 L 65438500.00 39643498.00 L 65438500.00 39248538.00 L 66109050.00 39248538.00 L 66109050.00 39643498.00  zM 67068342.00 38904965.00 L 66688342.00 38904965.00 L 66688342.00 38524965.00 L 67068342.00 38524965.00 L 67068342.00 38904965.00  zM 57405795.00 40799126.00 L 57025795.00 40799126.00 L 57025795.00 40419126.00 L 57405795.00 40419126.00 L 57405795.00 40799126.00  zM 57405795.00 41310938.00 L 57025795.00 41310938.00 L 57025795.00 40930938.00 L 57405795.00 40930938.00 L 57405795.00 41310938.00  zM 56906530.00 42004966.00 L 56526530.00 42004966.00 L 56526530.00 41624966.00 L 56906530.00 41624966.00 L 56906530.00 42004966.00  zM 57418342.00 42004966.00 L 57038342.00 42004966.00 L 57038342.00 41624966.00 L 57418342.00 41624966.00 L 57418342.00 42004966.00  zM 55601443.00 46282558.00 L 55009633.00 46282558.00 L 55009633.00 38407281.00 L 55601443.00 38407281.00 L 55601443.00 46282558.00  zM 54795539.00 47227438.00 L 53849397.00 47227438.00 L 53849397.00 46438778.00 L 54795539.00 46438778.00 L 54795539.00 47227438.00  zM 53553566.76 48383907.08 m -472180.92 0 a 472180.92 472180.92 0 1 1 944361.85 0a 472180.92 472180.92 0 1 1 -944361.85 0M 57819192.00 47355032.00 L 57439192.00 47355032.00 L 57439192.00 46975032.00 L 57819192.00 46975032.00 L 57819192.00 47355032.00  zM 58421102.00 45728201.00 L 57830552.00 45728201.00 A 101000.25 101000.25 0 0 1 57791903.00 45533897.00 L 57817629.62 45528779.50 L 57791903.00 45523662.00 A 100991.09 100991.09 0 0 1 57791903.00 45337046.00 L 57817627.11 45331929.00 L 57791903.00 45326812.00 A 100991.09 100991.09 0 0 1 57791903.00 45140196.00 L 57817627.11 45135079.00 L 57791903.00 45129962.00 A 100991.09 100991.09 0 0 1 57791903.00 44943346.00 L 57817629.62 44938228.50 L 57791903.00 44933111.00 A 100991.09 100991.09 0 0 1 57791903.00 44746495.00 L 57817627.11 44741378.00 L 57791903.00 44736261.00 A 100991.09 100991.09 0 0 1 57791903.00 44549645.00 L 57817629.62 44544527.50 L 57791903.00 44539410.00 A 100991.09 100991.09 0 0 1 57791903.00 44352794.00 L 57817627.11 44347677.00 L 57791903.00 44342560.00 A 100991.09 100991.09 0 0 1 57791903.00 44155944.00 L 57817627.11 44150827.00 L 57791903.00 44145710.00 A 100991.09 100991.09 0 0 1 57791903.00 43959094.00 L 57817629.62 43953976.50 L 57791903.00 43948859.00 A 100991.09 100991.09 0 0 1 57791903.00 43762243.00 L 57817627.11 43757126.00 L 57791903.00 43752009.00 A 100991.09 100991.09 0 0 1 57791903.00 43565393.00 L 57817629.62 43560275.50 L 57791903.00 43555158.00 A 100991.09 100991.09 0 0 1 57791903.00 43368542.00 L 57817627.11 43363425.00 L 57791903.00 43358308.00 A 100991.09 100991.09 0 0 1 57791903.00 43171692.00 L 57817627.11 43166575.00 L 57791903.00 43161458.00 A 100991.09 100991.09 0 0 1 57791903.00 42974842.00 L 57817629.62 42969724.50 L 57791903.00 42964607.00 A 100991.09 100991.09 0 0 1 57791903.00 42777991.00 L 57817627.11 42772874.00 L 57791903.00 42767757.00 A 100991.09 100991.09 0 0 1 57791903.00 42581141.00 L 57817629.62 42576023.50 L 57791903.00 42570906.00 A 100991.09 100991.09 0 0 1 57791903.00 42384290.00 L 57817627.11 42379173.00 L 57791903.00 42374056.00 A 100991.09 100991.09 0 0 1 57791903.00 42187440.00 L 57817627.11 42182323.00 L 57791903.00 42177206.00 A 100991.09 100991.09 0 0 1 57791903.00 41990590.00 L 57817629.62 41985472.50 L 57791903.00 41980355.00 A 100991.09 100991.09 0 0 1 57791903.00 41793739.00 L 57817627.11 41788622.00 L 57791903.00 41783505.00 A 100991.09 100991.09 0 0 1 57791903.00 41596889.00 L 57817629.62 41591771.50 L 57791903.00 41586654.00 A 100991.09 100991.09 0 0 1 57791903.00 41400038.00 L 57817627.11 41394921.00 L 57791903.00 41389804.00 A 100991.09 100991.09 0 0 1 57791903.00 41203188.00 L 57817627.11 41198071.00 L 57791903.00 41192954.00 A 100991.09 100991.09 0 0 1 57791903.00 41006338.00 L 57817629.62 41001220.50 L 57791903.00 40996103.00 A 100991.09 100991.09 0 0 1 57830552.00 40801799.00 L 58421102.00 40801799.00 A 101000.25 101000.25 0 0 1 58459751.00 40996103.00 L 58434024.38 41001220.50 L 58459751.00 41006338.00 A 100991.09 100991.09 0 0 1 58459751.00 41192954.00 L 58434026.89 41198071.00 L 58459751.00 41203188.00 A 100991.09 100991.09 0 0 1 58459751.00 41389804.00 L 58434026.89 41394921.00 L 58459751.00 41400038.00 A 100991.09 100991.09 0 0 1 58459751.00 41586654.00 L 58434024.38 41591771.50 L 58459751.00 41596889.00 A 100991.09 100991.09 0 0 1 58459751.00 41783505.00 L 58434026.89 41788622.00 L 58459751.00 41793739.00 A 100991.09 100991.09 0 0 1 58459751.00 41980355.00 L 58434024.38 41985472.50 L 58459751.00 41990590.00 A 100991.09 100991.09 0 0 1 58459751.00 42177206.00 L 58434026.89 42182323.00 L 58459751.00 42187440.00 A 100991.09 100991.09 0 0 1 58459751.00 42374056.00 L 58434026.89 42379173.00 L 58459751.00 42384290.00 A 100991.09 100991.09 0 0 1 58459751.00 42570906.00 L 58434024.38 42576023.50 L 58459751.00 42581141.00 A 100991.09 100991.09 0 0 1 58459751.00 42767757.00 L 58434026.89 42772874.00 L 58459751.00 42777991.00 A 100991.09 100991.09 0 0 1 58459751.00 42964607.00 L 58434024.38 42969724.50 L 58459751.00 42974842.00 A 100991.09 100991.09 0 0 1 58459751.00 43161458.00 L 58434026.89 43166575.00 L 58459751.00 43171692.00 A 100991.09 100991.09 0 0 1 58459751.00 43358308.00 L 58434026.89 43363425.00 L 58459751.00 43368542.00 A 100991.09 100991.09 0 0 1 58459751.00 43555158.00 L 58434024.38 43560275.50 L 58459751.00 43565393.00 A 100991.09 100991.09 0 0 1 58459751.00 43752009.00 L 58434026.89 43757126.00 L 58459751.00 43762243.00 A 100991.09 100991.09 0 0 1 58459751.00 43948859.00 L 58434024.38 43953976.50 L 58459751.00 43959094.00 A 100991.09 100991.09 0 0 1 58459751.00 44145710.00 L 58434026.89 44150827.00 L 58459751.00 44155944.00 A 100991.09 100991.09 0 0 1 58459751.00 44342560.00 L 58434026.89 44347677.00 L 58459751.00 44352794.00 A 100991.09 100991.09 0 0 1 58459751.00 44539410.00 L 58434024.38 44544527.50 L 58459751.00 44549645.00 A 100991.09 100991.09 0 0 1 58459751.00 44736261.00 L 58434026.89 44741378.00 L 58459751.00 44746495.00 A 100991.09 100991.09 0 0 1 58459751.00 44933111.00 L 58434024.38 44938228.50 L 58459751.00 44943346.00 A 100991.09 100991.09 0 0 1 58459751.00 45129962.00 L 58434026.89 45135079.00 L 58459751.00 45140196.00 A 100991.09 100991.09 0 0 1 58459751.00 45326812.00 L 58434026.89 45331929.00 L 58459751.00 45337046.00 A 100991.09 100991.09 0 0 1 58459751.00 45523662.00 L 58434024.38 45528779.50 L 58459751.00 45533897.00 A 100991.09 100991.09 0 0 1 58421102.00 45728201.00  zM 58331004.00 47355032.00 L 57951004.00 47355032.00 L 57951004.00 46975032.00 L 58331004.00 46975032.00 L 58331004.00 47355032.00  zM 58949953.00 47355032.00 L 58569953.00 47355032.00 L 58569953.00 46975032.00 L 58949953.00 46975032.00 L 58949953.00 47355032.00  zM 59461765.00 47355032.00 L 59081765.00 47355032.00 L 59081765.00 46975032.00 L 59461765.00 46975032.00 L 59461765.00 47355032.00  zM 63386850.00 46581050.00 L 63381732.50 46555323.38 L 63376615.00 46581050.00 A 100991.09 100991.09 0 0 1 63189999.00 46581050.00 L 63184882.00 46555325.89 L 63179765.00 46581050.00 A 100991.09 100991.09 0 0 1 62993149.00 46581050.00 L 62988032.00 46555325.89 L 62982915.00 46581050.00 A 100991.09 100991.09 0 0 1 62796299.00 46581050.00 L 62791181.50 46555323.38 L 62786064.00 46581050.00 A 100991.09 100991.09 0 0 1 62599448.00 46581050.00 L 62594331.00 46555325.89 L 62589214.00 46581050.00 A 100991.09 100991.09 0 0 1 62402598.00 46581050.00 L 62397480.50 46555323.38 L 62392363.00 46581050.00 A 100991.09 100991.09 0 0 1 62205747.00 46581050.00 L 62200630.00 46555325.89 L 62195513.00 46581050.00 A 100991.09 100991.09 0 0 1 62008897.00 46581050.00 L 62003780.00 46555325.89 L 61998663.00 46581050.00 A 100991.09 100991.09 0 0 1 61812047.00 46581050.00 L 61806929.50 46555323.38 L 61801812.00 46581050.00 A 100991.09 100991.09 0 0 1 61615196.00 46581050.00 L 61610079.00 46555325.89 L 61604962.00 46581050.00 A 100991.09 100991.09 0 0 1 61418346.00 46581050.00 L 61413228.50 46555323.38 L 61408111.00 46581050.00 A 100991.09 100991.09 0 0 1 61221495.00 46581050.00 L 61216378.00 46555325.89 L 61211261.00 46581050.00 A 100991.09 100991.09 0 0 1 61024645.00 46581050.00 L 61019528.00 46555325.89 L 61014411.00 46581050.00 A 100991.09 100991.09 0 0 1 60827795.00 46581050.00 L 60822677.50 46555323.38 L 60817560.00 46581050.00 A 100991.09 100991.09 0 0 1 60630944.00 46581050.00 L 60625827.00 46555325.89 L 60620710.00 46581050.00 A 100991.09 100991.09 0 0 1 60434094.00 46581050.00 L 60428976.50 46555323.38 L 60423859.00 46581050.00 A 100991.09 100991.09 0 0 1 60237243.00 46581050.00 L 60232126.00 46555325.89 L 60227009.00 46581050.00 A 100991.09 100991.09 0 0 1 60040393.00 46581050.00 L 60035276.00 46555325.89 L 60030159.00 46581050.00 A 100991.09 100991.09 0 0 1 59843543.00 46581050.00 L 59838425.50 46555323.38 L 59833308.00 46581050.00 A 100991.09 100991.09 0 0 1 59646692.00 46581050.00 L 59641575.00 46555325.89 L 59636458.00 46581050.00 A 100991.09 100991.09 0 0 1 59449842.00 46581050.00 L 59444724.50 46555323.38 L 59439607.00 46581050.00 A 100991.09 100991.09 0 0 1 59252991.00 46581050.00 L 59247874.00 46555325.89 L 59242757.00 46581050.00 A 100991.09 100991.09 0 0 1 59056141.00 46581050.00 L 59051024.00 46555325.89 L 59045907.00 46581050.00 A 100991.09 100991.09 0 0 1 58859291.00 46581050.00 L 58854173.50 46555323.38 L 58849056.00 46581050.00 A 100991.09 100991.09 0 0 1 58654752.00 46542401.00 L 58654752.00 45951851.00 A 101000.25 101000.25 0 0 1 58849056.00 45913202.00 L 58854173.50 45938928.62 L 58859291.00 45913202.00 A 100991.09 100991.09 0 0 1 59045907.00 45913202.00 L 59051024.00 45938926.11 L 59056141.00 45913202.00 A 100991.09 100991.09 0 0 1 59242757.00 45913202.00 L 59247874.00 45938926.11 L 59252991.00 45913202.00 A 100991.09 100991.09 0 0 1 59439607.00 45913202.00 L 59444724.50 45938928.62 L 59449842.00 45913202.00 A 100991.09 100991.09 0 0 1 59636458.00 45913202.00 L 59641575.00 45938926.11 L 59646692.00 45913202.00 A 100991.09 100991.09 0 0 1 59833308.00 45913202.00 L 59838425.50 45938928.62 L 59843543.00 45913202.00 A 100991.09 100991.09 0 0 1 60030159.00 45913202.00 L 60035276.00 45938926.11 L 60040393.00 45913202.00 A 100991.09 100991.09 0 0 1 60227009.00 45913202.00 L 60232126.00 45938926.11 L 60237243.00 45913202.00 A 100991.09 100991.09 0 0 1 60423859.00 45913202.00 L 60428976.50 45938928.62 L 60434094.00 45913202.00 A 100991.09 100991.09 0 0 1 60620710.00 45913202.00 L 60625827.00 45938926.11 L 60630944.00 45913202.00 A 100991.09 100991.09 0 0 1 60817560.00 45913202.00 L 60822677.50 45938928.62 L 60827795.00 45913202.00 A 100991.09 100991.09 0 0 1 61014411.00 45913202.00 L 61019528.00 45938926.11 L 61024645.00 45913202.00 A 100991.09 100991.09 0 0 1 61211261.00 45913202.00 L 61216378.00 45938926.11 L 61221495.00 45913202.00 A 100991.09 100991.09 0 0 1 61408111.00 45913202.00 L 61413228.50 45938928.62 L 61418346.00 45913202.00 A 100991.09 100991.09 0 0 1 61604962.00 45913202.00 L 61610079.00 45938926.11 L 61615196.00 45913202.00 A 100991.09 100991.09 0 0 1 61801812.00 45913202.00 L 61806929.50 45938928.62 L 61812047.00 45913202.00 A 100991.09 100991.09 0 0 1 61998663.00 45913202.00 L 62003780.00 45938926.11 L 62008897.00 45913202.00 A 100991.09 100991.09 0 0 1 62195513.00 45913202.00 L 62200630.00 45938926.11 L 62205747.00 45913202.00 A 100991.09 100991.09 0 0 1 62392363.00 45913202.00 L 62397480.50 45938928.62 L 62402598.00 45913202.00 A 100991.09 100991.09 0 0 1 62589214.00 45913202.00 L 62594331.00 45938926.11 L 62599448.00 45913202.00 A 100991.09 100991.09 0 0 1 62786064.00 45913202.00 L 62791181.50 45938928.62 L 62796299.00 45913202.00 A 100991.09 100991.09 0 0 1 62982915.00 45913202.00 L 62988032.00 45938926.11 L 62993149.00 45913202.00 A 100991.09 100991.09 0 0 1 63179765.00 45913202.00 L 63184882.00 45938926.11 L 63189999.00 45913202.00 A 100991.09 100991.09 0 0 1 63376615.00 45913202.00 L 63381732.50 45938928.62 L 63386850.00 45913202.00 A 100991.09 100991.09 0 0 1 63581154.00 45951851.00 L 63581154.00 46542401.00 A 101000.25 101000.25 0 0 1 63386850.00 46581050.00  zM 64395354.00 45728201.00 L 63804804.00 45728201.00 A 101000.25 101000.25 0 0 1 63766155.00 45533897.00 L 63791881.62 45528779.50 L 63766155.00 45523662.00 A 100991.09 100991.09 0 0 1 63766155.00 45337046.00 L 63791879.11 45331929.00 L 63766155.00 45326812.00 A 100991.09 100991.09 0 0 1 63766155.00 45140196.00 L 63791879.11 45135079.00 L 63766155.00 45129962.00 A 100991.09 100991.09 0 0 1 63766155.00 44943346.00 L 63791881.62 44938228.50 L 63766155.00 44933111.00 A 100991.09 100991.09 0 0 1 63766155.00 44746495.00 L 63791879.11 44741378.00 L 63766155.00 44736261.00 A 100991.09 100991.09 0 0 1 63766155.00 44549645.00 L 63791881.62 44544527.50 L 63766155.00 44539410.00 A 100991.09 100991.09 0 0 1 63766155.00 44352794.00 L 63791879.11 44347677.00 L 63766155.00 44342560.00 A 100991.09 100991.09 0 0 1 63766155.00 44155944.00 L 63791879.11 44150827.00 L 63766155.00 44145710.00 A 100991.09 100991.09 0 0 1 63766155.00 43959094.00 L 63791881.62 43953976.50 L 63766155.00 43948859.00 A 100991.09 100991.09 0 0 1 63766155.00 43762243.00 L 63791879.11 43757126.00 L 63766155.00 43752009.00 A 100991.09 100991.09 0 0 1 63766155.00 43565393.00 L 63791881.62 43560275.50 L 63766155.00 43555158.00 A 100991.09 100991.09 0 0 1 63766155.00 43368542.00 L 63791879.11 43363425.00 L 63766155.00 43358308.00 A 100991.09 100991.09 0 0 1 63766155.00 43171692.00 L 63791879.11 43166575.00 L 63766155.00 43161458.00 A 100991.09 100991.09 0 0 1 63766155.00 42974842.00 L 63791881.62 42969724.50 L 63766155.00 42964607.00 A 100991.09 100991.09 0 0 1 63766155.00 42777991.00 L 63791879.11 42772874.00 L 63766155.00 42767757.00 A 100991.09 100991.09 0 0 1 63766155.00 42581141.00 L 63791881.62 42576023.50 L 63766155.00 42570906.00 A 100991.09 100991.09 0 0 1 63766155.00 42384290.00 L 63791879.11 42379173.00 L 63766155.00 42374056.00 A 100991.09 100991.09 0 0 1 63766155.00 42187440.00 L 63791879.11 42182323.00 L 63766155.00 42177206.00 A 100991.09 100991.09 0 0 1 63766155.00 41990590.00 L 63791881.62 41985472.50 L 63766155.00 41980355.00 A 100991.09 100991.09 0 0 1 63766155.00 41793739.00 L 63791879.11 41788622.00 L 63766155.00 41783505.00 A 100991.09 100991.09 0 0 1 63766155.00 41596889.00 L 63791881.62 41591771.50 L 63766155.00 41586654.00 A 100991.09 100991.09 0 0 1 63766155.00 41400038.00 L 63791879.11 41394921.00 L 63766155.00 41389804.00 A 100991.09 100991.09 0 0 1 63766155.00 41203188.00 L 63791879.11 41198071.00 L 63766155.00 41192954.00 A 100991.09 100991.09 0 0 1 63766155.00 41006338.00 L 63791881.62 41001220.50 L 63766155.00 40996103.00 A 100991.09 100991.09 0 0 1 63804804.00 40801799.00 L 64395354.00 40801799.00 A 101000.25 101000.25 0 0 1 64434003.00 40996103.00 L 64408276.38 41001220.50 L 64434003.00 41006338.00 A 100991.09 100991.09 0 0 1 64434003.00 41192954.00 L 64408278.89 41198071.00 L 64434003.00 41203188.00 A 100991.09 100991.09 0 0 1 64434003.00 41389804.00 L 64408278.89 41394921.00 L 64434003.00 41400038.00 A 100991.09 100991.09 0 0 1 64434003.00 41586654.00 L 64408276.38 41591771.50 L 64434003.00 41596889.00 A 100991.09 100991.09 0 0 1 64434003.00 41783505.00 L 64408278.89 41788622.00 L 64434003.00 41793739.00 A 100991.09 100991.09 0 0 1 64434003.00 41980355.00 L 64408276.38 41985472.50 L 64434003.00 41990590.00 A 100991.09 100991.09 0 0 1 64434003.00 42177206.00 L 64408278.89 42182323.00 L 64434003.00 42187440.00 A 100991.09 100991.09 0 0 1 64434003.00 42374056.00 L 64408278.89 42379173.00 L 64434003.00 42384290.00 A 100991.09 100991.09 0 0 1 64434003.00 42570906.00 L 64408276.38 42576023.50 L 64434003.00 42581141.00 A 100991.09 100991.09 0 0 1 64434003.00 42767757.00 L 64408278.89 42772874.00 L 64434003.00 42777991.00 A 100991.09 100991.09 0 0 1 64434003.00 42964607.00 L 64408276.38 42969724.50 L 64434003.00 42974842.00 A 100991.09 100991.09 0 0 1 64434003.00 43161458.00 L 64408278.89 43166575.00 L 64434003.00 43171692.00 A 100991.09 100991.09 0 0 1 64434003.00 43358308.00 L 64408278.89 43363425.00 L 64434003.00 43368542.00 A 100991.09 100991.09 0 0 1 64434003.00 43555158.00 L 64408276.38 43560275.50 L 64434003.00 43565393.00 A 100991.09 100991.09 0 0 1 64434003.00 43752009.00 L 64408278.89 43757126.00 L 64434003.00 43762243.00 A 100991.09 100991.09 0 0 1 64434003.00 43948859.00 L 64408276.38 43953976.50 L 64434003.00 43959094.00 A 100991.09 100991.09 0 0 1 64434003.00 44145710.00 L 64408278.89 44150827.00 L 64434003.00 44155944.00 A 100991.09 100991.09 0 0 1 64434003.00 44342560.00 L 64408278.89 44347677.00 L 64434003.00 44352794.00 A 100991.09 100991.09 0 0 1 64434003.00 44539410.00 L 64408276.38 44544527.50 L 64434003.00 44549645.00 A 100991.09 100991.09 0 0 1 64434003.00 44736261.00 L 64408278.89 44741378.00 L 64434003.00 44746495.00 A 100991.09 100991.09 0 0 1 64434003.00 44933111.00 L 64408276.38 44938228.50 L 64434003.00 44943346.00 A 100991.09 100991.09 0 0 1 64434003.00 45129962.00 L 64408278.89 45135079.00 L 64434003.00 45140196.00 A 100991.09 100991.09 0 0 1 64434003.00 45326812.00 L 64408278.89 45331929.00 L 64434003.00 45337046.00 A 100991.09 100991.09 0 0 1 64434003.00 45523662.00 L 64408276.38 45528779.50 L 64434003.00 45533897.00 A 100991.09 100991.09 0 0 1 64395354.00 45728201.00  zM 65205827.00 46105000.00 L 64825827.00 46105000.00 L 64825827.00 45725000.00 L 65205827.00 45725000.00 L 65205827.00 46105000.00  zM 65205827.00 47210938.00 L 64825827.00 47210938.00 L 64825827.00 46830938.00 L 65205827.00 46830938.00 L 65205827.00 47210938.00  zM 65205859.00 41310874.00 L 64825859.00 41310874.00 L 64825859.00 40930874.00 L 65205859.00 40930874.00 L 65205859.00 41310874.00  zM 66109050.00 41021460.00 L 65438500.00 41021460.00 L 65438500.00 40626500.00 L 66109050.00 40626500.00 L 66109050.00 41021460.00  zM 65829758.00 42016575.00 L 65829758.00 41413425.00 A 141132.04 141132.04 0 0 1 66112032.00 41413425.00 L 66112032.00 42016575.00 A 141132.04 141132.04 0 0 1 65829758.00 42016575.00  zM 66829758.00 42016575.00 L 66829758.00 41413425.00 A 141132.04 141132.04 0 0 1 67112032.00 41413425.00 L 67112032.00 42016575.00 A 141132.04 141132.04 0 1 1 66829758.00 42016575.00  zM 66329757.00 42016575.00 L 66329757.00 41413425.00 A 141132.04 141132.04 0 0 1 66612031.00 41413425.00 L 66612031.00 42016575.00 A 141132.04 141132.04 0 0 1 66329757.00 42016575.00  zM 65829758.00 45116575.00 L 65829758.00 44513425.00 A 141132.04 141132.04 0 0 1 66112032.00 44513425.00 L 66112032.00 45116575.00 A 141132.04 141132.04 0 0 1 65829758.00 45116575.00  zM 66829758.00 45116575.00 L 66829758.00 44513425.00 A 141132.04 141132.04 0 0 1 67112032.00 44513425.00 L 67112032.00 45116575.00 A 141132.04 141132.04 0 0 1 66829758.00 45116575.00  zM 66329758.00 45116576.00 L 66329758.00 44513426.00 A 141132.04 141132.04 0 1 1 66612032.00 44513426.00 L 66612032.00 45116576.00 A 141132.04 141132.04 0 1 1 66329758.00 45116576.00  zM 65205827.00 45593188.00 L 64825827.00 45593188.00 L 64825827.00 45213188.00 L 65205827.00 45213188.00 L 65205827.00 45593188.00  zM 65847280.00 45972084.00 L 65847280.00 45794918.00 A 151171.27 151171.27 0 0 1 66149624.00 45794918.00 L 66149624.00 45972084.00 A 151171.27 151171.27 0 0 1 65847280.00 45972084.00  zM 65205827.00 46699126.00 L 64825827.00 46699126.00 L 64825827.00 46319126.00 L 65205827.00 46319126.00 L 65205827.00 46699126.00  zM 65847280.00 47035076.00 L 65847280.00 46857910.00 A 151171.27 151171.27 0 0 1 66149624.00 46857910.00 L 66149624.00 47035076.00 A 151171.27 151171.27 0 0 1 65847280.00 47035076.00  zM 66231331.00 45981926.00 L 66231331.00 45785076.00 A 141132.04 141132.04 0 0 1 66513605.00 45785076.00 L 66513605.00 45981926.00 A 141132.04 141132.04 0 0 1 66231331.00 45981926.00  zM 66595312.00 45972084.00 L 66595312.00 45794918.00 A 151171.27 151171.27 0 1 1 66897656.00 45794918.00 L 66897656.00 45972084.00 A 151171.27 151171.27 0 1 1 66595312.00 45972084.00  zM 66221296.00 47035076.00 L 66221296.00 46857910.00 A 151171.27 151171.27 0 0 1 66523640.00 46857910.00 L 66523640.00 47035076.00 A 151171.27 151171.27 0 0 1 66221296.00 47035076.00  zM 66894751.00 47183343.00 L 66598217.00 47183343.00 L 66598217.00 46709643.00 L 66894751.00 46709643.00 L 66894751.00 47183343.00  zM 69044273.00 33411560.00 L 68464273.00 33411560.00 L 68464273.00 32981560.00 L 69044273.00 32981560.00 L 69044273.00 33411560.00  zM 69694274.00 33110938.00 L 69314274.00 33110938.00 L 69314274.00 32730938.00 L 69694274.00 32730938.00 L 69694274.00 33110938.00  zM 70389974.00 32619567.00 L 69916274.00 32619567.00 L 69916274.00 32362403.00 L 70389974.00 32362403.00 L 70389974.00 32619567.00  zM 70389974.00 32993580.00 L 69916274.00 32993580.00 L 69916274.00 32736416.00 L 70389974.00 32736416.00 L 70389974.00 32993580.00  zM 68459397.00 34612478.00 L 68183177.00 34612478.00 L 68084437.00 34513738.00 L 68084437.00 34316258.00 L 68183177.00 34217518.00 L 68459397.00 34217518.00 L 68558137.00 34316258.00 L 68558137.00 34513738.00 L 68459397.00 34612478.00  zM 69660499.00 34612478.00 L 69186799.00 34612478.00 L 69186799.00 34217518.00 L 69660499.00 34217518.00 L 69660499.00 34612478.00  zM 70389974.00 33367597.00 L 69916274.00 33367597.00 L 69916274.00 33110433.00 L 70389974.00 33110433.00 L 70389974.00 33367597.00  zM 70370288.00 35233346.00 L 69857218.00 35233346.00 L 69857218.00 33696654.00 L 70370288.00 33696654.00 L 70370288.00 35233346.00  zM 67368058.00 36391927.00 L 66736878.00 36391927.00 L 66736878.00 35839487.00 L 67368058.00 35839487.00 L 67368058.00 36391927.00  zM 68577468.00 36249998.00 L 67907468.00 36249998.00 L 67907468.00 35379998.00 L 68577468.00 35379998.00 L 68577468.00 36249998.00  zM 68510894.00 39491218.00 L 68234044.00 39491218.00 L 68234044.00 38938778.00 L 68510894.00 38938778.00 L 68510894.00 39491218.00  zM 69931288.00 38785438.00 L 68351288.00 38785438.00 L 68351288.00 37915438.00 L 69931288.00 37915438.00 L 69931288.00 38785438.00  zM 69482978.00 36249998.00 L 68812978.00 36249998.00 L 68812978.00 35379998.00 L 69482978.00 35379998.00 L 69482978.00 36249998.00  zM 70388488.00 36249998.00 L 69718488.00 36249998.00 L 69718488.00 35379998.00 L 70388488.00 35379998.00 L 70388488.00 36249998.00  zM 71558058.00 36421927.00 L 70926878.00 36421927.00 L 70926878.00 35869487.00 L 71558058.00 35869487.00 L 71558058.00 36421927.00  zM 71558058.00 37760509.00 L 70926878.00 37760509.00 L 70926878.00 37208069.00 L 71558058.00 37208069.00 L 71558058.00 37760509.00  zM 71492335.00 32619564.00 L 71018635.00 32619564.00 L 71018635.00 32362400.00 L 71492335.00 32362400.00 L 71492335.00 32619564.00  zM 71492337.00 33367596.00 L 71018637.00 33367596.00 L 71018637.00 33110432.00 L 71492337.00 33110432.00 L 71492337.00 33367596.00  zM 72275066.00 32680000.00 L 71695066.00 32680000.00 L 71695066.00 32250000.00 L 72275066.00 32250000.00 L 72275066.00 32680000.00  zM 72275067.00 33428035.00 L 71695067.00 33428035.00 L 71695067.00 32998035.00 L 72275067.00 32998035.00 L 72275067.00 33428035.00  zM 74062516.00 32728290.00 L 73482516.00 32728290.00 L 73482516.00 32298290.00 L 74062516.00 32298290.00 L 74062516.00 32728290.00  zM 74655016.00 32728290.00 L 74290016.00 32728290.00 L 74182516.00 32620790.00 L 74182516.00 32405790.00 L 74290016.00 32298290.00 L 74655016.00 32298290.00 L 74762516.00 32405790.00 L 74762516.00 32620790.00 L 74655016.00 32728290.00  zM 74054920.00 34427436.00 L 73689920.00 34427436.00 L 73582420.00 34319936.00 L 73582420.00 34104936.00 L 73689920.00 33997436.00 L 74054920.00 33997436.00 L 74162420.00 34104936.00 L 74162420.00 34319936.00 L 74054920.00 34427436.00  zM 74862419.00 34427437.00 L 74282419.00 34427437.00 L 74282419.00 33997437.00 L 74862419.00 33997437.00 L 74862419.00 34427437.00  zM 71551394.00 35233346.00 L 71038324.00 35233346.00 L 71038324.00 33696654.00 L 71551394.00 33696654.00 L 71551394.00 35233346.00  zM 73528371.00 36848856.00 L 72818451.00 36848856.00 L 72818451.00 36453896.00 L 73528371.00 36453896.00 L 73528371.00 36848856.00  zM 73528371.00 36356730.00 L 72818451.00 36356730.00 L 72818451.00 35961770.00 L 73528371.00 35961770.00 L 73528371.00 36356730.00  zM 74910497.00 35512951.00 L 73649395.00 35512951.00 L 73649395.00 34645549.00 L 74910497.00 34645549.00 L 74910497.00 35512951.00  zM 73528371.00 37340982.00 L 72818451.00 37340982.00 L 72818451.00 36946022.00 L 73528371.00 36946022.00 L 73528371.00 37340982.00  zM 73528371.00 37833108.00 L 72818451.00 37833108.00 L 72818451.00 37438148.00 L 73528371.00 37438148.00 L 73528371.00 37833108.00  zM 73528371.00 38325234.00 L 72818451.00 38325234.00 L 72818451.00 37930274.00 L 73528371.00 37930274.00 L 73528371.00 38325234.00  zM 73528371.00 38817360.00 L 72818451.00 38817360.00 L 72818451.00 38422400.00 L 73528371.00 38422400.00 L 73528371.00 38817360.00  zM 67762590.00 39643498.00 L 67092040.00 39643498.00 L 67092040.00 39248538.00 L 67762590.00 39248538.00 L 67762590.00 39643498.00  zM 68136879.00 40391218.00 L 67860029.00 40391218.00 L 67860029.00 39838778.00 L 68136879.00 39838778.00 L 68136879.00 40391218.00  zM 68356530.00 40904966.00 L 67976530.00 40904966.00 L 67976530.00 40524966.00 L 68356530.00 40524966.00 L 68356530.00 40904966.00  zM 68375098.00 41649062.00 L 67995098.00 41649062.00 L 67995098.00 41269062.00 L 68375098.00 41269062.00 L 68375098.00 41649062.00  zM 67329757.00 42016576.00 L 67329757.00 41413426.00 A 141132.04 141132.04 0 1 1 67612031.00 41413426.00 L 67612031.00 42016576.00 A 141132.04 141132.04 0 0 1 67329757.00 42016576.00  zM 68375098.00 42160874.00 L 67995098.00 42160874.00 L 67995098.00 41780874.00 L 68375098.00 41780874.00 L 68375098.00 42160874.00  zM 68375098.00 42849124.00 L 67995098.00 42849124.00 L 67995098.00 42469124.00 L 68375098.00 42469124.00 L 68375098.00 42849124.00  zM 68375098.00 43360936.00 L 67995098.00 43360936.00 L 67995098.00 42980936.00 L 68375098.00 42980936.00 L 68375098.00 43360936.00  zM 68884910.00 40391218.00 L 68608060.00 40391218.00 L 68608060.00 39838778.00 L 68884910.00 39838778.00 L 68884910.00 40391218.00  zM 68868343.00 40904965.00 L 68488343.00 40904965.00 L 68488343.00 40524965.00 L 68868343.00 40524965.00 L 68868343.00 40904965.00  zM 70102940.00 43147519.00 L 69038688.00 43147519.00 L 69038688.00 42595079.00 L 70102940.00 42595079.00 L 70102940.00 43147519.00  zM 70102940.00 43934921.00 L 69038688.00 43934921.00 L 69038688.00 43382481.00 L 70102940.00 43382481.00 L 70102940.00 43934921.00  zM 70102940.00 42163267.00 L 69038688.00 42163267.00 L 69038688.00 41610827.00 L 70102940.00 41610827.00 L 70102940.00 42163267.00  zM 71766325.00 41060905.00 L 69658767.00 41060905.00 L 69658767.00 39799803.00 L 71766325.00 39799803.00 L 71766325.00 41060905.00  zM 71184983.51 42300449.04 m -288514.96 0 a 288514.96 288514.96 0 1 1 577029.92 0a 288514.96 288514.96 0 1 1 -577029.92 0M 74910497.00 40144447.00 L 73649395.00 40144447.00 L 73649395.00 39277045.00 L 74910497.00 39277045.00 L 74910497.00 40144447.00  zM 67609319.00 45255001.00 L 67332469.00 45255001.00 L 67332469.00 44375001.00 L 67609319.00 44375001.00 L 67609319.00 45255001.00  zM 69144753.00 48785313.00 L 68592313.00 48785313.00 L 68592313.00 48232873.00 L 69144753.00 48232873.00 L 69144753.00 48785313.00  zM 70102940.00 44919173.00 L 69038688.00 44919173.00 L 69038688.00 44366733.00 L 70102940.00 44366733.00 L 70102940.00 44919173.00  zM 71766325.00 46730197.00 L 69658767.00 46730197.00 L 69658767.00 45469095.00 L 71766325.00 45469095.00 L 71766325.00 46730197.00  zM 68681713.00 49532703.00 L 68031713.00 49532703.00 L 68031713.00 48932703.00 L 68331713.00 48932703.00 L 68331713.00 49232703.00 L 68681713.00 49232703.00 L 68681713.00 49532703.00  zM 69242501.49 49020907.70 m -241485.30 0 a 241485.30 241485.30 0 1 1 482970.60 0a 241485.30 241485.30 0 1 1 -482970.60 0M 70798293.00 48785313.00 L 70245853.00 48785313.00 L 70245853.00 48232873.00 L 70798293.00 48232873.00 L 70798293.00 48785313.00  zM 70148101.49 49020907.70 m -241485.30 0 a 241485.30 241485.30 0 1 1 482970.60 0a 241485.30 241485.30 0 1 1 -482970.60 0M 71184983.51 44229583.04 m -288514.96 0 a 288514.96 288514.96 0 1 1 577029.92 0a 288514.96 288514.96 0 1 1 -577029.92 0M 72868406.00 48555030.00 L 72488406.00 48555030.00 L 72488406.00 48175030.00 L 72868406.00 48175030.00 L 72868406.00 48555030.00  zM 72356594.00 48555030.00 L 71976594.00 48555030.00 L 71976594.00 48175030.00 L 72356594.00 48175030.00 L 72356594.00 48555030.00  zM 74026007.76 48383907.08 m -472180.92 0 a 472180.92 472180.92 0 1 1 944361.85 0a 472180.92 472180.92 0 1 1 -944361.85 0M 71358893.00 49532703.00 L 70708893.00 49532703.00 L 70708893.00 49232703.00 L 71058893.00 49232703.00 L 71058893.00 48932703.00 L 71358893.00 48932703.00 L 71358893.00 49532703.00  zM 72304920.00 49227438.00 L 71939920.00 49227438.00 L 71832420.00 49119938.00 L 71832420.00 48904938.00 L 71939920.00 48797438.00 L 72304920.00 48797438.00 L 72412420.00 48904938.00 L 72412420.00 49119938.00 L 72304920.00 49227438.00  zM 73112420.00 49227438.00 L 72532420.00 49227438.00 L 72532420.00 48797438.00 L 73112420.00 48797438.00 L 73112420.00 49227438.00  z"/>
</g>
</svg>
