<svg width="58.00704934mm" height="77.58152124mm" viewBox="0 0 22837421 30543906"  version="1.1" xmlns="http://www.w3.org/2000/svg" xmlns:xlink="http://www.w3.org/1999/xlink">
<desc>
Origin 52372468 49564998 Bound 52371080 19721092 22837421 30543906
</desc>
<g fill-rule="evenodd" fill="rgb(0, 255, 255)" stroke="black" stroke-width="1" transform="translate(0, 30543906) scale(1, -1) translate(-52371080, -19721092)">
<path id="N" d="M 59599838.00 25783550.00 L 60007666.21 25375721.79 L 60018012.00 25369576.00 L 60044554.00 25358906.00 L 60100636.00 25347477.00 A 100354.75 100354.75 0 1 0 59961880.00 25254763.00 L 59965146.81 25271185.98 L 59966682.00 25290085.00 L 59963064.00 25317026.00 L 59953771.91 25337772.09 L 59563427.00 25728117.00 L 56031509.00 25728117.00 L 55688245.15 25384853.15 L 55685769.00 25380922.00 L 55675560.00 25355861.00 L 55671098.00 25326644.00 L 55672821.00 25314998.00 A 100353.26 100353.26 0 1 0 55572468.00 25415351.00 L 55581398.77 25413574.52 L 55594315.00 25414477.00 L 55622146.00 25420855.00 L 55642323.15 25430775.15 L 55995098.00 25783550.00 L 56018059.00 25793061.00 L 59576877.00 25793061.00 L 59599838.00 25783550.00  z"/>
<path id="N" d="M 54693428.00 41794038.00 L 54685859.21 41788980.67 L 54666471.00 41763206.00 L 54655969.00 41738267.00 L 54654940.00 41697811.36 L 54659968.00 41681728.00 L 54667168.00 41671936.00 L 54911838.00 41670997.00 A 200706.53 200706.53 0 1 0 54911838.00 41269583.00 L 54242546.00 41269583.00 A 200706.53 200706.53 0 0 0 54242546.00 41670997.00 L 54576387.12 41670997.00 L 54584968.00 41681728.00 L 54589768.00 41696416.00 L 54588967.00 41738267.00 L 54578465.00 41763206.00 L 54560961.00 41787021.00 L 54551508.00 41794038.00 A 100353.26 100353.26 0 1 0 54693428.00 41794038.00  z"/>
<path id="N" d="M 60226799.00 41269583.00 L 59968548.88 41269583.00 L 59963268.00 41264360.00 L 59955301.29 41244668.98 L 59955969.00 41241729.00 L 59966471.00 41216790.00 L 59983975.00 41192975.00 L 59993428.00 41185958.00 A 100353.26 100353.26 0 1 0 59851508.00 41185958.00 L 59859076.79 41191015.33 L 59867574.00 41200788.00 L 59882744.00 41224978.00 L 59889634.71 41244668.98 L 59884968.00 41258852.00 L 59877768.00 41268644.00 L 59557507.00 41269583.00 A 200706.53 200706.53 0 0 0 59557507.00 41670997.00 L 60226799.00 41670997.00 A 200709.51 200709.51 0 1 0 60226799.00 41269583.00  z"/>
<path id="N" d="M 60226799.00 35301079.00 L 59918548.88 35301079.00 L 59909968.00 35290348.00 L 59905168.00 35275660.00 L 59905969.00 35241729.00 L 59916471.00 35216790.00 L 59933975.00 35192975.00 L 59943428.00 35185958.00 A 100353.26 100353.26 0 1 0 59801508.00 35185958.00 L 59809076.79 35191015.33 L 59828465.00 35216790.00 L 59838967.00 35241729.00 L 59839996.00 35274264.64 L 59834968.00 35290348.00 L 59827768.00 35300140.00 L 59557507.00 35301079.00 A 200706.53 200706.53 0 0 0 59557507.00 35702493.00 L 60226799.00 35702493.00 A 200709.51 200709.51 0 1 0 60226799.00 35301079.00  z"/>
<path id="N" d="M 60226799.00 29357639.00 L 59968548.88 29357639.00 L 59959968.00 29346908.00 L 59955168.00 29332220.00 L 59955969.00 29291729.00 L 59966471.00 29266790.00 L 59983975.00 29242975.00 L 59993428.00 29235958.00 A 100353.26 100353.26 0 1 0 59851508.00 29235958.00 L 59859076.79 29241015.33 L 59878465.00 29266790.00 L 59888967.00 29291729.00 L 59889996.00 29330824.64 L 59884968.00 29346908.00 L 59877768.00 29356700.00 L 59557507.00 29357639.00 A 200706.53 200706.53 0 0 0 59557507.00 29759053.00 L 60226799.00 29759053.00 A 200709.51 200709.51 0 1 0 60226799.00 29357639.00  z"/>
<path id="N" d="M 74472467.26 36964995.65 m -337534.65 0 a 337534.65 337534.65 0 1 1 675069.30 0a 337534.65 337534.65 0 1 1 -675069.30 0M 74472468.44 36964995.65 m -180637.35 0 a 180637.35 180637.35 0 1 1 361274.69 0a 180637.35 180637.35 0 1 1 -361274.69 0"/>
<path id="N" d="M 54911839.00 47238087.00 L 54668548.88 47238087.00 L 54660686.14 47228554.64 L 54666471.00 47216790.00 L 54683975.00 47192975.00 L 54693428.00 47185958.00 A 100353.26 100353.26 0 1 0 54551508.00 47185958.00 L 54559076.79 47191015.33 L 54573408.00 47208727.00 L 54584249.86 47228554.64 L 54577768.00 47237148.00 L 54242547.00 47238087.00 A 200706.53 200706.53 0 0 0 54242547.00 47639501.00 L 54911839.00 47639501.00 A 200709.51 200709.51 0 0 0 54911839.00 47238087.00  z"/>
<path id="N" d="M 66241758.00 47238087.00 L 65968548.88 47238087.00 L 65960686.14 47228554.64 L 65966471.00 47216790.00 L 65983975.00 47192975.00 L 65993428.00 47185958.00 A 100353.26 100353.26 0 1 0 65851508.00 47185958.00 L 65859076.79 47191015.33 L 65873408.00 47208727.00 L 65884249.86 47228554.64 L 65877768.00 47237148.00 L 65572466.00 47238087.00 A 200706.53 200706.53 0 1 0 65572466.00 47639501.00 L 66241758.00 47639501.00 A 200709.51 200709.51 0 0 0 66241758.00 47238087.00  z"/>
<path id="N" d="M 60226799.00 47238087.00 L 60018548.88 47238087.00 L 60010686.14 47228554.64 L 60016471.00 47216790.00 L 60033975.00 47192975.00 L 60043428.00 47185958.00 A 100353.26 100353.26 0 1 0 59901508.00 47185958.00 L 59909076.79 47191015.33 L 59923408.00 47208727.00 L 59934249.86 47228554.64 L 59927768.00 47237148.00 L 59557507.00 47238087.00 A 200706.53 200706.53 0 0 0 59557507.00 47639501.00 L 60226799.00 47639501.00 A 200709.51 200709.51 0 1 0 60226799.00 47238087.00  z"/>
<path id="N" d="M 59943428.00 23844038.00 L 59935859.21 23838980.67 L 59921528.00 23821269.00 L 59910349.86 23800642.65 L 59917168.00 23791488.00 L 60226799.00 23790549.00 A 200706.53 200706.53 0 1 0 60226799.00 23389135.00 L 59557507.00 23389135.00 A 200706.53 200706.53 0 0 0 59557507.00 23790549.00 L 59826387.12 23790549.00 L 59834586.14 23800642.65 L 59828465.00 23813206.00 L 59810961.00 23837021.00 L 59801508.00 23844038.00 A 100353.26 100353.26 0 1 0 59943428.00 23844038.00  z"/>
<path id="N" d="M 74250602.00 26924150.00 L 74014382.00 26924150.00 A 240838.32 240838.32 0 1 0 74014382.00 27405846.00 L 74250602.00 27405846.00 A 240860.29 240860.29 0 1 0 74250602.00 26924150.00  zM 74250602.00 27325563.00 L 74014382.00 27325563.00 A 160563.52 160563.52 0 0 1 74014382.00 27004433.00 L 74250602.00 27004433.00 A 160563.52 160563.52 0 0 1 74250602.00 27325563.00  z"/>
<path id="N" d="M 74250602.00 23522551.00 L 74014382.00 23522551.00 A 240838.32 240838.32 0 0 0 74014382.00 24004247.00 L 74250602.00 24004247.00 A 240860.29 240860.29 0 0 0 74250602.00 23522551.00  zM 74250602.00 23923964.00 L 74014382.00 23923964.00 A 160563.52 160563.52 0 0 1 74014382.00 23602834.00 L 74250602.00 23602834.00 A 160563.52 160563.52 0 0 1 74250602.00 23923964.00  z"/>
<path id="N" d="M 72644272.00 26924149.00 L 72329312.00 26924149.00 A 240838.32 240838.32 0 0 0 72329312.00 27405845.00 L 72644272.00 27405845.00 A 240860.29 240860.29 0 0 0 72644272.00 26924149.00  zM 72644267.00 27325562.00 L 72329317.00 27325562.00 A 160563.52 160563.52 0 1 1 72329317.00 27004432.00 L 72644267.00 27004432.00 A 160563.52 160563.52 0 0 1 72644267.00 27325562.00  z"/>
<path id="N" d="M 72644272.00 23522550.00 L 72329312.00 23522550.00 A 240838.32 240838.32 0 1 0 72329312.00 24004246.00 L 72644272.00 24004246.00 A 240860.29 240860.29 0 0 0 72644272.00 23522550.00  zM 72644277.00 23923963.00 L 72329307.00 23923963.00 A 160563.52 160563.52 0 0 1 72329307.00 23602833.00 L 72644277.00 23602833.00 A 160563.52 160563.52 0 0 1 72644277.00 23923963.00  z"/>
<path id="N" d="M 71951569.00 38598888.00 L 71651569.00 38598888.00 L 71651569.00 38623509.66 L 71647822.00 38633943.00 L 71640231.00 38645193.00 L 71629628.00 38654943.00 L 71616014.00 38663193.00 L 71599388.00 38669943.00 L 71579751.00 38675193.00 L 71539641.12 38680474.00 L 71473128.14 38680474.00 L 71460871.00 38672284.00 A 100349.83 100349.83 0 1 0 71493428.00 38835958.00 L 71495129.19 38833412.00 L 71556769.00 38834573.00 L 71598769.00 38842462.00 L 71615269.00 38848379.00 L 71628769.00 38855611.00 L 71639269.00 38864158.00 L 71646769.00 38874020.00 L 71651269.00 38885196.00 L 71651569.00 38898888.00 L 71951569.00 38898888.00 L 71951569.00 38598888.00  z"/>
<path id="N" d="M 72026601.00 33707941.00 A 50088.54 50088.54 0 0 1 71986284.00 33695641.00 L 71976534.00 33685141.00 L 71968284.00 33671641.00 L 71961534.00 33655141.00 L 71956284.00 33635641.00 L 71952534.00 33613141.00 L 71951003.00 33574621.27 L 71965182.00 33553401.00 A 100349.83 100349.83 0 1 0 71798065.00 33580805.21 L 71798065.00 33596551.78 L 71793078.00 33635641.00 L 71788057.00 33655141.00 L 71781601.00 33671641.00 L 71773710.00 33685141.00 L 71764385.00 33695641.00 L 71753625.00 33703141.00 L 71741430.00 33707641.00 L 71726601.00 33707941.00 L 71726601.00 34007941.00 L 72026601.00 34007941.00 L 72026601.00 33707941.00  z"/>
<path id="N" d="M 71976530.00 27739439.00 L 71971094.80 27739439.00 L 71965300.00 27734639.00 L 71961120.00 27727139.00 L 71954434.00 27703139.00 L 71948937.00 27649097.73 L 71948937.00 27627713.24 L 71965182.00 27603401.00 A 100349.83 100349.83 0 1 0 71779754.00 27603401.00 L 71795965.83 27627663.60 L 71790718.00 27667139.00 L 71785468.00 27686639.00 L 71778718.00 27703139.00 L 71770468.00 27716639.00 L 71760718.00 27727139.00 L 71749468.00 27734639.00 L 71736718.00 27739139.00 L 71676530.00 27739439.00 L 71676530.00 28039439.00 L 71976530.00 28039439.00 L 71976530.00 27739439.00  z"/>
<path id="N" d="M 72026601.00 21770936.00 L 71973650.35 21770936.00 L 71964269.00 21762680.00 L 71957052.00 21745868.00 L 71952505.46 21722372.69 L 71965182.00 21703401.00 A 100349.83 100349.83 0 1 0 71779754.00 21703401.00 L 71795787.84 21727397.22 L 71792016.00 21745868.00 L 71784799.00 21762680.00 L 71775417.65 21770936.00 L 71726601.00 21770936.00 L 71726601.00 22070936.00 L 72026601.00 22070936.00 L 72026601.00 21770936.00  z"/>
<path id="N" d="M 71915182.00 41126595.00 L 71901106.77 41105530.03 L 71906864.00 41079659.00 L 71915885.00 41061454.00 L 71925549.22 41053613.00 L 71951569.00 41053613.00 L 71951569.00 40753613.00 L 71651569.00 40753613.00 L 71651569.00 41053613.00 L 71719386.78 41053613.00 L 71729051.00 41061454.00 L 71738072.00 41079659.00 L 71743829.23 41105530.03 L 71729754.00 41126595.00 A 100349.83 100349.83 0 1 0 71915182.00 41126595.00  z"/>
<path id="N" d="M 56872466.47 31964996.47 m -100354.75 0 a 100354.75 100354.75 0 1 1 200709.51 0a 100354.75 100354.75 0 1 1 -200709.51 0"/>
<path id="N" d="M 73572466.47 31764996.47 m -100354.75 0 a 100354.75 100354.75 0 1 1 200709.51 0a 100354.75 100354.75 0 1 1 -200709.51 0"/>
<path id="N" d="M 73922466.47 31464996.47 m -100354.75 0 a 100354.75 100354.75 0 1 1 200709.51 0a 100354.75 100354.75 0 1 1 -200709.51 0"/>
<path id="N" d="M 74022466.47 28714996.47 m -100354.75 0 a 100354.75 100354.75 0 1 1 200709.51 0a 100354.75 100354.75 0 1 1 -200709.51 0"/>
<path id="N" d="M 73672466.47 29064996.47 m -100354.75 0 a 100354.75 100354.75 0 1 1 200709.51 0a 100354.75 100354.75 0 1 1 -200709.51 0"/>
<path id="N" d="M 73922466.47 31764996.47 m -100354.75 0 a 100354.75 100354.75 0 1 1 200709.51 0a 100354.75 100354.75 0 1 1 -200709.51 0"/>
<path id="N" d="M 72472466.47 30164996.47 m -100354.75 0 a 100354.75 100354.75 0 1 1 200709.51 0a 100354.75 100354.75 0 1 1 -200709.51 0"/>
<path id="N" d="M 73572466.47 31464996.47 m -100354.75 0 a 100354.75 100354.75 0 1 1 200709.51 0a 100354.75 100354.75 0 1 1 -200709.51 0"/>
<path id="N" d="M 74022466.47 29064996.47 m -100354.75 0 a 100354.75 100354.75 0 1 1 200709.51 0a 100354.75 100354.75 0 1 1 -200709.51 0"/>
<path id="N" d="M 73922466.47 34164996.47 m -100354.75 0 a 100354.75 100354.75 0 1 1 200709.51 0a 100354.75 100354.75 0 1 1 -200709.51 0"/>
<path id="N" d="M 62522466.47 45564996.47 m -100354.75 0 a 100354.75 100354.75 0 1 1 200709.51 0a 100354.75 100354.75 0 1 1 -200709.51 0"/>
<path id="N" d="M 54872466.47 40814996.47 m -100354.75 0 a 100354.75 100354.75 0 1 1 200709.51 0a 100354.75 100354.75 0 1 1 -200709.51 0"/>
<path id="N" d="M 58472466.47 32314996.47 m -100354.75 0 a 100354.75 100354.75 0 1 1 200709.51 0a 100354.75 100354.75 0 1 1 -200709.51 0"/>
<path id="N" d="M 58972466.47 35736603.47 m -100354.75 0 a 100354.75 100354.75 0 1 1 200709.51 0a 100354.75 100354.75 0 1 1 -200709.51 0"/>
<path id="N" d="M 58972466.47 35164996.47 m -100354.75 0 a 100354.75 100354.75 0 1 1 200709.51 0a 100354.75 100354.75 0 1 1 -200709.51 0"/>
<path id="N" d="M 58022466.47 33064996.47 m -100354.75 0 a 100354.75 100354.75 0 1 1 200709.51 0a 100354.75 100354.75 0 1 1 -200709.51 0"/>
<path id="N" d="M 59472466.47 34164996.47 m -100354.75 0 a 100354.75 100354.75 0 1 1 200709.51 0a 100354.75 100354.75 0 1 1 -200709.51 0"/>
<path id="N" d="M 73572466.47 34164996.47 m -100354.75 0 a 100354.75 100354.75 0 1 1 200709.51 0a 100354.75 100354.75 0 1 1 -200709.51 0"/>
<path id="N" d="M 54747741.47 37005441.47 m -100354.75 0 a 100354.75 100354.75 0 1 1 200709.51 0a 100354.75 100354.75 0 1 1 -200709.51 0"/>
<path id="N" d="M 73922466.47 33814996.47 m -100354.75 0 a 100354.75 100354.75 0 1 1 200709.51 0a 100354.75 100354.75 0 1 1 -200709.51 0"/>
<path id="N" d="M 73572466.47 33814996.47 m -100354.75 0 a 100354.75 100354.75 0 1 1 200709.51 0a 100354.75 100354.75 0 1 1 -200709.51 0"/>
<path id="N" d="M 58066135.47 24896219.47 m -100354.75 0 a 100354.75 100354.75 0 1 1 200709.51 0a 100354.75 100354.75 0 1 1 -200709.51 0"/>
<path id="N" d="M 57280084.47 22614996.47 m -100354.75 0 a 100354.75 100354.75 0 1 1 200709.51 0a 100354.75 100354.75 0 1 1 -200709.51 0"/>
<path id="N" d="M 56722466.47 21864996.47 m -100354.75 0 a 100354.75 100354.75 0 1 1 200709.51 0a 100354.75 100354.75 0 1 1 -200709.51 0"/>
<path id="N" d="M 54056937.47 31717678.47 m -100354.75 0 a 100354.75 100354.75 0 1 1 200709.51 0a 100354.75 100354.75 0 1 1 -200709.51 0"/>
<path id="N" d="M 73672466.47 28714996.47 m -100354.75 0 a 100354.75 100354.75 0 1 1 200709.51 0a 100354.75 100354.75 0 1 1 -200709.51 0"/>
<path id="N" d="M 54280085.47 24814996.47 m -100354.75 0 a 100354.75 100354.75 0 1 1 200709.51 0a 100354.75 100354.75 0 1 1 -200709.51 0"/>
<path id="N" d="M 54280085.47 28014996.47 m -100354.75 0 a 100354.75 100354.75 0 1 1 200709.51 0a 100354.75 100354.75 0 1 1 -200709.51 0"/>
<path id="N" d="M 58672466.47 26164996.47 m -100354.75 0 a 100354.75 100354.75 0 1 1 200709.51 0a 100354.75 100354.75 0 1 1 -200709.51 0"/>
<path id="N" d="M 57056936.47 26299466.47 m -100354.75 0 a 100354.75 100354.75 0 1 1 200709.51 0a 100354.75 100354.75 0 1 1 -200709.51 0"/>
<path id="N" d="M 62022466.47 22564996.47 m -100354.75 0 a 100354.75 100354.75 0 1 1 200709.51 0a 100354.75 100354.75 0 1 1 -200709.51 0"/>
<path id="N" d="M 56872466.47 28614996.47 m -100354.75 0 a 100354.75 100354.75 0 1 1 200709.51 0a 100354.75 100354.75 0 1 1 -200709.51 0"/>
<path id="N" d="M 58672466.47 28714996.47 m -100354.75 0 a 100354.75 100354.75 0 1 1 200709.51 0a 100354.75 100354.75 0 1 1 -200709.51 0"/>
<path id="N" d="M 60423649.00 45470290.00 L 59412789.82 45470290.00 L 59396222.00 45459611.00 L 59178327.00 45242037.00 L 59155366.00 45232526.00 L 54386489.00 45232526.00 L 53244940.00 44090977.00 L 53244940.00 23947757.00 L 54295227.00 22897470.00 L 55633787.00 22897470.00 L 55656748.00 22887959.00 L 55767863.00 22778299.00 L 55792924.00 22768090.00 L 55822141.00 22763628.00 L 55833787.00 22765351.00 A 100353.26 100353.26 0 1 0 55733434.00 22664998.00 L 55735210.48 22673928.77 L 55730695.00 22705861.00 L 55720486.00 22730922.00 L 55620337.00 22832526.00 L 54281777.00 22832526.00 L 54258816.00 22842037.00 L 53189507.00 23911346.00 L 53179996.00 23934307.00 L 53179996.00 44104427.00 L 53189507.00 44127388.00 L 54350078.00 45287959.00 L 54373039.00 45297470.00 L 59141916.00 45297470.00 L 59348200.88 45503754.88 L 59360657.00 45522422.82 L 59360657.00 45863990.00 L 60423649.00 45863990.00 L 60423649.00 45470290.00  z"/>
<path id="N" d="M 55108688.00 39501786.00 L 54175068.00 39501786.00 L 54167168.00 39497586.00 L 54159968.00 39487986.00 L 54155168.00 39473586.00 L 54154940.00 32328448.00 L 54785918.00 31697470.00 L 56372468.00 31697470.00 L 56395429.00 31687959.00 L 57145429.00 30937959.00 L 57154940.00 30914998.00 L 57154940.00 29457379.00 L 57145429.00 29434418.00 L 56895864.15 29184853.15 L 56893388.00 29180922.00 L 56883179.00 29155861.00 L 56878717.00 29126644.00 L 56880440.00 29114998.00 A 100353.26 100353.26 0 1 0 56780087.00 29215351.00 L 56789017.77 29213574.52 L 56801934.00 29214477.00 L 56829765.00 29220855.00 L 56849942.15 29230775.15 L 57089996.00 29470829.00 L 57089996.00 30901548.00 L 56359018.00 31632526.00 L 54772468.00 31632526.00 L 54749507.00 31642037.00 L 54099507.00 32292037.00 L 54089996.00 32314998.00 L 54089996.00 39472218.00 L 54084968.00 39487986.00 L 54077768.00 39497586.00 L 54069868.00 39501786.00 L 54045696.00 39501786.00 L 54045696.00 39895486.00 L 55108688.00 39895486.00 L 55108688.00 39501786.00  z"/>
<path id="N" d="M 61143428.00 44344038.00 L 61135859.21 44338980.67 L 61127362.00 44329208.00 L 61112192.00 44305018.00 L 61104940.00 44283736.23 L 61104940.00 39264998.00 L 61095429.00 39242037.00 L 58188245.15 36334853.15 L 58185769.00 36330922.00 L 58175560.00 36305861.00 L 58171098.00 36276644.00 L 58172821.00 36264998.00 A 100353.26 100353.26 0 1 0 58072468.00 36365351.00 L 58081398.77 36363574.52 L 58094315.00 36364477.00 L 58122146.00 36370855.00 L 58142323.15 36380775.15 L 61039996.00 39278448.00 L 61039996.00 44283736.23 L 61038967.00 44288267.00 L 61028465.00 44313206.00 L 61010961.00 44337021.00 L 61001508.00 44344038.00 A 100353.26 100353.26 0 1 0 61143428.00 44344038.00  z"/>
<path id="N" d="M 71762782.00 46796514.13 L 71773101.00 46780880.00 L 71945429.00 46608338.00 L 71954940.00 46585377.00 L 71954940.00 45844534.00 L 71959968.00 45828766.00 L 71967168.00 45819166.00 L 71975068.00 45814966.00 L 72026665.00 45814966.00 L 72026665.00 45514966.00 L 71726665.00 45514966.00 L 71726665.00 45814966.00 L 71869868.00 45814966.00 L 71877768.00 45819166.00 L 71884968.00 45828766.00 L 71889768.00 45843166.00 L 71889996.00 46571927.00 L 71728406.27 46733516.73 L 71711330.87 46745063.00 L 71172232.00 46745063.00 L 71172232.00 47060023.00 L 71762782.00 47060023.00 L 71762782.00 46796514.13  z"/>
<path id="N" d="M 72538477.00 44864966.00 L 72289928.13 44864966.00 L 72274294.00 44854647.00 L 71961470.00 44542037.00 L 71938509.00 44532526.00 L 71385918.00 44532526.00 L 70964089.00 44110697.00 L 70964089.00 21324147.00 L 70954578.00 21301186.00 L 70615429.00 20962037.00 L 70592468.00 20952526.00 L 63146435.00 20952526.00 L 63123474.00 20962037.00 L 61502985.00 22582526.00 L 60864044.00 22582526.00 L 60841083.00 22592037.00 L 60392324.15 23040795.85 L 60388393.00 23043272.00 L 60363331.00 23053481.00 L 60334115.00 23057943.00 L 60322468.00 23056220.00 A 100353.26 100353.26 0 1 0 60422821.00 23156573.00 L 60421044.52 23147642.23 L 60421947.00 23134727.00 L 60428325.00 23106896.00 L 60438246.95 23086717.05 L 60877494.00 22647470.00 L 61516435.00 22647470.00 L 61539396.00 22637959.00 L 63159885.00 21017470.00 L 70579018.00 21017470.00 L 70899145.00 21337597.00 L 70899145.00 44124147.00 L 70908656.00 44147108.00 L 71349507.00 44587959.00 L 71372468.00 44597470.00 L 71925059.00 44597470.00 L 72226930.73 44899341.73 L 72238477.00 44916417.13 L 72238477.00 45164966.00 L 72538477.00 45164966.00 L 72538477.00 44864966.00  z"/>
<path id="N" d="M 56272468.00 30614645.00 L 56263537.23 30616421.48 L 56250621.00 30615519.00 L 56222790.00 30609141.00 L 56202612.85 30599220.85 L 55104940.00 29501548.00 L 55104940.00 25228469.00 L 55854425.00 24478984.00 L 58109693.23 24478984.00 L 58114224.00 24480013.00 L 58139163.00 24490515.00 L 58162978.00 24508019.00 L 58169995.00 24517472.00 A 100353.26 100353.26 0 1 0 58169995.00 24375552.00 L 58164937.67 24383120.79 L 58155165.00 24391618.00 L 58130975.00 24406788.00 L 58109693.23 24414040.00 L 55840975.00 24414040.00 L 55818014.00 24423551.00 L 55049507.00 25192058.00 L 55039996.00 25215019.00 L 55039996.00 29514998.00 L 55049507.00 29537959.00 L 56156690.85 30645142.85 L 56159167.00 30649074.00 L 56169376.00 30674135.00 L 56173838.00 30703352.00 L 56172115.00 30714998.00 A 100353.26 100353.26 0 1 0 56272468.00 30614645.00  z"/>
<path id="N" d="M 66438608.00 45470290.00 L 65427748.82 45470290.00 L 65411181.00 45459611.00 L 65033286.00 45082037.00 L 65010325.00 45072526.00 L 54424478.00 45072526.00 L 53384940.00 44032988.00 L 53384940.00 26209767.00 L 54763931.85 24830775.15 L 54767863.00 24828299.00 L 54792924.00 24818090.00 L 54822141.00 24813628.00 L 54833787.00 24815351.00 A 100353.26 100353.26 0 1 0 54733434.00 24714998.00 L 54735210.48 24723928.77 L 54734308.00 24736845.00 L 54727930.00 24764676.00 L 54718009.85 24784853.15 L 53329507.00 26173356.00 L 53319996.00 26196317.00 L 53319996.00 44046438.00 L 53329507.00 44069399.00 L 54388067.00 45127959.00 L 54411028.00 45137470.00 L 64996875.00 45137470.00 L 65363159.88 45503754.88 L 65375616.00 45522422.82 L 65375616.00 45863990.00 L 66438608.00 45863990.00 L 66438608.00 45470290.00  z"/>
<path id="N" d="M 55743428.00 38494038.00 L 55735859.21 38488980.67 L 55727362.00 38479208.00 L 55712192.00 38455018.00 L 55704940.00 38433736.23 L 55704940.00 38264998.00 L 55695429.00 38242036.00 L 55004940.00 37551547.99 L 55004940.00 34714998.00 L 54995429.00 34692037.00 L 54903378.00 34598531.00 L 54893169.00 34573470.00 L 54888707.00 34544253.00 L 54890430.00 34532607.00 A 100353.26 100353.26 0 1 0 54790077.00 34632960.00 L 54799007.77 34631183.52 L 54830940.00 34635699.00 L 54856001.00 34645908.00 L 54939996.00 34728448.00 L 54939996.00 37564998.00 L 54949507.00 37587959.00 L 55639996.00 38278448.99 L 55638967.00 38438267.00 L 55628465.00 38463206.00 L 55610961.00 38487021.00 L 55601508.00 38494038.00 A 100353.26 100353.26 0 1 0 55743428.00 38494038.00  z"/>
<path id="N" d="M 74472459.93 37964983.95 m -337548.83 0 a 337548.83 337548.83 0 1 1 675097.65 0a 337548.83 337548.83 0 1 1 -675097.65 0M 74472468.44 37964996.65 m -180637.35 0 a 180637.35 180637.35 0 1 1 361274.69 0a 180637.35 180637.35 0 1 1 -361274.69 0"/>
<path id="N" d="M 55108689.00 45470290.00 L 54374908.40 45470290.00 L 54372163.00 45469248.00 L 54364868.00 45462522.00 L 54357961.00 45444531.65 L 54357961.00 45415437.00 L 54348450.00 45392476.00 L 53104940.00 44148966.00 L 53104940.00 23889768.00 L 54263932.85 22730775.15 L 54267864.00 22728299.00 L 54292925.00 22718090.00 L 54322142.00 22713628.00 L 54333788.00 22715351.00 A 100353.26 100353.26 0 1 0 54233435.00 22614998.00 L 54235211.48 22623928.77 L 54234309.00 22636845.00 L 54227931.00 22664676.00 L 54218010.85 22684853.15 L 53049507.00 23853357.00 L 53039996.00 23876318.00 L 53039996.00 44162416.00 L 53049507.00 44185377.00 L 54293017.00 45428887.00 L 54293017.00 45444531.65 L 54288976.00 45457477.00 L 54282723.00 45466445.00 L 54276069.60 45470290.00 L 54045697.00 45470290.00 L 54045697.00 45863990.00 L 55108689.00 45863990.00 L 55108689.00 45470290.00  z"/>
<path id="N" d="M 71857507.00 22458158.00 L 71683493.00 22458158.00 L 71675593.00 22453958.00 L 71668393.00 22444358.00 L 71663593.00 22429958.00 L 71664394.00 22348250.00 L 71674896.00 22323311.00 L 71692400.00 22299496.00 L 71701853.00 22292479.00 A 100353.26 100353.26 0 1 0 71559933.00 22292479.00 L 71567502.50 22297536.80 L 71586890.00 22323311.00 L 71597392.00 22348250.00 L 71598421.00 22428590.00 L 71593393.00 22444358.00 L 71586193.00 22453958.00 L 71578293.00 22458158.00 L 71257507.00 22458158.00 L 71257507.00 22958158.00 L 71857507.00 22958158.00 L 71857507.00 22458158.00  z"/>
<path id="N" d="M 57498569.00 25483124.00 L 57503626.33 25475555.21 L 57513399.00 25467058.00 L 57537589.00 25451888.00 L 57558870.77 25444636.00 L 58215904.00 25444636.00 L 58238865.00 25435125.00 L 58895429.00 24778561.00 L 58904940.00 24755600.00 L 58904940.00 22528448.00 L 59388616.58 22044771.42 L 59409010.00 22027478.00 L 59429259.21 22015038.00 L 60423649.00 22015038.00 L 60423649.00 21621338.00 L 59360657.00 21621338.00 L 59360657.00 21976364.38 L 59351556.00 21989773.00 L 58849507.00 22492037.00 L 58839996.00 22514998.00 L 58839996.00 24742150.00 L 58202454.00 25379692.00 L 57558870.77 25379692.00 L 57554340.00 25378663.00 L 57529401.00 25368161.00 L 57505586.00 25350657.00 L 57498569.00 25341204.00 A 100353.26 100353.26 0 1 0 57498569.00 25483124.00  z"/>
<path id="N" d="M 56043428.00 38352463.00 L 56035859.21 38347405.67 L 56016471.00 38321631.00 L 56005969.00 38296692.00 L 56004940.00 38164998.00 L 55995430.00 38142037.00 L 55154940.00 37301547.99 L 55154940.00 33718571.00 L 55145429.00 33695610.00 L 55127059.30 33677240.30 L 55121184.00 33666542.00 L 55116983.00 33649363.00 L 55122821.00 33614998.00 A 100353.26 100353.26 0 1 0 55022468.00 33715351.00 L 55041010.84 33711662.52 L 55057744.00 33712024.00 L 55075634.00 33719307.00 L 55089996.00 33732021.00 L 55089996.00 37314998.00 L 55099507.00 37337959.00 L 55939996.00 38178448.99 L 55938967.00 38296692.00 L 55928465.00 38321631.00 L 55910961.00 38345446.00 L 55901508.00 38352463.00 A 100353.26 100353.26 0 1 0 56043428.00 38352463.00  z"/>
<path id="N" d="M 63691365.00 41269583.00 L 63022073.00 41269583.00 A 200706.53 200706.53 0 0 0 63022073.00 41670997.00 L 63691365.00 41670997.00 A 200709.51 200709.51 0 0 0 63691365.00 41269583.00  z"/>
<path id="N" d="M 63691365.00 47238087.00 L 63022073.00 47238087.00 A 200706.53 200706.53 0 0 0 63022073.00 47639501.00 L 63691365.00 47639501.00 A 200709.51 200709.51 0 0 0 63691365.00 47238087.00  z"/>
<path id="N" d="M 58376404.00 41269583.00 L 57707112.00 41269583.00 A 200706.53 200706.53 0 0 0 57707112.00 41670997.00 L 58376404.00 41670997.00 A 200709.51 200709.51 0 0 0 58376404.00 41269583.00  z"/>
<path id="N" d="M 58376405.00 45466433.00 L 57707113.00 45466433.00 A 200706.53 200706.53 0 1 0 57707113.00 45867847.00 L 58376405.00 45867847.00 A 200709.51 200709.51 0 0 0 58376405.00 45466433.00  z"/>
<path id="N" d="M 63691365.00 45466433.00 L 63022073.00 45466433.00 A 200706.53 200706.53 0 0 0 63022073.00 45867847.00 L 63691365.00 45867847.00 A 200709.51 200709.51 0 0 0 63691365.00 45466433.00  z"/>
<path id="N" d="M 69706324.00 47238087.00 L 69037032.00 47238087.00 A 200706.53 200706.53 0 0 0 69037032.00 47639501.00 L 69706324.00 47639501.00 A 200709.51 200709.51 0 0 0 69706324.00 47238087.00  z"/>
<path id="N" d="M 58376404.00 39497929.00 L 57707112.00 39497929.00 A 200706.53 200706.53 0 0 0 57707112.00 39899343.00 L 58376404.00 39899343.00 A 200709.51 200709.51 0 0 0 58376404.00 39497929.00  z"/>
<path id="N" d="M 63691365.00 23389135.00 L 63022073.00 23389135.00 A 200706.53 200706.53 0 0 0 63022073.00 23790549.00 L 63691365.00 23790549.00 A 200709.51 200709.51 0 0 0 63691365.00 23389135.00  z"/>
<path id="N" d="M 63691365.00 39497929.00 L 63022073.00 39497929.00 A 200706.53 200706.53 0 0 0 63022073.00 39899343.00 L 63691365.00 39899343.00 A 200709.51 200709.51 0 0 0 63691365.00 39497929.00  z"/>
<path id="N" d="M 63691365.00 33529425.00 L 63022073.00 33529425.00 A 200706.53 200706.53 0 0 0 63022073.00 33930839.00 L 63691365.00 33930839.00 A 200709.51 200709.51 0 0 0 63691365.00 33529425.00  z"/>
<path id="N" d="M 63691365.00 35301079.00 L 63022073.00 35301079.00 A 200706.53 200706.53 0 0 0 63022073.00 35702493.00 L 63691365.00 35702493.00 A 200709.51 200709.51 0 0 0 63691365.00 35301079.00  z"/>
<path id="N" d="M 58376405.00 47238087.00 L 57707113.00 47238087.00 A 200706.53 200706.53 0 1 0 57707113.00 47639501.00 L 58376405.00 47639501.00 A 200709.51 200709.51 0 0 0 58376405.00 47238087.00  z"/>
<path id="N" d="M 69706324.00 45466433.00 L 69037032.00 45466433.00 A 200706.53 200706.53 0 0 0 69037032.00 45867847.00 L 69706324.00 45867847.00 A 200709.51 200709.51 0 0 0 69706324.00 45466433.00  z"/>
<path id="N" d="M 63691365.00 27585985.00 L 63022073.00 27585985.00 A 200706.53 200706.53 0 0 0 63022073.00 27987399.00 L 63691365.00 27987399.00 A 200709.51 200709.51 0 0 0 63691365.00 27585985.00  z"/>
<path id="N" d="M 63691365.00 21617481.00 L 63022073.00 21617481.00 A 200706.53 200706.53 0 0 0 63022073.00 22018895.00 L 63691365.00 22018895.00 A 200709.51 200709.51 0 0 0 63691365.00 21617481.00  z"/>
<path id="N" d="M 63691365.00 29357639.00 L 63022073.00 29357639.00 A 200706.53 200706.53 0 0 0 63022073.00 29759053.00 L 63691365.00 29759053.00 A 200709.51 200709.51 0 0 0 63691365.00 29357639.00  z"/>
<path id="N" d="M 73092782.00 46745063.00 L 72502232.00 46745063.00 L 72502232.00 47060023.00 L 73092782.00 47060023.00 L 73092782.00 46745063.00  z"/>
<path id="N" d="M 56410871.00 38122284.00 L 56400094.82 38120140.44 L 56367569.00 38105355.00 L 56344942.95 38091550.95 L 55304940.00 37051548.00 L 55304940.00 33396259.77 L 55305969.00 33391729.00 L 55316471.00 33366790.00 L 55333975.00 33342975.00 L 55343428.00 33335958.00 A 100353.26 100353.26 0 1 0 55201508.00 33335958.00 L 55209076.79 33341015.33 L 55217574.00 33350788.00 L 55232744.00 33374978.00 L 55239996.00 33396259.77 L 55239996.00 37064998.00 L 55249507.00 37087959.00 L 56277765.28 38116217.28 L 56285892.00 38136549.00 L 56287021.00 38152749.00 L 56283760.43 38170598.98 L 56279754.00 38176595.00 A 100349.83 100349.83 0 1 0 56410871.00 38122284.00  z"/>
<path id="N" d="M 63131806.00 44599746.00 L 63128331.97 44604945.23 L 63103422.00 44621624.00 L 63077959.00 44631655.00 L 54380456.00 44632526.00 L 53907497.00 44159567.00 L 53907497.00 35288597.85 L 53913857.00 35267883.00 L 53927635.00 35241937.00 L 53935003.00 35233401.00 A 100353.26 100353.26 0 1 0 53793083.00 35233401.00 A 107587.92 107587.92 0 0 1 53834623.00 35275766.00 L 53842553.00 35297080.19 L 53842553.00 44173017.00 L 53852064.00 44195978.00 L 54344045.00 44687959.00 L 54367006.00 44697470.00 L 63069548.70 44697470.00 L 63074459.00 44698635.00 L 63098833.00 44709547.00 L 63121450.00 44727733.00 L 63131806.00 44741666.00 A 100353.26 100353.26 0 1 0 63131806.00 44599746.00  z"/>
<path id="N" d="M 70513431.00 35599842.00 L 70121668.00 35599794.00 L 70117168.00 35596734.00 L 70109968.00 35586942.00 L 70105168.00 35572254.00 L 70105969.00 35491729.00 L 70116471.00 35466790.00 L 70133975.00 35442975.00 L 70143428.00 35435958.00 A 100353.26 100353.26 0 1 0 70001508.00 35435958.00 L 70009076.79 35441015.33 L 70028465.00 35466790.00 L 70038967.00 35491729.00 L 70039996.00 35570858.64 L 70037668.00 35580210.00 L 70031668.00 35592450.00 L 70023134.67 35599842.00 L 69607921.00 35599842.00 L 69607921.00 36190392.00 L 70513431.00 36190392.00 L 70513431.00 35599842.00  z"/>
<path id="N" d="M 60369604.00 36296418.00 L 61245429.00 35420593.00 L 61254940.00 35397632.00 L 61254940.00 25346259.77 L 61255969.00 25341729.00 L 61266471.00 25316790.00 L 61283975.00 25292975.00 L 61293428.00 25285958.00 A 100353.26 100353.26 0 1 0 61151508.00 25285958.00 L 61159076.79 25291015.33 L 61167574.00 25300788.00 L 61182744.00 25324978.00 L 61189996.00 25346259.77 L 61189996.00 35384182.00 L 60333193.00 36240985.00 L 58844377.00 36240985.00 L 58310783.00 35707391.00 L 58287822.00 35697880.00 L 57688375.77 35697880.00 L 57683845.00 35696851.00 L 57658906.00 35686349.00 L 57635091.00 35668845.00 L 57628074.00 35659392.00 A 100353.26 100353.26 0 1 0 57628074.00 35801312.00 L 57633131.33 35793743.21 L 57642904.00 35785246.00 L 57667094.00 35770076.00 L 57688375.77 35762824.00 L 58274372.00 35762824.00 L 58807966.00 36296418.00 L 58830927.00 36305929.00 L 60346643.00 36305929.00 L 60369604.00 36296418.00  z"/>
<path id="N" d="M 57643428.00 30694038.00 L 57635859.21 30688980.67 L 57627362.00 30679208.00 L 57612192.00 30655018.00 L 57604940.00 30633736.23 L 57604940.00 28596259.77 L 57605969.00 28591729.00 L 57616471.00 28566790.00 L 57633975.00 28542975.00 L 57643428.00 28535958.00 A 100353.26 100353.26 0 0 0 57572468.00 28364645.00 L 57563537.23 28366421.48 L 57550621.00 28365519.00 L 57522790.00 28359141.00 L 57502612.85 28349220.85 L 57045429.00 27892037.00 L 57022468.00 27882526.00 L 55785918.00 27882526.00 L 55244940.00 27341548.00 L 55244940.00 25286458.00 L 55912414.00 24618984.00 L 57580532.00 24618984.00 L 57706690.85 24745142.85 L 57709167.00 24749074.00 L 57719376.00 24774135.00 L 57723838.00 24803352.00 L 57722115.00 24814998.00 A 100353.26 100353.26 0 1 0 57822468.00 24714645.00 L 57813537.23 24716421.48 L 57800621.00 24715519.00 L 57772790.00 24709141.00 L 57752612.85 24699220.85 L 57616943.00 24563551.00 L 57593982.00 24554040.00 L 55898964.00 24554040.00 L 55876003.00 24563551.00 L 55189507.00 25250047.00 L 55179996.00 25273008.00 L 55179996.00 27354998.00 L 55189507.00 27377959.00 L 55749507.00 27937959.00 L 55772468.00 27947470.00 L 57009018.00 27947470.00 L 57456690.85 28395142.85 L 57459167.00 28399074.00 L 57469376.00 28424135.00 L 57473838.00 28453352.00 L 57472115.00 28464998.00 L 57479754.00 28503401.00 L 57501508.00 28535958.00 L 57509076.79 28541015.33 L 57517574.00 28550788.00 L 57532744.00 28574978.00 L 57539996.00 28596259.77 L 57539996.00 30633736.23 L 57538967.00 30638267.00 L 57528465.00 30663206.00 L 57510961.00 30687021.00 L 57501508.00 30694038.00 A 100353.26 100353.26 0 1 0 57643428.00 30694038.00  z"/>
<path id="N" d="M 72538525.00 45714198.00 L 72541585.00 45709698.00 L 72551377.00 45702498.00 L 72566065.00 45697698.00 L 72637320.00 45697470.00 L 72660281.00 45687959.00 L 72870577.00 45477663.00 L 72880088.00 45454702.00 L 72880088.00 44740146.00 L 72870577.00 44717185.00 L 72521434.00 44368042.00 L 72498473.00 44358531.00 L 71409912.00 44358531.00 L 71104089.00 44052708.00 L 71104089.00 21214147.00 L 71094579.00 21191186.00 L 70725429.00 20822037.00 L 70702468.00 20812526.00 L 63088446.00 20812526.00 L 63065485.00 20822037.00 L 61454996.00 22432526.00 L 60522468.00 22432526.00 L 60499507.00 22442037.00 L 60155415.15 22786128.85 L 60151484.00 22788605.00 L 60126423.00 22798814.00 L 60097206.00 22803276.00 L 60085560.00 22801553.00 A 100353.26 100353.26 0 1 0 60185913.00 22901906.00 L 60184136.52 22892975.23 L 60185039.00 22880059.00 L 60191417.00 22852228.00 L 60201337.15 22832050.85 L 60535918.00 22497470.00 L 61468446.00 22497470.00 L 61491407.00 22487959.00 L 63101896.00 20877470.00 L 70689017.97 20877470.00 L 71039145.00 21227597.97 L 71039145.00 44066158.00 L 71048656.00 44089119.00 L 71373501.00 44413964.00 L 71396462.00 44423475.00 L 72485023.00 44423475.00 L 72815144.00 44753596.00 L 72815144.00 45441252.00 L 72623870.00 45632526.00 L 72567460.36 45632526.00 L 72558109.00 45630198.00 L 72545869.00 45624198.00 L 72538477.00 45615664.67 L 72538477.00 45514966.00 L 72238477.00 45514966.00 L 72238477.00 45814966.00 L 72538477.00 45814966.00 L 72538525.00 45714198.00  z"/>
<path id="N" d="M 54904747.00 29044038.00 A 111128.28 111128.28 0 0 1 54862887.00 29001588.00 L 54854940.00 28980280.35 L 54854940.00 25280480.00 L 55864861.00 24270559.00 L 58491206.23 24270559.00 L 58495737.00 24271588.00 L 58520676.00 24282090.00 L 58544491.00 24299594.00 L 58551508.00 24309047.00 A 100353.26 100353.26 0 1 0 58551508.00 24167127.00 L 58546450.20 24174696.50 L 58536678.00 24183193.00 L 58512488.00 24198363.00 L 58491206.23 24205615.00 L 55851411.00 24205615.00 L 55828450.00 24215126.00 L 54799507.00 25244069.00 L 54789996.00 25267030.00 L 54789996.00 28989030.79 L 54783667.00 29009715.00 L 54769937.00 29035712.00 L 54762827.00 29044038.00 A 100353.26 100353.26 0 1 0 54904747.00 29044038.00  z"/>
<path id="N" d="M 70513431.00 39066889.60 L 70523474.00 39051763.00 L 70665629.00 38909393.00 L 70675140.00 38886432.00 L 70675140.00 33772302.00 L 70665629.00 33749341.00 L 70525621.82 33609333.82 L 70513431.00 33591179.80 L 70513431.00 33098384.60 L 70523473.00 33083258.00 L 70646392.00 32960125.00 L 70655903.00 32937164.00 L 70655903.00 27784561.00 L 70646392.00 27761600.00 L 70525621.82 27640829.82 L 70513431.00 27622675.80 L 70513431.00 27129881.60 L 70523474.00 27114755.00 L 70814578.00 26823436.00 L 70824089.00 26800475.00 L 70824089.00 21984245.00 L 70814578.00 21961284.00 L 70525615.90 21672321.90 L 70513431.00 21654174.02 L 70513431.00 21112832.00 L 69607921.00 21112832.00 L 69607921.00 21703382.00 L 70458371.67 21703382.00 L 70475470.00 21714342.00 L 70759145.00 21997695.00 L 70759145.00 26787025.00 L 70476652.33 27069517.67 L 70459072.19 27081336.00 L 69687121.00 27081158.00 L 69682621.00 27078058.00 L 69675421.00 27068233.00 L 69670621.00 27053578.00 L 69670393.00 26825908.00 L 69660882.00 26802947.00 L 69645409.17 26787474.17 L 69642546.00 26776594.00 L 69656757.00 26753401.00 A 100349.83 100349.83 0 1 0 69564043.00 26815351.00 L 69574096.43 26813351.20 L 69583809.00 26818180.00 L 69605449.00 26839358.00 L 69605449.00 27111336.00 L 69607921.00 27117303.78 L 69607921.00 27671886.00 L 70458374.29 27671886.00 L 70475471.00 27682846.00 L 70590959.00 27798011.00 L 70590959.00 32923714.00 L 70476646.02 33038026.98 L 70459071.19 33049840.00 L 69607921.00 33049840.00 L 69607921.00 33640390.00 L 70458374.29 33640390.00 L 70475471.00 33651350.00 L 70610196.00 33785752.00 L 70610196.00 38872982.00 L 70476652.33 39006525.67 L 70459072.19 39018344.00 L 69607921.00 39018344.00 L 69607921.00 39608894.00 L 70513431.00 39608894.00 L 70513431.00 39066889.60  z"/>
<path id="N" d="M 70513431.00 29631338.00 L 70421668.00 29631290.00 L 70417168.00 29628230.00 L 70409968.00 29618438.00 L 70405168.00 29603750.00 L 70405969.00 29591729.00 L 70416471.00 29566790.00 L 70433975.00 29542975.00 L 70443428.00 29535958.00 A 100353.26 100353.26 0 1 0 70301508.00 29535958.00 L 70309076.79 29541015.33 L 70317574.00 29550788.00 L 70332744.00 29574978.00 L 70339996.00 29596259.77 L 70337668.00 29611706.00 L 70331668.00 29623946.00 L 70323134.67 29631338.00 L 69607921.00 29631338.00 L 69607921.00 30221888.00 L 70513431.00 30221888.00 L 70513431.00 29631338.00  z"/>
<path id="N" d="M 60423649.00 27589842.00 L 59360657.00 27589842.00 L 59360609.00 27613940.00 L 59357549.00 27618440.00 L 59347757.00 27625640.00 L 59333069.00 27630440.00 L 59284060.00 27630668.00 L 58795429.00 27142037.00 L 58772468.00 27132526.00 L 55885918.00 27132526.00 L 55638245.15 26884853.15 L 55635769.00 26880922.00 L 55625560.00 26855861.00 L 55621098.00 26826644.00 L 55622821.00 26814998.00 A 100353.26 100353.26 0 1 0 55522468.00 26915351.00 L 55531398.77 26913574.52 L 55544315.00 26914477.00 L 55572146.00 26920855.00 L 55592323.15 26930775.15 L 55849507.00 27187959.00 L 55872468.00 27197470.00 L 58759018.00 27197470.00 L 59247649.00 27686101.00 L 59270610.00 27695612.00 L 59331673.64 27695612.00 L 59341025.00 27697940.00 L 59353265.00 27703940.00 L 59360657.00 27712473.33 L 59360657.00 27983542.00 L 60423649.00 27983542.00 L 60423649.00 27589842.00  z"/>
<path id="N" d="M 71857507.00 39286271.00 L 71319979.00 39286271.00 L 71319979.00 39266271.00 L 71310468.00 39243310.00 L 71244089.00 39176931.00 L 71244089.00 38539299.00 L 71385918.00 38397470.00 L 72690492.00 38397470.00 L 72713453.00 38387959.00 L 73013453.00 38087959.00 L 73022964.00 38064998.00 L 73022964.00 21731011.00 L 73013453.00 21708049.00 L 71987440.00 20682037.00 L 71964479.00 20672526.00 L 63030457.00 20672526.00 L 63007496.00 20682037.00 L 61548582.00 22140951.00 L 60903729.77 22140951.00 L 60899199.00 22139922.00 L 60874260.00 22129420.00 L 60850445.00 22111916.00 L 60843428.00 22102463.00 A 100353.26 100353.26 0 1 0 60843428.00 22244383.00 L 60848485.80 22236813.50 L 60858258.00 22228317.00 L 60882448.00 22213147.00 L 60903729.77 22205895.00 L 61562032.00 22205895.00 L 61584993.00 22196384.00 L 63043907.00 20737470.00 L 71951028.99 20737470.00 L 72958020.00 21744461.99 L 72958020.00 38051548.00 L 72677042.00 38332526.00 L 71372468.00 38332526.00 L 71349507.00 38342037.00 L 71188656.00 38502888.00 L 71179145.00 38525849.00 L 71179145.00 39190381.00 L 71188656.00 39213342.00 L 71255035.00 39279721.00 L 71255035.00 39316271.00 L 71257507.00 39322238.78 L 71257507.00 39786271.00 L 71857507.00 39786271.00 L 71857507.00 39286271.00  z"/>
<path id="N" d="M 59439838.00 25643550.00 L 59745429.00 25337959.00 L 59754940.00 25314998.00 L 59754940.00 24878448.00 L 60085918.00 24547470.00 L 60195737.00 24548499.00 L 60220676.00 24559001.00 L 60244491.00 24576505.00 L 60251508.00 24585958.00 A 100353.26 100353.26 0 1 0 60251508.00 24444038.00 L 60246450.67 24451606.79 L 60220676.00 24470995.00 L 60195737.00 24481497.00 L 60072468.00 24482526.00 L 60049507.00 24492037.00 L 59699507.00 24842037.00 L 59689996.00 24864998.00 L 59689996.00 25301548.00 L 59403427.00 25588117.00 L 57291509.00 25588117.00 L 56866260.00 25162868.00 L 56866260.00 24946259.77 L 56867289.00 24941729.00 L 56877791.00 24916790.00 L 56895295.00 24892975.00 L 56904748.00 24885958.00 A 100353.26 100353.26 0 1 0 56762828.00 24885958.00 L 56770396.79 24891015.33 L 56778894.00 24900788.00 L 56794064.00 24924978.00 L 56801316.00 24946259.77 L 56801316.00 25176318.00 L 56810827.00 25199279.00 L 57255098.00 25643550.00 L 57278059.00 25653061.00 L 59416877.00 25653061.00 L 59439838.00 25643550.00  z"/>
<path id="N" d="M 56810871.00 38122284.00 L 56800094.82 38120140.44 L 56767569.00 38105355.00 L 56744945.54 38091552.61 L 56124949.00 37471556.99 L 56124949.00 33366268.77 L 56125978.00 33361738.00 L 56136480.00 33336799.00 L 56153984.00 33312984.00 L 56163437.00 33305967.00 A 100353.26 100353.26 0 1 0 56021517.00 33305967.00 L 56029086.50 33311024.80 L 56037583.00 33320797.00 L 56052753.00 33344987.00 L 56060005.00 33366268.77 L 56060005.00 37485007.00 L 56069516.00 37507968.00 L 56677766.47 38116219.37 L 56685892.00 38136549.00 L 56687021.00 38152749.00 L 56683760.43 38170598.98 L 56679754.00 38176595.00 A 100349.83 100349.83 0 1 0 56810871.00 38122284.00  z"/>
<path id="N" d="M 72551508.00 35194038.00 L 72546450.67 35201606.79 L 72536678.00 35210104.00 L 72512488.00 35225274.00 L 72491206.23 35232526.00 L 71803729.77 35232526.00 L 71799199.00 35231497.00 L 71774260.00 35220995.00 L 71750445.00 35203491.00 L 71743428.00 35194038.00 A 100353.26 100353.26 0 1 0 71743428.00 35335958.00 L 71748485.33 35328389.21 L 71758258.00 35319892.00 L 71782448.00 35304722.00 L 71803729.77 35297470.00 L 72491206.23 35297470.00 L 72495737.00 35298499.00 L 72520676.00 35309001.00 L 72544491.00 35326505.00 L 72551508.00 35335958.00 A 100353.26 100353.26 0 1 0 72551508.00 35194038.00  z"/>
<path id="N" d="M 74472459.93 38964981.95 m -337548.83 0 a 337548.83 337548.83 0 1 1 675097.65 0a 337548.83 337548.83 0 1 1 -675097.65 0M 74472468.44 38964994.65 m -180637.35 0 a 180637.35 180637.35 0 1 1 361274.69 0a 180637.35 180637.35 0 1 1 -361274.69 0"/>
<path id="N" d="M 65670871.00 40468345.00 L 64816812.13 40468345.00 L 64801178.00 40458026.00 L 64687833.00 40344894.00 L 64687833.00 35213841.00 L 64798832.38 35102841.62 L 64817493.82 35090391.00 L 65670871.00 35090391.00 L 65670871.00 34499841.00 L 64819720.81 34499841.00 L 64803577.00 34489245.00 L 64654940.00 34340822.00 L 64654940.00 29328452.00 L 64818322.00 29165070.00 L 64827833.00 29142109.00 L 64827833.00 29121887.00 L 65670871.00 29121887.00 L 65670871.00 28531337.00 L 64819720.81 28531337.00 L 64803577.00 28520741.00 L 64454940.00 28172318.00 L 64454940.00 23509726.00 L 64798832.38 23165833.62 L 64817493.82 23153383.00 L 65169868.00 23153383.00 L 65177020.27 23157084.51 L 65160961.00 23178596.00 L 65151508.00 23185613.00 A 100353.26 100353.26 0 1 0 65293428.00 23185613.00 L 65285859.21 23180555.67 L 65267915.73 23157084.51 L 65275068.00 23153383.00 L 65670871.00 23153383.00 L 65670871.00 22562833.00 L 64765361.00 22562833.00 L 64765361.00 23101250.18 L 64754682.00 23117818.00 L 64399507.00 23473315.00 L 64389996.00 23496276.00 L 64389996.00 28185768.00 L 64399507.00 28208729.00 L 64754081.85 28563303.85 L 64765361.00 28579881.60 L 64765361.00 29085919.22 L 64762889.00 29091887.00 L 64762889.00 29128659.00 L 64599507.00 29292041.00 L 64589996.00 29315002.00 L 64589996.00 34354272.00 L 64599507.00 34377233.00 L 64754081.85 34531807.85 L 64765361.00 34548385.60 L 64765361.00 35038258.18 L 64754682.00 35054826.00 L 64632400.00 35177430.00 L 64622889.00 35200391.00 L 64622889.00 40358344.00 L 64632400.00 40381305.00 L 64753808.99 40502713.99 L 64765361.00 40519796.13 L 64765361.00 41058895.00 L 65670871.00 41058895.00 L 65670871.00 40468345.00  z"/>
<path id="N" d="M 70513431.00 23714285.13 L 70523750.00 23698651.00 L 70544667.00 23677527.00 L 70578183.00 23659578.00 L 70605822.31 23649668.14 L 70619296.00 23646988.00 A 100354.75 100354.75 0 1 0 70491262.00 23602631.00 L 70490148.00 23628087.00 L 70481659.66 23648683.34 L 70461979.87 23662834.00 L 69607921.00 23662834.00 L 69607921.00 24253384.00 L 70513431.00 24253384.00 L 70513431.00 23714285.13  z"/>
<path id="N" d="M 65670871.00 41619797.13 L 65681190.00 41604163.00 L 65803832.00 41481307.00 L 65813343.00 41458346.00 L 65813343.00 38913802.00 L 65803832.00 38890841.00 L 65250588.00 38337597.00 L 65250588.00 36219960.00 L 65255616.00 36204192.00 L 65262816.00 36194592.00 L 65270716.00 36190392.00 L 65670871.00 36190392.00 L 65670871.00 35648387.60 L 65680914.00 35633261.00 L 65803832.00 35510128.00 L 65813343.00 35487167.00 L 65813343.00 30331888.00 L 65803832.00 30308927.00 L 65683321.62 30188416.62 L 65670871.00 30169755.18 L 65670871.00 29679882.60 L 65680913.00 29664756.00 L 65803832.00 29541623.00 L 65813343.00 29518662.00 L 65813343.00 24363384.00 L 65803832.00 24340423.00 L 65683321.62 24219912.62 L 65670871.00 24201251.18 L 65670871.00 23662834.00 L 64765361.00 23662834.00 L 64765361.00 24253384.00 L 64961443.00 24253384.00 L 64969343.00 24257584.00 L 64976543.00 24267184.00 L 64981343.00 24281584.00 L 64980542.00 24338267.00 L 64970040.00 24363206.00 L 64952536.00 24387021.00 L 64943083.00 24394038.00 A 100353.26 100353.26 0 1 0 65085003.00 24394038.00 L 65077433.50 24388980.20 L 65058046.00 24363206.00 L 65047544.00 24338267.00 L 65046515.00 24282952.00 L 65051543.00 24267184.00 L 65058743.00 24257584.00 L 65066643.00 24253384.00 L 65618738.18 24253384.00 L 65635306.00 24264063.00 L 65748399.00 24376834.00 L 65748399.00 29505212.00 L 65634086.02 29619524.98 L 65616511.19 29631338.00 L 64765361.00 29631338.00 L 64765361.00 30221888.00 L 65618738.18 30221888.00 L 65635306.00 30232567.00 L 65748399.00 30345338.00 L 65748399.00 35473717.00 L 65634092.33 35588023.67 L 65616512.19 35599842.00 L 64765361.00 35599842.00 L 64765361.00 36190392.00 L 65165516.00 36190392.00 L 65173416.00 36194592.00 L 65180616.00 36204192.00 L 65185416.00 36218592.00 L 65185644.00 38351047.00 L 65195155.00 38374008.00 L 65748399.00 38927252.00 L 65748399.00 41444896.00 L 65636495.27 41556799.73 L 65619419.87 41568346.00 L 64765361.00 41568346.00 L 64765361.00 42158896.00 L 65670871.00 42158896.00 L 65670871.00 41619797.13  z"/>
<path id="N" d="M 55560820.00 30576293.00 L 55551889.23 30578069.48 L 55538973.00 30577167.00 L 55511142.00 30570789.00 L 55490964.85 30560868.85 L 54604940.00 29674845.00 L 54604940.00 25332491.00 L 55928422.00 24009009.00 L 58346623.39 24009009.00 L 58367290.00 24015318.00 L 58393319.00 24029016.00 L 58401508.00 24035958.00 A 100353.26 100353.26 0 1 0 58401508.00 23894038.00 A 113598.84 113598.84 0 0 1 58359004.00 23936107.00 L 58337698.96 23944065.00 L 55914972.00 23944065.00 L 55892011.00 23953576.00 L 54549507.00 25296080.00 L 54539996.00 25319041.00 L 54539996.00 29688295.00 L 54549507.00 29711256.00 L 55445042.85 30606790.85 L 55447519.00 30610722.00 L 55457728.00 30635783.00 L 55462190.00 30665000.00 L 55460467.00 30676646.00 A 100353.26 100353.26 0 1 0 55560820.00 30576293.00  z"/>
<path id="N" d="M 71857508.00 28426662.00 L 71475068.00 28426662.00 L 71467168.00 28422462.00 L 71459968.00 28412862.00 L 71455168.00 28398462.00 L 71454940.00 25996259.77 L 71455969.00 25991729.00 L 71466471.00 25966790.00 L 71483975.00 25942975.00 L 71493428.00 25935958.00 A 100353.26 100353.26 0 1 0 71351508.00 25935958.00 L 71359076.79 25941015.33 L 71367574.00 25950788.00 L 71382744.00 25974978.00 L 71389996.00 25996259.77 L 71389996.00 28397094.00 L 71384968.00 28412862.00 L 71377768.00 28422462.00 L 71369868.00 28426662.00 L 71257508.00 28426662.00 L 71257508.00 28926662.00 L 71857508.00 28926662.00 L 71857508.00 28426662.00  z"/>
<path id="N" d="M 71762782.00 46174195.00 L 71516707.00 46174147.00 L 71512207.00 46171087.00 L 71505007.00 46161295.00 L 71500207.00 46146607.00 L 71499979.00 45437574.00 L 71760136.38 45177416.62 L 71778797.82 45164966.00 L 72026665.00 45164966.00 L 72026665.00 44864966.00 L 71726665.00 44864966.00 L 71726665.00 45112833.18 L 71715986.00 45129401.00 L 71444546.00 45401163.00 L 71435035.00 45424124.00 L 71435035.00 46145211.64 L 71432707.00 46154563.00 L 71426707.00 46166803.00 L 71418173.67 46174195.00 L 71172232.00 46174195.00 L 71172232.00 46489155.00 L 71762782.00 46489155.00 L 71762782.00 46174195.00  z"/>
<path id="N" d="M 72857506.00 28801662.00 L 72857506.00 28551662.00 L 72732506.00 28426662.00 L 72606706.00 28426614.00 L 72602206.00 28423554.00 L 72595006.00 28413762.00 L 72590206.00 28399074.00 L 72589978.00 28108603.00 L 72580467.00 28085642.00 L 72499888.27 28005063.27 L 72488342.00 27987987.87 L 72488342.00 27739439.00 L 72188342.00 27739439.00 L 72188342.00 28039439.00 L 72436890.87 28039439.00 L 72452525.00 28049758.00 L 72525034.00 28122053.00 L 72525034.00 28397678.64 L 72522706.00 28407030.00 L 72516706.00 28419270.00 L 72508172.67 28426662.00 L 72382506.00 28426662.00 L 72257506.00 28551662.00 L 72257506.00 28801662.00 L 72382506.00 28926662.00 L 72732506.00 28926662.00 L 72857506.00 28801662.00  z"/>
<path id="N" d="M 70513431.00 41568346.00 L 69821668.00 41568298.00 L 69817168.00 41565238.00 L 69809968.00 41555446.00 L 69805168.00 41540758.00 L 69805969.00 41491729.00 L 69816471.00 41466790.00 L 69833975.00 41442975.00 L 69843428.00 41435958.00 A 100353.26 100353.26 0 1 0 69701508.00 41435958.00 L 69709076.79 41441015.33 L 69728465.00 41466790.00 L 69738967.00 41491729.00 L 69739996.00 41539362.64 L 69737668.00 41548714.00 L 69731668.00 41560954.00 L 69723134.67 41568346.00 L 69607921.00 41568346.00 L 69607921.00 42158896.00 L 70513431.00 42158896.00 L 70513431.00 41568346.00  z"/>
<path id="N" d="M 60423649.00 39501786.00 L 59412789.82 39501786.00 L 59396222.00 39491107.00 L 59096831.00 39192037.00 L 59073870.00 39182526.00 L 55135918.00 39182526.00 L 54571790.00 38618398.00 L 54571790.00 32311598.00 L 55045918.00 31837470.00 L 56430457.00 31837470.00 L 56453418.00 31827959.00 L 57333313.00 30948064.00 L 57342824.00 30925103.00 L 57342825.00 28890074.77 L 57343854.00 28885544.00 L 57354356.00 28860605.00 L 57371860.00 28836790.00 L 57381313.00 28829773.00 A 100353.26 100353.26 0 1 0 57239393.00 28829773.00 L 57246962.50 28834830.80 L 57255459.00 28844603.00 L 57270629.00 28868793.00 L 57277881.00 28890074.77 L 57277880.00 30911653.00 L 56417007.00 31772526.00 L 55032468.00 31772526.00 L 55009507.00 31782037.00 L 54516357.00 32275187.00 L 54506846.00 32298148.00 L 54506846.00 38631848.00 L 54516357.00 38654809.00 L 55099507.00 39237959.00 L 55122468.00 39247470.00 L 59060420.00 39247470.00 L 59348200.88 39535250.88 L 59360657.00 39553918.82 L 59360657.00 39895486.00 L 60423649.00 39895486.00 L 60423649.00 39501786.00  z"/>
<path id="N" d="M 72857507.00 39661271.00 L 72857507.00 39411271.00 L 72732507.00 39286271.00 L 72420526.40 39286271.00 L 72397288.00 39272490.00 L 72345853.00 39221269.00 L 72345853.00 38927871.36 L 72348181.00 38918520.00 L 72354181.00 38906280.00 L 72362714.33 38898888.00 L 72463381.00 38898888.00 L 72463381.00 38598888.00 L 72163381.00 38598888.00 L 72163381.00 38898888.00 L 72264181.00 38898936.00 L 72268681.00 38901996.00 L 72275881.00 38911788.00 L 72280681.00 38926476.00 L 72280909.00 39234719.00 L 72290420.00 39257680.00 L 72333747.79 39301007.79 L 72342375.00 39316746.00 L 72343662.19 39325115.81 L 72257507.00 39411271.00 L 72257507.00 39661271.00 L 72382507.00 39786271.00 L 72732507.00 39786271.00 L 72857507.00 39661271.00  z"/>
<path id="N" d="M 65293428.00 27794038.00 L 65285859.21 27788980.67 L 65266471.00 27763206.00 L 65255969.00 27738267.00 L 65254940.00 27701454.00 L 65259968.00 27685686.00 L 65267168.00 27676086.00 L 65275068.00 27671886.00 L 65670871.00 27671886.00 L 65670871.00 27081336.00 L 64816812.13 27081336.00 L 64801178.00 27071017.00 L 64671387.00 26941440.00 L 64671387.00 23647167.00 L 64821084.00 23497470.00 L 65514819.00 23497470.00 L 65537780.00 23487959.00 L 65695429.00 23330310.00 L 65701664.54 23315256.46 L 65724341.46 23292579.54 L 65739395.00 23286344.00 L 65803832.00 23221907.00 L 65813343.00 23198946.00 L 65813343.00 21813382.00 L 65803832.00 21790421.00 L 65683321.62 21669910.62 L 65670871.00 21651249.18 L 65670871.00 21112832.00 L 64765361.00 21112832.00 L 64765361.00 21703382.00 L 64969868.00 21703382.00 L 64977768.00 21707582.00 L 64984968.00 21717182.00 L 64989768.00 21731582.00 L 64988967.00 21738267.00 L 64978465.00 21763206.00 L 64960961.00 21787021.00 L 64951508.00 21794038.00 A 100353.26 100353.26 0 1 0 65093428.00 21794038.00 L 65085859.21 21788980.67 L 65077362.00 21779208.00 L 65062192.00 21755018.00 L 65054940.00 21732950.00 L 65059968.00 21717182.00 L 65067168.00 21707582.00 L 65075068.00 21703382.00 L 65618738.18 21703382.00 L 65635306.00 21714061.00 L 65748399.00 21826832.00 L 65748399.00 23185496.00 L 65699708.54 23234186.46 L 65684655.00 23240422.00 L 65649507.00 23275570.00 L 65643271.46 23290623.54 L 65501369.00 23432526.00 L 64807634.00 23432526.00 L 64784673.00 23442037.00 L 64615954.00 23610756.00 L 64606443.00 23633717.00 L 64606443.00 26954890.00 L 64615954.00 26977851.00 L 64753814.73 27115711.73 L 64765361.00 27132787.13 L 64765361.00 27671886.00 L 65169868.00 27671886.00 L 65177768.00 27676086.00 L 65184968.00 27685686.00 L 65189768.00 27700086.00 L 65188967.00 27738267.00 L 65178465.00 27763206.00 L 65160961.00 27787021.00 L 65151508.00 27794038.00 A 100353.26 100353.26 0 1 0 65293428.00 27794038.00  z"/>
<path id="N" d="M 65670871.00 33049840.00 L 65271668.00 33049792.00 L 65267168.00 33046732.00 L 65259968.00 33036940.00 L 65255168.00 33022252.00 L 65255969.00 32941729.00 L 65266471.00 32916790.00 L 65283975.00 32892975.00 L 65293428.00 32885958.00 A 100353.26 100353.26 0 1 0 65151508.00 32885958.00 L 65159076.79 32891015.33 L 65178465.00 32916790.00 L 65188967.00 32941729.00 L 65189996.00 33020856.64 L 65187668.00 33030208.00 L 65181668.00 33042448.00 L 65173134.67 33049840.00 L 64765361.00 33049840.00 L 64765361.00 33640390.00 L 65670871.00 33640390.00 L 65670871.00 33049840.00  z"/>
<path id="N" d="M 65670871.00 39018344.00 L 65271668.00 39018296.00 L 65263268.00 39010952.00 L 65255717.32 38992837.15 L 65266471.00 38966790.00 L 65283975.00 38942975.00 L 65293428.00 38935958.00 A 100353.26 100353.26 0 1 0 65151508.00 38935958.00 L 65159076.79 38941015.33 L 65178465.00 38966790.00 L 65189218.68 38992837.15 L 65181668.00 39010952.00 L 65173134.67 39018344.00 L 64765361.00 39018344.00 L 64765361.00 39608894.00 L 65670871.00 39608894.00 L 65670871.00 39018344.00  z"/>
<path id="N" d="M 72857506.00 34770166.00 L 72857506.00 34520166.00 L 72732506.00 34395166.00 L 72606706.00 34395118.00 L 72602206.00 34392058.00 L 72595006.00 34382266.00 L 72590206.00 34367578.00 L 72589978.00 34027035.00 L 72580467.00 34004074.00 L 72538413.00 33962020.00 L 72538413.00 33707942.00 L 72238413.00 33707942.00 L 72238413.00 34007942.00 L 72492491.00 34007942.00 L 72525034.00 34040485.00 L 72525034.00 34366182.64 L 72522706.00 34375534.00 L 72516706.00 34387774.00 L 72508172.67 34395166.00 L 72382506.00 34395166.00 L 72257506.00 34520166.00 L 72257506.00 34770166.00 L 72382506.00 34895166.00 L 72732506.00 34895166.00 L 72857506.00 34770166.00  z"/>
<path id="N" d="M 70513431.00 40468345.00 L 69659372.13 40468345.00 L 69643738.00 40458026.00 L 69404940.00 40219442.00 L 69404940.00 35339295.00 L 69641398.89 35102836.11 L 69660053.82 35090391.00 L 70513431.00 35090391.00 L 70513431.00 34499841.00 L 69659372.13 34499841.00 L 69643738.00 34489522.00 L 69404940.00 34250938.00 L 69404940.00 29370791.00 L 69641398.89 29134332.11 L 69660053.82 29121887.00 L 70513431.00 29121887.00 L 70513431.00 28531337.00 L 69659372.13 28531337.00 L 69643738.00 28521018.00 L 69354940.00 28232433.00 L 69354940.00 23452286.00 L 69641392.38 23165833.62 L 69660053.82 23153383.00 L 70513431.00 23153383.00 L 70513431.00 22562833.00 L 69607921.00 22562833.00 L 69607921.00 23101250.18 L 69597242.00 23117818.00 L 69299507.00 23415875.00 L 69289996.00 23438836.00 L 69289996.00 28245883.00 L 69299507.00 28268844.00 L 69596368.99 28565705.99 L 69607921.00 28582788.13 L 69607873.00 28765798.00 L 69604813.00 28770298.00 L 69595021.00 28777498.00 L 69580333.00 28782298.00 L 69549199.00 28781497.00 L 69524260.00 28770995.00 L 69500445.00 28753491.00 L 69493428.00 28744038.00 A 100353.26 100353.26 0 1 0 69493428.00 28885958.00 L 69498485.33 28878389.21 L 69524260.00 28859001.00 L 69549199.00 28848499.00 L 69578937.64 28847470.00 L 69588289.00 28849798.00 L 69600529.00 28855798.00 L 69607921.00 28864331.33 L 69607921.00 29069754.18 L 69597242.00 29086322.00 L 69349507.00 29334380.00 L 69339996.00 29357341.00 L 69339996.00 34264388.00 L 69349507.00 34287349.00 L 69596374.73 34534216.73 L 69607921.00 34551292.13 L 69607921.00 35038258.18 L 69597242.00 35054826.00 L 69349507.00 35302884.00 L 69339996.00 35325845.00 L 69339996.00 40232892.00 L 69349507.00 40255853.00 L 69596374.73 40502720.73 L 69607921.00 40519796.13 L 69607921.00 41058895.00 L 70513431.00 41058895.00 L 70513431.00 40468345.00  z"/>
<path id="N" d="M 71857507.00 41441069.00 L 71594169.00 41441069.00 L 71586269.00 41436869.00 L 71579069.00 41427269.00 L 71574269.00 41412869.00 L 71574041.00 40721500.00 L 71798071.00 40497470.00 L 72730492.00 40497470.00 L 72753453.00 40487959.00 L 73153453.00 40087959.00 L 73162964.00 40064998.00 L 73162964.00 21673022.00 L 73153453.00 21650061.00 L 72045429.00 20542037.00 L 72022468.00 20532526.00 L 62972468.00 20532526.00 L 62949507.00 20542037.00 L 61559018.00 21932526.00 L 60672468.00 21932526.00 L 60649507.00 21942037.00 L 60430552.00 22160992.00 L 59703729.77 22160992.00 L 59699199.00 22159963.00 L 59674260.00 22149461.00 L 59650445.00 22131957.00 L 59643428.00 22122504.00 A 100353.26 100353.26 0 1 0 59643428.00 22264424.00 L 59648485.33 22256855.21 L 59658258.00 22248358.00 L 59682448.00 22233188.00 L 59703729.77 22225936.00 L 60444002.00 22225936.00 L 60466963.00 22216425.00 L 60685918.00 21997470.00 L 61572468.00 21997470.00 L 61595429.00 21987959.00 L 62985918.00 20597470.00 L 72009018.00 20597470.00 L 73098020.00 21686472.00 L 73098020.00 40051548.00 L 72717042.00 40432526.00 L 71784621.00 40432526.00 L 71761660.00 40442037.00 L 71518608.00 40685089.00 L 71509097.00 40708050.00 L 71509097.00 41411501.00 L 71504069.00 41427269.00 L 71496869.00 41436869.00 L 71488969.00 41441069.00 L 71257507.00 41441069.00 L 71257507.00 41941069.00 L 71857507.00 41941069.00 L 71857507.00 41441069.00  z"/>
<path id="N" d="M 60423649.00 33533282.00 L 59608199.00 33533282.00 L 59600299.00 33529082.00 L 59593099.00 33519482.00 L 59588299.00 33505082.00 L 59588071.00 30089933.00 L 59578560.00 30066972.00 L 57053625.00 27542037.00 L 57030664.00 27532526.00 L 55953729.77 27532526.00 L 55949199.00 27531497.00 L 55924260.00 27520995.00 L 55900445.00 27503491.00 L 55893428.00 27494038.00 A 100353.26 100353.26 0 1 0 55893428.00 27635958.00 L 55898485.33 27628389.21 L 55908258.00 27619892.00 L 55932448.00 27604722.00 L 55953729.77 27597470.00 L 57017214.00 27597470.00 L 59523127.00 30103383.00 L 59523127.00 33503714.00 L 59518099.00 33519482.00 L 59510899.00 33529082.00 L 59502999.00 33533282.00 L 59360657.00 33533282.00 L 59360657.00 33926982.00 L 60423649.00 33926982.00 L 60423649.00 33533282.00  z"/>
<path id="N" d="M 58343428.00 22044038.00 L 58335859.21 22038980.67 L 58327362.00 22029208.00 L 58312192.00 22005018.00 L 58304940.00 21983736.23 L 58304940.00 21664998.00 L 58295429.00 21642037.00 L 57845429.00 21192037.00 L 57822468.00 21182526.00 L 56153729.77 21182526.00 L 56149199.00 21181497.00 L 56124260.00 21170995.00 L 56100445.00 21153491.00 L 56093428.00 21144038.00 A 100353.26 100353.26 0 1 0 56093428.00 21285958.00 L 56098485.33 21278389.21 L 56108258.00 21269892.00 L 56132448.00 21254722.00 L 56153729.77 21247470.00 L 57809018.00 21247470.00 L 58239996.00 21678448.00 L 58239996.00 21983736.23 L 58238967.00 21988267.00 L 58228465.00 22013206.00 L 58210961.00 22037021.00 L 58201508.00 22044038.00 A 100353.26 100353.26 0 1 0 58343428.00 22044038.00  z"/>
<path id="N" d="M 73092782.00 46456763.77 L 73096527.00 46446336.00 L 73104117.00 46435086.00 L 73114719.00 46425336.00 L 73128333.00 46417086.00 L 73144959.00 46410336.00 L 73164597.00 46405086.00 L 73187247.00 46401336.00 L 73222231.40 46399805.00 L 73234065.00 46407712.00 A 100349.83 100349.83 0 1 0 73201508.00 46244038.00 L 73199880.48 46246473.74 L 73165082.00 46241771.00 L 73145582.00 46236665.00 L 73129082.00 46230101.00 L 73115582.00 46222077.00 L 73105082.00 46212595.00 L 73097582.00 46201654.00 L 73093082.00 46189254.00 L 73092782.00 46174195.00 L 72502232.00 46174195.00 L 72502232.00 46489155.00 L 73092782.00 46489155.00 L 73092782.00 46456763.77  z"/>
<path id="N" d="M 74807113.00 39630352.00 L 74137823.00 39630352.00 L 74137823.00 40299642.00 L 74807113.00 40299642.00 L 74807113.00 39630352.00  zM 74472468.44 39964995.65 m -180637.35 0 a 180637.35 180637.35 0 1 1 361274.69 0a 180637.35 180637.35 0 1 1 -361274.69 0"/>
<path id="N" d="M 61216592.47 22823421.47 m -100354.75 0 a 100354.75 100354.75 0 1 1 200709.51 0a 100354.75 100354.75 0 1 1 -200709.51 0"/>
<path id="N" d="M 74822466.47 28664996.47 m -100354.75 0 a 100354.75 100354.75 0 1 1 200709.51 0a 100354.75 100354.75 0 1 1 -200709.51 0"/>
<path id="N" d="M 74822466.47 29398328.47 m -100354.75 0 a 100354.75 100354.75 0 1 1 200709.51 0a 100354.75 100354.75 0 1 1 -200709.51 0"/>
<path id="N" d="M 61222466.47 24114996.47 m -100354.75 0 a 100354.75 100354.75 0 1 1 200709.51 0a 100354.75 100354.75 0 1 1 -200709.51 0"/>
<path id="N" d="M 58122466.47 26164996.47 m -100354.75 0 a 100354.75 100354.75 0 1 1 200709.51 0a 100354.75 100354.75 0 1 1 -200709.51 0"/>
<path id="N" d="M 57528335.47 21564955.47 m -100354.75 0 a 100354.75 100354.75 0 1 1 200709.51 0a 100354.75 100354.75 0 1 1 -200709.51 0"/>
<path id="N" d="M 74822466.47 29764994.47 m -100354.75 0 a 100354.75 100354.75 0 1 1 200709.51 0a 100354.75 100354.75 0 1 1 -200709.51 0"/>
<path id="N" d="M 74822466.47 29031662.47 m -100354.75 0 a 100354.75 100354.75 0 1 1 200709.51 0a 100354.75 100354.75 0 1 1 -200709.51 0"/>
<path id="N" d="M 58172466.47 29364996.47 m -100354.75 0 a 100354.75 100354.75 0 1 1 200709.51 0a 100354.75 100354.75 0 1 1 -200709.51 0"/>
<path id="N" d="M 55322466.47 41264996.47 m -100354.75 0 a 100354.75 100354.75 0 1 1 200709.51 0a 100354.75 100354.75 0 1 1 -200709.51 0"/>
<path id="N" d="M 54330891.47 37011065.47 m -100354.75 0 a 100354.75 100354.75 0 1 1 200709.51 0a 100354.75 100354.75 0 1 1 -200709.51 0"/>
<path id="N" d="M 62672466.47 44064996.47 m -100354.75 0 a 100354.75 100354.75 0 1 1 200709.51 0a 100354.75 100354.75 0 1 1 -200709.51 0"/>
<path id="N" d="M 60572466.47 44064996.47 m -100354.75 0 a 100354.75 100354.75 0 1 1 200709.51 0a 100354.75 100354.75 0 1 1 -200709.51 0"/>
<path id="N" d="M 59222500.47 36065030.47 m -100354.75 0 a 100354.75 100354.75 0 1 1 200709.51 0a 100354.75 100354.75 0 1 1 -200709.51 0"/>
<path id="N" d="M 57872438.47 31964968.47 m -100354.75 0 a 100354.75 100354.75 0 1 1 200709.51 0a 100354.75 100354.75 0 1 1 -200709.51 0"/>
<path id="N" d="M 57022466.47 34514996.47 m -100354.75 0 a 100354.75 100354.75 0 1 1 200709.51 0a 100354.75 100354.75 0 1 1 -200709.51 0"/>
<path id="N" d="M 72857507.00 22833158.00 L 72857507.00 22583158.00 L 72732507.00 22458158.00 L 72606707.00 22458110.00 L 72602207.00 22455050.00 L 72595007.00 22445258.00 L 72590207.00 22430570.00 L 72589979.00 22090030.00 L 72580468.00 22067069.00 L 72538413.00 22025014.00 L 72538413.00 21770936.00 L 72238413.00 21770936.00 L 72238413.00 22070936.00 L 72492491.00 22070936.00 L 72525035.00 22103480.00 L 72525035.00 22429174.64 L 72522707.00 22438526.00 L 72516707.00 22450766.00 L 72508173.67 22458158.00 L 72382507.00 22458158.00 L 72257507.00 22583158.00 L 72257507.00 22833158.00 L 72382507.00 22958158.00 L 72732507.00 22958158.00 L 72857507.00 22833158.00  z"/>
<path id="N" d="M 72857507.00 41816069.00 L 72857507.00 41566069.00 L 72732507.00 41441069.00 L 72420526.40 41441069.00 L 72397288.00 41427288.00 L 72345853.00 41376067.00 L 72345853.00 41082596.36 L 72348181.00 41073245.00 L 72354181.00 41061005.00 L 72362714.33 41053613.00 L 72463381.00 41053613.00 L 72463381.00 40753613.00 L 72163381.00 40753613.00 L 72163381.00 41053613.00 L 72264181.00 41053661.00 L 72268681.00 41056721.00 L 72275881.00 41066513.00 L 72280681.00 41081201.00 L 72280909.00 41389517.00 L 72290420.00 41412478.00 L 72333747.79 41455805.79 L 72342375.00 41471544.00 L 72343662.19 41479913.81 L 72257507.00 41566069.00 L 72257507.00 41816069.00 L 72382507.00 41941069.00 L 72732507.00 41941069.00 L 72857507.00 41816069.00  z"/>
<path id="N" d="M 71857508.00 34395166.00 L 71525068.00 34395166.00 L 71517168.00 34390966.00 L 71509968.00 34381366.00 L 71505168.00 34366966.00 L 71505969.00 34341729.00 L 71516471.00 34316790.00 L 71533975.00 34292975.00 L 71543428.00 34285958.00 A 100353.26 100353.26 0 1 0 71401508.00 34285958.00 L 71409076.79 34291015.33 L 71428465.00 34316790.00 L 71438967.00 34341729.00 L 71439996.00 34365598.00 L 71434968.00 34381366.00 L 71427768.00 34390966.00 L 71419868.00 34395166.00 L 71257508.00 34395166.00 L 71257508.00 34895166.00 L 71857508.00 34895166.00 L 71857508.00 34395166.00  z"/>
<path id="N" d="M 60001508.00 44825613.00 L 59996450.20 44833182.50 L 59986678.00 44841679.00 L 59962488.00 44856849.00 L 59941206.23 44864101.00 L 54414042.00 44864101.00 L 53613365.00 44063424.00 L 53613365.00 34996259.77 L 53614394.00 34991729.00 L 53624896.00 34966790.00 L 53642400.00 34942975.00 L 53651853.00 34935958.00 A 100353.26 100353.26 0 1 0 53509933.00 34935958.00 L 53517502.50 34941015.80 L 53525999.00 34950788.00 L 53541169.00 34974978.00 L 53548421.00 34996259.77 L 53548421.00 44076874.00 L 53557932.00 44099835.00 L 54377631.00 44919534.00 L 54400592.00 44929045.00 L 59941206.23 44929045.00 L 59945737.00 44930074.00 L 59970676.00 44940576.00 L 59994491.00 44958080.00 L 60001508.00 44967533.00 A 100353.26 100353.26 0 1 0 60001508.00 44825613.00  z"/>
</g>
</svg>
