<svg width="58.00704934mm" height="77.58152124mm" viewBox="0 0 22837421 30543906"  version="1.1" xmlns="http://www.w3.org/2000/svg" xmlns:xlink="http://www.w3.org/1999/xlink">
<desc>
Origin 52372468 49564998 Bound 52371080 19721092 22837421 30543906
</desc>
<g fill-rule="evenodd" fill="rgb(255, 0, 255)" stroke="black" stroke-width="1" transform="translate(0, 30543906) scale(1, -1) translate(-52371080, -19721092)">
<path id="N" d="M 63922468.00 49564998.00 L 74395823.00 49565065.00 A 905073.01 905073.01 0 0 0 75208431.00 48753707.00 L 75207178.00 20533769.00 A 905044.58 905044.58 0 0 0 74395821.00 19721160.00 L 53183756.00 19722410.00 A 905044.58 905044.58 0 0 0 52371148.00 20533769.00 L 52372399.00 48753708.00 A 905044.58 905044.58 0 0 0 53183758.00 49566317.00 L 59322468.00 49564996.00 L 60022468.00 50264998.00 L 63222468.00 50264998.00 L 63922468.00 49564998.00  zM 60463649.00 22055038.00 L 59320657.00 22055038.00 L 59320657.00 21581338.00 L 60463649.00 21581338.00 L 60463649.00 22055038.00  zM 60226799.00 23831332.00 L 59557507.00 23831332.00 A 241485.30 241485.30 0 0 1 59557507.00 23348352.00 L 60226799.00 23348352.00 A 241485.30 241485.30 0 1 1 60226799.00 23831332.00  zM 63691365.00 22059678.00 L 63022073.00 22059678.00 A 241485.30 241485.30 0 1 1 63022073.00 21576698.00 L 63691365.00 21576698.00 A 241485.30 241485.30 0 0 1 63691365.00 22059678.00  zM 65710871.00 23193383.00 L 64725361.00 23193383.00 L 64725361.00 22522833.00 L 65710871.00 22522833.00 L 65710871.00 23193383.00  zM 63691365.00 23831332.00 L 63022073.00 23831332.00 A 241485.30 241485.30 0 1 1 63022073.00 23348352.00 L 63691365.00 23348352.00 A 241485.30 241485.30 0 0 1 63691365.00 23831332.00  zM 63691365.00 28028182.00 L 63022073.00 28028182.00 A 241485.30 241485.30 0 1 1 63022073.00 27545202.00 L 63691365.00 27545202.00 A 241485.30 241485.30 0 1 1 63691365.00 28028182.00  zM 60463649.00 28023542.00 L 59320657.00 28023542.00 L 59320657.00 27549842.00 L 60463649.00 27549842.00 L 60463649.00 28023542.00  zM 65710871.00 21743382.00 L 64725361.00 21743382.00 L 64725361.00 21072832.00 L 65710871.00 21072832.00 L 65710871.00 21743382.00  zM 66773445.28 23524110.31 m -221422.69 0 a 221422.69 221422.69 0 1 1 442845.38 0a 221422.69 221422.69 0 1 1 -442845.38 0M 68505445.28 23524110.31 m -221422.69 0 a 221422.69 221422.69 0 1 1 442845.38 0a 221422.69 221422.69 0 1 1 -442845.38 0M 65710871.00 24293384.00 L 64725361.00 24293384.00 L 64725361.00 23622834.00 L 65710871.00 23622834.00 L 65710871.00 24293384.00  zM 65710871.00 27711886.00 L 64725361.00 27711886.00 L 64725361.00 27041336.00 L 65710871.00 27041336.00 L 65710871.00 27711886.00  zM 65710871.00 29161887.00 L 64725361.00 29161887.00 L 64725361.00 28491337.00 L 65710871.00 28491337.00 L 65710871.00 29161887.00  zM 60226799.00 29799836.00 L 59557507.00 29799836.00 A 241485.30 241485.30 0 0 1 59557507.00 29316856.00 L 60226799.00 29316856.00 A 241485.30 241485.30 0 1 1 60226799.00 29799836.00  zM 60463649.00 33966982.00 L 59320657.00 33966982.00 L 59320657.00 33493282.00 L 60463649.00 33493282.00 L 60463649.00 33966982.00  zM 63691365.00 29799836.00 L 63022073.00 29799836.00 A 241485.30 241485.30 0 1 1 63022073.00 29316856.00 L 63691365.00 29316856.00 A 241485.30 241485.30 0 1 1 63691365.00 29799836.00  zM 65710871.00 33680390.00 L 64725361.00 33680390.00 L 64725361.00 33009840.00 L 65710871.00 33009840.00 L 65710871.00 33680390.00  zM 60226799.00 35743276.00 L 59557507.00 35743276.00 A 241485.30 241485.30 0 0 1 59557507.00 35260296.00 L 60226799.00 35260296.00 A 241485.30 241485.30 0 0 1 60226799.00 35743276.00  zM 63691365.00 35743276.00 L 63022073.00 35743276.00 A 241485.30 241485.30 0 0 1 63022073.00 35260296.00 L 63691365.00 35260296.00 A 241485.30 241485.30 0 0 1 63691365.00 35743276.00  zM 63691365.00 33971622.00 L 63022073.00 33971622.00 A 241485.30 241485.30 0 1 1 63022073.00 33488642.00 L 63691365.00 33488642.00 A 241485.30 241485.30 0 1 1 63691365.00 33971622.00  zM 65710871.00 30261888.00 L 64725361.00 30261888.00 L 64725361.00 29591338.00 L 65710871.00 29591338.00 L 65710871.00 30261888.00  zM 66773445.28 29492614.31 m -221422.69 0 a 221422.69 221422.69 0 1 1 442845.38 0a 221422.69 221422.69 0 1 1 -442845.38 0M 68505445.28 29492614.31 m -221422.69 0 a 221422.69 221422.69 0 1 1 442845.38 0a 221422.69 221422.69 0 1 1 -442845.38 0M 65710871.00 35130391.00 L 64725361.00 35130391.00 L 64725361.00 34459841.00 L 65710871.00 34459841.00 L 65710871.00 35130391.00  zM 66773445.28 35461118.31 m -221422.69 0 a 221422.69 221422.69 0 1 1 442845.38 0a 221422.69 221422.69 0 1 1 -442845.38 0M 68505445.28 35461118.31 m -221422.69 0 a 221422.69 221422.69 0 1 1 442845.38 0a 221422.69 221422.69 0 1 1 -442845.38 0M 70553431.00 21743382.00 L 69567921.00 21743382.00 L 69567921.00 21072832.00 L 70553431.00 21072832.00 L 70553431.00 21743382.00  zM 70553431.00 23193383.00 L 69567921.00 23193383.00 L 69567921.00 22522833.00 L 70553431.00 22522833.00 L 70553431.00 23193383.00  zM 72066601.00 22110936.00 L 71686601.00 22110936.00 L 71686601.00 21730936.00 L 72066601.00 21730936.00 L 72066601.00 22110936.00  zM 71897507.00 22998158.00 L 71217507.00 22998158.00 L 71217507.00 22418158.00 L 71897507.00 22418158.00 L 71897507.00 22998158.00  zM 72578413.00 22110936.00 L 72198413.00 22110936.00 L 72198413.00 21730936.00 L 72578413.00 21730936.00 L 72578413.00 22110936.00  zM 72752507.00 22998158.00 L 72362507.00 22998158.00 L 72217507.00 22853158.00 L 72217507.00 22563158.00 L 72362507.00 22418158.00 L 72752507.00 22418158.00 L 72897507.00 22563158.00 L 72897507.00 22853158.00 L 72752507.00 22998158.00  zM 72644272.00 24042001.00 L 72329312.00 24042001.00 A 278596.85 278596.85 0 1 1 72329312.00 23484795.00 L 72644272.00 23484795.00 A 278596.85 278596.85 0 0 1 72644272.00 24042001.00  zM 70553431.00 24293384.00 L 69567921.00 24293384.00 L 69567921.00 23622834.00 L 70553431.00 23622834.00 L 70553431.00 24293384.00  zM 72695492.89 24326395.08 m -191318.92 0 a 191318.92 191318.92 0 1 1 382637.84 0a 191318.92 191318.92 0 1 1 -382637.84 0M 72644272.00 27443600.00 L 72329312.00 27443600.00 A 278589.51 278589.51 0 1 1 72329312.00 26886394.00 L 72644272.00 26886394.00 A 278589.51 278589.51 0 0 1 72644272.00 27443600.00  zM 74250602.00 24042002.00 L 74014382.00 24042002.00 A 278589.51 278589.51 0 0 1 74014382.00 23484796.00 L 74250602.00 23484796.00 A 278589.51 278589.51 0 0 1 74250602.00 24042002.00  zM 72695492.89 26601994.08 m -191318.92 0 a 191318.92 191318.92 0 1 1 382637.84 0a 191318.92 191318.92 0 1 1 -382637.84 0M 74250602.00 27443601.00 L 74014382.00 27443601.00 A 278596.85 278596.85 0 0 1 74014382.00 26886395.00 L 74250602.00 26886395.00 A 278596.85 278596.85 0 0 1 74250602.00 27443601.00  zM 70553431.00 27711886.00 L 69567921.00 27711886.00 L 69567921.00 27041336.00 L 70553431.00 27041336.00 L 70553431.00 27711886.00  zM 71897508.00 28966662.00 L 71217508.00 28966662.00 L 71217508.00 28386662.00 L 71897508.00 28386662.00 L 71897508.00 28966662.00  zM 70553431.00 29161887.00 L 69567921.00 29161887.00 L 69567921.00 28491337.00 L 70553431.00 28491337.00 L 70553431.00 29161887.00  zM 70553431.00 30261888.00 L 69567921.00 30261888.00 L 69567921.00 29591338.00 L 70553431.00 29591338.00 L 70553431.00 30261888.00  zM 72016530.00 28079439.00 L 71636530.00 28079439.00 L 71636530.00 27699439.00 L 72016530.00 27699439.00 L 72016530.00 28079439.00  zM 72528342.00 28079439.00 L 72148342.00 28079439.00 L 72148342.00 27699439.00 L 72528342.00 27699439.00 L 72528342.00 28079439.00  zM 72752506.00 28966662.00 L 72362506.00 28966662.00 L 72217506.00 28821662.00 L 72217506.00 28531662.00 L 72362506.00 28386662.00 L 72752506.00 28386662.00 L 72897506.00 28531662.00 L 72897506.00 28821662.00 L 72752506.00 28966662.00  zM 70553431.00 33680390.00 L 69567921.00 33680390.00 L 69567921.00 33009840.00 L 70553431.00 33009840.00 L 70553431.00 33680390.00  zM 70553431.00 35130391.00 L 69567921.00 35130391.00 L 69567921.00 34459841.00 L 70553431.00 34459841.00 L 70553431.00 35130391.00  zM 71897508.00 34935166.00 L 71217508.00 34935166.00 L 71217508.00 34355166.00 L 71897508.00 34355166.00 L 71897508.00 34935166.00  zM 72066601.00 34047941.00 L 71686601.00 34047941.00 L 71686601.00 33667941.00 L 72066601.00 33667941.00 L 72066601.00 34047941.00  zM 72578413.00 34047942.00 L 72198413.00 34047942.00 L 72198413.00 33667942.00 L 72578413.00 33667942.00 L 72578413.00 34047942.00  zM 72752506.00 34935166.00 L 72362506.00 34935166.00 L 72217506.00 34790166.00 L 72217506.00 34500166.00 L 72362506.00 34355166.00 L 72752506.00 34355166.00 L 72897506.00 34500166.00 L 72897506.00 34790166.00 L 72752506.00 34935166.00  zM 55148688.00 39935486.00 L 54005696.00 39935486.00 L 54005696.00 39461786.00 L 55148688.00 39461786.00 L 55148688.00 39935486.00  zM 54911838.00 41711780.00 L 54242546.00 41711780.00 A 241485.30 241485.30 0 0 1 54242546.00 41228800.00 L 54911838.00 41228800.00 A 241485.30 241485.30 0 0 1 54911838.00 41711780.00  zM 58376404.00 39940126.00 L 57707112.00 39940126.00 A 241485.30 241485.30 0 0 1 57707112.00 39457146.00 L 58376404.00 39457146.00 A 241485.30 241485.30 0 0 1 58376404.00 39940126.00  zM 58376404.00 41711780.00 L 57707112.00 41711780.00 A 241485.30 241485.30 0 0 1 57707112.00 41228800.00 L 58376404.00 41228800.00 A 241485.30 241485.30 0 0 1 58376404.00 41711780.00  zM 60463649.00 39935486.00 L 59320657.00 39935486.00 L 59320657.00 39461786.00 L 60463649.00 39461786.00 L 60463649.00 39935486.00  zM 60226799.00 41711780.00 L 59557507.00 41711780.00 A 241485.30 241485.30 0 0 1 59557507.00 41228800.00 L 60226799.00 41228800.00 A 241485.30 241485.30 0 0 1 60226799.00 41711780.00  zM 63691365.00 39940126.00 L 63022073.00 39940126.00 A 241485.30 241485.30 0 0 1 63022073.00 39457146.00 L 63691365.00 39457146.00 A 241485.30 241485.30 0 0 1 63691365.00 39940126.00  zM 65710871.00 36230392.00 L 64725361.00 36230392.00 L 64725361.00 35559842.00 L 65710871.00 35559842.00 L 65710871.00 36230392.00  zM 65710871.00 39648894.00 L 64725361.00 39648894.00 L 64725361.00 38978344.00 L 65710871.00 38978344.00 L 65710871.00 39648894.00  zM 65710871.00 41098895.00 L 64725361.00 41098895.00 L 64725361.00 40428345.00 L 65710871.00 40428345.00 L 65710871.00 41098895.00  zM 63691365.00 41711780.00 L 63022073.00 41711780.00 A 241485.30 241485.30 0 0 1 63022073.00 41228800.00 L 63691365.00 41228800.00 A 241485.30 241485.30 0 0 1 63691365.00 41711780.00  zM 66773445.28 41429622.31 m -221422.69 0 a 221422.69 221422.69 0 1 1 442845.38 0a 221422.69 221422.69 0 1 1 -442845.38 0M 68505445.28 41429622.31 m -221422.69 0 a 221422.69 221422.69 0 1 1 442845.38 0a 221422.69 221422.69 0 1 1 -442845.38 0M 55148689.00 45903990.00 L 54005697.00 45903990.00 L 54005697.00 45430290.00 L 55148689.00 45430290.00 L 55148689.00 45903990.00  zM 54911839.00 47680284.00 L 54242547.00 47680284.00 A 241485.30 241485.30 0 1 1 54242547.00 47197304.00 L 54911839.00 47197304.00 A 241485.30 241485.30 0 0 1 54911839.00 47680284.00  zM 58376405.00 45908630.00 L 57707113.00 45908630.00 A 241485.30 241485.30 0 1 1 57707113.00 45425650.00 L 58376405.00 45425650.00 A 241485.30 241485.30 0 0 1 58376405.00 45908630.00  zM 58376405.00 47680284.00 L 57707113.00 47680284.00 A 241485.30 241485.30 0 1 1 57707113.00 47197304.00 L 58376405.00 47197304.00 A 241485.30 241485.30 0 0 1 58376405.00 47680284.00  zM 60463649.00 45903990.00 L 59320657.00 45903990.00 L 59320657.00 45430290.00 L 60463649.00 45430290.00 L 60463649.00 45903990.00  zM 60443335.01 46816961.89 m -377882.11 0 a 377882.11 377882.11 0 1 1 755764.21 0a 377882.11 377882.11 0 1 1 -755764.21 0M 60226799.00 47680284.00 L 59557507.00 47680284.00 A 241485.30 241485.30 0 0 1 59557507.00 47197304.00 L 60226799.00 47197304.00 A 241485.30 241485.30 0 1 1 60226799.00 47680284.00  zM 65710871.00 42198896.00 L 64725361.00 42198896.00 L 64725361.00 41528346.00 L 65710871.00 41528346.00 L 65710871.00 42198896.00  zM 63691365.00 45908630.00 L 63022073.00 45908630.00 A 241485.30 241485.30 0 1 1 63022073.00 45425650.00 L 63691365.00 45425650.00 A 241485.30 241485.30 0 0 1 63691365.00 45908630.00  zM 66478608.00 45903990.00 L 65335616.00 45903990.00 L 65335616.00 45430290.00 L 66478608.00 45430290.00 L 66478608.00 45903990.00  zM 62805539.01 46816961.89 m -377882.11 0 a 377882.11 377882.11 0 1 1 755764.21 0a 377882.11 377882.11 0 1 1 -755764.21 0M 63691365.00 47680284.00 L 63022073.00 47680284.00 A 241485.30 241485.30 0 1 1 63022073.00 47197304.00 L 63691365.00 47197304.00 A 241485.30 241485.30 0 0 1 63691365.00 47680284.00  zM 66241758.00 47680284.00 L 65572466.00 47680284.00 A 241485.30 241485.30 0 1 1 65572466.00 47197304.00 L 66241758.00 47197304.00 A 241485.30 241485.30 0 0 1 66241758.00 47680284.00  zM 70553431.00 36230392.00 L 69567921.00 36230392.00 L 69567921.00 35559842.00 L 70553431.00 35559842.00 L 70553431.00 36230392.00  zM 71991569.00 38938888.00 L 71611569.00 38938888.00 L 71611569.00 38558888.00 L 71991569.00 38558888.00 L 71991569.00 38938888.00  zM 70553431.00 39648894.00 L 69567921.00 39648894.00 L 69567921.00 38978344.00 L 70553431.00 38978344.00 L 70553431.00 39648894.00  zM 72503381.00 38938888.00 L 72123381.00 38938888.00 L 72123381.00 38558888.00 L 72503381.00 38558888.00 L 72503381.00 38938888.00  zM 74472469.01 36964992.89 m -377882.11 0 a 377882.11 377882.11 0 1 1 755764.21 0a 377882.11 377882.11 0 1 1 -755764.21 0M 74472469.01 37964993.89 m -377882.11 0 a 377882.11 377882.11 0 1 1 755764.21 0a 377882.11 377882.11 0 1 1 -755764.21 0M 74472469.01 38964991.89 m -377882.11 0 a 377882.11 377882.11 0 1 1 755764.21 0a 377882.11 377882.11 0 1 1 -755764.21 0M 70553431.00 41098895.00 L 69567921.00 41098895.00 L 69567921.00 40428345.00 L 70553431.00 40428345.00 L 70553431.00 41098895.00  zM 71897507.00 39826271.00 L 71217507.00 39826271.00 L 71217507.00 39246271.00 L 71897507.00 39246271.00 L 71897507.00 39826271.00  zM 71991569.00 41093613.00 L 71611569.00 41093613.00 L 71611569.00 40713613.00 L 71991569.00 40713613.00 L 71991569.00 41093613.00  zM 72752507.00 39826271.00 L 72362507.00 39826271.00 L 72217507.00 39681271.00 L 72217507.00 39391271.00 L 72362507.00 39246271.00 L 72752507.00 39246271.00 L 72897507.00 39391271.00 L 72897507.00 39681271.00 L 72752507.00 39826271.00  zM 72503381.00 41093613.00 L 72123381.00 41093613.00 L 72123381.00 40713613.00 L 72503381.00 40713613.00 L 72503381.00 41093613.00  zM 74847113.00 40339642.00 L 74097823.00 40339642.00 L 74097823.00 39590352.00 L 74847113.00 39590352.00 L 74847113.00 40339642.00  zM 71897507.00 41981069.00 L 71217507.00 41981069.00 L 71217507.00 41401069.00 L 71897507.00 41401069.00 L 71897507.00 41981069.00  zM 72752507.00 41981069.00 L 72362507.00 41981069.00 L 72217507.00 41836069.00 L 72217507.00 41546069.00 L 72362507.00 41401069.00 L 72752507.00 41401069.00 L 72897507.00 41546069.00 L 72897507.00 41836069.00 L 72752507.00 41981069.00  zM 70553431.00 42198896.00 L 69567921.00 42198896.00 L 69567921.00 41528346.00 L 70553431.00 41528346.00 L 70553431.00 42198896.00  zM 72578477.00 45204966.00 L 72198477.00 45204966.00 L 72198477.00 44824966.00 L 72578477.00 44824966.00 L 72578477.00 45204966.00  zM 72066665.00 45204966.00 L 71686665.00 45204966.00 L 71686665.00 44824966.00 L 72066665.00 44824966.00 L 72066665.00 45204966.00  zM 72578477.00 45854966.00 L 72198477.00 45854966.00 L 72198477.00 45474966.00 L 72578477.00 45474966.00 L 72578477.00 45854966.00  zM 72066665.00 45854966.00 L 71686665.00 45854966.00 L 71686665.00 45474966.00 L 72066665.00 45474966.00 L 72066665.00 45854966.00  zM 69706324.00 45908630.00 L 69037032.00 45908630.00 A 241485.30 241485.30 0 0 1 69037032.00 45425650.00 L 69706324.00 45425650.00 A 241485.30 241485.30 0 1 1 69706324.00 45908630.00  zM 69706324.00 47680284.00 L 69037032.00 47680284.00 A 241485.30 241485.30 0 0 1 69037032.00 47197304.00 L 69706324.00 47197304.00 A 241485.30 241485.30 0 1 1 69706324.00 47680284.00  zM 71802782.00 47100023.00 L 71132232.00 47100023.00 L 71132232.00 46705063.00 L 71802782.00 46705063.00 L 71802782.00 47100023.00  zM 71802782.00 46529155.00 L 71132232.00 46529155.00 L 71132232.00 46134195.00 L 71802782.00 46134195.00 L 71802782.00 46529155.00  zM 73132782.00 46529155.00 L 72462232.00 46529155.00 L 72462232.00 46134195.00 L 73132782.00 46134195.00 L 73132782.00 46529155.00  zM 73132782.00 47100023.00 L 72462232.00 47100023.00 L 72462232.00 46705063.00 L 73132782.00 46705063.00 L 73132782.00 47100023.00  z"/>
</g>
</svg>
