<svg width="58.00704934mm" height="77.58152124mm" viewBox="0 0 22837421 30543906"  version="1.1" xmlns="http://www.w3.org/2000/svg" xmlns:xlink="http://www.w3.org/1999/xlink">
<desc>
Origin 52372468 49564998 Bound 52371080 19721092 22837421 30543906
</desc>
<g fill-rule="evenodd" fill="rgb(255, 255, 0)" stroke="black" stroke-width="1" transform="translate(0, 30543906) scale(1, -1) translate(-52371080, -19721092)">
<path id="N" d="M 75211223.00 27164979.00 L 75211232.00 23763418.00 L 75195381.00 23725149.00 L 75157102.00 23709298.00 L 72126592.00 23709298.00 L 72088323.00 23725149.00 L 72072472.00 23763418.00 L 72072472.00 27164977.00 L 72088323.00 27203246.00 L 72126592.00 27219097.00 L 75157103.00 27219099.00 L 75195372.00 27203248.00 L 75211223.00 27164979.00  zM 75102983.14 27110858.96 L 72180712.00 27110857.04 L 72180712.00 26698208.00 L 72582213.90 26698208.00 L 72556419.00 26659603.00 L 72544960.00 26601997.00 L 72547352.81 26589968.00 L 72180712.00 26589968.00 L 72180712.00 26009228.11 L 72563762.00 26009228.89 L 72563762.00 26533401.37 L 72589050.00 26495555.00 L 72637886.00 26462924.00 L 72672002.00 26456137.64 L 72672002.00 25955109.00 L 72656151.00 25916840.00 L 72617882.00 25900989.00 L 72180712.00 25900988.11 L 72180712.00 25026197.89 L 72618722.00 25026197.00 L 72656991.00 25010346.00 L 72672842.00 24972077.00 L 72672842.00 24472424.46 L 72637886.00 24465471.00 L 72589050.00 24432840.00 L 72564602.00 24396250.79 L 72564602.00 24917957.11 L 72180712.00 24917957.89 L 72180712.00 24337217.11 L 72547112.29 24337217.85 L 72544960.00 24326398.00 L 72556419.00 24268792.00 L 72583021.77 24228977.93 L 72180712.00 24228977.11 L 72180712.00 23817538.00 L 75102991.86 23817538.00 L 75102983.14 27110858.96  z"/>
<path id="N" d="M 57806056.00 27570613.00 L 57818737.00 27539998.00 L 57818737.00 27139998.00 L 57806056.00 27109383.00 L 57775441.00 27096702.00 L 57773265.26 27097603.21 A 155197.26 155197.26 0 0 1 57773266.56 26782393.33 L 57775441.00 26783294.00 L 57806056.00 26770613.00 L 57818737.00 26739998.00 L 57818737.00 26339998.00 L 57806056.00 26309383.00 L 57775441.00 26296702.00 L 53838433.00 26297384.00 L 53808300.00 26309865.00 L 53795819.00 26339998.00 L 53795819.00 27539998.00 L 53808300.00 27570131.00 L 53838433.00 27582612.00 L 57775441.00 27583294.00 L 57806056.00 27570613.00  zM 57732145.00 27497384.00 L 53881047.00 27497384.00 L 53881047.00 26382612.00 L 57732145.00 26382612.00 L 57732145.00 26703908.03 L 57681797.00 26713923.00 A 244705.54 244705.54 0 0 0 57681798.00 27166074.00 L 57732145.00 27176088.77 L 57732145.00 27497384.00  z"/>
<path id="N" d="M 57806056.00 30795614.00 L 57818737.00 30764999.00 L 57818737.00 30364998.00 L 57806056.00 30334383.00 L 57775441.00 30321702.00 L 57773265.26 30322603.21 A 155197.26 155197.26 0 0 1 57773266.56 30007393.33 L 57775441.00 30008294.00 L 57806056.00 29995613.00 L 57818737.00 29964998.00 L 57818737.00 29564997.00 L 57806056.00 29534382.00 L 57775441.00 29521701.00 L 53838433.00 29522383.00 L 53808300.00 29534864.00 L 53795819.00 29564997.00 L 53795819.00 30764999.00 L 53808300.00 30795132.00 L 53838433.00 30807613.00 L 57775441.00 30808295.00 L 57806056.00 30795614.00  zM 57732145.00 30722385.00 L 53881047.00 30722385.00 L 53881047.00 29607611.00 L 57732145.00 29607611.00 L 57732145.00 29928908.03 L 57681797.00 29938923.00 A 244705.54 244705.54 0 0 0 57681798.00 30391074.00 L 57732145.00 30401088.77 L 57732145.00 30722385.00  z"/>
<path id="N" d="M 57806056.00 24345614.00 L 57818737.00 24314999.00 L 57818737.00 23914998.00 L 57806056.00 23884383.00 L 57775441.00 23871702.00 L 57773265.26 23872603.21 A 155197.26 155197.26 0 0 1 57773266.56 23557393.33 L 57775441.00 23558294.00 L 57806056.00 23545613.00 L 57818737.00 23514998.00 L 57818737.00 23114997.00 L 57806056.00 23084382.00 L 57775441.00 23071701.00 L 53838433.00 23072383.00 L 53808300.00 23084864.00 L 53795819.00 23114997.00 L 53795819.00 24314999.00 L 53808300.00 24345132.00 L 53838433.00 24357613.00 L 57775441.00 24358295.00 L 57806056.00 24345614.00  zM 57732145.00 24272385.00 L 53881047.00 24272385.00 L 53881047.00 23157611.00 L 57732145.00 23157611.00 L 57732145.00 23478908.03 L 57681797.00 23488923.00 A 244705.54 244705.54 0 0 0 57681798.00 23941074.00 L 57732145.00 23951088.77 L 57732145.00 24272385.00  z"/>
<path id="N" d="M 60751595.00 24495137.00 L 60764076.00 24465082.00 L 60765082.00 23915002.00 L 60752601.00 23884869.00 L 60722301.12 23872490.90 L 60720148.09 23873378.08 A 156678.98 156678.98 0 0 1 60719572.09 23556744.50 L 60721681.00 23557618.00 L 60751814.00 23545137.00 L 60764295.00 23515004.00 L 60764295.00 22965004.00 L 60751814.00 22934871.00 L 60721681.00 22922390.00 L 58123256.00 22922390.00 L 58093123.00 22934871.00 L 58080642.00 22965004.00 L 58080642.00 24465004.00 L 58093123.00 24495137.00 L 58123256.00 24507618.00 L 60721462.00 24507618.00 L 60751595.00 24495137.00  zM 60678925.80 24422390.00 L 58165870.00 24422390.00 L 58165870.00 23007618.00 L 60679067.00 23007618.00 L 60679067.00 23479420.44 L 60628283.00 23489522.00 A 244069.20 244069.20 0 0 0 60628283.00 23940486.00 L 60679788.51 23950731.07 L 60678925.80 24422390.00  z"/>
<path id="N" d="M 61509021.00 25207392.00 L 61521702.00 25176777.00 L 61521702.00 24153155.00 L 61509021.00 24122540.00 L 61478406.00 24109859.00 L 60966594.00 24109859.00 L 60935979.00 24122540.00 L 60923298.00 24153155.00 L 60923298.00 25004250.33 L 60917599.00 24975599.00 A 102973.29 102973.29 0 1 0 60917599.00 25054409.00 L 60923298.00 25025757.67 L 60923298.00 25176777.00 L 60935979.00 25207392.00 L 60966594.00 25220073.00 L 61478406.00 25220073.00 L 61509021.00 25207392.00  zM 61435110.00 25133481.00 L 61009890.00 25133481.00 L 61009890.00 24196451.00 L 61435110.00 24196451.00 L 61435110.00 25133481.00  z"/>
<path id="N" d="M 58497954.00 34525211.00 L 58510435.00 34495078.00 L 58502962.89 34477038.00 L 59357822.00 34477038.00 L 59380421.00 34467677.00 L 59389782.00 34445078.00 L 59389782.00 32945078.00 L 59380421.00 32922479.00 L 59357822.00 32913118.00 L 58057822.00 32913118.00 L 58035223.00 32922479.00 L 58025862.00 32945078.00 L 58025862.00 34005794.56 L 58017821.00 34002464.00 L 57987688.00 34014945.00 L 57975207.00 34045078.00 L 57975207.00 34495078.00 L 57987688.00 34525211.00 L 58017821.00 34537692.00 L 58022821.00 34535621.01 L 58027821.00 34537692.00 L 58467821.00 34537692.00 L 58497954.00 34525211.00  zM 59325862.00 34413118.00 L 58089782.00 34413118.00 L 58089782.00 32977038.00 L 59325862.00 32977038.00 L 59325862.00 34413118.00  z"/>
<path id="N" d="M 74864826.00 32045132.00 L 74994826.00 31915132.00 L 75007307.00 31884996.59 L 75007306.00 31344997.00 L 74994823.29 31314863.29 L 74864826.00 31184865.00 L 74834693.00 31172384.00 L 74184693.00 31172385.00 L 74154560.00 31184866.00 L 74142079.00 31214999.00 L 74154560.00 31245132.00 L 74184693.00 31257613.00 L 74817041.12 31257612.03 L 74922078.03 31362648.13 L 74922078.97 31867347.94 L 74817041.12 31972384.97 L 74184693.00 31972384.00 L 74154560.00 31984865.00 L 74142079.00 32014998.00 L 74154560.00 32045131.00 L 74184693.00 32057612.00 L 74834693.00 32057613.00 L 74864826.00 32045132.00  z"/>
<path id="N" d="M 74864826.00 29345131.00 L 74994825.00 29215131.00 L 75007306.00 29184998.00 L 75007306.00 28644998.00 L 74994825.00 28614865.00 L 74864826.00 28484865.00 L 74834693.00 28472384.00 L 74184693.00 28472384.00 L 74154560.00 28484865.00 L 74142079.00 28514998.00 L 74154560.00 28545131.00 L 74184693.00 28557612.00 L 74817041.00 28557612.00 L 74922078.00 28662649.00 L 74922078.00 29167347.00 L 74817041.00 29272384.00 L 74184693.00 29272384.00 L 74154560.00 29284865.00 L 74142079.00 29314998.00 L 74154560.00 29345131.00 L 74184693.00 29357612.00 L 74834693.00 29357612.00 L 74864826.00 29345131.00  z"/>
<path id="N" d="M 58739555.00 32677991.00 L 58749066.00 32655030.00 L 58749066.00 32596478.32 L 58769553.00 32587993.00 L 58779065.00 32565032.00 L 58769555.00 32542071.00 L 58749066.00 32533583.07 L 58749066.00 32475030.00 L 58739555.00 32452069.00 L 58716594.00 32442558.00 L 58693633.00 32452069.00 L 58684122.00 32475030.00 L 58684122.00 32533581.96 L 58663633.00 32542069.00 L 58654122.00 32565030.00 L 58663633.00 32587991.00 L 58684122.00 32596478.04 L 58684122.00 32655030.00 L 58693633.00 32677991.00 L 58716594.00 32687502.00 L 58739555.00 32677991.00  z"/>
<path id="N" d="M 61495429.00 22627959.00 L 61504940.00 22604998.00 L 61504940.00 22546446.04 L 61525429.00 22537959.00 L 61534940.00 22514998.00 L 61525429.00 22492037.00 L 61504940.00 22483549.96 L 61504940.00 22424998.00 L 61495429.00 22402037.00 L 61472468.00 22392526.00 L 61449507.00 22402037.00 L 61439996.00 22424998.00 L 61439996.00 22483549.96 L 61419507.00 22492037.00 L 61409996.00 22514998.00 L 61419507.00 22537959.00 L 61439996.00 22546446.04 L 61439996.00 22604998.00 L 61449507.00 22627959.00 L 61472468.00 22637470.00 L 61495429.00 22627959.00  z"/>
<path id="N" d="M 73230637.93 38186532.12 L 73187377.93 38186532.11 L 73103329.96 37983828.09 L 73187378.00 37782978.11 L 73230638.00 37782978.12 L 73230638.01 37714998.12 L 73144736.01 37714998.10 L 73067485.98 37897926.09 L 72990236.01 37714998.07 L 72906806.01 37714998.06 L 72906806.00 37782978.06 L 72947594.00 37782978.07 L 73031641.96 37983828.08 L 72947593.93 38186532.07 L 72906805.93 38186532.06 L 72906805.92 38254512.06 L 72990235.92 38254512.07 L 73067485.95 38069112.09 L 73144735.92 38254512.10 L 73230637.92 38254512.12 L 73230637.93 38186532.12  z"/>
<path id="N" d="M 57295429.00 21977959.00 L 57304940.00 21954998.00 L 57304940.00 21896446.04 L 57325429.00 21887959.00 L 57334940.00 21864998.00 L 57325429.00 21842037.00 L 57304940.00 21833549.96 L 57304940.00 21774998.00 L 57295429.00 21752037.00 L 57272468.00 21742526.00 L 57249507.00 21752037.00 L 57239996.00 21774998.00 L 57239996.00 21833549.96 L 57219507.00 21842037.00 L 57209996.00 21864998.00 L 57219507.00 21887959.00 L 57239996.00 21896446.04 L 57239996.00 21954998.00 L 57249507.00 21977959.00 L 57272468.00 21987470.00 L 57295429.00 21977959.00  z"/>
<path id="N" d="M 57395429.00 32077960.00 L 57404940.00 32054999.00 L 57404940.33 31996446.60 L 57425428.00 31987961.00 L 57434940.00 31965000.00 L 57425430.00 31942039.00 L 57404940.67 31933550.93 L 57404941.00 31874998.00 L 57395430.00 31852037.00 L 57372469.00 31842526.00 L 57349508.00 31852037.00 L 57339997.00 31874998.00 L 57339996.67 31933549.68 L 57319507.00 31942037.00 L 57309996.00 31964998.00 L 57319507.00 31987959.00 L 57339996.33 31996446.17 L 57339996.00 32054999.00 L 57349507.00 32077960.00 L 57372468.00 32087471.00 L 57395429.00 32077960.00  z"/>
<path id="N" d="M 58745429.00 34977959.00 L 58754940.00 34954998.00 L 58754940.00 34896446.04 L 58775429.00 34887959.00 L 58784940.00 34864998.00 L 58775429.00 34842037.00 L 58754940.00 34833549.96 L 58754940.00 34774998.00 L 58745429.00 34752037.00 L 58722468.00 34742526.00 L 58699507.00 34752037.00 L 58689996.00 34774998.00 L 58689996.00 34833549.68 L 58669509.00 34842035.00 L 58659997.00 34864996.00 L 58669507.00 34887957.00 L 58689996.00 34896444.93 L 58689996.00 34954998.00 L 58699507.00 34977959.00 L 58722468.00 34987470.00 L 58745429.00 34977959.00  z"/>
<path id="N" d="M 72745429.00 29967959.00 L 72753916.04 29947470.00 L 72812468.00 29947470.00 L 72835429.00 29937959.00 L 72844940.00 29914998.00 L 72835429.00 29892037.00 L 72812468.00 29882526.00 L 72753916.04 29882526.00 L 72745429.00 29862037.00 L 72722468.00 29852526.00 L 72699507.00 29862037.00 L 72691019.96 29882526.00 L 72632468.00 29882526.00 L 72609507.00 29892037.00 L 72599996.00 29914998.00 L 72609507.00 29937959.00 L 72632468.00 29947470.00 L 72691019.96 29947470.00 L 72699507.00 29967959.00 L 72722468.00 29977470.00 L 72745429.00 29967959.00  z"/>
<path id="N" d="M 58745429.00 35577960.00 L 58754940.00 35554999.00 L 58754940.00 35496446.04 L 58775429.00 35487959.00 L 58784940.00 35464998.00 L 58775429.00 35442037.00 L 58754940.00 35433549.96 L 58754940.00 35374997.00 L 58745429.00 35352036.00 L 58722468.00 35342525.00 L 58699507.00 35352036.00 L 58689996.00 35374997.00 L 58689996.00 35433549.96 L 58669507.00 35442037.00 L 58659996.00 35464998.00 L 58669507.00 35487959.00 L 58689996.00 35496446.04 L 58689996.00 35554999.00 L 58699507.00 35577960.00 L 58722468.00 35587471.00 L 58745429.00 35577960.00  z"/>
<path id="N" d="M 54545429.00 36877960.00 L 54554940.00 36854999.00 L 54554939.67 36796446.17 L 54575429.00 36787959.00 L 54584940.00 36764998.00 L 54575429.00 36742037.00 L 54554939.33 36733549.68 L 54554939.00 36674998.00 L 54545428.00 36652037.00 L 54522467.00 36642526.00 L 54499506.00 36652037.00 L 54489995.00 36674998.00 L 54489995.33 36733550.93 L 54469506.00 36742039.00 L 54459996.00 36765000.00 L 54469508.00 36787961.00 L 54489995.67 36796446.60 L 54489996.00 36854999.00 L 54499507.00 36877960.00 L 54522468.00 36887471.00 L 54545429.00 36877960.00  z"/>
<path id="N" d="M 58445429.00 25977959.00 L 58454940.00 25954998.00 L 58454940.00 25896446.04 L 58475429.00 25887959.00 L 58484940.00 25864998.00 L 58475429.00 25842037.00 L 58454940.00 25833549.96 L 58454940.00 25774998.00 L 58445429.00 25752037.00 L 58422468.00 25742526.00 L 58399507.00 25752037.00 L 58389996.00 25774998.00 L 58389996.00 25833549.96 L 58369507.00 25842037.00 L 58359996.00 25864998.00 L 58369507.00 25887959.00 L 58389996.00 25896446.04 L 58389996.00 25954998.00 L 58399507.00 25977959.00 L 58422468.00 25987470.00 L 58445429.00 25977959.00  z"/>
<path id="N" d="M 73231873.93 39136532.12 L 73188613.93 39136532.11 L 73104565.96 38933828.09 L 73188614.00 38732978.11 L 73231874.00 38732978.12 L 73231874.01 38664998.12 L 73145972.01 38664998.10 L 73068721.98 38847926.09 L 72991472.01 38664998.07 L 72908042.01 38664998.06 L 72908042.00 38732978.06 L 72948830.00 38732978.07 L 73032877.96 38933828.08 L 72948829.93 39136532.07 L 72908041.93 39136532.06 L 72908041.92 39204512.06 L 72991471.92 39204512.07 L 73068721.95 39019112.09 L 73145971.92 39204512.10 L 73231873.92 39204512.12 L 73231873.93 39136532.12  z"/>
<path id="N" d="M 58445429.00 29177959.00 L 58454940.00 29154998.00 L 58454940.00 29096446.04 L 58475429.00 29087959.00 L 58484940.00 29064998.00 L 58475429.00 29042037.00 L 58454940.00 29033549.96 L 58454940.00 28974998.00 L 58445429.00 28952037.00 L 58422468.00 28942526.00 L 58399507.00 28952037.00 L 58389996.00 28974998.00 L 58389996.00 29033549.96 L 58369507.00 29042037.00 L 58359996.00 29064998.00 L 58369507.00 29087959.00 L 58389996.00 29096446.04 L 58389996.00 29154998.00 L 58399507.00 29177959.00 L 58422468.00 29187470.00 L 58445429.00 29177959.00  z"/>
<path id="N" d="M 72866635.93 38195802.05 L 72866635.97 37965288.05 L 72811633.98 37912140.04 L 72801745.98 37912140.04 L 72801746.00 37783596.04 L 72866636.00 37783596.05 L 72866636.01 37715616.05 L 72788150.01 37715616.04 L 72733766.00 37770000.03 L 72733765.98 37912140.03 L 72640447.98 37912140.01 L 72640448.01 37716234.01 L 72572468.01 37716234.00 L 72572467.92 38250804.00 L 72812251.92 38250804.04 L 72866635.93 38195802.05  zM 72798655.93 38182824.04 L 72640447.93 38182824.01 L 72640447.97 37979502.01 L 72798655.97 37979502.04 L 72798655.93 38182824.04  z"/>
<path id="N" d="M 58964926.00 26151551.00 L 58977607.00 26120936.00 L 58977607.00 25609124.00 L 58964926.00 25578509.00 L 58934311.00 25565828.00 L 58572468.00 25565828.00 L 58541853.00 25578509.00 L 58529172.00 25609124.00 L 58541853.00 25639739.00 L 58572468.00 25652420.00 L 58891015.00 25652420.00 L 58891015.00 26077640.00 L 58572468.00 26077640.00 L 58541853.00 26090321.00 L 58529172.00 26120936.00 L 58541853.00 26151551.00 L 58572468.00 26164232.00 L 58934311.00 26164232.00 L 58964926.00 26151551.00  z"/>
<path id="N" d="M 58597209.00 32851519.00 L 58609890.00 32820904.00 L 58597209.00 32790289.00 L 58566594.00 32777608.00 L 58248047.00 32777608.00 L 58248047.00 32352388.00 L 58566594.00 32352388.00 L 58597209.00 32339707.00 L 58609890.00 32309092.00 L 58597209.00 32278477.00 L 58566594.00 32265796.00 L 58204751.00 32265796.00 L 58174136.00 32278477.00 L 58161455.00 32309092.00 L 58161455.00 32820904.00 L 58174136.00 32851519.00 L 58204751.00 32864200.00 L 58566594.00 32864200.00 L 58597209.00 32851519.00  z"/>
<path id="N" d="M 62014926.00 22801551.00 L 62027607.00 22770936.00 L 62027607.00 22259124.00 L 62014926.00 22228509.00 L 61984311.00 22215828.00 L 61622468.00 22215828.00 L 61591853.00 22228509.00 L 61579172.00 22259124.00 L 61591853.00 22289739.00 L 61622468.00 22302420.00 L 61941015.00 22302420.00 L 61941015.00 22727640.00 L 61622468.00 22727640.00 L 61591853.00 22740321.00 L 61579172.00 22770936.00 L 61591853.00 22801551.00 L 61622468.00 22814232.00 L 61984311.00 22814232.00 L 62014926.00 22801551.00  z"/>
<path id="N" d="M 73008957.00 30457456.00 L 73021638.00 30426841.00 L 73021638.00 30064998.00 L 73008957.00 30034383.00 L 72978342.00 30021702.00 L 72947727.00 30034383.00 L 72935046.00 30064998.00 L 72935046.00 30383545.00 L 72509826.00 30383545.00 L 72509826.00 30064998.00 L 72497145.00 30034383.00 L 72466530.00 30021702.00 L 72435915.00 30034383.00 L 72423234.00 30064998.00 L 72423234.00 30426841.00 L 72435915.00 30457456.00 L 72466530.00 30470137.00 L 72978342.00 30470137.00 L 73008957.00 30457456.00  z"/>
<path id="N" d="M 58303083.00 26151551.00 L 58315764.00 26120936.00 L 58303083.00 26090321.00 L 58272468.00 26077640.00 L 57953985.00 26077640.00 L 57953985.00 25652420.00 L 58272468.00 25652420.00 L 58303083.00 25639739.00 L 58315764.00 25609124.00 L 58303083.00 25578509.00 L 58272468.00 25565828.00 L 57910689.00 25565828.00 L 57880074.00 25578509.00 L 57867393.00 25609124.00 L 57867393.00 26120936.00 L 57880074.00 26151551.00 L 57910689.00 26164232.00 L 58272468.00 26164232.00 L 58303083.00 26151551.00  z"/>
<path id="N" d="M 59264926.00 35751551.00 L 59277607.00 35720936.00 L 59277607.00 35209124.00 L 59264926.00 35178509.00 L 59234311.00 35165828.00 L 58872468.00 35165828.00 L 58841853.00 35178509.00 L 58829172.00 35209124.00 L 58841853.00 35239739.00 L 58872468.00 35252420.00 L 59191015.00 35252420.00 L 59191015.00 35677640.00 L 58872469.00 35677640.00 L 58841854.00 35690321.00 L 58829173.00 35720936.00 L 58841854.00 35751551.00 L 58872469.00 35764232.00 L 59234311.00 35764232.00 L 59264926.00 35751551.00  z"/>
<path id="N" d="M 58964926.00 29351551.00 L 58977607.00 29320936.00 L 58977607.00 28809124.00 L 58964926.00 28778509.00 L 58934311.00 28765828.00 L 58572468.00 28765828.00 L 58541853.00 28778509.00 L 58529172.00 28809124.00 L 58541853.00 28839739.00 L 58572468.00 28852420.00 L 58891015.00 28852420.00 L 58891015.00 29277640.00 L 58572468.00 29277640.00 L 58541853.00 29290321.00 L 58529172.00 29320936.00 L 58541853.00 29351551.00 L 58572468.00 29364232.00 L 58934311.00 29364232.00 L 58964926.00 29351551.00  z"/>
<path id="N" d="M 73564826.00 29345131.00 L 73577307.00 29314998.00 L 73564826.00 29284865.00 L 73534693.00 29272384.00 L 72877307.00 29272384.00 L 72877307.00 28557612.00 L 73534693.00 28557612.00 L 73564826.00 28545131.00 L 73577307.00 28514998.00 L 73564826.00 28484865.00 L 73534693.00 28472384.00 L 72834693.00 28472384.00 L 72804560.00 28484865.00 L 72792079.00 28514998.00 L 72792079.00 29314998.00 L 72804560.00 29345131.00 L 72834693.00 29357612.00 L 73534693.00 29357612.00 L 73564826.00 29345131.00  z"/>
<path id="N" d="M 73534694.00 32057611.00 L 73564827.00 32045130.00 L 73577308.00 32014997.00 L 73564827.00 31984864.00 L 73534694.00 31972383.00 L 72877307.00 31972383.94 L 72877307.00 31257612.94 L 73534693.00 31257612.00 L 73564826.00 31245131.00 L 73577307.00 31214998.00 L 73564826.00 31184865.00 L 73534693.00 31172384.00 L 72834693.00 31172385.00 L 72804560.00 31184866.00 L 72792079.00 31214999.00 L 72792079.00 32014998.00 L 72804560.00 32045131.00 L 72834693.00 32057612.00 L 73534694.00 32057611.00  z"/>
<path id="N" d="M 75012601.00 36048831.00 L 75025082.00 36018698.00 L 75025082.00 32731298.00 L 75012601.00 32701165.00 L 74982468.00 32688684.00 L 74182468.00 32688684.00 L 74152335.00 32701165.00 L 74139854.00 32731298.00 L 74152335.00 32761431.00 L 74182468.00 32773912.00 L 74939854.00 32773912.00 L 74939854.00 35976084.00 L 74182468.00 35976084.00 L 74152335.00 35988565.00 L 74139854.00 36018698.00 L 74152335.00 36048831.00 L 74182468.00 36061312.00 L 74982468.00 36061312.00 L 75012601.00 36048831.00  z"/>
<path id="N" d="M 55064926.00 37051551.00 L 55077607.00 37020936.00 L 55077607.00 36509124.00 L 55064926.00 36478509.00 L 55034311.00 36465828.00 L 54672468.00 36465828.00 L 54641853.00 36478509.00 L 54629172.00 36509124.00 L 54641853.00 36539739.00 L 54672468.00 36552420.00 L 54991015.00 36552420.00 L 54991015.00 36977640.00 L 54672467.00 36977640.00 L 54641852.00 36990321.00 L 54629171.00 37020936.00 L 54641852.00 37051551.00 L 54672467.00 37064232.00 L 55034311.00 37064232.00 L 55064926.00 37051551.00  z"/>
<path id="N" d="M 59264926.00 35151551.00 L 59277607.00 35120936.00 L 59277607.00 34609124.00 L 59264926.00 34578509.00 L 59234311.00 34565828.00 L 58872468.00 34565828.00 L 58841853.00 34578509.00 L 58829172.00 34609124.00 L 58841853.00 34639739.00 L 58872468.00 34652420.00 L 59191015.00 34652420.00 L 59191015.00 35077640.00 L 58872468.00 35077640.00 L 58841853.00 35090321.00 L 58829172.00 35120936.00 L 58841853.00 35151551.00 L 58872468.00 35164232.00 L 59234311.00 35164232.00 L 59264926.00 35151551.00  z"/>
<path id="N" d="M 57153083.00 22151487.00 L 57165764.00 22120872.00 L 57153083.00 22090257.00 L 57122468.00 22077576.00 L 56803921.00 22077576.00 L 56803921.00 21652356.00 L 57122468.00 21652356.00 L 57153083.00 21639675.00 L 57165764.00 21609060.00 L 57153083.00 21578445.00 L 57122468.00 21565764.00 L 56760625.00 21565764.00 L 56730010.00 21578445.00 L 56717329.00 21609060.00 L 56717329.00 22120872.00 L 56730010.00 22151487.00 L 56760625.00 22164168.00 L 57122468.00 22164168.00 L 57153083.00 22151487.00  z"/>
<path id="N" d="M 57253084.00 32251487.00 L 57265765.00 32220872.00 L 57253084.00 32190257.00 L 57222469.00 32177576.00 L 56903921.00 32177576.00 L 56903921.00 31752356.12 L 57222468.00 31752357.00 L 57253083.00 31739676.00 L 57265764.00 31709061.00 L 57253083.00 31678446.00 L 57222468.00 31665765.00 L 56860625.00 31665764.00 L 56830010.00 31678445.00 L 56817329.00 31709060.00 L 56817329.00 32220872.00 L 56830010.00 32251487.00 L 56860625.00 32264168.00 L 57222469.00 32264168.00 L 57253084.00 32251487.00  z"/>
<path id="N" d="M 54403082.00 37051551.00 L 54415763.00 37020936.00 L 54403082.00 36990321.00 L 54372467.00 36977640.00 L 54053985.00 36977640.00 L 54053985.00 36552420.00 L 54372468.00 36552420.00 L 54403083.00 36539739.00 L 54415764.00 36509124.00 L 54403083.00 36478509.00 L 54372468.00 36465828.00 L 54010689.00 36465828.00 L 53980074.00 36478509.00 L 53967393.00 36509124.00 L 53967393.00 37020936.00 L 53980074.00 37051551.00 L 54010689.00 37064232.00 L 54372467.00 37064232.00 L 54403082.00 37051551.00  z"/>
<path id="N" d="M 57814862.00 22151487.00 L 57827543.00 22120872.00 L 57827543.00 21609060.00 L 57814862.00 21578445.00 L 57784247.00 21565764.00 L 57422468.00 21565764.00 L 57391853.00 21578445.00 L 57379172.00 21609060.00 L 57391853.00 21639675.00 L 57422468.00 21652356.00 L 57740951.00 21652356.00 L 57740951.00 22077576.00 L 57422468.00 22077576.00 L 57391853.00 22090257.00 L 57379172.00 22120872.00 L 57391853.00 22151487.00 L 57422468.00 22164168.00 L 57784247.00 22164168.00 L 57814862.00 22151487.00  z"/>
<path id="N" d="M 58603082.00 35751551.00 L 58615763.00 35720936.00 L 58603082.00 35690321.00 L 58572467.00 35677640.00 L 58253985.00 35677640.00 L 58253985.00 35252420.00 L 58572468.00 35252420.00 L 58603083.00 35239739.00 L 58615764.00 35209124.00 L 58603083.00 35178509.00 L 58572468.00 35165828.00 L 58210689.00 35165828.00 L 58180074.00 35178509.00 L 58167393.00 35209124.00 L 58167393.00 35720936.00 L 58180074.00 35751551.00 L 58210689.00 35764232.00 L 58572467.00 35764232.00 L 58603082.00 35751551.00  z"/>
<path id="N" d="M 72867253.93 37195802.05 L 72867253.95 37049954.05 L 72799891.95 37049954.04 L 72799891.93 37182824.04 L 72640447.93 37182824.01 L 72640448.00 36782978.01 L 72799892.00 36782978.04 L 72799891.98 36922028.04 L 72722641.98 36922028.03 L 72722641.96 36990008.03 L 72867253.96 36990008.05 L 72867254.00 36770000.05 L 72813488.01 36714998.04 L 72626234.01 36714998.01 L 72572468.00 36768764.00 L 72572467.93 37195802.00 L 72626233.92 37250804.01 L 72813487.92 37250804.04 L 72867253.93 37195802.05  z"/>
<path id="N" d="M 57914862.00 32251487.00 L 57927543.00 32220872.00 L 57927543.00 31709060.00 L 57914862.00 31678445.00 L 57884247.00 31665764.00 L 57522468.00 31665765.00 L 57491853.00 31678446.00 L 57479172.00 31709061.00 L 57491853.00 31739676.00 L 57522468.00 31752357.00 L 57840951.00 31752356.12 L 57840951.00 32177576.00 L 57522469.00 32177576.00 L 57491854.00 32190257.00 L 57479173.00 32220872.00 L 57491854.00 32251487.00 L 57522469.00 32264168.00 L 57884247.00 32264168.00 L 57914862.00 32251487.00  z"/>
<path id="N" d="M 58303083.00 29351551.00 L 58315764.00 29320936.00 L 58303083.00 29290321.00 L 58272468.00 29277640.00 L 57953985.00 29277640.00 L 57953985.00 28852420.00 L 58272468.00 28852420.00 L 58303083.00 28839739.00 L 58315764.00 28809124.00 L 58303083.00 28778509.00 L 58272468.00 28765828.00 L 57910689.00 28765828.00 L 57880074.00 28778509.00 L 57867393.00 28809124.00 L 57867393.00 29320936.00 L 57880074.00 29351551.00 L 57910689.00 29364232.00 L 58272468.00 29364232.00 L 58303083.00 29351551.00  z"/>
<path id="N" d="M 58603083.00 35151551.00 L 58615764.00 35120936.00 L 58603083.00 35090321.00 L 58572468.00 35077640.00 L 58253985.00 35077640.00 L 58253985.00 34652420.00 L 58572468.00 34652420.00 L 58603083.00 34639739.00 L 58615764.00 34609124.00 L 58603083.00 34578509.00 L 58572468.00 34565828.00 L 58210689.00 34565828.00 L 58180074.00 34578509.00 L 58167393.00 34609124.00 L 58167393.00 35120936.00 L 58180074.00 35151551.00 L 58210689.00 35164232.00 L 58572468.00 35164232.00 L 58603083.00 35151551.00  z"/>
<path id="N" d="M 73008957.00 29795613.00 L 73021638.00 29764998.00 L 73021638.00 29403219.00 L 73008957.00 29372604.00 L 72978342.00 29359923.00 L 72466530.00 29359923.00 L 72435915.00 29372604.00 L 72423234.00 29403219.00 L 72423234.00 29764998.00 L 72435915.00 29795613.00 L 72466530.00 29808294.00 L 72497145.00 29795613.00 L 72509826.00 29764998.00 L 72509826.00 29446515.00 L 72935046.00 29446515.00 L 72935046.00 29764998.00 L 72947727.00 29795613.00 L 72978342.00 29808294.00 L 73008957.00 29795613.00  z"/>
<path id="N" d="M 59258988.00 32851519.00 L 59271669.00 32820904.00 L 59271669.00 32309092.00 L 59258988.00 32278477.00 L 59228373.00 32265796.00 L 58866594.00 32265796.00 L 58835979.00 32278477.00 L 58823298.00 32309092.00 L 58835979.00 32339707.00 L 58866594.00 32352388.00 L 59185077.00 32352388.00 L 59185077.00 32777608.00 L 58866594.00 32777608.00 L 58835979.00 32790289.00 L 58823298.00 32820904.00 L 58835979.00 32851519.00 L 58866594.00 32864200.00 L 59228373.00 32864200.00 L 59258988.00 32851519.00  z"/>
<path id="N" d="M 61353083.00 22801551.00 L 61365764.00 22770936.00 L 61353083.00 22740321.00 L 61322468.00 22727640.00 L 61003985.00 22727640.00 L 61003985.00 22302420.00 L 61322468.00 22302420.00 L 61353083.00 22289739.00 L 61365764.00 22259124.00 L 61353083.00 22228509.00 L 61322468.00 22215828.00 L 60960689.00 22215828.00 L 60930074.00 22228509.00 L 60917393.00 22259124.00 L 60917393.00 22770936.00 L 60930074.00 22801551.00 L 60960689.00 22814232.00 L 61322468.00 22814232.00 L 61353083.00 22801551.00  z"/>
<path id="N" d="M 72877141.93 40198892.05 L 72877141.96 40015964.05 L 72843151.97 39981356.05 L 72877141.97 39947984.05 L 72877142.00 39768764.05 L 72822758.01 39714998.04 L 72572468.01 39714998.00 L 72572468.00 39782360.00 L 72809780.00 39782360.04 L 72809779.97 39947984.04 L 72579265.97 39947984.00 L 72579265.96 40015964.00 L 72809779.96 40015964.04 L 72809779.93 40184678.04 L 72572467.93 40184678.00 L 72572467.92 40252658.00 L 72822757.92 40252658.04 L 72877141.93 40198892.05  z"/>
<path id="N" d="M 73683013.93 40198892.19 L 73683013.96 40015964.19 L 73649023.97 39981356.19 L 73683013.97 39947984.19 L 73683014.00 39768764.19 L 73628630.01 39714998.18 L 73378340.01 39714998.14 L 73378340.00 39782360.14 L 73615652.00 39782360.18 L 73615651.97 39947984.18 L 73385137.97 39947984.14 L 73385137.96 40015964.14 L 73615651.96 40015964.18 L 73615651.93 40184678.18 L 73378339.93 40184678.14 L 73378339.92 40252658.14 L 73628629.92 40252658.18 L 73683013.93 40198892.19  z"/>
<path id="N" d="M 57089108.00 35474999.00 L 57089108.00 33274999.00 L 57073257.00 33236730.00 L 57034988.00 33220879.00 L 54834987.00 33220879.00 L 54796718.00 33236730.00 L 54780867.00 33274999.00 L 54780867.00 35474999.00 L 54796718.00 35513268.00 L 54834987.00 35529119.00 L 57034988.00 35529119.00 L 57073257.00 35513268.00 L 57089108.00 35474999.00  zM 56980868.00 35420879.00 L 54889107.00 35420879.00 L 54889107.00 33329119.00 L 56980868.00 33329119.00 L 56980868.00 35420879.00  z"/>
<path id="N" d="M 60814926.00 44651551.00 L 60827607.00 44620936.00 L 60827607.00 44109124.00 L 60814926.00 44078509.00 L 60784311.00 44065828.00 L 59760689.00 44065828.00 L 59730074.00 44078509.00 L 59717393.00 44109124.00 L 59717393.00 44620936.00 L 59730074.00 44651551.00 L 59760689.00 44664232.00 L 60784311.00 44664232.00 L 60814926.00 44651551.00  zM 60741015.00 44577640.00 L 59803985.00 44577640.00 L 59803985.00 44152420.00 L 60741015.00 44152420.00 L 60741015.00 44577640.00  z"/>
<path id="N" d="M 63464926.00 44651551.00 L 63477607.00 44620936.00 L 63477607.00 44109124.00 L 63464926.00 44078509.00 L 63434311.00 44065828.00 L 62410689.00 44065828.00 L 62380074.00 44078509.00 L 62367393.00 44109124.00 L 62367393.00 44620936.00 L 62380074.00 44651551.00 L 62410689.00 44664232.00 L 63434311.00 44664232.00 L 63464926.00 44651551.00  zM 63391015.00 44577640.00 L 62453985.00 44577640.00 L 62453985.00 44152420.00 L 63391015.00 44152420.00 L 63391015.00 44577640.00  z"/>
<path id="N" d="M 53623752.00 40189880.00 L 53623752.00 39589880.00 L 53607901.00 39551611.00 L 53569632.00 39535760.00 L 52919632.00 39535760.00 L 52881363.00 39551611.00 L 52865512.00 39589880.00 L 52865512.00 40189880.00 L 52881363.00 40228149.00 L 52919632.00 40244000.00 L 53569632.00 40244000.00 L 53607901.00 40228149.00 L 53623752.00 40189880.00  zM 53515512.00 40135760.00 L 52973752.00 40135760.00 L 52973752.00 39644000.00 L 53515512.00 39644000.00 L 53515512.00 40135760.00  z"/>
<path id="N" d="M 53623752.00 41295313.00 L 53623752.00 40695313.00 L 53607901.00 40657044.00 L 53569632.00 40641193.00 L 52919632.00 40641193.00 L 52881363.00 40657044.00 L 52865512.00 40695313.00 L 52865512.00 41295313.00 L 52881363.00 41333582.00 L 52919632.00 41349433.00 L 53569632.00 41349433.00 L 53607901.00 41333582.00 L 53623752.00 41295313.00  zM 53515512.00 41241193.00 L 52973752.00 41241193.00 L 52973752.00 40749433.00 L 53515512.00 40749433.00 L 53515512.00 41241193.00  z"/>
<path id="N" d="M 75002601.00 40495130.00 L 75015082.00 40464997.00 L 75015082.00 36464997.00 L 75002601.00 36434864.00 L 74972468.00 36422383.00 L 73972468.00 36422383.00 L 73942335.00 36434864.00 L 73929854.00 36464997.00 L 73929854.00 40464997.00 L 73942335.00 40495130.00 L 73972468.00 40507611.00 L 74972468.00 40507611.00 L 75002601.00 40495130.00  zM 74929854.00 40422383.00 L 74015082.00 40422383.00 L 74015082.00 36507611.00 L 74929854.00 36507611.00 L 74929854.00 40422383.00  z"/>
<path id="N" d="M 54469633.28 41725314.28 m -160563.76 0 a 160563.76 160563.76 0 1 1 321127.52 0a 160563.76 160563.76 0 1 1 -321127.52 0"/>
<path id="N" d="M 74489807.00 30551786.00 L 74500903.00 30524998.00 L 74500903.00 30004998.00 L 74489807.00 29978210.00 L 74463019.00 29967114.00 L 73281916.00 29967114.00 L 73255128.00 29978210.00 L 73244032.00 30004998.00 L 73244032.00 30524997.00 L 73255128.00 30551785.00 L 73281916.00 30562881.00 L 74463019.00 30562882.00 L 74489807.00 30551786.00  zM 74425135.00 30487113.97 L 73319800.00 30487113.03 L 73319800.00 30042882.00 L 74425135.00 30042882.00 L 74425135.00 30487113.97  z"/>
<path id="N" d="M 59264926.00 36351551.00 L 59277607.00 36320936.00 L 59277607.00 35809124.00 L 59264926.00 35778509.00 L 59234311.00 35765828.00 L 58210689.00 35765828.00 L 58180074.00 35778509.00 L 58167393.00 35809124.00 L 58167393.00 36320936.00 L 58180074.00 36351551.00 L 58210689.00 36364232.00 L 59234311.00 36364232.00 L 59264926.00 36351551.00  zM 59191015.00 36277640.00 L 58253985.00 36277640.00 L 58253985.00 35852420.00 L 59191015.00 35852420.00 L 59191015.00 36277640.00  z"/>
<path id="N" d="M 74472475.44 30915005.44 m -81557.07 0 a 81557.07 81557.07 0 1 1 163114.14 0a 81557.07 81557.07 0 1 1 -163114.14 0"/>
<path id="N" d="M 72482472.08 33353899.08 m -172443.43 0 a 172443.43 172443.43 0 1 1 344886.87 0a 172443.43 172443.43 0 1 1 -344886.87 0"/>
<path id="N" d="M 56634984.94 33674996.94 m -200709.51 0 a 200709.51 200709.51 0 1 1 401419.02 0a 200709.51 200709.51 0 1 1 -401419.02 0"/>
<path id="N" d="M 57684986.42 32874997.42 m -202313.97 0 a 202313.97 202313.97 0 1 1 404627.93 0a 202313.97 202313.97 0 1 1 -404627.93 0"/>
<path id="N" d="M 57906938.76 24714999.76 m -162370.44 0 a 162370.44 162370.44 0 1 1 324740.88 0a 162370.44 162370.44 0 1 1 -324740.88 0"/>
<path id="N" d="M 57906937.76 27939999.76 m -162370.44 0 a 162370.44 162370.44 0 1 1 324740.88 0a 162370.44 162370.44 0 1 1 -324740.88 0"/>
<path id="N" d="M 57906938.76 31164999.76 m -162370.44 0 a 162370.44 162370.44 0 1 1 324740.88 0a 162370.44 162370.44 0 1 1 -324740.88 0"/>
<path id="N" d="M 73212601.00 36048831.00 L 73225082.00 36018698.00 L 73212601.00 35988565.00 L 73182468.00 35976084.00 L 72875082.00 35976084.00 L 72875082.00 35218698.00 L 72862601.00 35188565.00 L 72832468.00 35176084.00 L 72802335.00 35188565.00 L 72789854.00 35218698.00 L 72789854.00 36018698.00 L 72802335.00 36048831.00 L 72832468.00 36061312.00 L 73182468.00 36061312.00 L 73212601.00 36048831.00  z"/>
<path id="N" d="M 72862601.00 33561431.00 L 72875082.00 33531298.00 L 72875082.00 32773912.00 L 73182468.00 32773912.00 L 73212601.00 32761431.00 L 73225082.00 32731298.00 L 73212601.00 32701165.00 L 73182468.00 32688684.00 L 72832468.00 32688684.00 L 72802335.00 32701165.00 L 72789854.00 32731298.00 L 72789854.00 33531298.00 L 72802335.00 33561431.00 L 72832468.00 33573912.00 L 72862601.00 33561431.00  z"/>
<path id="N" d="M 54163752.00 39419880.00 L 54163752.00 38369880.00 L 54147901.00 38331611.00 L 54109632.00 38315760.00 L 53969632.00 38315760.00 A 54118.70 54118.70 0 1 0 53969632.00 38424000.00 L 54055512.00 38424000.00 L 54055512.00 39419880.00 A 54118.70 54118.70 0 1 0 54163752.00 39419880.00  z"/>
<path id="N" d="M 54163752.00 42575313.00 L 54163752.00 41525313.00 A 54118.70 54118.70 0 0 0 54055512.00 41525313.00 L 54055512.00 42521193.00 L 53969632.00 42521193.00 A 54118.70 54118.70 0 1 0 53969632.00 42629433.00 L 54109632.00 42629433.00 L 54147901.00 42613582.00 L 54163752.00 42575313.00  z"/>
<path id="N" d="M 52446586.00 42564683.00 L 52446586.00 38467439.00 A 54118.70 54118.70 0 1 0 52338346.00 38467439.00 L 52338346.00 42564683.00 A 54118.70 54118.70 0 1 0 52446586.00 42564683.00  z"/>
<path id="N" d="M 73546435.93 37195802.17 L 73546436.00 36770000.17 L 73492670.01 36714998.16 L 73251032.01 36714998.12 L 73251031.92 37250804.12 L 73492669.92 37250804.16 L 73546435.93 37195802.17  zM 73478455.93 37182824.16 L 73319011.93 37182824.13 L 73319012.00 36782978.13 L 73478456.00 36782978.16 L 73478455.93 37182824.16  z"/>
<path id="N" d="M 73210244.01 36715616.11 L 73147208.01 36715616.10 L 72976021.94 37107428.07 L 72976022.01 36715616.07 L 72908042.01 36715616.06 L 72908041.92 37251422.06 L 72977257.92 37251422.07 L 73142263.98 36871970.10 L 73142263.92 37251422.10 L 73210243.92 37251422.11 L 73210244.01 36715616.11  z"/>
<path id="N" d="M 74266484.66 30374998.00 m -64942.34 0 a 64942.34 64942.34 0 1 1 129884.69 0a 64942.34 64942.34 0 1 1 -129884.69 0"/>
<path id="N" d="M 73184906.01 39715616.11 L 73076756.01 39715616.09 L 72946975.92 40251422.07 L 73016191.92 40251422.08 L 73126196.00 39782978.10 L 73134848.00 39782978.10 L 73242379.92 40251422.12 L 73311595.92 40251422.13 L 73184906.01 39715616.11  z"/>
<path id="N" d="M 72867871.93 39133442.05 L 72754777.93 39133442.03 L 72754778.01 38666234.03 L 72686798.01 38666234.02 L 72686797.93 39133442.02 L 72572467.93 39133442.00 L 72572467.92 39201422.00 L 72867871.92 39201422.05 L 72867871.93 39133442.05  z"/>
</g>
</svg>
