<svg width="58.00704934mm" height="77.58152124mm" viewBox="0 0 22837421 30543906"  version="1.1" xmlns="http://www.w3.org/2000/svg" xmlns:xlink="http://www.w3.org/1999/xlink">
<desc>
Origin 52372468 49564998 Bound 52371080 19721092 22837421 30543906
</desc>
<g fill-rule="evenodd" fill="rgb(128, 0, 128)" stroke="black" stroke-width="1" transform="translate(0, 30543906) scale(1, -1) translate(-52371080, -19721092)">
<path id="N" d="M 63922468.00 49564998.00 L 74395823.00 49565065.00 A 905073.01 905073.01 0 0 0 75208431.00 48753707.00 L 75207178.00 20533769.00 A 905044.58 905044.58 0 0 0 74395821.00 19721160.00 L 53183756.00 19722410.00 A 905044.58 905044.58 0 0 0 52371148.00 20533769.00 L 52372399.00 48753708.00 A 905044.58 905044.58 0 0 0 53183758.00 49566317.00 L 59322468.00 49564996.00 L 60022468.00 50264998.00 L 63222468.00 50264998.00 L 63922468.00 49564998.00  zM 53915801.00 22828383.00 L 53915801.00 22434683.00 A 141132.04 141132.04 0 1 1 54198075.00 22434683.00 L 54198075.00 22828383.00 A 141132.04 141132.04 0 1 1 53915801.00 22828383.00  zM 54415800.00 22828383.00 L 54415800.00 22434683.00 A 141132.04 141132.04 0 0 1 54698074.00 22434683.00 L 54698074.00 22828383.00 A 141132.04 141132.04 0 0 1 54415800.00 22828383.00  zM 54915799.00 22828383.00 L 54915799.00 22434683.00 A 141132.04 141132.04 0 1 1 55198073.00 22434683.00 L 55198073.00 22828383.00 A 141132.04 141132.04 0 1 1 54915799.00 22828383.00  zM 55415800.00 22828383.00 L 55415800.00 22434683.00 A 141132.04 141132.04 0 0 1 55698074.00 22434683.00 L 55698074.00 22828383.00 A 141132.04 141132.04 0 0 1 55415800.00 22828383.00  zM 55915800.00 22828383.00 L 55915800.00 22434683.00 A 141132.04 141132.04 0 0 1 56198074.00 22434683.00 L 56198074.00 22828383.00 A 141132.04 141132.04 0 0 1 55915800.00 22828383.00  zM 54915799.00 24995313.00 L 54915799.00 24601613.00 A 141132.04 141132.04 0 1 1 55198073.00 24601613.00 L 55198073.00 24995313.00 A 141132.04 141132.04 0 1 1 54915799.00 24995313.00  zM 57206530.00 22054966.00 L 56826530.00 22054966.00 L 56826530.00 21674966.00 L 57206530.00 21674966.00 L 57206530.00 22054966.00  zM 56415801.00 22828383.00 L 56415801.00 22434683.00 A 141132.04 141132.04 0 0 1 56698075.00 22434683.00 L 56698075.00 22828383.00 A 141132.04 141132.04 0 0 1 56415801.00 22828383.00  zM 56915800.00 22828383.00 L 56915800.00 22434683.00 A 141132.04 141132.04 0 0 1 57198074.00 22434683.00 L 57198074.00 22828383.00 A 141132.04 141132.04 0 0 1 56915800.00 22828383.00  zM 57718342.00 22054966.00 L 57338342.00 22054966.00 L 57338342.00 21674966.00 L 57718342.00 21674966.00 L 57718342.00 22054966.00  zM 58179932.00 22720904.00 L 58179932.00 22346888.00 A 90956.37 90956.37 0 0 1 58361852.00 22346888.00 L 58361852.00 22720904.00 A 90956.37 90956.37 0 1 1 58179932.00 22720904.00  zM 57415799.00 22828383.00 L 57415799.00 22434683.00 A 141132.04 141132.04 0 1 1 57698073.00 22434683.00 L 57698073.00 22828383.00 A 141132.04 141132.04 0 1 1 57415799.00 22828383.00  zM 53915801.00 24995313.00 L 53915801.00 24601613.00 A 141132.04 141132.04 0 1 1 54198075.00 24601613.00 L 54198075.00 24995313.00 A 141132.04 141132.04 0 1 1 53915801.00 24995313.00  zM 54415800.00 24995313.00 L 54415800.00 24601613.00 A 141132.04 141132.04 0 0 1 54698074.00 24601613.00 L 54698074.00 24995313.00 A 141132.04 141132.04 0 0 1 54415800.00 24995313.00  zM 54415800.00 26053383.00 L 54415800.00 25659683.00 A 141132.04 141132.04 0 0 1 54698074.00 25659683.00 L 54698074.00 26053383.00 A 141132.04 141132.04 0 0 1 54415800.00 26053383.00  zM 55415800.00 24995313.00 L 55415800.00 24601613.00 A 141132.04 141132.04 0 0 1 55698074.00 24601613.00 L 55698074.00 24995313.00 A 141132.04 141132.04 0 0 1 55415800.00 24995313.00  zM 54915801.00 26053383.00 L 54915801.00 25659683.00 A 141132.04 141132.04 0 0 1 55198075.00 25659683.00 L 55198075.00 26053383.00 A 141132.04 141132.04 0 0 1 54915801.00 26053383.00  zM 55915799.00 26053383.00 L 55915799.00 25659683.00 A 141132.04 141132.04 0 1 1 56198073.00 25659683.00 L 56198073.00 26053383.00 A 141132.04 141132.04 0 1 1 55915799.00 26053383.00  zM 55915800.00 24995313.00 L 55915800.00 24601613.00 A 141132.04 141132.04 0 0 1 56198074.00 24601613.00 L 56198074.00 24995313.00 A 141132.04 141132.04 0 0 1 55915800.00 24995313.00  zM 56415801.00 24995313.00 L 56415801.00 24601613.00 A 141132.04 141132.04 0 0 1 56698075.00 24601613.00 L 56698075.00 24995313.00 A 141132.04 141132.04 0 0 1 56415801.00 24995313.00  zM 56415800.00 26053383.00 L 56415800.00 25659683.00 A 141132.04 141132.04 0 0 1 56698074.00 25659683.00 L 56698074.00 26053383.00 A 141132.04 141132.04 0 0 1 56415800.00 26053383.00  zM 56915800.00 24995313.00 L 56915800.00 24601613.00 A 141132.04 141132.04 0 0 1 57198074.00 24601613.00 L 57198074.00 24995313.00 A 141132.04 141132.04 0 0 1 56915800.00 24995313.00  zM 57695361.00 25133738.00 L 57418511.00 25133738.00 L 57418511.00 24463188.00 L 57695361.00 24463188.00 L 57695361.00 25133738.00  zM 53915800.00 26053383.00 L 53915800.00 25659683.00 A 141132.04 141132.04 0 0 1 54198074.00 25659683.00 L 54198074.00 26053383.00 A 141132.04 141132.04 0 0 1 53915800.00 26053383.00  zM 55415800.00 26053383.00 L 55415800.00 25659683.00 A 141132.04 141132.04 0 0 1 55698074.00 25659683.00 L 55698074.00 26053383.00 A 141132.04 141132.04 0 0 1 55415800.00 26053383.00  zM 54915801.00 28220313.00 L 54915801.00 27826613.00 A 141132.04 141132.04 0 0 1 55198075.00 27826613.00 L 55198075.00 28220313.00 A 141132.04 141132.04 0 0 1 54915801.00 28220313.00  zM 53915800.00 28220313.00 L 53915800.00 27826613.00 A 141132.04 141132.04 0 0 1 54198074.00 27826613.00 L 54198074.00 28220313.00 A 141132.04 141132.04 0 0 1 53915800.00 28220313.00  zM 54415800.00 28220313.00 L 54415800.00 27826613.00 A 141132.04 141132.04 0 0 1 54698074.00 27826613.00 L 54698074.00 28220313.00 A 141132.04 141132.04 0 0 1 54415800.00 28220313.00  zM 55915799.00 28220313.00 L 55915799.00 27826613.00 A 141132.04 141132.04 0 1 1 56198073.00 27826613.00 L 56198073.00 28220313.00 A 141132.04 141132.04 0 1 1 55915799.00 28220313.00  zM 53915801.00 29278383.00 L 53915801.00 28884683.00 A 141132.04 141132.04 0 1 1 54198075.00 28884683.00 L 54198075.00 29278383.00 A 141132.04 141132.04 0 1 1 53915801.00 29278383.00  zM 54415800.00 29278383.00 L 54415800.00 28884683.00 A 141132.04 141132.04 0 0 1 54698074.00 28884683.00 L 54698074.00 29278383.00 A 141132.04 141132.04 0 0 1 54415800.00 29278383.00  zM 54915799.00 29278383.00 L 54915799.00 28884683.00 A 141132.04 141132.04 0 1 1 55198073.00 28884683.00 L 55198073.00 29278383.00 A 141132.04 141132.04 0 1 1 54915799.00 29278383.00  zM 55415800.00 28220313.00 L 55415800.00 27826613.00 A 141132.04 141132.04 0 0 1 55698074.00 27826613.00 L 55698074.00 28220313.00 A 141132.04 141132.04 0 0 1 55415800.00 28220313.00  zM 55415800.00 29278383.00 L 55415800.00 28884683.00 A 141132.04 141132.04 0 0 1 55698074.00 28884683.00 L 55698074.00 29278383.00 A 141132.04 141132.04 0 0 1 55415800.00 29278383.00  zM 56915800.00 26053383.00 L 56915800.00 25659683.00 A 141132.04 141132.04 0 0 1 57198074.00 25659683.00 L 57198074.00 26053383.00 A 141132.04 141132.04 0 0 1 56915800.00 26053383.00  zM 57415801.00 26053383.00 L 57415801.00 25659683.00 A 141132.04 141132.04 0 0 1 57698075.00 25659683.00 L 57698075.00 26053383.00 A 141132.04 141132.04 0 0 1 57415801.00 26053383.00  zM 58356594.00 26055030.00 L 57976594.00 26055030.00 L 57976594.00 25675030.00 L 58356594.00 25675030.00 L 58356594.00 26055030.00  zM 56415800.00 28220313.00 L 56415800.00 27826613.00 A 141132.04 141132.04 0 0 1 56698074.00 27826613.00 L 56698074.00 28220313.00 A 141132.04 141132.04 0 0 1 56415800.00 28220313.00  zM 56915800.00 28220313.00 L 56915800.00 27826613.00 A 141132.04 141132.04 0 0 1 57198074.00 27826613.00 L 57198074.00 28220313.00 A 141132.04 141132.04 0 0 1 56915800.00 28220313.00  zM 57695362.00 28358737.00 L 57418512.00 28358737.00 L 57418512.00 27688187.00 L 57695362.00 27688187.00 L 57695362.00 28358737.00  zM 55915800.00 29278383.00 L 55915800.00 28884683.00 A 141132.04 141132.04 0 0 1 56198074.00 28884683.00 L 56198074.00 29278383.00 A 141132.04 141132.04 0 0 1 55915800.00 29278383.00  zM 56415801.00 29278383.00 L 56415801.00 28884683.00 A 141132.04 141132.04 0 0 1 56698075.00 28884683.00 L 56698075.00 29278383.00 A 141132.04 141132.04 0 0 1 56415801.00 29278383.00  zM 56915800.00 29278383.00 L 56915800.00 28884683.00 A 141132.04 141132.04 0 0 1 57198074.00 28884683.00 L 57198074.00 29278383.00 A 141132.04 141132.04 0 0 1 56915800.00 29278383.00  zM 57415799.00 29278383.00 L 57415799.00 28884683.00 A 141132.04 141132.04 0 1 1 57698073.00 28884683.00 L 57698073.00 29278383.00 A 141132.04 141132.04 0 1 1 57415799.00 29278383.00  zM 58356594.00 29255030.00 L 57976594.00 29255030.00 L 57976594.00 28875030.00 L 58356594.00 28875030.00 L 58356594.00 29255030.00  zM 58435838.00 22720904.00 L 58435838.00 22346888.00 A 90956.37 90956.37 0 0 1 58617758.00 22346888.00 L 58617758.00 22720904.00 A 90956.37 90956.37 0 0 1 58435838.00 22720904.00  zM 58691743.00 22720904.00 L 58691743.00 22346888.00 A 90956.37 90956.37 0 0 1 58873663.00 22346888.00 L 58873663.00 22720904.00 A 90956.37 90956.37 0 1 1 58691743.00 22720904.00  zM 58947649.00 22720904.00 L 58947649.00 22346888.00 A 90956.37 90956.37 0 0 1 59129569.00 22346888.00 L 59129569.00 22720904.00 A 90956.37 90956.37 0 0 1 58947649.00 22720904.00  zM 59203554.00 22720904.00 L 59203554.00 22346888.00 A 90956.37 90956.37 0 0 1 59385474.00 22346888.00 L 59385474.00 22720904.00 A 90956.37 90956.37 0 1 1 59203554.00 22720904.00  zM 59459460.00 22720904.00 L 59459460.00 22346888.00 A 90956.37 90956.37 0 0 1 59641380.00 22346888.00 L 59641380.00 22720904.00 A 90956.37 90956.37 0 1 1 59459460.00 22720904.00  zM 59715365.00 22720904.00 L 59715365.00 22346888.00 A 90956.37 90956.37 0 0 1 59897285.00 22346888.00 L 59897285.00 22720904.00 A 90956.37 90956.37 0 1 1 59715365.00 22720904.00  zM 59971271.00 22720904.00 L 59971271.00 22346888.00 A 90956.37 90956.37 0 0 1 60153191.00 22346888.00 L 60153191.00 22720904.00 A 90956.37 90956.37 0 0 1 59971271.00 22720904.00  zM 60483082.00 22720904.00 L 60483082.00 22346888.00 A 90956.37 90956.37 0 0 1 60665002.00 22346888.00 L 60665002.00 22720904.00 A 90956.37 90956.37 0 0 1 60483082.00 22720904.00  zM 61406594.00 22705030.00 L 61026594.00 22705030.00 L 61026594.00 22325030.00 L 61406594.00 22325030.00 L 61406594.00 22705030.00  zM 60227176.00 22720904.00 L 60227176.00 22346888.00 A 90956.37 90956.37 0 0 1 60409096.00 22346888.00 L 60409096.00 22720904.00 A 90956.37 90956.37 0 1 1 60227176.00 22720904.00  zM 61412500.00 24599060.00 L 61032500.00 24599060.00 L 61032500.00 24219060.00 L 61412500.00 24219060.00 L 61412500.00 24599060.00  zM 59971271.00 25083108.00 L 59971271.00 24709092.00 A 90956.37 90956.37 0 0 1 60153191.00 24709092.00 L 60153191.00 25083108.00 A 90956.37 90956.37 0 0 1 59971271.00 25083108.00  zM 58435838.00 25083108.00 L 58435838.00 24709092.00 A 90956.37 90956.37 0 0 1 58617758.00 24709092.00 L 58617758.00 25083108.00 A 90956.37 90956.37 0 0 1 58435838.00 25083108.00  zM 58947649.00 25083108.00 L 58947649.00 24709092.00 A 90956.37 90956.37 0 0 1 59129569.00 24709092.00 L 59129569.00 25083108.00 A 90956.37 90956.37 0 0 1 58947649.00 25083108.00  zM 59459460.00 25083108.00 L 59459460.00 24709092.00 A 90956.37 90956.37 0 1 1 59641380.00 24709092.00 L 59641380.00 25083108.00 A 90956.37 90956.37 0 0 1 59459460.00 25083108.00  zM 59715365.00 25083108.00 L 59715365.00 24709092.00 A 90956.37 90956.37 0 1 1 59897285.00 24709092.00 L 59897285.00 25083108.00 A 90956.37 90956.37 0 0 1 59715365.00 25083108.00  zM 60227176.00 25083108.00 L 60227176.00 24709092.00 A 90956.37 90956.37 0 1 1 60409096.00 24709092.00 L 60409096.00 25083108.00 A 90956.37 90956.37 0 0 1 60227176.00 25083108.00  zM 60483082.00 25083108.00 L 60483082.00 24709092.00 A 90956.37 90956.37 0 0 1 60665002.00 24709092.00 L 60665002.00 25083108.00 A 90956.37 90956.37 0 0 1 60483082.00 25083108.00  zM 58179932.00 25083108.00 L 58179932.00 24709092.00 A 90956.37 90956.37 0 1 1 58361852.00 24709092.00 L 58361852.00 25083108.00 A 90956.37 90956.37 0 0 1 58179932.00 25083108.00  zM 58691743.00 25083108.00 L 58691743.00 24709092.00 A 90956.37 90956.37 0 1 1 58873663.00 24709092.00 L 58873663.00 25083108.00 A 90956.37 90956.37 0 0 1 58691743.00 25083108.00  zM 59203554.00 25083108.00 L 59203554.00 24709092.00 A 90956.37 90956.37 0 1 1 59385474.00 24709092.00 L 59385474.00 25083108.00 A 90956.37 90956.37 0 0 1 59203554.00 25083108.00  zM 58868406.00 26055030.00 L 58488406.00 26055030.00 L 58488406.00 25675030.00 L 58868406.00 25675030.00 L 58868406.00 26055030.00  zM 58868406.00 29255030.00 L 58488406.00 29255030.00 L 58488406.00 28875030.00 L 58868406.00 28875030.00 L 58868406.00 29255030.00  zM 61918406.00 22705030.00 L 61538406.00 22705030.00 L 61538406.00 22325030.00 L 61918406.00 22325030.00 L 61918406.00 22705030.00  zM 61412500.00 25110872.00 L 61032500.00 25110872.00 L 61032500.00 24730872.00 L 61412500.00 24730872.00 L 61412500.00 25110872.00  zM 66773445.28 23524110.31 m -221422.69 0 a 221422.69 221422.69 0 1 1 442845.38 0a 221422.69 221422.69 0 1 1 -442845.38 0M 68505445.28 23524110.31 m -221422.69 0 a 221422.69 221422.69 0 1 1 442845.38 0a 221422.69 221422.69 0 1 1 -442845.38 0M 66773445.28 29492614.31 m -221422.69 0 a 221422.69 221422.69 0 1 1 442845.38 0a 221422.69 221422.69 0 1 1 -442845.38 0M 68505445.28 29492614.31 m -221422.69 0 a 221422.69 221422.69 0 1 1 442845.38 0a 221422.69 221422.69 0 1 1 -442845.38 0M 72644272.00 24042001.00 L 72329312.00 24042001.00 A 278596.85 278596.85 0 1 1 72329312.00 23484795.00 L 72644272.00 23484795.00 A 278596.85 278596.85 0 0 1 72644272.00 24042001.00  zM 72695492.89 24326395.08 m -191318.92 0 a 191318.92 191318.92 0 1 1 382637.84 0a 191318.92 191318.92 0 1 1 -382637.84 0M 72362497.00 26882151.00 L 71770687.00 26882151.00 L 71770687.00 24046245.00 L 72362497.00 24046245.00 L 72362497.00 26882151.00  zM 72695492.89 26601994.08 m -191318.92 0 a 191318.92 191318.92 0 1 1 382637.84 0a 191318.92 191318.92 0 1 1 -382637.84 0M 72644272.00 27443600.00 L 72329312.00 27443600.00 A 278589.51 278589.51 0 1 1 72329312.00 26886394.00 L 72644272.00 26886394.00 A 278589.51 278589.51 0 0 1 72644272.00 27443600.00  zM 74250602.00 24042002.00 L 74014382.00 24042002.00 A 278589.51 278589.51 0 0 1 74014382.00 23484796.00 L 74250602.00 23484796.00 A 278589.51 278589.51 0 0 1 74250602.00 24042002.00  zM 74250602.00 27443601.00 L 74014382.00 27443601.00 A 278596.85 278596.85 0 0 1 74014382.00 26886395.00 L 74250602.00 26886395.00 A 278596.85 278596.85 0 0 1 74250602.00 27443601.00  zM 73491622.00 29230588.00 L 72939182.00 29230588.00 L 72939182.00 28599408.00 L 73491622.00 28599408.00 L 73491622.00 29230588.00  zM 72912436.00 29849124.00 L 72532436.00 29849124.00 L 72532436.00 29469124.00 L 72912436.00 29469124.00 L 72912436.00 29849124.00  zM 73627033.00 29950668.00 L 73369869.00 29950668.00 L 73369869.00 29476968.00 L 73627033.00 29476968.00 L 73627033.00 29950668.00  zM 74830204.00 29230588.00 L 74277764.00 29230588.00 L 74277764.00 28599408.00 L 74830204.00 28599408.00 L 74830204.00 29230588.00  zM 72912436.00 30360936.00 L 72532436.00 30360936.00 L 72532436.00 29980936.00 L 72912436.00 29980936.00 L 72912436.00 30360936.00  zM 73627033.00 31053029.00 L 73369869.00 31053029.00 L 73369869.00 30579329.00 L 73627033.00 30579329.00 L 73627033.00 31053029.00  zM 74001049.00 31053029.00 L 73743885.00 31053029.00 L 73743885.00 30579329.00 L 74001049.00 30579329.00 L 74001049.00 31053029.00  zM 74375065.00 29950668.00 L 74117901.00 29950668.00 L 74117901.00 29476968.00 L 74375065.00 29476968.00 L 74375065.00 29950668.00  zM 74375065.00 31053029.00 L 74117901.00 31053029.00 L 74117901.00 30579329.00 L 74375065.00 30579329.00 L 74375065.00 31053029.00  zM 53915801.00 31445313.00 L 53915801.00 31051613.00 A 141132.04 141132.04 0 0 1 54198075.00 31051613.00 L 54198075.00 31445313.00 A 141132.04 141132.04 0 0 1 53915801.00 31445313.00  zM 54915799.00 31445313.00 L 54915799.00 31051613.00 A 141132.04 141132.04 0 0 1 55198073.00 31051613.00 L 55198073.00 31445313.00 A 141132.04 141132.04 0 0 1 54915799.00 31445313.00  zM 55415800.00 31445313.00 L 55415800.00 31051613.00 A 141132.04 141132.04 0 0 1 55698074.00 31051613.00 L 55698074.00 31445313.00 A 141132.04 141132.04 0 0 1 55415800.00 31445313.00  zM 54415800.00 31445313.00 L 54415800.00 31051613.00 A 141132.04 141132.04 0 0 1 54698074.00 31051613.00 L 54698074.00 31445313.00 A 141132.04 141132.04 0 0 1 54415800.00 31445313.00  zM 54701525.00 32996574.00 L 54701525.00 32504448.00 A 131092.80 131092.80 0 1 1 54963727.00 32504448.00 L 54963727.00 32996574.00 A 131092.80 131092.80 0 1 1 54701525.00 32996574.00  zM 55016486.00 32996574.00 L 55016486.00 32504448.00 A 131092.80 131092.80 0 1 1 55278688.00 32504448.00 L 55278688.00 32996574.00 A 131092.80 131092.80 0 0 1 55016486.00 32996574.00  zM 54554201.00 33718698.00 L 54062075.00 33718698.00 A 131092.80 131092.80 0 0 1 54062075.00 33456496.00 L 54554201.00 33456496.00 A 131092.80 131092.80 0 0 1 54554201.00 33718698.00  zM 54554201.00 34033659.00 L 54062075.00 34033659.00 A 131092.80 131092.80 0 0 1 54062075.00 33771457.00 L 54554201.00 33771457.00 A 131092.80 131092.80 0 1 1 54554201.00 34033659.00  zM 54554201.00 34348620.00 L 54062075.00 34348620.00 A 131092.80 131092.80 0 0 1 54062075.00 34086418.00 L 54554201.00 34086418.00 A 131092.80 131092.80 0 0 1 54554201.00 34348620.00  zM 54554201.00 33403738.00 L 54062075.00 33403738.00 A 131092.80 131092.80 0 0 1 54062075.00 33141536.00 L 54554201.00 33141536.00 A 131092.80 131092.80 0 0 1 54554201.00 33403738.00  zM 55331447.00 32996574.00 L 55331447.00 32504448.00 A 131092.80 131092.80 0 0 1 55593649.00 32504448.00 L 55593649.00 32996574.00 A 131092.80 131092.80 0 0 1 55331447.00 32996574.00  zM 55646407.00 32996574.00 L 55646407.00 32504448.00 A 131092.80 131092.80 0 1 1 55908609.00 32504448.00 L 55908609.00 32996574.00 A 131092.80 131092.80 0 0 1 55646407.00 32996574.00  zM 55915800.00 31445313.00 L 55915800.00 31051613.00 A 141132.04 141132.04 0 0 1 56198074.00 31051613.00 L 56198074.00 31445313.00 A 141132.04 141132.04 0 0 1 55915800.00 31445313.00  zM 56415801.00 31445313.00 L 56415801.00 31051613.00 A 141132.04 141132.04 0 0 1 56698075.00 31051613.00 L 56698075.00 31445313.00 A 141132.04 141132.04 0 0 1 56415801.00 31445313.00  zM 56915800.00 31445313.00 L 56915800.00 31051613.00 A 141132.04 141132.04 0 0 1 57198074.00 31051613.00 L 57198074.00 31445313.00 A 141132.04 141132.04 0 0 1 56915800.00 31445313.00  zM 57695361.00 31583738.00 L 57418511.00 31583738.00 L 57418511.00 30913188.00 L 57695361.00 30913188.00 L 57695361.00 31583738.00  zM 57306530.00 32154966.00 L 56926530.00 32154966.00 L 56926530.00 31774966.00 L 57306530.00 31774966.00 L 57306530.00 32154966.00  zM 56906248.00 32996574.00 L 56906248.00 32504448.00 A 131092.80 131092.80 0 1 1 57168450.00 32504448.00 L 57168450.00 32996574.00 A 131092.80 131092.80 0 0 1 56906248.00 32996574.00  zM 55961367.00 32996574.00 L 55961367.00 32504448.00 A 131092.80 131092.80 0 1 1 56223569.00 32504448.00 L 56223569.00 32996574.00 A 131092.80 131092.80 0 1 1 55961367.00 32996574.00  zM 56276328.00 32996574.00 L 56276328.00 32504448.00 A 131092.80 131092.80 0 1 1 56538530.00 32504448.00 L 56538530.00 32996574.00 A 131092.80 131092.80 0 1 1 56276328.00 32996574.00  zM 56591289.00 32996574.00 L 56591289.00 32504448.00 A 131092.80 131092.80 0 1 1 56853491.00 32504448.00 L 56853491.00 32996574.00 A 131092.80 131092.80 0 1 1 56591289.00 32996574.00  zM 57803177.00 33718698.00 L 57311051.00 33718698.00 A 131092.80 131092.80 0 0 1 57311051.00 33456496.00 L 57803177.00 33456496.00 A 131092.80 131092.80 0 0 1 57803177.00 33718698.00  zM 57803177.00 33403737.00 L 57311051.00 33403737.00 A 131092.80 131092.80 0 0 1 57311051.00 33141535.00 L 57803177.00 33141535.00 A 131092.80 131092.80 0 1 1 57803177.00 33403737.00  zM 54554201.00 34663580.00 L 54062075.00 34663580.00 A 131092.80 131092.80 0 0 1 54062075.00 34401378.00 L 54554201.00 34401378.00 A 131092.80 131092.80 0 0 1 54554201.00 34663580.00  zM 54554201.00 34978541.00 L 54062075.00 34978541.00 A 131092.80 131092.80 0 0 1 54062075.00 34716339.00 L 54554201.00 34716339.00 A 131092.80 131092.80 0 0 1 54554201.00 34978541.00  zM 54554201.00 35293502.00 L 54062075.00 35293502.00 A 131092.80 131092.80 0 0 1 54062075.00 35031300.00 L 54554201.00 35031300.00 A 131092.80 131092.80 0 0 1 54554201.00 35293502.00  zM 54554201.00 35608462.00 L 54062075.00 35608462.00 A 131092.80 131092.80 0 0 1 54062075.00 35346260.00 L 54554201.00 35346260.00 A 131092.80 131092.80 0 0 1 54554201.00 35608462.00  zM 55016484.00 36245549.00 L 55016484.00 35753423.00 A 131092.80 131092.80 0 0 1 55278686.00 35753423.00 L 55278686.00 36245549.00 A 131092.80 131092.80 0 0 1 55016484.00 36245549.00  zM 55331447.00 36245550.00 L 55331447.00 35753424.00 A 131092.80 131092.80 0 0 1 55593649.00 35753424.00 L 55593649.00 36245550.00 A 131092.80 131092.80 0 0 1 55331447.00 36245550.00  zM 57803176.00 34348620.00 L 57311050.00 34348620.00 A 131092.80 131092.80 0 0 1 57311050.00 34086418.00 L 57803176.00 34086418.00 A 131092.80 131092.80 0 0 1 57803176.00 34348620.00  zM 57803176.00 34663580.00 L 57311050.00 34663580.00 A 131092.80 131092.80 0 0 1 57311050.00 34401378.00 L 57803176.00 34401378.00 A 131092.80 131092.80 0 0 1 57803176.00 34663580.00  zM 56906250.00 36245549.00 L 56906250.00 35753423.00 A 131092.80 131092.80 0 0 1 57168452.00 35753423.00 L 57168452.00 36245549.00 A 131092.80 131092.80 0 0 1 56906250.00 36245549.00  zM 55961367.00 36245550.00 L 55961367.00 35753424.00 A 131092.80 131092.80 0 1 1 56223569.00 35753424.00 L 56223569.00 36245550.00 A 131092.80 131092.80 0 1 1 55961367.00 36245550.00  zM 56591289.00 36245550.00 L 56591289.00 35753424.00 A 131092.80 131092.80 0 1 1 56853491.00 35753424.00 L 56853491.00 36245550.00 A 131092.80 131092.80 0 1 1 56591289.00 36245550.00  zM 54456594.00 36955030.00 L 54076594.00 36955030.00 L 54076594.00 36575030.00 L 54456594.00 36575030.00 L 54456594.00 36955030.00  zM 54968406.00 36955030.00 L 54588406.00 36955030.00 L 54588406.00 36575030.00 L 54968406.00 36575030.00 L 54968406.00 36955030.00  zM 53900183.00 39125077.00 L 52639081.00 39125077.00 L 52639081.00 38257675.00 L 53900183.00 38257675.00 L 53900183.00 39125077.00  zM 54701525.00 36245550.00 L 54701525.00 35753424.00 A 131092.80 131092.80 0 1 1 54963727.00 35753424.00 L 54963727.00 36245550.00 A 131092.80 131092.80 0 1 1 54701525.00 36245550.00  zM 55646407.00 36245550.00 L 55646407.00 35753424.00 A 131092.80 131092.80 0 1 1 55908609.00 35753424.00 L 55908609.00 36245550.00 A 131092.80 131092.80 0 0 1 55646407.00 36245550.00  zM 56276328.00 36245550.00 L 56276328.00 35753424.00 A 131092.80 131092.80 0 1 1 56538530.00 35753424.00 L 56538530.00 36245550.00 A 131092.80 131092.80 0 1 1 56276328.00 36245550.00  zM 54731127.00 39979722.00 L 54021207.00 39979722.00 L 54021207.00 39584762.00 L 54731127.00 39584762.00 L 54731127.00 39979722.00  zM 54731127.00 40471848.00 L 54021207.00 40471848.00 L 54021207.00 40076888.00 L 54731127.00 40076888.00 L 54731127.00 40471848.00  zM 54731127.00 40963974.00 L 54021207.00 40963974.00 L 54021207.00 40569014.00 L 54731127.00 40569014.00 L 54731127.00 40963974.00  zM 53900183.00 42772321.00 L 52639081.00 42772321.00 L 52639081.00 41904919.00 L 53900183.00 41904919.00 L 53900183.00 42772321.00  zM 54731127.00 41456100.00 L 54021207.00 41456100.00 L 54021207.00 41061140.00 L 54731127.00 41061140.00 L 54731127.00 41456100.00  zM 57818342.00 32154966.00 L 57438342.00 32154966.00 L 57438342.00 31774966.00 L 57818342.00 31774966.00 L 57818342.00 32154966.00  zM 58650656.00 32754998.00 L 58270656.00 32754998.00 L 58270656.00 32374998.00 L 58650656.00 32374998.00 L 58650656.00 32754998.00  zM 59162468.00 32754998.00 L 58782468.00 32754998.00 L 58782468.00 32374998.00 L 59162468.00 32374998.00 L 59162468.00 32754998.00  zM 57803177.00 34033659.00 L 57311051.00 34033659.00 A 131092.80 131092.80 0 0 1 57311051.00 33771457.00 L 57803177.00 33771457.00 A 131092.80 131092.80 0 1 1 57803177.00 34033659.00  zM 58649396.00 33577597.00 L 58096956.00 33577597.00 L 58096956.00 32985787.00 L 58649396.00 32985787.00 L 58649396.00 33577597.00  zM 58649396.00 34404369.00 L 58096956.00 34404369.00 L 58096956.00 33812559.00 L 58649396.00 33812559.00 L 58649396.00 34404369.00  zM 57803177.00 34978541.00 L 57311051.00 34978541.00 A 131092.80 131092.80 0 0 1 57311051.00 34716339.00 L 57803177.00 34716339.00 A 131092.80 131092.80 0 0 1 57803177.00 34978541.00  zM 57803177.00 35293502.00 L 57311051.00 35293502.00 A 131092.80 131092.80 0 0 1 57311051.00 35031300.00 L 57803177.00 35031300.00 A 131092.80 131092.80 0 0 1 57803177.00 35293502.00  zM 57803177.00 35608463.00 L 57311051.00 35608463.00 A 131092.80 131092.80 0 0 1 57311051.00 35346261.00 L 57803177.00 35346261.00 A 131092.80 131092.80 0 0 1 57803177.00 35608463.00  zM 58656594.00 35055030.00 L 58276594.00 35055030.00 L 58276594.00 34675030.00 L 58656594.00 34675030.00 L 58656594.00 35055030.00  zM 58656594.00 35655030.00 L 58276594.00 35655030.00 L 58276594.00 35275030.00 L 58656594.00 35275030.00 L 58656594.00 35655030.00  zM 59318688.00 34404369.00 L 58766248.00 34404369.00 L 58766248.00 33812559.00 L 59318688.00 33812559.00 L 59318688.00 34404369.00  zM 59168406.00 35055030.00 L 58788406.00 35055030.00 L 58788406.00 34675030.00 L 59168406.00 34675030.00 L 59168406.00 35055030.00  zM 59168406.00 35655030.00 L 58788406.00 35655030.00 L 58788406.00 35275030.00 L 59168406.00 35275030.00 L 59168406.00 35655030.00  zM 59318688.00 33577597.00 L 58766248.00 33577597.00 L 58766248.00 32985787.00 L 59318688.00 32985787.00 L 59318688.00 33577597.00  zM 66773445.28 35461118.31 m -221422.69 0 a 221422.69 221422.69 0 1 1 442845.38 0a 221422.69 221422.69 0 1 1 -442845.38 0M 68505445.28 35461118.31 m -221422.69 0 a 221422.69 221422.69 0 1 1 442845.38 0a 221422.69 221422.69 0 1 1 -442845.38 0M 73491622.00 31930588.00 L 72939182.00 31930588.00 L 72939182.00 31299408.00 L 73491622.00 31299408.00 L 73491622.00 31930588.00  zM 74830204.00 31930589.00 L 74277764.00 31930589.00 L 74277764.00 31299409.00 L 74830204.00 31299409.00 L 74830204.00 31930589.00  zM 74155539.00 33430747.00 L 73209397.00 33430747.00 L 73209397.00 32642087.00 L 74155539.00 32642087.00 L 74155539.00 33430747.00  zM 72995303.00 35163029.00 L 72403493.00 35163029.00 L 72403493.00 33586966.00 L 72995303.00 33586966.00 L 72995303.00 35163029.00  zM 74155538.00 36107911.00 L 73209396.00 36107911.00 L 73209396.00 35319251.00 L 74155538.00 35319251.00 L 74155538.00 36107911.00  zM 58656594.00 36255030.00 L 58276594.00 36255030.00 L 58276594.00 35875030.00 L 58656594.00 35875030.00 L 58656594.00 36255030.00  zM 59168406.00 36255030.00 L 58788406.00 36255030.00 L 58788406.00 35875030.00 L 59168406.00 35875030.00 L 59168406.00 36255030.00  zM 60718406.00 44555030.00 L 60338406.00 44555030.00 L 60338406.00 44175030.00 L 60718406.00 44175030.00 L 60718406.00 44555030.00  zM 60206594.00 44555030.00 L 59826594.00 44555030.00 L 59826594.00 44175030.00 L 60206594.00 44175030.00 L 60206594.00 44555030.00  zM 60121287.00 45927605.00 L 60003177.00 45927605.00 A 101000.25 101000.25 0 0 1 59902181.00 45826609.00 L 59902181.00 45354169.00 A 101000.25 101000.25 0 0 1 60003177.00 45253173.00 L 60121287.00 45253173.00 A 101000.25 101000.25 0 0 1 60222283.00 45354169.00 L 60222283.00 45826609.00 A 101000.25 101000.25 0 0 1 60121287.00 45927605.00  zM 62856594.00 44555030.00 L 62476594.00 44555030.00 L 62476594.00 44175030.00 L 62856594.00 44175030.00 L 62856594.00 44555030.00  zM 61115381.00 45927605.00 L 60997271.00 45927605.00 A 101000.25 101000.25 0 0 1 60896275.00 45826609.00 L 60896275.00 45354169.00 A 101000.25 101000.25 0 0 1 60997271.00 45253173.00 L 61115381.00 45253173.00 A 101000.25 101000.25 0 0 1 61216377.00 45354169.00 L 61216377.00 45826609.00 A 101000.25 101000.25 0 0 1 61115381.00 45927605.00  zM 60443335.01 46816961.89 m -377882.11 0 a 377882.11 377882.11 0 1 1 755764.21 0a 377882.11 377882.11 0 1 1 -755764.21 0M 62276799.00 45927605.00 L 62158689.00 45927605.00 A 101000.25 101000.25 0 0 1 62057693.00 45826609.00 L 62057693.00 45354169.00 A 101000.25 101000.25 0 0 1 62158689.00 45253173.00 L 62276799.00 45253173.00 A 101000.25 101000.25 0 0 1 62377795.00 45354169.00 L 62377795.00 45826609.00 A 101000.25 101000.25 0 0 1 62276799.00 45927605.00  zM 59661445.00 48333694.00 L 59464595.00 48333694.00 A 141132.04 141132.04 0 0 1 59323458.00 48192557.00 L 59323458.00 47995707.00 A 141132.04 141132.04 0 0 1 59464595.00 47854570.00 L 59661445.00 47854570.00 A 141132.04 141132.04 0 0 1 59802582.00 47995707.00 L 59802582.00 48192557.00 A 141132.04 141132.04 0 0 1 59661445.00 48333694.00  zM 60224637.00 50123282.00 L 60085443.00 49984088.00 A 141132.04 141132.04 0 0 1 60085443.00 49784490.00 L 60224637.00 49645296.00 A 141132.04 141132.04 0 0 1 60424235.00 49645296.00 L 60563429.00 49784490.00 A 141132.04 141132.04 0 0 1 60563429.00 49984088.00 L 60424235.00 50123282.00 A 141132.04 141132.04 0 0 1 60224637.00 50123282.00  zM 66773445.28 41429622.31 m -221422.69 0 a 221422.69 221422.69 0 1 1 442845.38 0a 221422.69 221422.69 0 1 1 -442845.38 0M 68505445.28 41429622.31 m -221422.69 0 a 221422.69 221422.69 0 1 1 442845.38 0a 221422.69 221422.69 0 1 1 -442845.38 0M 74472469.01 38964991.89 m -377882.11 0 a 377882.11 377882.11 0 1 1 755764.21 0a 377882.11 377882.11 0 1 1 -755764.21 0M 74472469.01 36964992.89 m -377882.11 0 a 377882.11 377882.11 0 1 1 755764.21 0a 377882.11 377882.11 0 1 1 -755764.21 0M 74472469.01 37964993.89 m -377882.11 0 a 377882.11 377882.11 0 1 1 755764.21 0a 377882.11 377882.11 0 1 1 -755764.21 0M 74847113.00 40339642.00 L 74097823.00 40339642.00 L 74097823.00 39590352.00 L 74847113.00 39590352.00 L 74847113.00 40339642.00  zM 63368406.00 44555030.00 L 62988406.00 44555030.00 L 62988406.00 44175030.00 L 63368406.00 44175030.00 L 63368406.00 44555030.00  zM 63270893.00 45927605.00 L 63152783.00 45927605.00 A 101000.25 101000.25 0 0 1 63051787.00 45826609.00 L 63051787.00 45354169.00 A 101000.25 101000.25 0 0 1 63152783.00 45253173.00 L 63270893.00 45253173.00 A 101000.25 101000.25 0 0 1 63371889.00 45354169.00 L 63371889.00 45826609.00 A 101000.25 101000.25 0 0 1 63270893.00 45927605.00  zM 62805539.01 46816961.89 m -377882.11 0 a 377882.11 377882.11 0 1 1 755764.21 0a 377882.11 377882.11 0 1 1 -755764.21 0M 63809475.00 48333694.00 L 63612625.00 48333694.00 A 141132.04 141132.04 0 0 1 63471488.00 48192557.00 L 63471488.00 47995707.00 A 141132.04 141132.04 0 0 1 63612625.00 47854570.00 L 63809475.00 47854570.00 A 141132.04 141132.04 0 0 1 63950612.00 47995707.00 L 63950612.00 48192557.00 A 141132.04 141132.04 0 0 1 63809475.00 48333694.00  zM 62824637.00 50123282.00 L 62685443.00 49984088.00 A 141132.04 141132.04 0 0 1 62685443.00 49784490.00 L 62824637.00 49645296.00 A 141132.04 141132.04 0 0 1 63024235.00 49645296.00 L 63163429.00 49784490.00 A 141132.04 141132.04 0 0 1 63163429.00 49984088.00 L 63024235.00 50123282.00 A 141132.04 141132.04 0 0 1 62824637.00 50123282.00  z"/>
</g>
</svg>
