<svg width="58.00704934mm" height="77.58152124mm" viewBox="0 0 22837421 30543906"  version="1.1" xmlns="http://www.w3.org/2000/svg" xmlns:xlink="http://www.w3.org/1999/xlink">
<desc>
Origin 52372468 49564998 Bound 52371080 19721092 22837421 30543906
</desc>
<g fill-rule="evenodd" fill="rgb(128, 128, 0)" stroke="black" stroke-width="1" transform="translate(0, 30543906) scale(1, -1) translate(-52371080, -19721092)">
<path id="N" d="M 69701466.00 30634412.00 L 69701466.00 26618612.00 L 69685615.00 26580343.00 L 69647102.16 26564593.00 L 65631546.00 26564592.00 L 65593277.00 26580443.00 L 65577426.00 26618712.00 L 65577426.00 30634512.00 L 65593277.00 30672781.00 L 65631546.00 30688632.00 L 69647346.00 30688632.00 L 69685615.00 30672781.00 L 69701466.00 30634412.00  zM 67685326.00 27072492.00 L 67593566.00 27072492.00 L 67593566.00 26926612.00 L 67577715.00 26888343.00 L 67561124.40 26881471.18 L 67639445.69 26803149.50 L 67717767.72 26881471.13 L 67701177.00 26888343.00 L 67685326.00 26926612.00 L 67685326.00 27072492.00  zM 65894305.13 28704933.72 L 65815983.81 28626612.00 L 65894305.13 28548290.28 L 65901177.00 28564881.00 L 65939446.00 28580732.00 L 66085326.00 28580732.00 L 66085326.00 28672492.00 L 65939446.00 28672492.00 L 65901177.00 28688343.00 L 65894305.13 28704933.72  zM 69593226.00 30580392.00 L 67640269.22 30580392.00 L 67677715.00 30564881.00 L 67877715.00 30364881.00 A 54119.43 54119.43 0 0 0 67839443.59 30272492.00 L 67793566.27 30272492.00 L 67793567.00 30126612.00 L 67777716.00 30088343.00 L 67739447.00 30072492.00 L 67539446.00 30072492.00 L 67501177.00 30088343.00 L 67485326.00 30126612.00 L 67485326.00 30272492.00 L 67439446.00 30272491.00 A 54122.11 54122.11 0 0 0 67401177.00 30364881.00 L 67601177.00 30564881.00 L 67638622.78 30580392.00 L 65685666.00 30580392.00 L 65685666.00 28627435.22 L 65701177.00 28664881.00 L 65901177.00 28864881.00 A 54119.43 54119.43 0 0 0 65993566.00 28826609.59 L 65993566.00 28780732.00 L 66139446.00 28780732.00 L 66177715.00 28764881.00 L 66193566.00 28726612.00 L 66193566.00 28526612.00 L 66177715.00 28488343.00 L 66139446.00 28472492.00 L 65993566.00 28472492.00 L 65993567.00 28426612.00 A 54122.11 54122.11 0 0 0 65901176.29 28388344.71 L 65701177.00 28588343.00 L 65685666.00 28625788.78 L 65685666.00 26672832.01 L 67638621.57 26672832.50 L 67601176.29 26688344.71 L 67401177.00 26888343.00 A 54119.43 54119.43 0 0 0 67439448.41 26980732.00 L 67485326.00 26980732.00 L 67485326.00 27126612.00 L 67501177.00 27164881.00 L 67539446.00 27180732.00 L 67739446.00 27180732.00 L 67777715.00 27164881.00 L 67793566.00 27126612.00 L 67793566.00 26980732.00 L 67839446.00 26980733.00 A 54122.11 54122.11 0 0 0 67877713.29 26888342.29 L 67677715.00 26688343.00 L 67640270.43 26672832.50 L 69593226.00 26672832.99 L 69593226.00 28625788.78 L 69577713.29 28588342.29 L 69377715.00 28388343.00 A 54119.43 54119.43 0 0 0 69285326.00 28426614.41 L 69285326.00 28472492.00 L 69139446.00 28472492.00 L 69101177.00 28488343.00 L 69085326.00 28526612.00 L 69085327.00 28726612.00 L 69101178.00 28764881.00 L 69139447.00 28780732.00 L 69285326.00 28780732.00 L 69285325.00 28826612.00 A 54122.11 54122.11 0 0 0 69377715.00 28864881.00 L 69577715.00 28664881.00 L 69593226.00 28627435.22 L 69593226.00 30580392.00  zM 69384586.82 28704933.60 L 69377715.00 28688343.00 L 69339446.00 28672492.00 L 69193566.73 28672492.00 L 69193566.27 28580732.00 L 69339446.00 28580732.00 L 69377715.00 28564881.00 L 69384586.82 28548290.40 L 69462908.81 28626612.00 L 69384586.82 28704933.60  zM 67639445.69 30450074.50 L 67561124.40 30371752.82 L 67577715.00 30364881.00 L 67593566.00 30326612.00 L 67593566.00 30180732.00 L 67685326.73 30180732.00 L 67685326.00 30326612.00 L 67701177.00 30364881.00 L 67717767.72 30371752.87 L 67639445.69 30450074.50  z"/>
<path id="N" d="M 69701466.00 42571420.00 L 69701466.00 38555620.00 L 69685615.00 38517351.00 L 69647102.16 38501601.00 L 65631546.00 38501600.00 L 65593277.00 38517451.00 L 65577426.00 38555720.00 L 65577426.00 42571520.00 L 65593277.00 42609789.00 L 65631546.00 42625640.00 L 69647346.00 42625640.00 L 69685615.00 42609789.00 L 69701466.00 42571420.00  zM 65894305.13 40641941.72 L 65815983.81 40563620.00 L 65894305.13 40485298.28 L 65901177.00 40501889.00 L 65939446.00 40517740.00 L 66085326.00 40517740.00 L 66085326.00 40609500.00 L 65939446.00 40609500.00 L 65901177.00 40625351.00 L 65894305.13 40641941.72  zM 67685326.00 39009500.00 L 67593566.00 39009500.00 L 67593566.00 38863620.00 L 67577715.00 38825351.00 L 67561124.40 38818479.18 L 67639445.69 38740157.50 L 67717767.72 38818479.13 L 67701177.00 38825351.00 L 67685326.00 38863620.00 L 67685326.00 39009500.00  zM 69593226.00 42517400.00 L 67640269.22 42517400.00 L 67677715.00 42501889.00 L 67877715.00 42301889.00 A 54119.43 54119.43 0 0 0 67839443.59 42209500.00 L 67793566.27 42209500.00 L 67793567.00 42063620.00 L 67777716.00 42025351.00 L 67739447.00 42009500.00 L 67539446.00 42009500.00 L 67501177.00 42025351.00 L 67485326.00 42063620.00 L 67485326.00 42209500.00 L 67439446.00 42209499.00 A 54122.11 54122.11 0 0 0 67401177.00 42301889.00 L 67601177.00 42501889.00 L 67638622.78 42517400.00 L 65685666.00 42517400.00 L 65685666.00 40564443.22 L 65701177.00 40601889.00 L 65901177.00 40801889.00 A 54119.43 54119.43 0 0 0 65993566.00 40763617.59 L 65993566.00 40717740.00 L 66139446.00 40717740.00 L 66177715.00 40701889.00 L 66193566.00 40663620.00 L 66193566.00 40463620.00 L 66177715.00 40425351.00 L 66139446.00 40409500.00 L 65993566.00 40409500.00 L 65993567.00 40363620.00 A 54122.11 54122.11 0 0 0 65901176.29 40325352.71 L 65701177.00 40525351.00 L 65685666.00 40562796.78 L 65685666.00 38609840.01 L 67638621.57 38609840.50 L 67601176.29 38625352.71 L 67401177.00 38825351.00 A 54119.43 54119.43 0 0 0 67439448.41 38917740.00 L 67485326.00 38917740.00 L 67485326.00 39063620.00 L 67501177.00 39101889.00 L 67539446.00 39117740.00 L 67739446.00 39117740.00 L 67777715.00 39101889.00 L 67793566.00 39063620.00 L 67793566.00 38917740.00 L 67839446.00 38917741.00 A 54122.11 54122.11 0 0 0 67877713.29 38825350.29 L 67677715.00 38625351.00 L 67640270.43 38609840.50 L 69593226.00 38609840.99 L 69593226.00 40562796.78 L 69577713.29 40525350.29 L 69377715.00 40325351.00 A 54119.43 54119.43 0 0 0 69285326.00 40363622.41 L 69285326.00 40409500.00 L 69139446.00 40409500.00 L 69101177.00 40425351.00 L 69085326.00 40463620.00 L 69085327.00 40663620.00 L 69101178.00 40701889.00 L 69139447.00 40717740.00 L 69285326.00 40717740.00 L 69285325.00 40763620.00 A 54122.11 54122.11 0 0 0 69377715.00 40801889.00 L 69577715.00 40601889.00 L 69593226.00 40564443.22 L 69593226.00 42517400.00  zM 67639445.69 42387082.50 L 67561124.40 42308760.82 L 67577715.00 42301889.00 L 67593566.00 42263620.00 L 67593566.00 42117740.00 L 67685326.73 42117740.00 L 67685326.00 42263620.00 L 67701177.00 42301889.00 L 67717767.72 42308760.87 L 67639445.69 42387082.50  zM 69384586.82 40641941.60 L 69377715.00 40625351.00 L 69339446.00 40609500.00 L 69193566.73 40609500.00 L 69193566.27 40517740.00 L 69339446.00 40517740.00 L 69377715.00 40501889.00 L 69384586.82 40485298.40 L 69462908.81 40563620.00 L 69384586.82 40641941.60  z"/>
<path id="N" d="M 69701466.00 36602916.00 L 69701466.00 32587116.00 L 69685615.00 32548847.00 L 69647102.16 32533097.00 L 65631546.00 32533096.00 L 65593277.00 32548947.00 L 65577426.00 32587216.00 L 65577426.00 36603016.00 L 65593277.00 36641285.00 L 65631546.00 36657136.00 L 69647346.00 36657136.00 L 69685615.00 36641285.00 L 69701466.00 36602916.00  zM 67685326.00 33040996.00 L 67593566.00 33040996.00 L 67593566.00 32895116.00 L 67577715.00 32856847.00 L 67561124.40 32849975.18 L 67639445.69 32771653.50 L 67717767.72 32849975.13 L 67701177.00 32856847.00 L 67685326.00 32895116.00 L 67685326.00 33040996.00  zM 65894305.13 34673437.72 L 65815983.81 34595116.00 L 65894305.13 34516794.28 L 65901177.00 34533385.00 L 65939446.00 34549236.00 L 66085326.00 34549236.00 L 66085326.00 34640996.00 L 65939446.00 34640996.00 L 65901177.00 34656847.00 L 65894305.13 34673437.72  zM 69593226.00 36548896.00 L 67640269.22 36548896.00 L 67677715.00 36533385.00 L 67877715.00 36333385.00 A 54119.43 54119.43 0 0 0 67839443.59 36240996.00 L 67793566.27 36240996.00 L 67793567.00 36095116.00 L 67777716.00 36056847.00 L 67739447.00 36040996.00 L 67539446.00 36040996.00 L 67501177.00 36056847.00 L 67485326.00 36095116.00 L 67485326.00 36240996.00 L 67439446.00 36240995.00 A 54122.11 54122.11 0 0 0 67401177.00 36333385.00 L 67601177.00 36533385.00 L 67638622.78 36548896.00 L 65685666.00 36548896.00 L 65685666.00 34595939.22 L 65701177.00 34633385.00 L 65901177.00 34833385.00 A 54119.43 54119.43 0 0 0 65993566.00 34795113.59 L 65993566.00 34749236.00 L 66139446.00 34749236.00 L 66177715.00 34733385.00 L 66193566.00 34695116.00 L 66193566.00 34495116.00 L 66177715.00 34456847.00 L 66139446.00 34440996.00 L 65993566.00 34440996.00 L 65993567.00 34395116.00 A 54122.11 54122.11 0 0 0 65901176.29 34356848.71 L 65701177.00 34556847.00 L 65685666.00 34594292.78 L 65685666.00 32641336.01 L 67638621.57 32641336.50 L 67601176.29 32656848.71 L 67401177.00 32856847.00 A 54119.43 54119.43 0 0 0 67439448.41 32949236.00 L 67485326.00 32949236.00 L 67485326.00 33095116.00 L 67501177.00 33133385.00 L 67539446.00 33149236.00 L 67739446.00 33149236.00 L 67777715.00 33133385.00 L 67793566.00 33095116.00 L 67793566.00 32949236.00 L 67839446.00 32949237.00 A 54122.11 54122.11 0 0 0 67877713.29 32856846.29 L 67677715.00 32656847.00 L 67640270.43 32641336.50 L 69593226.00 32641336.99 L 69593226.00 34594292.78 L 69577713.29 34556846.29 L 69377715.00 34356847.00 A 54119.43 54119.43 0 0 0 69285326.00 34395118.41 L 69285326.00 34440996.00 L 69139446.00 34440996.00 L 69101177.00 34456847.00 L 69085326.00 34495116.00 L 69085327.00 34695116.00 L 69101178.00 34733385.00 L 69139447.00 34749236.00 L 69285326.00 34749236.00 L 69285325.00 34795116.00 A 54122.11 54122.11 0 0 0 69377715.00 34833385.00 L 69577715.00 34633385.00 L 69593226.00 34595939.22 L 69593226.00 36548896.00  zM 67639445.69 36418578.50 L 67561124.40 36340256.82 L 67577715.00 36333385.00 L 67593566.00 36295116.00 L 67593566.00 36149236.00 L 67685326.73 36149236.00 L 67685326.00 36295116.00 L 67701177.00 36333385.00 L 67717767.72 36340256.87 L 67639445.69 36418578.50  zM 69384586.82 34673437.60 L 69377715.00 34656847.00 L 69339446.00 34640996.00 L 69193566.73 34640996.00 L 69193566.27 34549236.00 L 69339446.00 34549236.00 L 69377715.00 34533385.00 L 69384586.82 34516794.40 L 69462908.81 34595116.00 L 69384586.82 34673437.60  z"/>
<path id="N" d="M 69701466.00 24665908.00 L 69701466.00 20650108.00 L 69685615.00 20611839.00 L 69647102.16 20596089.00 L 65631546.00 20596088.00 L 65593277.00 20611939.00 L 65577426.00 20650208.00 L 65577426.00 24666008.00 L 65593277.00 24704277.00 L 65631546.00 24720128.00 L 69647346.00 24720128.00 L 69685615.00 24704277.00 L 69701466.00 24665908.00  zM 65894305.13 22736429.72 L 65815983.81 22658108.00 L 65894305.13 22579786.28 L 65901177.00 22596377.00 L 65939446.00 22612228.00 L 66085326.00 22612228.00 L 66085326.00 22703988.00 L 65939446.00 22703988.00 L 65901177.00 22719839.00 L 65894305.13 22736429.72  zM 69593226.00 24611888.00 L 67640269.22 24611888.00 L 67677715.00 24596377.00 L 67877715.00 24396377.00 A 54119.43 54119.43 0 0 0 67839443.59 24303988.00 L 67793566.27 24303988.00 L 67793567.00 24158108.00 L 67777716.00 24119839.00 L 67739447.00 24103988.00 L 67539446.00 24103988.00 L 67501177.00 24119839.00 L 67485326.00 24158108.00 L 67485326.00 24303988.00 L 67439446.00 24303987.00 A 54122.11 54122.11 0 0 0 67401177.00 24396377.00 L 67601177.00 24596377.00 L 67638622.78 24611888.00 L 65685666.00 24611888.00 L 65685666.00 22658931.22 L 65701177.00 22696377.00 L 65901177.00 22896377.00 A 54119.43 54119.43 0 0 0 65993566.00 22858105.59 L 65993566.00 22812228.00 L 66139446.00 22812228.00 L 66177715.00 22796377.00 L 66193566.00 22758108.00 L 66193566.00 22558108.00 L 66177715.00 22519839.00 L 66139446.00 22503988.00 L 65993566.00 22503988.00 L 65993567.00 22458108.00 A 54122.11 54122.11 0 0 0 65901176.29 22419840.71 L 65701177.00 22619839.00 L 65685666.00 22657284.78 L 65685666.00 20704328.01 L 67638621.57 20704328.50 L 67601176.29 20719840.71 L 67401177.00 20919839.00 A 54119.43 54119.43 0 0 0 67439448.41 21012228.00 L 67485326.00 21012228.00 L 67485326.00 21158108.00 L 67501177.00 21196377.00 L 67539446.00 21212228.00 L 67739446.00 21212228.00 L 67777715.00 21196377.00 L 67793566.00 21158108.00 L 67793566.00 21012228.00 L 67839446.00 21012229.00 A 54122.11 54122.11 0 0 0 67877713.29 20919838.29 L 67677715.00 20719839.00 L 67640270.43 20704328.50 L 69593226.00 20704328.99 L 69593226.00 22657284.78 L 69577713.29 22619838.29 L 69377715.00 22419839.00 A 54119.43 54119.43 0 0 0 69285326.00 22458110.41 L 69285326.00 22503988.00 L 69139446.00 22503988.00 L 69101177.00 22519839.00 L 69085326.00 22558108.00 L 69085327.00 22758108.00 L 69101178.00 22796377.00 L 69139447.00 22812228.00 L 69285326.00 22812228.00 L 69285325.00 22858108.00 A 54122.11 54122.11 0 0 0 69377715.00 22896377.00 L 69577715.00 22696377.00 L 69593226.00 22658931.22 L 69593226.00 24611888.00  zM 67685326.00 21103988.00 L 67593566.00 21103988.00 L 67593566.00 20958108.00 L 67577715.00 20919839.00 L 67561124.40 20912967.18 L 67639445.69 20834645.50 L 67717767.72 20912967.13 L 67701177.00 20919839.00 L 67685326.00 20958108.00 L 67685326.00 21103988.00  zM 67639445.69 24481570.50 L 67561124.40 24403248.82 L 67577715.00 24396377.00 L 67593566.00 24358108.00 L 67593566.00 24212228.00 L 67685326.73 24212228.00 L 67685326.00 24358108.00 L 67701177.00 24396377.00 L 67717767.72 24403248.87 L 67639445.69 24481570.50  zM 69384586.82 22736429.60 L 69377715.00 22719839.00 L 69339446.00 22703988.00 L 69193566.73 22703988.00 L 69193566.27 22612228.00 L 69339446.00 22612228.00 L 69377715.00 22596377.00 L 69384586.82 22579786.40 L 69462908.81 22658108.00 L 69384586.82 22736429.60  z"/>
<path id="N" d="M 67639445.81 22658111.09 m -954594.38 0 a 954594.38 954594.38 0 1 1 1909188.77 0a 954594.38 954594.38 0 1 1 -1909188.77 0M 67639445.86 22658109.57 m -849087.43 0 a 849087.43 849087.43 0 1 1 1698174.87 0a 849087.43 849087.43 0 1 1 -1698174.87 0"/>
<path id="N" d="M 67639445.81 40563623.09 m -954594.38 0 a 954594.38 954594.38 0 1 1 1909188.77 0a 954594.38 954594.38 0 1 1 -1909188.77 0M 67639445.86 40563621.57 m -849087.43 0 a 849087.43 849087.43 0 1 1 1698174.87 0a 849087.43 849087.43 0 1 1 -1698174.87 0"/>
<path id="N" d="M 67639445.81 28626615.09 m -954594.38 0 a 954594.38 954594.38 0 1 1 1909188.77 0a 954594.38 954594.38 0 1 1 -1909188.77 0M 67639445.86 28626613.57 m -849087.43 0 a 849087.43 849087.43 0 1 1 1698174.87 0a 849087.43 849087.43 0 1 1 -1698174.87 0"/>
<path id="N" d="M 66640002.65 29373427.41 L 66629105.00 29360668.00 A 1248904.57 1248904.57 0 1 1 68649787.00 29360668.00 L 68638889.35 29373427.41 L 68672337.00 29423484.00 L 68684026.63 29482253.50 L 68734996.00 29422576.00 A 1354190.94 1354190.94 0 1 0 66543896.00 29422576.00 L 66594865.37 29482253.50 L 66606555.00 29423484.00 L 66640002.65 29373427.41  z"/>
<path id="N" d="M 66640002.65 41310435.41 L 66629105.00 41297676.00 A 1248904.57 1248904.57 0 1 1 68649787.00 41297676.00 L 68638889.35 41310435.41 L 68672337.00 41360492.00 L 68684026.63 41419261.50 L 68734996.00 41359584.00 A 1354190.94 1354190.94 0 1 0 66543896.00 41359584.00 L 66594865.37 41419261.50 L 66606555.00 41360492.00 L 66640002.65 41310435.41  z"/>
<path id="N" d="M 66640002.65 35341931.41 L 66629105.00 35329172.00 A 1248904.57 1248904.57 0 1 1 68649787.00 35329172.00 L 68638889.35 35341931.41 L 68672337.00 35391988.00 L 68684026.63 35450757.50 L 68734996.00 35391080.00 A 1354190.94 1354190.94 0 1 0 66543896.00 35391080.00 L 66594865.37 35450757.50 L 66606555.00 35391988.00 L 66640002.65 35341931.41  z"/>
<path id="N" d="M 66640002.65 23404923.41 L 66629105.00 23392164.00 A 1248904.57 1248904.57 0 1 1 68649787.00 23392164.00 L 68638889.35 23404923.41 L 68672337.00 23454980.00 L 68684026.63 23513749.50 L 68734996.00 23454072.00 A 1354190.94 1354190.94 0 1 0 66543896.00 23454072.00 L 66594865.37 23513749.50 L 66606555.00 23454980.00 L 66640002.65 23404923.41  z"/>
<path id="N" d="M 67639445.81 34595119.09 m -954594.38 0 a 954594.38 954594.38 0 1 1 1909188.77 0a 954594.38 954594.38 0 1 1 -1909188.77 0M 67639445.86 34595117.57 m -849087.43 0 a 849087.43 849087.43 0 1 1 1698174.87 0a 849087.43 849087.43 0 1 1 -1698174.87 0"/>
<path id="N" d="M 62759931.00 23705717.00 L 62778556.00 23608172.00 L 62779334.00 21808172.00 A 254898.66 254898.66 0 0 0 62621981.00 21572677.00 L 62524436.00 21554052.00 L 60724436.00 21553274.00 A 254898.66 254898.66 0 0 0 60488941.00 21710627.00 L 60470316.00 21808172.00 L 60469538.00 23608172.00 A 254898.66 254898.66 0 0 0 60626891.00 23843667.00 L 60724436.00 23862292.00 L 62524436.00 23863070.00 A 254898.03 254898.03 0 0 0 62759931.00 23705717.00  zM 62527635.08 23755376.64 L 62524437.00 23754052.00 L 60724435.00 23754052.00 L 60721236.92 23755376.64 A 143664.56 143664.56 0 0 1 60577231.36 23611371.08 L 60578556.00 23608173.00 L 60578556.00 21808171.00 L 60577231.36 21804972.92 A 143664.56 143664.56 0 0 1 60721236.92 21660967.36 L 60724435.00 21662292.00 L 62524437.00 21662292.00 L 62527635.08 21660967.36 A 143664.56 143664.56 0 0 1 62671640.64 21804972.92 L 62670316.00 21808171.00 L 62670316.00 23608173.00 L 62671640.64 23611371.08 A 143664.56 143664.56 0 0 1 62527635.08 23755376.64  z"/>
<path id="N" d="M 57444970.00 41586165.00 L 57463595.00 41488620.00 L 57464373.00 39688620.00 A 254898.66 254898.66 0 0 0 57307020.00 39453125.00 L 57209475.00 39434500.00 L 55409475.00 39433722.00 A 254898.66 254898.66 0 0 0 55173980.00 39591075.00 L 55155355.00 39688620.00 L 55154577.00 41488620.00 A 254898.66 254898.66 0 0 0 55311930.00 41724115.00 L 55409475.00 41742740.00 L 57209475.00 41743518.00 A 254898.03 254898.03 0 0 0 57444970.00 41586165.00  zM 57212674.08 41635824.64 L 57209476.00 41634500.00 L 55409474.00 41634500.00 L 55406275.92 41635824.64 A 143664.56 143664.56 0 0 1 55262270.36 41491819.08 L 55263595.00 41488621.00 L 55263595.00 39688619.00 L 55262270.36 39685420.92 A 143664.56 143664.56 0 0 1 55406275.92 39541415.36 L 55409474.00 39542740.00 L 57209476.00 39542740.00 L 57212674.08 39541415.36 A 143664.56 143664.56 0 0 1 57356679.64 39685420.92 L 57355355.00 39688619.00 L 57355355.00 41488621.00 L 57356679.64 41491819.08 A 143664.56 143664.56 0 0 1 57212674.08 41635824.64  z"/>
<path id="N" d="M 68774890.00 47554669.00 L 68793515.00 47457124.00 L 68794293.00 45657124.00 A 254898.66 254898.66 0 0 0 68636940.00 45421629.00 L 68539395.00 45403004.00 L 66739395.00 45402226.00 A 254898.66 254898.66 0 0 0 66503900.00 45559579.00 L 66485275.00 45657124.00 L 66484497.00 47457124.00 A 254898.66 254898.66 0 0 0 66641850.00 47692619.00 L 66739395.00 47711244.00 L 68539395.00 47712022.00 A 254898.03 254898.03 0 0 0 68774890.00 47554669.00  zM 68542594.08 47604328.64 L 68539396.00 47603004.00 L 66739394.00 47603004.00 L 66736195.92 47604328.64 A 143664.56 143664.56 0 0 1 66592190.36 47460323.08 L 66593515.00 47457125.00 L 66593515.00 45657123.00 L 66592190.36 45653924.92 A 143664.56 143664.56 0 0 1 66736195.92 45509919.36 L 66739394.00 45511244.00 L 68539396.00 45511244.00 L 68542594.08 45509919.36 A 143664.56 143664.56 0 0 1 68686599.64 45653924.92 L 68685275.00 45657123.00 L 68685275.00 47457125.00 L 68686599.64 47460323.08 A 143664.56 143664.56 0 0 1 68542594.08 47604328.64  z"/>
<path id="N" d="M 62759931.00 41586165.00 L 62778556.00 41488620.00 L 62779334.00 39688620.00 A 254898.66 254898.66 0 0 0 62621981.00 39453125.00 L 62524436.00 39434500.00 L 60724436.00 39433722.00 A 254898.66 254898.66 0 0 0 60488941.00 39591075.00 L 60470316.00 39688620.00 L 60469538.00 41488620.00 A 254898.66 254898.66 0 0 0 60626891.00 41724115.00 L 60724436.00 41742740.00 L 62524436.00 41743518.00 A 254898.03 254898.03 0 0 0 62759931.00 41586165.00  zM 62527635.08 41635824.64 L 62524437.00 41634500.00 L 60724435.00 41634500.00 L 60721236.92 41635824.64 A 143664.56 143664.56 0 0 1 60577231.36 41491819.08 L 60578556.00 41488621.00 L 60578556.00 39688619.00 L 60577231.36 39685420.92 A 143664.56 143664.56 0 0 1 60721236.92 39541415.36 L 60724435.00 39542740.00 L 62524437.00 39542740.00 L 62527635.08 39541415.36 A 143664.56 143664.56 0 0 1 62671640.64 39685420.92 L 62670316.00 39688619.00 L 62670316.00 41488621.00 L 62671640.64 41491819.08 A 143664.56 143664.56 0 0 1 62527635.08 41635824.64  z"/>
<path id="N" d="M 62759931.00 35617661.00 L 62778556.00 35520116.00 L 62779334.00 33720116.00 A 254898.66 254898.66 0 0 0 62621981.00 33484621.00 L 62524436.00 33465996.00 L 60724436.00 33465218.00 A 254898.66 254898.66 0 0 0 60488941.00 33622571.00 L 60470316.00 33720116.00 L 60469538.00 35520116.00 A 254898.66 254898.66 0 0 0 60626891.00 35755611.00 L 60724436.00 35774236.00 L 62524436.00 35775014.00 A 254898.03 254898.03 0 0 0 62759931.00 35617661.00  zM 62527635.08 35667320.64 L 62524437.00 35665996.00 L 60724435.00 35665996.00 L 60721236.92 35667320.64 A 143664.56 143664.56 0 0 1 60577231.36 35523315.08 L 60578556.00 35520117.00 L 60578556.00 33720115.00 L 60577231.36 33716916.92 A 143664.56 143664.56 0 0 1 60721236.92 33572911.36 L 60724435.00 33574236.00 L 62524437.00 33574236.00 L 62527635.08 33572911.36 A 143664.56 143664.56 0 0 1 62671640.64 33716916.92 L 62670316.00 33720115.00 L 62670316.00 35520117.00 L 62671640.64 35523315.08 A 143664.56 143664.56 0 0 1 62527635.08 35667320.64  z"/>
<path id="N" d="M 57444971.00 47554669.00 L 57463596.00 47457124.00 L 57464374.00 45657124.00 A 254898.66 254898.66 0 0 0 57307021.00 45421629.00 L 57209476.00 45403004.00 L 55409476.00 45402226.00 A 254898.66 254898.66 0 0 0 55173981.00 45559579.00 L 55155356.00 45657124.00 L 55154578.00 47457124.00 A 254898.66 254898.66 0 0 0 55311931.00 47692619.00 L 55409476.00 47711244.00 L 57209476.00 47712022.00 A 254898.03 254898.03 0 0 0 57444971.00 47554669.00  zM 57212675.08 47604328.64 L 57209477.00 47603004.00 L 55409475.00 47603004.00 L 55406276.92 47604328.64 A 143664.56 143664.56 0 0 1 55262271.36 47460323.08 L 55263596.00 47457125.00 L 55263596.00 45657123.00 L 55262271.36 45653924.92 A 143664.56 143664.56 0 0 1 55406276.92 45509919.36 L 55409475.00 45511244.00 L 57209477.00 45511244.00 L 57212675.08 45509919.36 A 143664.56 143664.56 0 0 1 57356680.64 45653924.92 L 57355356.00 45657123.00 L 57355356.00 47457125.00 L 57356680.64 47460323.08 A 143664.56 143664.56 0 0 1 57212675.08 47604328.64  z"/>
<path id="N" d="M 62759931.00 29674221.00 L 62778556.00 29576676.00 L 62779334.00 27776676.00 A 254898.66 254898.66 0 0 0 62621981.00 27541181.00 L 62524436.00 27522556.00 L 60724436.00 27521778.00 A 254898.66 254898.66 0 0 0 60488941.00 27679131.00 L 60470316.00 27776676.00 L 60469538.00 29576676.00 A 254898.66 254898.66 0 0 0 60626891.00 29812171.00 L 60724436.00 29830796.00 L 62524436.00 29831574.00 A 254898.03 254898.03 0 0 0 62759931.00 29674221.00  zM 62527635.08 29723880.64 L 62524437.00 29722556.00 L 60724435.00 29722556.00 L 60721236.92 29723880.64 A 143664.56 143664.56 0 0 1 60577231.36 29579875.08 L 60578556.00 29576677.00 L 60578556.00 27776675.00 L 60577231.36 27773476.92 A 143664.56 143664.56 0 0 1 60721236.92 27629471.36 L 60724435.00 27630796.00 L 62524437.00 27630796.00 L 62527635.08 27629471.36 A 143664.56 143664.56 0 0 1 62671640.64 27773476.92 L 62670316.00 27776675.00 L 62670316.00 29576677.00 L 62671640.64 29579875.08 A 143664.56 143664.56 0 0 1 62527635.08 29723880.64  z"/>
<path id="N" d="M 66239438.67 39063607.81 m -302603.18 0 a 302603.18 302603.18 0 1 1 605206.36 0a 302603.18 302603.18 0 1 1 -605206.36 0M 66239445.03 39063622.21 m -198817.79 0 a 198817.79 198817.79 0 1 1 397635.58 0a 198817.79 198817.79 0 1 1 -397635.58 0"/>
<path id="N" d="M 66239438.67 27126599.81 m -302603.18 0 a 302603.18 302603.18 0 1 1 605206.36 0a 302603.18 302603.18 0 1 1 -605206.36 0M 66239445.03 27126614.21 m -198817.79 0 a 198817.79 198817.79 0 1 1 397635.58 0a 198817.79 198817.79 0 1 1 -397635.58 0"/>
<path id="N" d="M 69039438.67 33095103.81 m -302603.18 0 a 302603.18 302603.18 0 1 1 605206.36 0a 302603.18 302603.18 0 1 1 -605206.36 0M 69039445.03 33095118.21 m -198817.79 0 a 198817.79 198817.79 0 1 1 397635.58 0a 198817.79 198817.79 0 1 1 -397635.58 0"/>
<path id="N" d="M 66239438.67 21158095.81 m -302603.18 0 a 302603.18 302603.18 0 1 1 605206.36 0a 302603.18 302603.18 0 1 1 -605206.36 0M 66239445.03 21158110.21 m -198817.79 0 a 198817.79 198817.79 0 1 1 397635.58 0a 198817.79 198817.79 0 1 1 -397635.58 0"/>
<path id="N" d="M 69039438.67 21158095.81 m -302603.18 0 a 302603.18 302603.18 0 1 1 605206.36 0a 302603.18 302603.18 0 1 1 -605206.36 0M 69039445.03 21158110.21 m -198817.79 0 a 198817.79 198817.79 0 1 1 397635.58 0a 198817.79 198817.79 0 1 1 -397635.58 0"/>
<path id="N" d="M 69039438.67 42063607.81 m -302603.18 0 a 302603.18 302603.18 0 1 1 605206.36 0a 302603.18 302603.18 0 1 1 -605206.36 0M 69039445.03 42063622.21 m -198817.79 0 a 198817.79 198817.79 0 1 1 397635.58 0a 198817.79 198817.79 0 1 1 -397635.58 0"/>
<path id="N" d="M 69039438.67 30126599.81 m -302603.18 0 a 302603.18 302603.18 0 1 1 605206.36 0a 302603.18 302603.18 0 1 1 -605206.36 0M 69039445.03 30126614.21 m -198817.79 0 a 198817.79 198817.79 0 1 1 397635.58 0a 198817.79 198817.79 0 1 1 -397635.58 0"/>
<path id="N" d="M 69039438.67 27126599.81 m -302603.18 0 a 302603.18 302603.18 0 1 1 605206.36 0a 302603.18 302603.18 0 1 1 -605206.36 0M 69039445.03 27126614.21 m -198817.79 0 a 198817.79 198817.79 0 1 1 397635.58 0a 198817.79 198817.79 0 1 1 -397635.58 0"/>
<path id="N" d="M 69039438.67 24158095.81 m -302603.18 0 a 302603.18 302603.18 0 1 1 605206.36 0a 302603.18 302603.18 0 1 1 -605206.36 0M 69039445.03 24158110.21 m -198817.79 0 a 198817.79 198817.79 0 1 1 397635.58 0a 198817.79 198817.79 0 1 1 -397635.58 0"/>
<path id="N" d="M 66239445.01 24158108.52 m -302589.01 0 a 302589.01 302589.01 0 1 1 605178.01 0a 302589.01 302589.01 0 1 1 -605178.01 0M 66239444.03 24158110.21 m -198817.79 0 a 198817.79 198817.79 0 1 1 397635.58 0a 198817.79 198817.79 0 1 1 -397635.58 0"/>
<path id="N" d="M 66239445.01 36095116.52 m -302589.01 0 a 302589.01 302589.01 0 1 1 605178.01 0a 302589.01 302589.01 0 1 1 -605178.01 0M 66239444.03 36095118.21 m -198817.79 0 a 198817.79 198817.79 0 1 1 397635.58 0a 198817.79 198817.79 0 1 1 -397635.58 0"/>
<path id="N" d="M 66239445.01 30126612.52 m -302589.01 0 a 302589.01 302589.01 0 1 1 605178.01 0a 302589.01 302589.01 0 1 1 -605178.01 0M 66239444.03 30126614.21 m -198817.79 0 a 198817.79 198817.79 0 1 1 397635.58 0a 198817.79 198817.79 0 1 1 -397635.58 0"/>
<path id="N" d="M 66239445.01 42063620.52 m -302589.01 0 a 302589.01 302589.01 0 1 1 605178.01 0a 302589.01 302589.01 0 1 1 -605178.01 0M 66239444.03 42063622.21 m -198817.79 0 a 198817.79 198817.79 0 1 1 397635.58 0a 198817.79 198817.79 0 1 1 -397635.58 0"/>
<path id="N" d="M 69039438.67 36095103.81 m -302603.18 0 a 302603.18 302603.18 0 1 1 605206.36 0a 302603.18 302603.18 0 1 1 -605206.36 0M 69039445.03 36095118.21 m -198817.79 0 a 198817.79 198817.79 0 1 1 397635.58 0a 198817.79 198817.79 0 1 1 -397635.58 0"/>
<path id="N" d="M 69039438.67 39063607.81 m -302603.18 0 a 302603.18 302603.18 0 1 1 605206.36 0a 302603.18 302603.18 0 1 1 -605206.36 0M 69039445.03 39063622.21 m -198817.79 0 a 198817.79 198817.79 0 1 1 397635.58 0a 198817.79 198817.79 0 1 1 -397635.58 0"/>
<path id="N" d="M 66239438.67 33095103.81 m -302603.18 0 a 302603.18 302603.18 0 1 1 605206.36 0a 302603.18 302603.18 0 1 1 -605206.36 0M 66239445.03 33095118.21 m -198817.79 0 a 198817.79 198817.79 0 1 1 397635.58 0a 198817.79 198817.79 0 1 1 -397635.58 0"/>
<path id="N" d="M 62718178.00 46490934.00 L 62778556.00 46482985.20 L 62779334.00 45657124.00 A 254898.66 254898.66 0 0 0 62621981.00 45421629.00 L 62524436.00 45403004.00 L 60724436.00 45402226.00 A 254898.66 254898.66 0 0 0 60488941.00 45559579.00 L 60470316.00 45657124.00 L 60470316.00 46482985.20 L 60530694.00 46490934.00 L 60578556.00 46510759.40 L 60578556.00 45657123.00 L 60577231.36 45653924.92 A 143664.56 143664.56 0 0 1 60721236.92 45509919.36 L 60724435.00 45511244.00 L 62524437.00 45511244.00 L 62527635.08 45509919.36 A 143664.56 143664.56 0 0 1 62671640.64 45653924.92 L 62670316.00 45657123.00 L 62670316.00 46510759.40 L 62718178.00 46490934.00  z"/>
<path id="N" d="M 62759931.00 47554669.00 L 62778556.00 47457124.00 L 62778556.00 47150946.80 L 62718178.00 47142998.00 L 62670316.00 47123172.60 L 62670316.00 47457125.00 L 62671640.64 47460323.08 A 143664.56 143664.56 0 0 1 62527635.08 47604328.64 L 62524437.00 47603004.00 L 60724435.00 47603004.00 L 60721236.92 47604328.64 A 143664.56 143664.56 0 0 1 60577231.36 47460323.08 L 60578556.00 47457125.00 L 60578556.00 47123172.60 L 60530694.00 47142998.00 L 60470316.00 47150946.80 L 60469538.00 47457124.00 A 254898.66 254898.66 0 0 0 60626891.00 47692619.00 L 60724436.00 47711244.00 L 62524436.00 47712022.00 A 254898.03 254898.03 0 0 0 62759931.00 47554669.00  z"/>
<path id="N" d="M 57063595.00 40378620.00 L 57063595.00 40088620.00 L 57047744.00 40050351.00 L 57009475.00 40034500.00 L 55609475.00 40034500.00 L 55571206.00 40050351.00 L 55555355.00 40088620.00 L 55555355.00 40378620.00 A 54118.70 54118.70 0 0 0 55663595.00 40378620.00 L 55663595.00 40142740.00 L 56255355.00 40142740.00 L 56255355.00 40348619.00 A 54118.70 54118.70 0 1 0 56363595.00 40348619.00 L 56363595.00 40142740.00 L 56955355.00 40142740.00 L 56955355.00 40378620.00 A 54118.70 54118.70 0 0 0 57063595.00 40378620.00  z"/>
<path id="N" d="M 57063596.00 46347124.00 L 57063596.00 46057124.00 L 57047745.00 46018855.00 L 57009476.00 46003004.00 L 55609476.00 46003004.00 L 55571207.00 46018855.00 L 55555356.00 46057124.00 L 55555356.00 46347124.00 A 54118.70 54118.70 0 0 0 55663596.00 46347124.00 L 55663596.00 46111244.00 L 56255356.00 46111244.00 L 56255356.00 46317123.00 A 54118.70 54118.70 0 0 0 56363596.00 46317123.00 L 56363596.00 46111244.00 L 56955356.00 46111244.00 L 56955356.00 46347124.00 A 54118.70 54118.70 0 1 0 57063596.00 46347124.00  z"/>
<path id="N" d="M 62378556.00 46347124.00 L 62378556.00 46057124.00 L 62362705.00 46018855.00 L 62324436.00 46003004.00 L 60924436.00 46003004.00 L 60886167.00 46018855.00 L 60870316.00 46057124.00 L 60870316.00 46347124.00 A 54118.70 54118.70 0 1 0 60978556.00 46347124.00 L 60978556.00 46111244.00 L 61570316.00 46111244.00 L 61570316.00 46317123.00 A 54118.70 54118.70 0 0 0 61678556.00 46317123.00 L 61678556.00 46111244.00 L 62270316.00 46111244.00 L 62270316.00 46347124.00 A 54118.70 54118.70 0 1 0 62378556.00 46347124.00  z"/>
<path id="N" d="M 62378556.00 28466676.00 L 62378556.00 28176676.00 L 62362705.00 28138407.00 L 62324436.00 28122556.00 L 60924436.00 28122556.00 L 60886167.00 28138407.00 L 60870316.00 28176676.00 L 60870316.00 28466676.00 A 54118.70 54118.70 0 1 0 60978556.00 28466676.00 L 60978556.00 28230796.00 L 61570316.00 28230796.00 L 61570316.00 28436675.00 A 54118.70 54118.70 0 0 0 61678556.00 28436675.00 L 61678556.00 28230796.00 L 62270316.00 28230796.00 L 62270316.00 28466676.00 A 54118.70 54118.70 0 1 0 62378556.00 28466676.00  z"/>
<path id="N" d="M 62378556.00 34410116.00 L 62378556.00 34120116.00 L 62362705.00 34081847.00 L 62324436.00 34065996.00 L 60924436.00 34065996.00 L 60886167.00 34081847.00 L 60870316.00 34120116.00 L 60870316.00 34410116.00 A 54118.70 54118.70 0 1 0 60978556.00 34410116.00 L 60978556.00 34174236.00 L 61570316.00 34174236.00 L 61570316.00 34380115.00 A 54118.70 54118.70 0 0 0 61678556.00 34380115.00 L 61678556.00 34174236.00 L 62270316.00 34174236.00 L 62270316.00 34410116.00 A 54118.70 54118.70 0 1 0 62378556.00 34410116.00  z"/>
<path id="N" d="M 62378556.00 22498172.00 L 62378556.00 22208172.00 L 62362705.00 22169903.00 L 62324436.00 22154052.00 L 60924436.00 22154052.00 L 60886167.00 22169903.00 L 60870316.00 22208172.00 L 60870316.00 22498172.00 A 54118.70 54118.70 0 0 0 60978556.00 22498172.00 L 60978556.00 22262292.00 L 61570316.00 22262292.00 L 61570316.00 22468171.00 A 54118.70 54118.70 0 0 0 61678556.00 22468171.00 L 61678556.00 22262292.00 L 62270316.00 22262292.00 L 62270316.00 22498172.00 A 54118.70 54118.70 0 0 0 62378556.00 22498172.00  z"/>
<path id="N" d="M 62378556.00 40378620.00 L 62378556.00 40088620.00 L 62362705.00 40050351.00 L 62324436.00 40034500.00 L 60924436.00 40034500.00 L 60886167.00 40050351.00 L 60870316.00 40088620.00 L 60870316.00 40378620.00 A 54118.70 54118.70 0 0 0 60978556.00 40378620.00 L 60978556.00 40142740.00 L 61570316.00 40142740.00 L 61570316.00 40348619.00 A 54118.70 54118.70 0 0 0 61678556.00 40348619.00 L 61678556.00 40142740.00 L 62270316.00 40142740.00 L 62270316.00 40378620.00 A 54118.70 54118.70 0 0 0 62378556.00 40378620.00  z"/>
<path id="N" d="M 68393515.00 46347124.00 L 68393515.00 46057124.00 L 68377664.00 46018855.00 L 68339395.00 46003004.00 L 66939395.00 46003004.00 L 66901126.00 46018855.00 L 66885275.00 46057124.00 L 66885275.00 46347124.00 A 54118.70 54118.70 0 0 0 66993515.00 46347124.00 L 66993515.00 46111244.00 L 67585275.00 46111244.00 L 67585275.00 46317123.00 A 54118.70 54118.70 0 1 0 67693515.00 46317123.00 L 67693515.00 46111244.00 L 68285275.00 46111244.00 L 68285275.00 46347124.00 A 54118.70 54118.70 0 0 0 68393515.00 46347124.00  z"/>
<path id="N" d="M 68435410.00 35690666.00 L 68495087.50 35639696.63 L 68436318.00 35628007.00 L 68386261.41 35594559.35 L 68373502.00 35605457.00 A 1248904.57 1248904.57 0 0 1 66905390.00 35605457.00 L 66892630.59 35594559.35 L 66842574.00 35628007.00 L 66783804.50 35639696.63 L 66843482.00 35690666.00 A 1354190.94 1354190.94 0 0 0 68435410.00 35690666.00  z"/>
<path id="N" d="M 68435410.00 29722162.00 L 68495087.50 29671192.63 L 68436318.00 29659503.00 L 68386261.41 29626055.35 L 68373502.00 29636953.00 A 1248904.57 1248904.57 0 0 1 66905390.00 29636953.00 L 66892630.59 29626055.35 L 66842574.00 29659503.00 L 66783804.50 29671192.63 L 66843482.00 29722162.00 A 1354190.94 1354190.94 0 0 0 68435410.00 29722162.00  z"/>
<path id="N" d="M 68435410.00 41659170.00 L 68495087.50 41608200.63 L 68436318.00 41596511.00 L 68386261.41 41563063.35 L 68373502.00 41573961.00 A 1248904.57 1248904.57 0 0 1 66905390.00 41573961.00 L 66892630.59 41563063.35 L 66842574.00 41596511.00 L 66783804.50 41608200.63 L 66843482.00 41659170.00 A 1354190.94 1354190.94 0 0 0 68435410.00 41659170.00  z"/>
<path id="N" d="M 68435410.00 23753658.00 L 68495087.50 23702688.63 L 68436318.00 23690999.00 L 68386261.41 23657551.35 L 68373502.00 23668449.00 A 1248904.57 1248904.57 0 0 1 66905390.00 23668449.00 L 66892630.59 23657551.35 L 66842574.00 23690999.00 L 66783804.50 23702688.63 L 66843482.00 23753658.00 A 1354190.94 1354190.94 0 0 0 68435410.00 23753658.00  z"/>
<path id="N" d="M 73138122.00 35025782.00 L 73150803.00 34995167.00 L 73150803.00 34295167.00 L 73138122.00 34264552.00 L 73107507.00 34251871.00 L 72257506.00 34251871.00 L 72226891.00 34264552.00 L 72214210.00 34295167.00 L 72226891.00 34325782.00 L 72257506.00 34338463.00 L 72914211.00 34338463.00 L 72914211.00 34951870.77 L 72257507.00 34951870.00 L 72226892.00 34964551.00 L 72214211.00 34995166.00 L 72226892.00 35025781.00 L 72257507.00 35038462.00 L 73107507.00 35038463.00 L 73138122.00 35025782.00  zM 73064211.00 34951870.95 L 73000803.00 34951870.87 L 73000803.00 34338463.00 L 73064211.00 34338463.00 L 73064211.00 34951870.95  z"/>
<path id="N" d="M 73138122.00 23088773.00 L 73150803.00 23058158.00 L 73150803.00 22358158.00 L 73138122.00 22327543.00 L 73107507.00 22314862.00 L 72257506.00 22314863.00 L 72226891.00 22327544.00 L 72214210.00 22358159.00 L 72226891.00 22388774.00 L 72257506.00 22401455.00 L 72914211.00 22401454.23 L 72914211.00 23014861.77 L 72257506.00 23014861.00 L 72226891.00 23027542.00 L 72214210.00 23058157.00 L 72226891.00 23088772.00 L 72257506.00 23101453.00 L 73107507.00 23101454.00 L 73138122.00 23088773.00  zM 73064211.00 23014861.95 L 73000803.00 23014861.87 L 73000803.00 22401454.13 L 73064211.00 22401454.05 L 73064211.00 23014861.95  z"/>
<path id="N" d="M 56339757.93 44695542.78 L 56339757.96 44490366.78 L 56285373.97 44437218.77 L 56112333.97 44437218.74 L 56112334.00 44269740.74 L 56271778.00 44269740.77 L 56271777.98 44380980.77 L 56339757.98 44380980.78 L 56339758.00 44256762.78 L 56285374.01 44201760.77 L 56098120.01 44201760.74 L 56044354.00 44256762.73 L 56044353.97 44450196.73 L 56098119.96 44504580.74 L 56271777.96 44504580.77 L 56271777.93 44682564.77 L 56112333.93 44682564.74 L 56112333.95 44563908.74 L 56044353.95 44563908.73 L 56044353.93 44695542.73 L 56098119.92 44750544.74 L 56286609.92 44750544.77 L 56339757.93 44695542.78  z"/>
<path id="N" d="M 73107507.00 29069957.00 L 73138122.00 29057276.00 L 73150803.00 29026661.00 L 73150803.00 28326663.00 L 73138122.00 28296048.00 L 73107507.00 28283367.00 L 72257507.00 28283366.00 L 72226892.00 28296047.00 L 72214211.00 28326662.00 L 72226892.00 28357277.00 L 72257507.00 28369958.00 L 72914211.00 28369958.77 L 72914211.00 28983365.23 L 72257507.00 28983366.00 L 72226892.00 28996047.00 L 72214211.00 29026662.00 L 72226892.00 29057277.00 L 72257507.00 29069958.00 L 73107507.00 29069957.00  zM 73000803.00 28983365.13 L 73000803.00 28369958.87 L 73064211.00 28369958.95 L 73064211.00 28983365.05 L 73000803.00 28983365.13  z"/>
<path id="N" d="M 73138122.00 39916886.00 L 73150803.00 39886271.00 L 73150803.00 39186271.00 L 73138122.00 39155656.00 L 73107507.00 39142975.00 L 72257507.00 39142975.00 L 72226892.00 39155656.00 L 72214211.00 39186271.00 L 72226892.00 39216886.00 L 72257507.00 39229567.00 L 72914211.00 39229567.00 L 72914211.00 39842975.00 L 72257507.00 39842975.00 L 72226892.00 39855656.00 L 72214211.00 39886271.00 L 72226892.00 39916886.00 L 72257507.00 39929567.00 L 73107507.00 39929567.00 L 73138122.00 39916886.00  zM 73064211.00 39842975.00 L 73000803.00 39842975.00 L 73000803.00 39229567.00 L 73064211.00 39229567.00 L 73064211.00 39842975.00  z"/>
<path id="N" d="M 73138122.00 42071684.00 L 73150803.00 42041069.00 L 73150803.00 41341069.00 L 73138122.00 41310454.00 L 73107507.00 41297773.00 L 72257507.00 41297773.00 L 72226892.00 41310454.00 L 72214211.00 41341069.00 L 72226892.00 41371684.00 L 72257507.00 41384365.00 L 72914211.00 41384365.00 L 72914211.00 41997773.00 L 72257507.00 41997773.00 L 72226892.00 42010454.00 L 72214211.00 42041069.00 L 72226892.00 42071684.00 L 72257507.00 42084365.00 L 73107507.00 42084365.00 L 73138122.00 42071684.00  zM 73064211.00 41997773.00 L 73000803.00 41997773.00 L 73000803.00 41384365.00 L 73064211.00 41384365.00 L 73064211.00 41997773.00  z"/>
<path id="N" d="M 62380868.01 26298910.94 L 62312888.01 26298910.93 L 62312887.98 26494816.93 L 62219569.98 26494816.91 L 62219570.00 26352676.91 L 62165186.01 26298292.90 L 62086700.01 26298292.89 L 62086700.00 26366272.89 L 62151590.00 26366272.90 L 62151589.98 26494816.90 L 62141701.98 26494816.90 L 62086699.97 26547964.89 L 62086699.93 26778478.89 L 62141083.92 26833480.90 L 62380867.92 26833480.94 L 62380868.01 26298910.94  zM 62312887.93 26765500.93 L 62154679.93 26765500.90 L 62154679.97 26562178.90 L 62312887.97 26562178.93 L 62312887.93 26765500.93  z"/>
<path id="N" d="M 57581320.01 44202997.00 L 57513340.01 44202996.99 L 57513339.98 44398902.99 L 57420021.98 44398902.97 L 57420022.00 44256762.97 L 57365638.01 44202378.96 L 57287152.01 44202378.95 L 57287152.00 44270358.95 L 57352042.00 44270358.96 L 57352041.98 44398902.96 L 57342153.98 44398902.96 L 57287151.97 44452050.95 L 57287151.93 44682564.95 L 57341535.92 44737566.96 L 57581319.92 44737567.00 L 57581320.01 44202997.00  zM 57513339.93 44669586.99 L 57355131.93 44669586.96 L 57355131.97 44466264.96 L 57513339.97 44466264.99 L 57513339.93 44669586.99  z"/>
<path id="N" d="M 60825980.01 26298910.67 L 60758000.01 26298910.66 L 60757999.98 26494816.66 L 60664681.98 26494816.64 L 60664682.00 26352676.64 L 60610298.01 26298292.63 L 60531812.01 26298292.62 L 60531812.00 26366272.62 L 60596702.00 26366272.63 L 60596701.98 26494816.63 L 60586813.98 26494816.63 L 60531811.97 26547964.62 L 60531811.93 26778478.62 L 60586195.92 26833480.63 L 60825979.92 26833480.67 L 60825980.01 26298910.67  zM 60757999.93 26765500.66 L 60599791.93 26765500.63 L 60599791.97 26562178.63 L 60757999.97 26562178.66 L 60757999.93 26765500.66  z"/>
<path id="N" d="M 61432238.01 20330406.76 L 61364258.01 20330406.75 L 61364257.98 20526312.75 L 61270939.98 20526312.74 L 61270940.00 20384172.74 L 61216556.01 20329788.73 L 61138070.01 20329788.71 L 61138070.00 20397768.71 L 61202960.00 20397768.72 L 61202959.98 20526312.72 L 61193071.98 20526312.72 L 61138069.97 20579460.71 L 61138069.93 20809974.71 L 61192453.92 20864976.72 L 61432237.92 20864976.76 L 61432238.01 20330406.76  zM 61364257.93 20796996.75 L 61206049.93 20796996.72 L 61206049.97 20593674.72 L 61364257.97 20593674.75 L 61364257.93 20796996.75  z"/>
<path id="N" d="M 71888122.00 23088773.00 L 71900803.00 23058158.00 L 71888122.00 23027543.00 L 71857507.00 23014862.00 L 71200803.00 23014862.00 L 71200803.00 22401454.00 L 71857507.00 22401454.00 L 71888122.00 22388773.00 L 71900803.00 22358158.00 L 71888122.00 22327543.00 L 71857507.00 22314862.00 L 71157507.00 22314862.00 L 71126892.00 22327543.00 L 71114211.00 22358158.00 L 71114211.00 23058158.00 L 71126892.00 23088773.00 L 71157507.00 23101454.00 L 71857507.00 23101454.00 L 71888122.00 23088773.00  z"/>
<path id="N" d="M 71888122.00 35025781.00 L 71900803.00 34995166.00 L 71888122.00 34964551.00 L 71857507.00 34951870.00 L 71200803.00 34951869.06 L 71200803.00 34338462.88 L 71857508.00 34338461.00 L 71888123.00 34325780.00 L 71900804.00 34295165.00 L 71888123.00 34264550.00 L 71857508.00 34251869.00 L 71157507.00 34251871.00 L 71126892.00 34264552.00 L 71114211.00 34295167.00 L 71114211.00 34995165.00 L 71126892.00 35025780.00 L 71157507.00 35038461.00 L 71857507.00 35038462.00 L 71888122.00 35025781.00  z"/>
<path id="N" d="M 71888122.00 29057277.00 L 71900803.00 29026662.00 L 71888122.00 28996047.00 L 71857507.00 28983366.00 L 71200803.00 28983365.06 L 71200803.00 28369958.94 L 71857507.00 28369958.00 L 71888122.00 28357277.00 L 71900803.00 28326662.00 L 71888122.00 28296047.00 L 71857507.00 28283366.00 L 71157507.00 28283367.00 L 71126892.00 28296048.00 L 71114211.00 28326663.00 L 71114211.00 29026661.00 L 71126892.00 29057276.00 L 71157507.00 29069957.00 L 71857507.00 29069958.00 L 71888122.00 29057277.00  z"/>
<path id="N" d="M 71857507.00 39929567.00 L 71888122.00 39916886.00 L 71900803.00 39886271.00 L 71888122.00 39855656.00 L 71857507.00 39842975.00 L 71200803.00 39842975.94 L 71200803.00 39229567.06 L 71857508.00 39229568.00 L 71888123.00 39216887.00 L 71900804.00 39186272.00 L 71888123.00 39155657.00 L 71857508.00 39142976.00 L 71157507.00 39142975.00 L 71126892.00 39155656.00 L 71114211.00 39186271.00 L 71114211.00 39886272.00 L 71126892.00 39916887.00 L 71157507.00 39929568.00 L 71857507.00 39929567.00  z"/>
<path id="N" d="M 61496509.93 26778478.79 L 61496510.00 26351440.79 L 61442744.01 26297674.78 L 61255490.01 26297674.74 L 61201724.00 26352676.74 L 61201723.96 26572684.74 L 61346335.96 26572684.76 L 61346335.98 26504704.76 L 61269085.98 26504704.75 L 61269086.00 26365654.75 L 61428530.00 26365654.77 L 61428529.93 26765500.77 L 61269085.93 26765500.75 L 61269085.95 26632630.75 L 61201723.95 26632630.74 L 61201723.93 26778478.74 L 61255489.92 26833480.74 L 61442743.92 26833480.78 L 61496509.93 26778478.79  z"/>
<path id="N" d="M 61832083.93 26778478.85 L 61832084.00 26351440.85 L 61778318.01 26297674.84 L 61591064.01 26297674.80 L 61537298.00 26352676.79 L 61537297.96 26572684.79 L 61681909.96 26572684.82 L 61681909.98 26504704.82 L 61604659.98 26504704.81 L 61604660.00 26365654.81 L 61764104.00 26365654.83 L 61764103.93 26765500.83 L 61604659.93 26765500.81 L 61604659.95 26632630.81 L 61537297.95 26632630.79 L 61537297.93 26778478.79 L 61591063.92 26833480.80 L 61778317.92 26833480.84 L 61832083.93 26778478.85  z"/>
<path id="N" d="M 71857508.00 42084364.00 L 71888123.00 42071683.00 L 71900804.00 42041068.00 L 71888123.00 42010453.00 L 71857508.00 41997772.00 L 71200803.00 41997772.94 L 71200803.00 41384364.06 L 71857507.00 41384365.00 L 71888122.00 41371684.00 L 71900803.00 41341069.00 L 71888122.00 41310454.00 L 71857507.00 41297773.00 L 71157507.00 41297772.00 L 71126892.00 41310453.00 L 71114211.00 41341068.00 L 71114211.00 42041069.00 L 71126892.00 42071684.00 L 71157507.00 42084365.00 L 71857508.00 42084364.00  z"/>
<path id="N" d="M 72820468.00 47200070.00 L 72829979.00 47177109.00 L 72829979.00 47057109.00 L 72820468.00 47034148.00 L 72797507.00 47024637.00 L 72774546.00 47034148.00 L 72765035.00 47057109.00 L 72765035.00 47144637.00 L 71449979.00 47144637.00 L 71449979.00 47077109.00 L 71440468.00 47054148.00 L 71417507.00 47044637.00 L 71394546.00 47054148.00 L 71385035.00 47077109.00 L 71385035.00 47177109.00 L 71394546.00 47200070.00 L 71417507.00 47209581.00 L 72797507.00 47209581.00 L 72820468.00 47200070.00  z"/>
<path id="N" d="M 56302947.01 38234492.84 L 56061927.01 38234492.80 L 56008161.00 38289494.79 L 56008160.97 38466242.79 L 56042150.97 38499614.80 L 56008160.96 38534222.79 L 56008160.93 38715914.79 L 56061926.92 38770298.80 L 56302946.92 38770298.84 L 56302947.01 38234492.84  zM 56234966.97 38466242.83 L 56075522.97 38466242.80 L 56075523.00 38302472.80 L 56234967.00 38302472.83 L 56234966.97 38466242.83  zM 56234966.93 38702318.83 L 56075522.93 38702318.80 L 56076140.96 38534222.80 L 56234966.96 38534222.83 L 56234966.93 38702318.83  z"/>
<path id="N" d="M 72820468.00 46180070.00 L 72829979.00 46157109.00 L 72829979.00 46057109.00 L 72820468.00 46034148.00 L 72797507.00 46024637.00 L 71567507.00 46024637.00 L 71544546.00 46034148.00 L 71444546.00 46134148.00 L 71435035.00 46157109.00 L 71444546.00 46180070.00 L 71467507.00 46189581.00 L 71490468.00 46180070.00 L 71580957.00 46089581.00 L 72765035.00 46089581.00 L 72765035.00 46157109.00 L 72774546.00 46180070.00 L 72797507.00 46189581.00 L 72820468.00 46180070.00  z"/>
<path id="N" d="M 72674997.00 45951487.00 L 72687678.00 45920872.00 L 72687678.00 45409060.00 L 72674997.00 45378445.00 L 72644382.00 45365764.00 L 71620760.00 45365764.00 L 71590145.00 45378445.00 L 71577464.00 45409060.00 L 71577464.00 45920872.00 L 71590145.00 45951487.00 L 71620760.00 45964168.00 L 72644382.00 45964168.00 L 72674997.00 45951487.00  zM 72601086.00 45877576.00 L 71664056.00 45877576.00 L 71664056.00 45452356.00 L 72601086.00 45452356.00 L 72601086.00 45877576.00  z"/>
<path id="N" d="M 72674933.00 34144464.00 L 72687614.00 34113849.00 L 72687613.00 33602036.00 L 72674932.00 33571421.00 L 72644317.00 33558740.00 L 71620696.00 33558740.00 L 71590081.00 33571421.00 L 71577400.00 33602036.00 L 71577400.00 34113847.00 L 71590081.00 34144462.00 L 71620696.00 34157143.00 L 72644318.00 34157145.00 L 72674933.00 34144464.00  zM 72601021.92 34070552.92 L 71663992.00 34070551.08 L 71663992.00 33645332.00 L 72601021.08 33645332.00 L 72601021.92 34070552.92  z"/>
<path id="N" d="M 57210788.93 38715915.00 L 57210789.00 38289495.00 L 57156405.01 38234492.99 L 56970387.01 38234492.96 L 56915385.00 38289494.95 L 56915384.98 38434724.95 L 56983364.98 38434724.96 L 56983365.00 38302472.96 L 57142809.00 38302472.99 L 57142808.93 38702936.99 L 56983364.93 38702936.96 L 56983364.95 38562650.96 L 56915384.95 38562650.95 L 56915384.93 38715914.95 L 56970386.92 38770916.96 L 57156404.92 38770916.99 L 57210788.93 38715915.00  z"/>
<path id="N" d="M 62258503.93 38716105.00 L 62258504.00 38289685.00 L 62204120.01 38234682.99 L 62018102.01 38234682.96 L 61963100.00 38289684.95 L 61963099.98 38434914.95 L 62031079.98 38434914.96 L 62031080.00 38302662.96 L 62190524.00 38302662.99 L 62190523.93 38703126.99 L 62031079.93 38703126.96 L 62031079.95 38562840.96 L 61963099.95 38562840.95 L 61963099.93 38716104.95 L 62018101.92 38771106.96 L 62204119.92 38771106.99 L 62258503.93 38716105.00  z"/>
<path id="N" d="M 72599901.00 39035409.00 L 72612582.00 39004794.00 L 72612582.00 38492982.00 L 72599901.00 38462367.00 L 72569286.00 38449686.00 L 71545664.00 38449686.00 L 71515049.00 38462367.00 L 71502368.00 38492982.00 L 71502368.00 39004794.00 L 71515049.00 39035409.00 L 71545664.00 39048090.00 L 72569286.00 39048090.00 L 72599901.00 39035409.00  zM 72525990.00 38961498.00 L 71588960.00 38961498.00 L 71588960.00 38536278.00 L 72525990.00 38536278.00 L 72525990.00 38961498.00  z"/>
<path id="N" d="M 68193566.00 35095116.00 L 68193566.00 34095116.00 L 68177715.00 34056847.00 L 68139446.00 34040996.00 L 67139446.00 34040996.00 L 67101177.00 34056847.00 L 67085326.00 34095116.00 L 67085326.00 35095116.00 L 67101177.00 35133385.00 L 67139446.00 35149236.00 L 68139446.00 35149236.00 L 68177715.00 35133385.00 L 68193566.00 35095116.00  zM 68085326.00 35040996.00 L 67193566.00 35040996.00 L 67193566.00 34149236.00 L 68085326.00 34149236.00 L 68085326.00 35040996.00  z"/>
<path id="N" d="M 68193566.00 23158108.00 L 68193566.00 22158108.00 L 68177715.00 22119839.00 L 68139446.00 22103988.00 L 67139446.00 22103988.00 L 67101177.00 22119839.00 L 67085326.00 22158108.00 L 67085326.00 23158108.00 L 67101177.00 23196377.00 L 67139446.00 23212228.00 L 68139446.00 23212228.00 L 68177715.00 23196377.00 L 68193566.00 23158108.00  zM 68085326.00 23103988.00 L 67193566.00 23103988.00 L 67193566.00 22212228.00 L 68085326.00 22212228.00 L 68085326.00 23103988.00  z"/>
<path id="N" d="M 62781949.93 20810593.00 L 62781950.00 20384173.00 L 62727566.01 20329170.99 L 62541548.01 20329170.96 L 62486546.00 20384172.95 L 62486545.98 20529402.95 L 62554525.98 20529402.96 L 62554526.00 20397150.96 L 62713970.00 20397150.99 L 62713969.93 20797614.99 L 62554525.93 20797614.96 L 62554525.95 20657328.96 L 62486545.95 20657328.95 L 62486545.93 20810592.95 L 62541547.92 20865594.96 L 62727565.92 20865594.99 L 62781949.93 20810593.00  z"/>
<path id="N" d="M 72599901.00 41190134.00 L 72612582.00 41159519.00 L 72612582.00 40647707.00 L 72599901.00 40617092.00 L 72569286.00 40604411.00 L 71545664.00 40604411.00 L 71515049.00 40617092.00 L 71502368.00 40647707.00 L 71502368.00 41159519.00 L 71515049.00 41190134.00 L 71545664.00 41202815.00 L 72569286.00 41202815.00 L 72599901.00 41190134.00  zM 72525990.00 41116223.00 L 71588960.00 41116223.00 L 71588960.00 40691003.00 L 72525990.00 40691003.00 L 72525990.00 41116223.00  z"/>
<path id="N" d="M 72674933.00 22207457.00 L 72687614.00 22176842.00 L 72687614.00 21665030.00 L 72674933.00 21634415.00 L 72644318.00 21621734.00 L 71620696.00 21621734.00 L 71590081.00 21634415.00 L 71577400.00 21665030.00 L 71577400.00 22176842.00 L 71590081.00 22207457.00 L 71620696.00 22220138.00 L 72644318.00 22220138.00 L 72674933.00 22207457.00  zM 72601022.00 22133546.00 L 71663992.00 22133546.00 L 71663992.00 21708326.00 L 72601022.00 21708326.00 L 72601022.00 22133546.00  z"/>
<path id="N" d="M 68193566.00 41063620.00 L 68193566.00 40063620.00 L 68177715.00 40025351.00 L 68139446.00 40009500.00 L 67139446.00 40009500.00 L 67101177.00 40025351.00 L 67085326.00 40063620.00 L 67085326.00 41063620.00 L 67101177.00 41101889.00 L 67139446.00 41117740.00 L 68139446.00 41117740.00 L 68177715.00 41101889.00 L 68193566.00 41063620.00  zM 68085326.00 41009500.00 L 67193566.00 41009500.00 L 67193566.00 40117740.00 L 68085326.00 40117740.00 L 68085326.00 41009500.00  z"/>
<path id="N" d="M 72624862.00 28175960.00 L 72637543.00 28145345.00 L 72637543.00 27633533.00 L 72624862.00 27602918.00 L 72594247.00 27590237.00 L 71570625.00 27590237.00 L 71540010.00 27602918.00 L 71527329.00 27633533.00 L 71527329.00 28145345.00 L 71540010.00 28175960.00 L 71570625.00 28188641.00 L 72594247.00 28188641.00 L 72624862.00 28175960.00  zM 72550951.00 28102049.00 L 71613921.00 28102049.00 L 71613921.00 27676829.00 L 72550951.00 27676829.00 L 72550951.00 28102049.00  z"/>
<path id="N" d="M 68193566.00 29126612.00 L 68193566.00 28126612.00 L 68177715.00 28088343.00 L 68139446.00 28072492.00 L 67139446.00 28072492.00 L 67101177.00 28088343.00 L 67085326.00 28126612.00 L 67085326.00 29126612.00 L 67101177.00 29164881.00 L 67139446.00 29180732.00 L 68139446.00 29180732.00 L 68177715.00 29164881.00 L 68193566.00 29126612.00  zM 68085326.00 29072492.00 L 67193566.00 29072492.00 L 67193566.00 28180732.00 L 68085326.00 28180732.00 L 68085326.00 29072492.00  z"/>
<path id="N" d="M 72674997.00 45301487.00 L 72687678.00 45270872.00 L 72687678.00 44759060.00 L 72674997.00 44728445.00 L 72644382.00 44715764.00 L 71620760.00 44715764.00 L 71590145.00 44728445.00 L 71577464.00 44759060.00 L 71577464.00 45270872.00 L 71590145.00 45301487.00 L 71620760.00 45314168.00 L 72644382.00 45314168.00 L 72674997.00 45301487.00  zM 72601086.00 45227576.00 L 71664056.00 45227576.00 L 71664056.00 44802356.00 L 72601086.00 44802356.00 L 72601086.00 45227576.00  z"/>
<path id="N" d="M 71247506.95 46007107.95 m -101959.21 0 a 101959.21 101959.21 0 1 1 203918.42 0a 101959.21 101959.21 0 1 1 -203918.42 0"/>
<path id="N" d="M 68339280.01 44203924.00 L 68271918.01 44203923.99 L 68271917.95 44528991.99 L 68183544.00 44250273.97 L 68102586.00 44250273.96 L 68021009.95 44527137.94 L 68021010.01 44203923.94 L 67953648.01 44203923.93 L 67953647.92 44738493.93 L 68022245.92 44738493.94 L 68143991.99 44327523.97 L 68271917.92 44738493.99 L 68339279.92 44738494.00 L 68339280.01 44203924.00  z"/>
<path id="N" d="M 62352749.01 32266797.00 L 62285387.01 32266796.99 L 62285386.95 32591864.99 L 62197013.00 32313146.97 L 62116055.00 32313146.96 L 62034478.95 32590010.94 L 62034479.01 32266796.94 L 61967117.01 32266796.93 L 61967116.92 32801366.93 L 62035714.92 32801366.94 L 62157460.99 32390396.97 L 62285386.92 32801366.99 L 62352748.92 32801367.00 L 62352749.01 32266797.00  z"/>
<path id="N" d="M 67913478.00 44259543.93 L 67859712.01 44204541.92 L 67618692.01 44204541.87 L 67618692.00 44272521.87 L 67846116.00 44272521.91 L 67846115.97 44444943.91 L 67618691.97 44444943.87 L 67618691.96 44512923.87 L 67846115.96 44512923.91 L 67846115.93 44672367.91 L 67618691.93 44672367.87 L 67618691.92 44740347.87 L 67913477.92 44740347.93 L 67913478.00 44259543.93  z"/>
<path id="N" d="M 61161554.00 26354530.73 L 61107788.01 26299528.72 L 60866768.01 26299528.68 L 60866768.00 26367508.68 L 61094192.00 26367508.72 L 61094191.97 26539930.72 L 60866767.97 26539930.68 L 60866767.96 26607910.68 L 61094191.96 26607910.72 L 61094191.93 26767354.72 L 60866767.93 26767354.68 L 60866767.92 26835334.68 L 61161553.92 26835334.73 L 61161554.00 26354530.73  z"/>
<path id="N" d="M 62045911.93 26766118.88 L 61993999.93 26766118.87 L 61994000.00 26365654.87 L 62045912.00 26365654.88 L 62045912.01 26297674.88 L 61872872.01 26297674.85 L 61872872.00 26365654.85 L 61926020.00 26365654.86 L 61926019.93 26766118.86 L 61872871.93 26766118.85 L 61872871.92 26834098.85 L 62045911.92 26834098.88 L 62045911.93 26766118.88  z"/>
<path id="N" d="M 61235095.93 44685654.81 L 61235096.00 44257998.81 L 61180712.01 44202996.80 L 60993458.01 44202996.77 L 60939692.00 44257998.76 L 60939691.93 44685654.76 L 60993457.92 44740656.77 L 61181947.92 44740656.80 L 61235095.93 44685654.81  zM 61167115.93 44672676.80 L 61007671.93 44672676.77 L 61007672.00 44270976.77 L 61167116.00 44270976.80 L 61167115.93 44672676.80  z"/>
<path id="N" d="M 55668609.93 44684418.67 L 55668610.00 44256762.67 L 55614226.01 44201760.66 L 55426972.01 44201760.62 L 55373206.00 44256762.61 L 55373205.93 44684418.61 L 55426971.92 44739420.62 L 55615461.92 44739420.66 L 55668609.93 44684418.67  zM 55600629.93 44671440.65 L 55441185.93 44671440.63 L 55441186.00 44269740.63 L 55600630.00 44269740.65 L 55600629.93 44671440.65  z"/>
<path id="N" d="M 61192145.01 32266178.80 L 61124165.01 32266178.79 L 61124164.97 32520176.79 L 60964102.97 32520176.76 L 60964103.01 32266178.76 L 60896123.01 32266178.75 L 60896122.92 32803220.75 L 60964102.92 32803220.76 L 60964102.96 32588156.76 L 61124164.96 32588156.79 L 61124164.92 32803220.79 L 61192144.92 32803220.80 L 61192145.01 32266178.80  z"/>
<path id="N" d="M 61353752.01 38235300.84 L 61283918.01 38235300.83 L 61254871.99 38378058.82 L 61088629.99 38378058.80 L 61059584.01 38235300.79 L 60990368.01 38235300.78 L 61099135.92 38770488.80 L 61246837.92 38770488.82 L 61353752.01 38235300.84  zM 61189981.93 38702508.81 L 61155991.93 38702508.81 L 61102843.97 38445420.80 L 61241275.97 38445420.82 L 61189981.93 38702508.81  z"/>
<path id="N" d="M 62446375.93 20811828.94 L 62446376.00 20384172.94 L 62391992.01 20329170.93 L 62204738.01 20329170.90 L 62150972.00 20384172.89 L 62150971.93 20811828.89 L 62204737.92 20866830.90 L 62393227.92 20866830.93 L 62446375.93 20811828.94  zM 62378395.93 20798850.93 L 62218951.93 20798850.90 L 62218952.00 20397150.90 L 62378396.00 20397150.93 L 62378395.93 20798850.93  z"/>
<path id="N" d="M 62309180.01 44203615.00 L 62239346.01 44203614.99 L 62210299.99 44346372.98 L 62044057.99 44346372.95 L 62015012.01 44203614.95 L 61945796.01 44203614.94 L 62054563.92 44738802.96 L 62202265.92 44738802.98 L 62309180.01 44203615.00  zM 62145409.93 44670822.97 L 62111419.93 44670822.97 L 62058271.97 44413734.96 L 62196703.97 44413734.98 L 62145409.93 44670822.97  z"/>
<path id="N" d="M 61929419.01 32266178.93 L 61859585.01 32266178.91 L 61830538.99 32408936.91 L 61664296.99 32408936.88 L 61635251.01 32266178.87 L 61566035.01 32266178.86 L 61674802.92 32801366.88 L 61822504.92 32801366.91 L 61929419.01 32266178.93  zM 61765648.93 32733386.90 L 61731658.93 32733386.89 L 61678510.97 32476298.88 L 61816942.97 32476298.91 L 61765648.93 32733386.90  z"/>
<path id="N" d="M 61097281.93 20811828.71 L 61097282.00 20384172.71 L 61042898.01 20329170.70 L 60855644.01 20329170.66 L 60801878.00 20384172.65 L 60801877.93 20811828.65 L 60855643.92 20866830.66 L 61044133.92 20866830.70 L 61097281.93 20811828.71  zM 61029301.93 20798850.69 L 60869857.93 20798850.67 L 60869858.00 20397150.67 L 61029302.00 20397150.69 L 61029301.93 20798850.69  z"/>
<path id="N" d="M 55333036.01 44201142.61 L 55265674.01 44201142.60 L 55265673.98 44384688.60 L 55092015.98 44384688.56 L 55037631.97 44439072.56 L 55037631.93 44681946.56 L 55091397.92 44736948.56 L 55333035.92 44736948.61 L 55333036.01 44201142.61  zM 55265055.93 44668968.60 L 55104993.93 44668968.57 L 55105611.97 44452668.57 L 55265055.97 44452668.60 L 55265055.93 44668968.60  z"/>
<path id="N" d="M 56876451.01 38235110.94 L 56808471.01 38235110.93 L 56808470.97 38489108.93 L 56648408.97 38489108.90 L 56648409.01 38235110.90 L 56580429.01 38235110.89 L 56580428.92 38772152.89 L 56648408.92 38772152.90 L 56648408.96 38557088.90 L 56808470.96 38557088.93 L 56808470.92 38772152.93 L 56876450.92 38772152.94 L 56876451.01 38235110.94  z"/>
<path id="N" d="M 61924166.01 38235300.94 L 61856186.01 38235300.93 L 61856185.97 38489298.93 L 61696123.97 38489298.90 L 61696124.01 38235300.90 L 61628144.01 38235300.89 L 61628143.92 38772342.89 L 61696123.92 38772342.90 L 61696123.96 38557278.90 L 61856185.96 38557278.93 L 61856185.92 38772342.93 L 61924165.92 38772342.94 L 61924166.01 38235300.94  z"/>
<path id="N" d="M 61678556.00 40788619.00 L 61678556.00 40528621.00 A 54118.70 54118.70 0 0 0 61570316.00 40528621.00 L 61570316.00 40788619.00 A 54118.70 54118.70 0 0 0 61678556.00 40788619.00  z"/>
<path id="N" d="M 56363596.00 46757123.00 L 56363596.00 46497125.00 A 54118.70 54118.70 0 0 0 56255356.00 46497125.00 L 56255356.00 46757123.00 A 54118.70 54118.70 0 0 0 56363596.00 46757123.00  z"/>
<path id="N" d="M 56363595.00 40788619.00 L 56363595.00 40528621.00 A 54118.70 54118.70 0 1 0 56255355.00 40528621.00 L 56255355.00 40788619.00 A 54118.70 54118.70 0 1 0 56363595.00 40788619.00  z"/>
<path id="N" d="M 67693515.00 46757123.00 L 67693515.00 46497125.00 A 54118.70 54118.70 0 1 0 67585275.00 46497125.00 L 67585275.00 46757123.00 A 54118.70 54118.70 0 1 0 67693515.00 46757123.00  z"/>
<path id="N" d="M 61678556.00 34820115.00 L 61678556.00 34560117.00 A 54118.70 54118.70 0 0 0 61570316.00 34560117.00 L 61570316.00 34820115.00 A 54118.70 54118.70 0 0 0 61678556.00 34820115.00  z"/>
<path id="N" d="M 71440468.00 46750070.00 L 71449979.00 46727109.00 L 71449979.00 46527109.00 L 71440468.00 46504148.00 L 71417507.00 46494637.00 L 71394546.00 46504148.00 L 71385035.00 46527109.00 L 71385035.00 46727109.00 L 71394546.00 46750070.00 L 71417507.00 46759581.00 L 71440468.00 46750070.00  z"/>
<path id="N" d="M 72820468.00 46730071.00 L 72829979.00 46707110.00 L 72829979.00 46507109.00 L 72820468.00 46484148.00 L 72797507.00 46474637.00 L 72774546.00 46484148.00 L 72765035.00 46507109.00 L 72765035.00 46707110.00 L 72774546.00 46730071.00 L 72797507.00 46739582.00 L 72820468.00 46730071.00  z"/>
<path id="N" d="M 61678556.00 46757123.00 L 61678556.00 46497125.00 A 54118.70 54118.70 0 0 0 61570316.00 46497125.00 L 61570316.00 46757123.00 A 54118.70 54118.70 0 0 0 61678556.00 46757123.00  z"/>
<path id="N" d="M 61678556.00 28876675.00 L 61678556.00 28616677.00 A 54118.70 54118.70 0 0 0 61570316.00 28616677.00 L 61570316.00 28876675.00 A 54118.70 54118.70 0 0 0 61678556.00 28876675.00  z"/>
<path id="N" d="M 61678556.00 22908171.00 L 61678556.00 22648173.00 A 54118.70 54118.70 0 0 0 61570316.00 22648173.00 L 61570316.00 22908171.00 A 54118.70 54118.70 0 0 0 61678556.00 22908171.00  z"/>
<path id="N" d="M 61914436.00 46903004.00 L 61324436.00 46903004.00 A 54118.70 54118.70 0 1 0 61324436.00 47011244.00 L 61914436.00 47011244.00 A 54121.84 54121.84 0 1 0 61914436.00 46903004.00  z"/>
<path id="N" d="M 61906244.00 44259234.93 L 61851860.01 44204232.92 L 61664606.01 44204232.89 L 61610840.00 44259234.88 L 61610839.92 44740656.88 L 61678819.92 44740656.89 L 61678820.00 44272212.89 L 61838264.00 44272212.92 L 61838263.92 44740656.92 L 61906243.92 44740656.93 L 61906244.00 44259234.93  z"/>
<path id="N" d="M 56599476.00 46903004.00 L 56009476.00 46903004.00 A 54118.70 54118.70 0 1 0 56009476.00 47011244.00 L 56599476.00 47011244.00 A 54121.84 54121.84 0 0 0 56599476.00 46903004.00  z"/>
<path id="N" d="M 61914436.00 29022556.00 L 61324436.00 29022556.00 A 54118.70 54118.70 0 1 0 61324436.00 29130796.00 L 61914436.00 29130796.00 A 54121.84 54121.84 0 1 0 61914436.00 29022556.00  z"/>
<path id="N" d="M 56599475.00 40934500.00 L 56009475.00 40934500.00 A 54118.70 54118.70 0 0 0 56009475.00 41042740.00 L 56599475.00 41042740.00 A 54121.84 54121.84 0 1 0 56599475.00 40934500.00  z"/>
<path id="N" d="M 56910790.01 44202378.88 L 56842810.01 44202378.87 L 56842809.94 44594190.87 L 56671624.01 44202378.84 L 56608588.01 44202378.83 L 56608587.92 44738184.83 L 56676567.92 44738184.84 L 56676567.98 44358732.84 L 56841573.92 44738184.87 L 56910789.92 44738184.88 L 56910790.01 44202378.88  z"/>
<path id="N" d="M 62110802.01 20329788.88 L 62042822.01 20329788.87 L 62042821.94 20721600.87 L 61871636.01 20329788.84 L 61808600.01 20329788.83 L 61808599.92 20865594.83 L 61876579.92 20865594.84 L 61876579.98 20486142.84 L 62041585.92 20865594.87 L 62110801.92 20865594.88 L 62110802.01 20329788.88  z"/>
<path id="N" d="M 67577904.01 44203305.87 L 67509924.01 44203305.85 L 67509923.94 44595117.85 L 67338738.01 44203305.83 L 67275702.01 44203305.81 L 67275701.92 44739111.81 L 67343681.92 44739111.83 L 67343681.98 44359659.83 L 67508687.92 44739111.85 L 67577903.92 44739111.87 L 67577904.01 44203305.87  z"/>
<path id="N" d="M 67234914.00 44258925.81 L 67180530.01 44203923.80 L 66993276.01 44203923.76 L 66939510.00 44258925.76 L 66939509.92 44740347.76 L 67007489.92 44740347.77 L 67007490.00 44271903.77 L 67166934.00 44271903.80 L 67166933.92 44740347.80 L 67234913.92 44740347.81 L 67234914.00 44258925.81  z"/>
<path id="N" d="M 57246364.00 44257998.94 L 57191980.01 44202996.93 L 57004726.01 44202996.90 L 56950960.00 44257998.89 L 56950959.92 44739420.89 L 57018939.92 44739420.90 L 57018940.00 44270976.90 L 57178384.00 44270976.93 L 57178383.92 44739420.93 L 57246363.92 44739420.94 L 57246364.00 44257998.94  z"/>
<path id="N" d="M 61914436.00 40934500.00 L 61324436.00 40934500.00 A 54118.70 54118.70 0 1 0 61324436.00 41042740.00 L 61914436.00 41042740.00 A 54121.84 54121.84 0 1 0 61914436.00 40934500.00  z"/>
<path id="N" d="M 67929395.00 46903004.00 L 67339395.00 46903004.00 A 54118.70 54118.70 0 0 0 67339395.00 47011244.00 L 67929395.00 47011244.00 A 54121.84 54121.84 0 0 0 67929395.00 46903004.00  z"/>
<path id="N" d="M 61914436.00 23054052.00 L 61324436.00 23054052.00 A 54118.70 54118.70 0 1 0 61324436.00 23162292.00 L 61914436.00 23162292.00 A 54121.84 54121.84 0 1 0 61914436.00 23054052.00  z"/>
<path id="N" d="M 61914436.00 34965996.00 L 61324436.00 34965996.00 A 54118.70 54118.70 0 1 0 61324436.00 35074236.00 L 61914436.00 35074236.00 A 54121.84 54121.84 0 1 0 61914436.00 34965996.00  z"/>
<path id="N" d="M 62717059.93 26766119.00 L 62602729.93 26766118.98 L 62602730.01 26298910.98 L 62534750.01 26298910.97 L 62534749.93 26766118.97 L 62421655.93 26766118.95 L 62421655.92 26834098.95 L 62717059.92 26834099.00 L 62717059.93 26766119.00  z"/>
<path id="N" d="M 61527100.93 32734004.86 L 61412770.93 32734004.84 L 61412771.01 32266796.84 L 61344791.01 32266796.82 L 61344790.93 32734004.82 L 61231696.93 32734004.80 L 61231696.92 32801984.80 L 61527100.92 32801984.86 L 61527100.93 32734004.86  z"/>
<path id="N" d="M 61571287.93 44671440.87 L 61456957.93 44671440.85 L 61456958.01 44204232.85 L 61388978.01 44204232.84 L 61388977.93 44671440.84 L 61275883.93 44671440.82 L 61275883.92 44739420.82 L 61571287.92 44739420.87 L 61571287.93 44671440.87  z"/>
<path id="N" d="M 56004801.93 44670204.72 L 55890471.93 44670204.70 L 55890472.01 44202996.70 L 55822492.01 44202996.69 L 55822491.93 44670204.69 L 55709397.93 44670204.67 L 55709397.92 44738184.67 L 56004801.92 44738184.72 L 56004801.93 44670204.72  z"/>
<path id="N" d="M 61768429.93 20797614.82 L 61654099.93 20797614.80 L 61654100.01 20330406.80 L 61586120.01 20330406.79 L 61586119.93 20797614.79 L 61473025.93 20797614.77 L 61473025.92 20865594.77 L 61768429.92 20865594.82 L 61768429.93 20797614.82  z"/>
<path id="N" d="M 60761090.00 20384172.65 L 60707324.01 20329170.64 L 60466922.01 20329170.60 L 60466922.00 20397150.60 L 60693110.00 20397150.63 L 60693109.92 20865594.63 L 60761089.92 20865594.65 L 60761090.00 20384172.65  z"/>
<path id="N" d="M 61589209.97 38457162.88 L 61391449.97 38457162.85 L 61391449.96 38528232.85 L 61589209.96 38528232.88 L 61589209.97 38457162.88  z"/>
<path id="N" d="M 56541494.97 38456972.88 L 56343734.97 38456972.85 L 56343734.96 38528042.85 L 56541494.96 38528042.88 L 56541494.97 38456972.88  z"/>
<path id="N" d="M 56510944.02 44131926.81 L 56441110.02 44131926.80 L 56441109.91 44811726.80 L 56510943.91 44811726.81 L 56510944.02 44131926.81  z"/>
</g>
</svg>
