<svg width="58.00704934mm" height="77.58152124mm" viewBox="0 0 22837421 30543906"  version="1.1" xmlns="http://www.w3.org/2000/svg" xmlns:xlink="http://www.w3.org/1999/xlink">
<desc>
Origin 52372468 49564998 Bound 52371080 19721092 22837421 30543906
</desc>
<g fill-rule="evenodd" fill="rgb(0, 128, 0)" stroke="black" stroke-width="1" transform="translate(0, 30543906) scale(1, -1) translate(-52371080, -19721092)">
<path id="N" d="M 63780362.00 49422892.00 A 200953.78 200953.78 0 0 1 63922468.00 49364030.00 L 74307268.00 49364045.00 L 74376471.00 49361468.00 L 74444474.00 49351380.00 A 700553.68 700553.68 0 0 0 75008051.00 48670268.00 L 75006159.00 20622324.00 L 75003581.00 20553120.00 L 74993493.00 20485117.00 A 700553.68 700553.68 0 0 0 74312384.00 19921542.00 L 53272312.00 19923429.00 L 53203110.00 19926007.00 L 53135107.00 19936095.00 A 700533.43 700533.43 0 0 0 52571529.00 20617203.00 L 52573419.00 48665153.00 L 52575996.00 48734356.00 L 52586084.00 48802359.00 A 700533.43 700533.43 0 0 0 53267174.00 49365936.00 L 59322468.00 49364028.00 A 200933.34 200933.34 0 0 1 59464574.00 49422890.00 L 60105712.00 50064030.00 L 63139224.00 50064030.00 L 63780362.00 49422892.00  zM 54333789.60 22614985.94 m -139740.06 0 a 139740.06 139740.06 0 1 1 279480.11 0a 139740.06 139740.06 0 1 1 -279480.11 0M 56022469.60 21214985.94 m -139740.06 0 a 139740.06 139740.06 0 1 1 279480.11 0a 139740.06 139740.06 0 1 1 -279480.11 0M 56722469.60 21864985.94 m -139740.06 0 a 139740.06 139740.06 0 1 1 279480.11 0a 139740.06 139740.06 0 1 1 -279480.11 0M 57280087.60 22614985.94 m -139740.06 0 a 139740.06 139740.06 0 1 1 279480.11 0a 139740.06 139740.06 0 1 1 -279480.11 0M 54280088.60 24814985.94 m -139740.06 0 a 139740.06 139740.06 0 1 1 279480.11 0a 139740.06 139740.06 0 1 1 -279480.11 0M 54833788.60 24714985.94 m -139740.06 0 a 139740.06 139740.06 0 1 1 279480.11 0a 139740.06 139740.06 0 1 1 -279480.11 0M 55833788.60 22664985.94 m -139740.06 0 a 139740.06 139740.06 0 1 1 279480.11 0a 139740.06 139740.06 0 1 1 -279480.11 0M 56833789.60 24814985.94 m -139740.06 0 a 139740.06 139740.06 0 1 1 279480.11 0a 139740.06 139740.06 0 1 1 -279480.11 0M 58272469.60 22114985.94 m -139740.06 0 a 139740.06 139740.06 0 1 1 279480.11 0a 139740.06 139740.06 0 1 1 -279480.11 0M 59572469.60 22193451.94 m -139740.06 0 a 139740.06 139740.06 0 1 1 279480.11 0a 139740.06 139740.06 0 1 1 -279480.11 0M 60085561.60 22901893.94 m -139740.06 0 a 139740.06 139740.06 0 1 1 279480.11 0a 139740.06 139740.06 0 1 1 -279480.11 0M 59872468.00 24054726.00 A 139740.06 139740.06 0 1 1 59899728.00 24052041.00 L 59872468.00 24054726.00  zM 58472469.60 23964985.94 m -139740.06 0 a 139740.06 139740.06 0 1 1 279480.11 0a 139740.06 139740.06 0 1 1 -279480.11 0M 58622469.60 24238074.94 m -139740.06 0 a 139740.06 139740.06 0 1 1 279480.11 0a 139740.06 139740.06 0 1 1 -279480.11 0M 58240956.60 24446499.94 m -139740.06 0 a 139740.06 139740.06 0 1 1 279480.11 0a 139740.06 139740.06 0 1 1 -279480.11 0M 57929094.00 24923481.00 L 57927404.44 24906327.36 L 57921271.00 24913801.00 A 139724.48 139724.48 0 1 1 57959511.00 24787738.00 L 57961200.56 24804891.64 L 57967334.00 24797418.00 A 139724.48 139724.48 0 1 1 57929094.00 24923481.00  zM 55572469.60 25314985.94 m -139740.06 0 a 139740.06 139740.06 0 1 1 279480.11 0a 139740.06 139740.06 0 1 1 -279480.11 0M 57056939.60 26299455.94 m -139740.06 0 a 139740.06 139740.06 0 1 1 279480.11 0a 139740.06 139740.06 0 1 1 -279480.11 0M 55522469.60 26814985.94 m -139740.06 0 a 139740.06 139740.06 0 1 1 279480.11 0a 139740.06 139740.06 0 1 1 -279480.11 0M 55822469.60 27564985.94 m -139740.06 0 a 139740.06 139740.06 0 1 1 279480.11 0a 139740.06 139740.06 0 1 1 -279480.11 0M 54280088.60 28014985.94 m -139740.06 0 a 139740.06 139740.06 0 1 1 279480.11 0a 139740.06 139740.06 0 1 1 -279480.11 0M 54833788.60 29114985.94 m -139740.06 0 a 139740.06 139740.06 0 1 1 279480.11 0a 139740.06 139740.06 0 1 1 -279480.11 0M 56872469.60 28614985.94 m -139740.06 0 a 139740.06 139740.06 0 1 1 279480.11 0a 139740.06 139740.06 0 1 1 -279480.11 0M 56780088.60 29114985.94 m -139740.06 0 a 139740.06 139740.06 0 1 1 279480.11 0a 139740.06 139740.06 0 1 1 -279480.11 0M 57427610.60 25412151.94 m -139740.06 0 a 139740.06 139740.06 0 1 1 279480.11 0a 139740.06 139740.06 0 1 1 -279480.11 0M 60062234.60 25254750.94 m -139740.06 0 a 139740.06 139740.06 0 1 1 279480.11 0a 139740.06 139740.06 0 1 1 -279480.11 0M 58672469.60 26164985.94 m -139740.06 0 a 139740.06 139740.06 0 1 1 279480.11 0a 139740.06 139740.06 0 1 1 -279480.11 0M 57572469.60 28464985.94 m -139740.06 0 a 139740.06 139740.06 0 1 1 279480.11 0a 139740.06 139740.06 0 1 1 -279480.11 0M 57310354.60 28758800.94 m -139740.06 0 a 139740.06 139740.06 0 1 1 279480.11 0a 139740.06 139740.06 0 1 1 -279480.11 0M 58672469.60 28714985.94 m -139740.06 0 a 139740.06 139740.06 0 1 1 279480.11 0a 139740.06 139740.06 0 1 1 -279480.11 0M 59922469.60 29164985.94 m -139740.06 0 a 139740.06 139740.06 0 1 1 279480.11 0a 139740.06 139740.06 0 1 1 -279480.11 0M 60772469.60 22173410.94 m -139740.06 0 a 139740.06 139740.06 0 1 1 279480.11 0a 139740.06 139740.06 0 1 1 -279480.11 0M 60322469.60 23156560.94 m -139740.06 0 a 139740.06 139740.06 0 1 1 279480.11 0a 139740.06 139740.06 0 1 1 -279480.11 0M 62022469.60 22564985.94 m -139740.06 0 a 139740.06 139740.06 0 1 1 279480.11 0a 139740.06 139740.06 0 1 1 -279480.11 0M 65022468.00 22004726.00 L 65000000.00 22002512.99 L 64968996.00 21994090.00 A 139724.48 139724.48 0 1 1 65022468.00 22004726.00  zM 60322469.60 24514985.94 m -139740.06 0 a 139740.06 139740.06 0 1 1 279480.11 0a 139740.06 139740.06 0 1 1 -279480.11 0M 61222469.60 25214985.94 m -139740.06 0 a 139740.06 139740.06 0 1 1 279480.11 0a 139740.06 139740.06 0 1 1 -279480.11 0M 65014044.60 24464985.94 m -139740.06 0 a 139740.06 139740.06 0 1 1 279480.11 0a 139740.06 139740.06 0 1 1 -279480.11 0M 65222469.60 27864985.94 m -139740.06 0 a 139740.06 139740.06 0 1 1 279480.11 0a 139740.06 139740.06 0 1 1 -279480.11 0M 65222469.60 23256560.94 m -139740.06 0 a 139740.06 139740.06 0 1 1 279480.11 0a 139740.06 139740.06 0 1 1 -279480.11 0M 66773445.06 23524116.96 m -257956.04 0 a 257956.04 257956.04 0 1 1 515912.08 0a 257956.04 257956.04 0 1 1 -515912.08 0M 68505445.06 23524116.96 m -257956.04 0 a 257956.04 257956.04 0 1 1 515912.08 0a 257956.04 257956.04 0 1 1 -515912.08 0M 69564044.60 26714985.94 m -139740.06 0 a 139740.06 139740.06 0 1 1 279480.11 0a 139740.06 139740.06 0 1 1 -279480.11 0M 66773445.06 29492620.96 m -257956.04 0 a 257956.04 257956.04 0 1 1 515912.08 0a 257956.04 257956.04 0 1 1 -515912.08 0M 68505445.06 29492620.96 m -257956.04 0 a 257956.04 257956.04 0 1 1 515912.08 0a 257956.04 257956.04 0 1 1 -515912.08 0M 69422469.60 28814985.94 m -139740.06 0 a 139740.06 139740.06 0 1 1 279480.11 0a 139740.06 139740.06 0 1 1 -279480.11 0M 70372469.60 29464985.94 m -139740.06 0 a 139740.06 139740.06 0 1 1 279480.11 0a 139740.06 139740.06 0 1 1 -279480.11 0M 71872469.60 21664985.94 m -139740.06 0 a 139740.06 139740.06 0 1 1 279480.11 0a 139740.06 139740.06 0 1 1 -279480.11 0M 71630894.60 22221506.94 m -139740.06 0 a 139740.06 139740.06 0 1 1 279480.11 0a 139740.06 139740.06 0 1 1 -279480.11 0M 70580894.60 23554261.94 m -139740.06 0 a 139740.06 139740.06 0 1 1 279480.11 0a 139740.06 139740.06 0 1 1 -279480.11 0M 72644277.00 24001612.00 L 72329307.00 24001612.00 A 238226.28 238226.28 0 0 1 72329307.00 23525184.00 L 72644277.00 23525184.00 A 238226.28 238226.28 0 0 1 72644277.00 24001612.00  zM 72695487.74 24326426.98 m -228315.02 0 a 228315.02 228315.02 0 1 1 456630.03 0a 228315.02 228315.02 0 1 1 -456630.03 0M 74250602.00 24001613.00 L 74014382.00 24001613.00 A 238226.28 238226.28 0 0 1 74014382.00 23525185.00 L 74250602.00 23525185.00 A 238226.28 238226.28 0 1 1 74250602.00 24001613.00  zM 71422469.60 25864985.94 m -139740.06 0 a 139740.06 139740.06 0 1 1 279480.11 0a 139740.06 139740.06 0 1 1 -279480.11 0M 72695487.74 26602025.98 m -228315.02 0 a 228315.02 228315.02 0 1 1 456630.03 0a 228315.02 228315.02 0 1 1 -456630.03 0M 71872469.60 27564985.94 m -139740.06 0 a 139740.06 139740.06 0 1 1 279480.11 0a 139740.06 139740.06 0 1 1 -279480.11 0M 72644267.00 27403211.00 L 72329317.00 27403211.00 A 238226.28 238226.28 0 0 1 72329317.00 26926783.00 L 72644267.00 26926783.00 A 238226.28 238226.28 0 1 1 72644267.00 27403211.00  zM 73672469.60 28714985.94 m -139740.06 0 a 139740.06 139740.06 0 1 1 279480.11 0a 139740.06 139740.06 0 1 1 -279480.11 0M 73672469.60 29064985.94 m -139740.06 0 a 139740.06 139740.06 0 1 1 279480.11 0a 139740.06 139740.06 0 1 1 -279480.11 0M 74250602.00 27403212.00 L 74014382.00 27403212.00 A 238226.28 238226.28 0 0 1 74014382.00 26926784.00 L 74250602.00 26926784.00 A 238226.28 238226.28 0 1 1 74250602.00 27403212.00  zM 74022469.60 28714985.94 m -139740.06 0 a 139740.06 139740.06 0 1 1 279480.11 0a 139740.06 139740.06 0 1 1 -279480.11 0M 74022469.60 29064985.94 m -139740.06 0 a 139740.06 139740.06 0 1 1 279480.11 0a 139740.06 139740.06 0 1 1 -279480.11 0M 54056940.60 31717667.94 m -139740.06 0 a 139740.06 139740.06 0 1 1 279480.11 0a 139740.06 139740.06 0 1 1 -279480.11 0M 55560821.60 30676633.94 m -139740.06 0 a 139740.06 139740.06 0 1 1 279480.11 0a 139740.06 139740.06 0 1 1 -279480.11 0M 55272469.60 33264985.94 m -139740.06 0 a 139740.06 139740.06 0 1 1 279480.11 0a 139740.06 139740.06 0 1 1 -279480.11 0M 56092478.60 33234994.94 m -139740.06 0 a 139740.06 139740.06 0 1 1 279480.11 0a 139740.06 139740.06 0 1 1 -279480.11 0M 55022468.00 33754726.00 L 55000000.00 33752512.99 L 54968996.00 33744090.00 A 139724.48 139724.48 0 1 1 55022468.00 33754726.00  zM 54790078.60 34532594.94 m -139740.06 0 a 139740.06 139740.06 0 1 1 279480.11 0a 139740.06 139740.06 0 1 1 -279480.11 0M 53580894.60 34864985.94 m -139740.06 0 a 139740.06 139740.06 0 1 1 279480.11 0a 139740.06 139740.06 0 1 1 -279480.11 0M 53864044.60 35162428.94 m -139740.06 0 a 139740.06 139740.06 0 1 1 279480.11 0a 139740.06 139740.06 0 1 1 -279480.11 0M 56272469.60 30714985.94 m -139740.06 0 a 139740.06 139740.06 0 1 1 279480.11 0a 139740.06 139740.06 0 1 1 -279480.11 0M 56872469.60 31964985.94 m -139740.06 0 a 139740.06 139740.06 0 1 1 279480.11 0a 139740.06 139740.06 0 1 1 -279480.11 0M 57572469.60 30764985.94 m -139740.06 0 a 139740.06 139740.06 0 1 1 279480.11 0a 139740.06 139740.06 0 1 1 -279480.11 0M 58472469.60 32314985.94 m -139740.06 0 a 139740.06 139740.06 0 1 1 279480.11 0a 139740.06 139740.06 0 1 1 -279480.11 0M 58022469.60 33064985.94 m -139740.06 0 a 139740.06 139740.06 0 1 1 279480.11 0a 139740.06 139740.06 0 1 1 -279480.11 0M 59472469.60 34164985.94 m -139740.06 0 a 139740.06 139740.06 0 1 1 279480.11 0a 139740.06 139740.06 0 1 1 -279480.11 0M 58972469.60 35164985.94 m -139740.06 0 a 139740.06 139740.06 0 1 1 279480.11 0a 139740.06 139740.06 0 1 1 -279480.11 0M 59951537.28 35000000.00 L 60000000.00 35000000.00 L 60000000.00 35058607.40 A 133740.15 133740.15 0 0 1 60009511.00 35142258.00 A 139723.37 139723.37 0 1 1 59951537.28 35000000.00  zM 54747744.60 37005430.94 m -139740.06 0 a 139740.06 139740.06 0 1 1 279480.11 0a 139740.06 139740.06 0 1 1 -279480.11 0M 55672469.60 38564985.94 m -139740.06 0 a 139740.06 139740.06 0 1 1 279480.11 0a 139740.06 139740.06 0 1 1 -279480.11 0M 55972469.60 38423410.94 m -139740.06 0 a 139740.06 139740.06 0 1 1 279480.11 0a 139740.06 139740.06 0 1 1 -279480.11 0M 56372469.60 38214985.94 m -139740.06 0 a 139740.06 139740.06 0 1 1 279480.11 0a 139740.06 139740.06 0 1 1 -279480.11 0M 57557115.60 35730339.94 m -139740.06 0 a 139740.06 139740.06 0 1 1 279480.11 0a 139740.06 139740.06 0 1 1 -279480.11 0M 58972469.60 35736592.94 m -139740.06 0 a 139740.06 139740.06 0 1 1 279480.11 0a 139740.06 139740.06 0 1 1 -279480.11 0M 58072469.60 36264985.94 m -139740.06 0 a 139740.06 139740.06 0 1 1 279480.11 0a 139740.06 139740.06 0 1 1 -279480.11 0M 56772469.60 38214985.94 m -139740.06 0 a 139740.06 139740.06 0 1 1 279480.11 0a 139740.06 139740.06 0 1 1 -279480.11 0M 54872468.00 40954726.00 A 139740.06 139740.06 0 1 1 54899728.00 40952041.00 L 54872468.00 40954726.00  zM 54622469.60 41864985.94 m -139740.06 0 a 139740.06 139740.06 0 1 1 279480.11 0a 139740.06 139740.06 0 1 1 -279480.11 0M 59922469.60 41114985.94 m -139740.06 0 a 139740.06 139740.06 0 1 1 279480.11 0a 139740.06 139740.06 0 1 1 -279480.11 0M 60018996.00 45025665.00 L 60000000.00 45015511.57 L 59973665.00 44995376.00 A 139724.48 139724.48 0 1 1 60018996.00 45025665.00  zM 54622469.60 47114985.94 m -139740.06 0 a 139740.06 139740.06 0 1 1 279480.11 0a 139740.06 139740.06 0 1 1 -279480.11 0M 59972468.00 47254726.00 A 139740.06 139740.06 0 1 1 59999728.00 47252041.00 L 59972468.00 47254726.00  zM 60443334.69 46816963.27 m -415537.73 0 a 415537.73 415537.73 0 1 1 831075.47 0a 415537.73 415537.73 0 1 1 -831075.47 0M 65222469.60 32814985.94 m -139740.06 0 a 139740.06 139740.06 0 1 1 279480.11 0a 139740.06 139740.06 0 1 1 -279480.11 0M 66773445.06 35461124.96 m -257956.04 0 a 257956.04 257956.04 0 1 1 515912.08 0a 257956.04 257956.04 0 1 1 -515912.08 0M 70018996.00 35494090.00 L 70000000.00 35483936.57 L 69973665.00 35463801.00 A 139724.48 139724.48 0 1 1 70018996.00 35494090.00  zM 71472469.60 34214985.94 m -139740.06 0 a 139740.06 139740.06 0 1 1 279480.11 0a 139740.06 139740.06 0 1 1 -279480.11 0M 72472469.60 30164985.94 m -139740.06 0 a 139740.06 139740.06 0 1 1 279480.11 0a 139740.06 139740.06 0 1 1 -279480.11 0M 71872469.60 33514985.94 m -139740.06 0 a 139740.06 139740.06 0 1 1 279480.11 0a 139740.06 139740.06 0 1 1 -279480.11 0M 71672469.60 35264985.94 m -139740.06 0 a 139740.06 139740.06 0 1 1 279480.11 0a 139740.06 139740.06 0 1 1 -279480.11 0M 72622469.60 35264985.94 m -139740.06 0 a 139740.06 139740.06 0 1 1 279480.11 0a 139740.06 139740.06 0 1 1 -279480.11 0M 73572469.60 31464985.94 m -139740.06 0 a 139740.06 139740.06 0 1 1 279480.11 0a 139740.06 139740.06 0 1 1 -279480.11 0M 73572469.60 31764985.94 m -139740.06 0 a 139740.06 139740.06 0 1 1 279480.11 0a 139740.06 139740.06 0 1 1 -279480.11 0M 73922469.60 31464985.94 m -139740.06 0 a 139740.06 139740.06 0 1 1 279480.11 0a 139740.06 139740.06 0 1 1 -279480.11 0M 73922469.60 31764985.94 m -139740.06 0 a 139740.06 139740.06 0 1 1 279480.11 0a 139740.06 139740.06 0 1 1 -279480.11 0M 73572469.60 33814985.94 m -139740.06 0 a 139740.06 139740.06 0 1 1 279480.11 0a 139740.06 139740.06 0 1 1 -279480.11 0M 73572469.60 34164985.94 m -139740.06 0 a 139740.06 139740.06 0 1 1 279480.11 0a 139740.06 139740.06 0 1 1 -279480.11 0M 73922469.60 33814985.94 m -139740.06 0 a 139740.06 139740.06 0 1 1 279480.11 0a 139740.06 139740.06 0 1 1 -279480.11 0M 73922469.60 34164985.94 m -139740.06 0 a 139740.06 139740.06 0 1 1 279480.11 0a 139740.06 139740.06 0 1 1 -279480.11 0M 65222469.60 38864985.94 m -139740.06 0 a 139740.06 139740.06 0 1 1 279480.11 0a 139740.06 139740.06 0 1 1 -279480.11 0M 61072469.60 44414985.94 m -139740.06 0 a 139740.06 139740.06 0 1 1 279480.11 0a 139740.06 139740.06 0 1 1 -279480.11 0M 66773445.06 41429628.96 m -257956.04 0 a 257956.04 257956.04 0 1 1 515912.08 0a 257956.04 257956.04 0 1 1 -515912.08 0M 68505445.06 41429628.96 m -257956.04 0 a 257956.04 257956.04 0 1 1 515912.08 0a 257956.04 257956.04 0 1 1 -515912.08 0M 62522469.60 45564985.94 m -139740.06 0 a 139740.06 139740.06 0 1 1 279480.11 0a 139740.06 139740.06 0 1 1 -279480.11 0M 62805538.69 46816963.27 m -415537.73 0 a 415537.73 415537.73 0 1 1 831075.47 0a 415537.73 415537.73 0 1 1 -831075.47 0M 63202767.60 44670693.94 m -139740.06 0 a 139740.06 139740.06 0 1 1 279480.11 0a 139740.06 139740.06 0 1 1 -279480.11 0M 65922469.60 47114985.94 m -139740.06 0 a 139740.06 139740.06 0 1 1 279480.11 0a 139740.06 139740.06 0 1 1 -279480.11 0M 68505445.06 35461124.96 m -257956.04 0 a 257956.04 257956.04 0 1 1 515912.08 0a 257956.04 257956.04 0 1 1 -515912.08 0M 71422469.60 38764985.94 m -139740.06 0 a 139740.06 139740.06 0 1 1 279480.11 0a 139740.06 139740.06 0 1 1 -279480.11 0M 69772469.60 41364985.94 m -139740.06 0 a 139740.06 139740.06 0 1 1 279480.11 0a 139740.06 139740.06 0 1 1 -279480.11 0M 71822469.60 41164985.94 m -139740.06 0 a 139740.06 139740.06 0 1 1 279480.11 0a 139740.06 139740.06 0 1 1 -279480.11 0M 74472470.11 36964974.88 m -257982.12 0 a 257982.12 257982.12 0 1 1 515964.24 0a 257982.12 257982.12 0 1 1 -515964.24 0M 74472470.11 37964975.88 m -257982.12 0 a 257982.12 257982.12 0 1 1 515964.24 0a 257982.12 257982.12 0 1 1 -515964.24 0M 74472470.11 38964973.88 m -257982.12 0 a 257982.12 257982.12 0 1 1 515964.24 0a 257982.12 257982.12 0 1 1 -515964.24 0"/>
</g>
</svg>
