G04*
G04 #@! TF.GenerationSoftware,Altium Limited,Altium Designer,22.0.2 (36)*
G04*
G04 Layer_Color=32896*
%FSLAX25Y25*%
%MOIN*%
G70*
G04*
G04 #@! TF.SameCoordinates,9B726C29-AE44-4639-9992-66E433AB5CB2*
G04*
G04*
G04 #@! TF.FilePolarity,Positive*
G04*
G01*
G75*
%ADD13C,0.00080*%
%ADD14C,0.00076*%
%ADD15C,0.00065*%
%ADD16C,0.00077*%
G36*
X45383Y-69374D02*
X44703D01*
Y-65456D01*
X42992Y-69374D01*
X42361D01*
Y-64016D01*
X43041D01*
Y-67811D01*
X44691Y-64016D01*
X45383D01*
Y-69374D01*
D02*
G37*
G36*
X48739Y-68818D02*
X48195Y-69368D01*
X46323D01*
X45785Y-68818D01*
Y-64004D01*
X46465D01*
Y-68688D01*
X48059D01*
Y-64004D01*
X48739D01*
Y-68818D01*
D02*
G37*
G36*
X52088Y-69368D02*
X51409D01*
Y-67409D01*
X50476D01*
Y-68830D01*
X49932Y-69374D01*
X49147D01*
Y-68694D01*
X49796D01*
Y-67409D01*
X49697D01*
X49147Y-66878D01*
Y-64572D01*
X49691Y-64022D01*
X52088D01*
Y-69368D01*
D02*
G37*
G36*
X36323Y-64696D02*
X35180D01*
Y-69368D01*
X34500D01*
Y-64696D01*
X33369D01*
Y-64016D01*
X36323D01*
Y-64696D01*
D02*
G37*
G36*
X39673Y-64443D02*
Y-66494D01*
X39129Y-67026D01*
X37399D01*
Y-68701D01*
X38993D01*
Y-67588D01*
X39673D01*
Y-68830D01*
X39129Y-69380D01*
X37257D01*
X36719Y-68830D01*
Y-66896D01*
X37257Y-66352D01*
X38993D01*
Y-64572D01*
X37399D01*
Y-65759D01*
X36719D01*
Y-64443D01*
X37257Y-63893D01*
X39141D01*
X39673Y-64443D01*
D02*
G37*
G36*
X32961Y-64554D02*
Y-68830D01*
X32418Y-69380D01*
X30545D01*
X30007Y-68830D01*
Y-64554D01*
X30545Y-64004D01*
X32430D01*
X32961Y-64554D01*
D02*
G37*
G36*
X29606Y-69387D02*
X28932D01*
Y-67551D01*
X27196D01*
X26652Y-67007D01*
Y-64578D01*
X27189Y-64029D01*
X29606D01*
Y-69387D01*
D02*
G37*
G36*
X41385Y-70079D02*
X40686D01*
Y-63281D01*
X41385D01*
Y-70079D01*
D02*
G37*
G36*
X42040Y-129047D02*
X41360D01*
Y-126507D01*
X39759D01*
Y-129047D01*
X39080D01*
Y-123677D01*
X39759D01*
Y-125827D01*
X41360D01*
Y-123677D01*
X42040D01*
Y-129047D01*
D02*
G37*
G36*
X38690Y-126828D02*
X36713D01*
Y-126118D01*
X38690D01*
Y-126828D01*
D02*
G37*
G36*
X45383Y-124239D02*
Y-128503D01*
X44839Y-129053D01*
X42979D01*
X42429Y-128503D01*
Y-127051D01*
X43109D01*
Y-128373D01*
X44703D01*
Y-124369D01*
X43109D01*
Y-125771D01*
X42429D01*
Y-124239D01*
X42979Y-123689D01*
X44839D01*
X45383Y-124239D01*
D02*
G37*
G36*
X36305Y-129053D02*
X33895D01*
X33357Y-128503D01*
Y-126736D01*
X33697Y-126402D01*
X33357Y-126056D01*
Y-124239D01*
X33895Y-123695D01*
X36305D01*
Y-129053D01*
D02*
G37*
G36*
X97383Y-308100D02*
X96703D01*
Y-304182D01*
X94992Y-308100D01*
X94361D01*
Y-302742D01*
X95041D01*
Y-306537D01*
X96691Y-302742D01*
X97383D01*
Y-308100D01*
D02*
G37*
G36*
X104095Y-303292D02*
Y-307556D01*
X103551Y-308106D01*
X101691D01*
X101141Y-307556D01*
Y-306104D01*
X101821D01*
Y-307427D01*
X103415D01*
Y-303422D01*
X101821D01*
Y-304825D01*
X101141D01*
Y-303292D01*
X101691Y-302742D01*
X103551D01*
X104095Y-303292D01*
D02*
G37*
G36*
X93960Y-303422D02*
X92816D01*
Y-308094D01*
X92137D01*
Y-303422D01*
X91006D01*
Y-302742D01*
X93960D01*
Y-303422D01*
D02*
G37*
G36*
X90598Y-308094D02*
X89918D01*
Y-306135D01*
X88985D01*
Y-307556D01*
X88441Y-308100D01*
X87656D01*
Y-307420D01*
X88305D01*
Y-306135D01*
X88206D01*
X87656Y-305603D01*
Y-303298D01*
X88200Y-302748D01*
X90598D01*
Y-308094D01*
D02*
G37*
G36*
X100739Y-303280D02*
Y-307556D01*
X100195Y-308106D01*
X98323D01*
X97785Y-307556D01*
Y-303280D01*
X98323Y-302730D01*
X100208D01*
X100739Y-303280D01*
D02*
G37*
G36*
X87248D02*
Y-307556D01*
X86704Y-308106D01*
X84832D01*
X84294Y-307556D01*
Y-303280D01*
X84832Y-302730D01*
X86717D01*
X87248Y-303280D01*
D02*
G37*
G36*
X83886Y-307556D02*
X83349Y-308106D01*
X80945D01*
Y-307427D01*
X83206D01*
Y-302742D01*
X83886D01*
Y-307556D01*
D02*
G37*
G36*
X145054Y-69365D02*
X144375D01*
Y-65447D01*
X142663Y-69365D01*
X142032D01*
Y-64007D01*
X142712D01*
Y-67801D01*
X144362Y-64007D01*
X145054D01*
Y-69365D01*
D02*
G37*
G36*
X152668Y-69359D02*
X151995D01*
Y-66108D01*
X151111Y-68895D01*
X150301D01*
X149485Y-66127D01*
Y-69359D01*
X148812D01*
Y-64013D01*
X149498D01*
X150715Y-68123D01*
X151995Y-64013D01*
X152668D01*
Y-69359D01*
D02*
G37*
G36*
X141624Y-68809D02*
X141081Y-69359D01*
X139208D01*
X138670Y-68809D01*
Y-63994D01*
X139350D01*
Y-68679D01*
X140945D01*
Y-63994D01*
X141624D01*
Y-68809D01*
D02*
G37*
G36*
X148410Y-68803D02*
X147872Y-69353D01*
X145462D01*
Y-68673D01*
X147737D01*
Y-66949D01*
X145462D01*
Y-66269D01*
X147737D01*
Y-64674D01*
X145462D01*
Y-63994D01*
X148410D01*
Y-68803D01*
D02*
G37*
G36*
X95338Y-68806D02*
X94794Y-69356D01*
X92921D01*
X92384Y-68806D01*
Y-63991D01*
X93063D01*
Y-68676D01*
X94658D01*
Y-63991D01*
X95338D01*
Y-68806D01*
D02*
G37*
G36*
X91988Y-64684D02*
X90845D01*
Y-69356D01*
X90165D01*
Y-64684D01*
X89034D01*
Y-64004D01*
X91988D01*
Y-64684D01*
D02*
G37*
G36*
X99367Y-69362D02*
X98669D01*
X98378Y-67934D01*
X96716D01*
X96425Y-69362D01*
X95733D01*
X96821Y-64010D01*
X98298D01*
X99367Y-69362D01*
D02*
G37*
G36*
X88626Y-64542D02*
Y-68818D01*
X88082Y-69368D01*
X86210D01*
X85672Y-68818D01*
Y-64542D01*
X86210Y-63991D01*
X88095D01*
X88626Y-64542D01*
D02*
G37*
G36*
X94596Y-243613D02*
Y-247884D01*
X94059Y-248421D01*
X92186D01*
X91648Y-247871D01*
Y-245671D01*
X93094D01*
Y-246351D01*
X92322D01*
Y-247742D01*
X93916D01*
Y-243743D01*
X92322D01*
Y-245072D01*
X91648D01*
Y-243613D01*
X92186Y-243063D01*
X94059D01*
X94596Y-243613D01*
D02*
G37*
G36*
X91240D02*
Y-247884D01*
X90703Y-248421D01*
X88830D01*
X88293Y-247871D01*
Y-245671D01*
X89739D01*
Y-246351D01*
X88966D01*
Y-247742D01*
X90561D01*
Y-243743D01*
X88966D01*
Y-245072D01*
X88293D01*
Y-243613D01*
X88830Y-243063D01*
X90703D01*
X91240Y-243613D01*
D02*
G37*
G36*
X87891Y-247853D02*
X87353Y-248403D01*
X84943D01*
Y-247723D01*
X87217D01*
Y-245999D01*
X84943D01*
Y-245319D01*
X87217D01*
Y-243724D01*
X84943D01*
Y-243045D01*
X87891D01*
Y-247853D01*
D02*
G37*
G36*
X103446Y-243737D02*
X102303D01*
Y-248409D01*
X101623D01*
Y-243737D01*
X100492D01*
Y-243057D01*
X103446D01*
Y-243737D01*
D02*
G37*
G36*
X100084Y-248409D02*
X99404D01*
Y-246450D01*
X98471D01*
Y-247871D01*
X97927Y-248415D01*
X97142D01*
Y-247735D01*
X97791D01*
Y-246450D01*
X97692D01*
X97142Y-245918D01*
Y-243613D01*
X97686Y-243063D01*
X100084D01*
Y-248409D01*
D02*
G37*
G36*
X84535D02*
X83855D01*
Y-246450D01*
X82922D01*
Y-247871D01*
X82378Y-248415D01*
X81593D01*
Y-247735D01*
X82242D01*
Y-246450D01*
X82143D01*
X81593Y-245918D01*
Y-243613D01*
X82137Y-243063D01*
X84535D01*
Y-248409D01*
D02*
G37*
G36*
X96734Y-243737D02*
X96215D01*
Y-247742D01*
X96734D01*
Y-248421D01*
X95004D01*
Y-247742D01*
X95535D01*
Y-243737D01*
X95004D01*
Y-243057D01*
X96734D01*
Y-243737D01*
D02*
G37*
G36*
X88197Y-188736D02*
X87517D01*
Y-186196D01*
X85916D01*
Y-188736D01*
X85237D01*
Y-183366D01*
X85916D01*
Y-185516D01*
X87517D01*
Y-183366D01*
X88197D01*
Y-188736D01*
D02*
G37*
G36*
X99803Y-188730D02*
X99129D01*
Y-185479D01*
X98246Y-188267D01*
X97436D01*
X96620Y-185498D01*
Y-188730D01*
X95947D01*
Y-183384D01*
X96632D01*
X97850Y-187494D01*
X99129Y-183384D01*
X99803D01*
Y-188730D01*
D02*
G37*
G36*
X91546Y-184058D02*
X90403D01*
Y-188730D01*
X89723D01*
Y-184058D01*
X88592D01*
Y-183378D01*
X91546D01*
Y-184058D01*
D02*
G37*
G36*
X95569Y-188736D02*
X94871D01*
X94581Y-187309D01*
X92918D01*
X92628Y-188736D01*
X91936D01*
X93023Y-183384D01*
X94500D01*
X95569Y-188736D01*
D02*
G37*
G36*
X95517Y-129045D02*
X94837D01*
Y-126505D01*
X93237D01*
Y-129045D01*
X92557D01*
Y-123675D01*
X93237D01*
Y-125825D01*
X94837D01*
Y-123675D01*
X95517D01*
Y-129045D01*
D02*
G37*
G36*
X92167Y-126826D02*
X90190D01*
Y-126116D01*
X92167D01*
Y-126826D01*
D02*
G37*
G36*
X98860Y-124237D02*
Y-128501D01*
X98317Y-129051D01*
X96456D01*
X95906Y-128501D01*
Y-127049D01*
X96586D01*
Y-128371D01*
X98181D01*
Y-124367D01*
X96586D01*
Y-125770D01*
X95906D01*
Y-124237D01*
X96456Y-123687D01*
X98317D01*
X98860Y-124237D01*
D02*
G37*
G36*
X89813Y-129045D02*
X89114D01*
X88824Y-127617D01*
X87162D01*
X86871Y-129045D01*
X86179D01*
X87267Y-123693D01*
X88744D01*
X89813Y-129045D01*
D02*
G37*
%LPC*%
G36*
X51409Y-64702D02*
X49827D01*
Y-66735D01*
X51409D01*
Y-64702D01*
D02*
G37*
G36*
X32282Y-64684D02*
X30687D01*
Y-68701D01*
X32282D01*
Y-64684D01*
D02*
G37*
G36*
X28926Y-64708D02*
X27325D01*
X27332Y-66871D01*
X28926D01*
Y-64708D01*
D02*
G37*
G36*
X35625Y-124375D02*
X34031D01*
X34037Y-126056D01*
X35625D01*
Y-124375D01*
D02*
G37*
G36*
Y-126736D02*
X34031D01*
Y-128373D01*
X35625D01*
Y-126736D01*
D02*
G37*
G36*
X89918Y-303428D02*
X88336D01*
Y-305461D01*
X89918D01*
Y-303428D01*
D02*
G37*
G36*
X100059Y-303410D02*
X98465D01*
Y-307427D01*
X100059D01*
Y-303410D01*
D02*
G37*
G36*
X86568D02*
X84974D01*
Y-307427D01*
X86568D01*
Y-303410D01*
D02*
G37*
G36*
X97729Y-64690D02*
X97390D01*
X96858Y-67261D01*
X98242D01*
X97729Y-64690D01*
D02*
G37*
G36*
X87946Y-64671D02*
X86352D01*
Y-68688D01*
X87946D01*
Y-64671D01*
D02*
G37*
G36*
X99404Y-243743D02*
X97822D01*
Y-245776D01*
X99404D01*
Y-243743D01*
D02*
G37*
G36*
X83855D02*
X82273D01*
Y-245776D01*
X83855D01*
Y-243743D01*
D02*
G37*
G36*
X93932Y-184064D02*
X93592D01*
X93060Y-186635D01*
X94445D01*
X93932Y-184064D01*
D02*
G37*
G36*
X88175Y-124373D02*
X87835D01*
X87304Y-126944D01*
X88688D01*
X88175Y-124373D01*
D02*
G37*
%LPD*%
D13*
X170850Y-100128D02*
X171090D01*
X170770Y-100048D02*
X171090D01*
X170529Y-99888D02*
X170930D01*
X170449Y-99968D02*
X171010D01*
X170369Y-100048D02*
X170689D01*
X170369Y-100128D02*
X170609D01*
X170930Y-100209D02*
X171171D01*
X170289D02*
X170529D01*
X170289Y-100289D02*
X170529D01*
X170930D02*
X171171D01*
X170208Y-100369D02*
X170449D01*
X171010D02*
X171251D01*
X170208Y-100449D02*
X170449D01*
X171010D02*
X171251D01*
X170128Y-100530D02*
X170369D01*
X171090D02*
X171331D01*
X170128Y-100610D02*
X170369D01*
X171090D02*
X171331D01*
X171090Y-100690D02*
X171331D01*
X170128D02*
X170369D01*
X170048Y-100770D02*
X170289D01*
X171171D02*
X171411D01*
X171171Y-100850D02*
X171411D01*
X171171Y-100931D02*
X171411D01*
X171251Y-101011D02*
X171411D01*
X171251Y-101091D02*
X171492D01*
X171251Y-101171D02*
X171492D01*
X171251Y-101251D02*
X171492D01*
X171331Y-101332D02*
X171492D01*
X171331Y-101412D02*
X171572D01*
X171331Y-101492D02*
X171572D01*
X171331Y-101572D02*
X171572D01*
X171411Y-101652D02*
X171572D01*
X171411Y-101733D02*
X171652D01*
X171411Y-101813D02*
X171652D01*
X171411Y-101893D02*
X171652D01*
X171411Y-101973D02*
X171652D01*
X171492Y-102053D02*
X171652D01*
X171492Y-102134D02*
X171732D01*
X171492Y-102214D02*
X171732D01*
X171492Y-102294D02*
X171732D01*
X171492Y-102374D02*
X171732D01*
X171572Y-102454D02*
X171732D01*
X171572Y-102535D02*
X171732D01*
X171572Y-102615D02*
X171812D01*
X171572Y-102695D02*
X171812D01*
X171572Y-102775D02*
X171812D01*
X171572Y-102856D02*
X171812D01*
X171652Y-102936D02*
X171812D01*
X171652Y-103016D02*
X171812D01*
X171652Y-103096D02*
X171893D01*
X171652Y-103176D02*
X171893D01*
X171652Y-103256D02*
X171893D01*
X171652Y-103337D02*
X171893D01*
X170048Y-100850D02*
X170289D01*
X170048Y-100931D02*
X170289D01*
X170048Y-101011D02*
X170208D01*
X169968Y-101091D02*
X170208D01*
X169968Y-101171D02*
X170208D01*
X169968Y-101251D02*
X170208D01*
X169968Y-101332D02*
X170128D01*
X169887Y-101412D02*
X170128D01*
X169887Y-101492D02*
X170128D01*
X169887Y-101572D02*
X170128D01*
X169887Y-101652D02*
X170048D01*
X169807Y-101733D02*
X170048D01*
X169807Y-101813D02*
X170048D01*
X169807Y-101893D02*
X170048D01*
X169807Y-101973D02*
X170048D01*
X169807Y-102053D02*
X169968D01*
X169727Y-102134D02*
X169968D01*
X169727Y-102214D02*
X169968D01*
X169727Y-102294D02*
X169968D01*
X169727Y-102374D02*
X169968D01*
X169727Y-102454D02*
X169887D01*
X169727Y-102535D02*
X169887D01*
X169647Y-102615D02*
X169887D01*
X169647Y-102695D02*
X169887D01*
X169647Y-102775D02*
X169887D01*
X169647Y-102856D02*
X169887D01*
X169647Y-102936D02*
X169807D01*
X169647Y-103016D02*
X169807D01*
X169567Y-103096D02*
X169807D01*
X169567Y-103176D02*
X169807D01*
X169567Y-103256D02*
X169807D01*
X169567Y-103337D02*
X169807D01*
X171893Y-104460D02*
X172053D01*
X171893Y-104540D02*
X172053D01*
X171893Y-104620D02*
X172053D01*
X171812Y-104139D02*
X172053D01*
X171812Y-104219D02*
X172053D01*
X171812Y-104299D02*
X172053D01*
X171812Y-104379D02*
X172053D01*
X171812Y-104059D02*
X171973D01*
X171812Y-103898D02*
X171973D01*
X171812Y-103978D02*
X171973D01*
X171732Y-103738D02*
X171973D01*
X171732Y-103818D02*
X171973D01*
X171732Y-103577D02*
X171973D01*
X171732Y-103657D02*
X171973D01*
X171732Y-103417D02*
X171893D01*
X171732Y-103497D02*
X171893D01*
X169567Y-103417D02*
X169727D01*
X169567Y-103497D02*
X169727D01*
X169486Y-103738D02*
X169727D01*
X169486Y-103577D02*
X169727D01*
X169486Y-103657D02*
X169727D01*
X169486Y-103818D02*
X169727D01*
X169486Y-104059D02*
X169647D01*
X169486Y-103978D02*
X169647D01*
X169486Y-103898D02*
X169647D01*
X169406Y-104139D02*
X169647D01*
X169406Y-104219D02*
X169647D01*
X169406Y-104299D02*
X169647D01*
X169406Y-104379D02*
X169647D01*
X169406Y-104460D02*
X169567D01*
X169406Y-104540D02*
X169567D01*
X169406Y-104620D02*
X169567D01*
X171973Y-105262D02*
X172133D01*
X171973Y-105101D02*
X172133D01*
X171973Y-105181D02*
X172133D01*
X171973Y-105342D02*
X172133D01*
X171893Y-104700D02*
X172133D01*
X171893Y-104780D02*
X172133D01*
X171893Y-104861D02*
X172133D01*
X171893Y-104941D02*
X172133D01*
X171893Y-105021D02*
X172133D01*
X169326Y-104700D02*
X169567D01*
X169326Y-104780D02*
X169567D01*
X169326Y-104861D02*
X169567D01*
X169326Y-104941D02*
X169567D01*
X169326Y-105021D02*
X169567D01*
X169326Y-105262D02*
X169486D01*
X169326Y-105181D02*
X169486D01*
X169326Y-105101D02*
X169486D01*
X169246Y-105342D02*
X169486D01*
X169246Y-105422D02*
X169486D01*
X169246Y-105663D02*
X169486D01*
X169246Y-105582D02*
X169486D01*
X169246Y-105502D02*
X169486D01*
X169246Y-105903D02*
X169406D01*
X169246Y-105743D02*
X169406D01*
X169246Y-105823D02*
X169406D01*
X169166Y-106064D02*
X169406D01*
X169166Y-106144D02*
X169406D01*
X169166Y-106224D02*
X169406D01*
X169166Y-105983D02*
X169406D01*
X169166Y-106385D02*
X169326D01*
X169166Y-106465D02*
X169326D01*
X169166Y-106304D02*
X169326D01*
X169085Y-106705D02*
X169326D01*
X169085Y-106625D02*
X169326D01*
X169085Y-106545D02*
X169326D01*
X169085Y-106786D02*
X169326D01*
X169085Y-106866D02*
X169246D01*
X169085Y-106946D02*
X169246D01*
X169005Y-107026D02*
X169246D01*
X166840Y-106866D02*
X167080D01*
X166840Y-106946D02*
X167080D01*
X166840Y-107026D02*
X167080D01*
X166840Y-106705D02*
X167000D01*
X166840Y-106786D02*
X167000D01*
X166759Y-106545D02*
X167000D01*
X166759Y-106625D02*
X167000D01*
X166759Y-106465D02*
X167000D01*
X166759Y-106304D02*
X167000D01*
X166759Y-106385D02*
X167000D01*
X166759Y-106144D02*
X166920D01*
X166759Y-106064D02*
X166920D01*
X166759Y-106224D02*
X166920D01*
X166679Y-105823D02*
X166920D01*
X166679Y-105743D02*
X166920D01*
X166679Y-105903D02*
X166920D01*
X166679Y-105983D02*
X166920D01*
X166679Y-105663D02*
X166840D01*
X166679Y-105502D02*
X166840D01*
X166679Y-105582D02*
X166840D01*
X166679Y-105181D02*
X166759D01*
X166599Y-105422D02*
X166840D01*
X166599Y-105342D02*
X166840D01*
X166599Y-105262D02*
X166840D01*
X169005Y-107106D02*
X169246D01*
X169005Y-107187D02*
X169246D01*
X169005Y-107267D02*
X169246D01*
X169005Y-107347D02*
X169246D01*
X169005Y-107427D02*
X169166D01*
X169005Y-107507D02*
X169166D01*
X168925Y-107588D02*
X169166D01*
X168925Y-107668D02*
X169166D01*
X168925Y-107748D02*
X169166D01*
X168925Y-107828D02*
X169166D01*
X168925Y-107908D02*
X169085D01*
X168925Y-107989D02*
X169085D01*
X168845Y-108069D02*
X169085D01*
X168845Y-108149D02*
X169085D01*
X168845Y-108229D02*
X169085D01*
X168845Y-108309D02*
X169005D01*
X167080D02*
X167321D01*
X167080Y-108149D02*
X167241D01*
X167080Y-108229D02*
X167241D01*
X167000Y-107908D02*
X167241D01*
X167000Y-107989D02*
X167241D01*
X167000Y-108069D02*
X167241D01*
X167000Y-107748D02*
X167160D01*
X167000Y-107828D02*
X167160D01*
X166920Y-107427D02*
X167160D01*
X166920Y-107507D02*
X167160D01*
X166920Y-107588D02*
X167160D01*
X166920Y-107668D02*
X167160D01*
X166920Y-107187D02*
X167080D01*
X166920Y-107267D02*
X167080D01*
X166920Y-107347D02*
X167080D01*
X166840Y-107106D02*
X167080D01*
X168845Y-108390D02*
X169005D01*
X168764Y-108711D02*
X169005D01*
X168764Y-108470D02*
X169005D01*
X168764Y-108550D02*
X169005D01*
X168764Y-108630D02*
X169005D01*
X168764Y-108791D02*
X168925D01*
X168684Y-109031D02*
X168925D01*
X168684Y-108951D02*
X168925D01*
X168684Y-108871D02*
X168925D01*
X168684Y-109111D02*
X168845D01*
X168604Y-109272D02*
X168845D01*
X168604Y-109192D02*
X168845D01*
X168604Y-109352D02*
X168845D01*
X168604Y-109432D02*
X168764D01*
X168524Y-109513D02*
X168764D01*
X168524Y-109593D02*
X168764D01*
X167321Y-109432D02*
X167561D01*
X167321Y-109513D02*
X167561D01*
X167321Y-109593D02*
X167561D01*
X167321Y-109352D02*
X167481D01*
X167241Y-109192D02*
X167481D01*
X167241Y-109272D02*
X167481D01*
X167241Y-109111D02*
X167481D01*
X167241Y-109031D02*
X167401D01*
X167160Y-108951D02*
X167401D01*
X167160Y-108711D02*
X167401D01*
X167160Y-108791D02*
X167401D01*
X167160Y-108871D02*
X167401D01*
X167160Y-108630D02*
X167321D01*
X167080Y-108470D02*
X167321D01*
X167080Y-108390D02*
X167321D01*
X167080Y-108550D02*
X167321D01*
X168524Y-109673D02*
X168764D01*
X168444Y-109753D02*
X168684D01*
X168444Y-109833D02*
X168684D01*
X168444Y-109914D02*
X168684D01*
X168363Y-109994D02*
X168604D01*
X168363Y-110074D02*
X168604D01*
X168363Y-110154D02*
X168604D01*
X168283Y-110234D02*
X168524D01*
X168203Y-110315D02*
X168524D01*
X168203Y-110395D02*
X168444D01*
X168123Y-110475D02*
X168444D01*
X167722Y-110555D02*
X168363D01*
X167963Y-110716D02*
X168123D01*
X167802Y-110635D02*
X168283D01*
X167722Y-110475D02*
X167963D01*
X167642Y-110395D02*
X167963D01*
X167642Y-110315D02*
X167882D01*
X167561Y-110154D02*
X167802D01*
X167561Y-110234D02*
X167802D01*
X167481Y-109914D02*
X167722D01*
X167481Y-109994D02*
X167722D01*
X167481Y-110074D02*
X167722D01*
X167401Y-109673D02*
X167642D01*
X167401Y-109753D02*
X167642D01*
X167401Y-109833D02*
X167642D01*
D14*
X149842Y-81005D02*
X150069D01*
X149842Y-81080D02*
X150069D01*
X149917Y-81156D02*
X149993D01*
X149842Y-80929D02*
X149993D01*
X149766Y-80702D02*
X149993D01*
X149766Y-80778D02*
X149993D01*
X149766Y-80853D02*
X149993D01*
X149766Y-80626D02*
X149917D01*
X149690Y-80399D02*
X149917D01*
X149690Y-80475D02*
X149917D01*
X149690Y-80551D02*
X149917D01*
X149615Y-80324D02*
X149842D01*
X149615Y-80172D02*
X149842D01*
X149615Y-80248D02*
X149842D01*
X149615Y-80097D02*
X149766D01*
X149539Y-79870D02*
X149766D01*
X148707Y-77525D02*
X148934D01*
X148783Y-77676D02*
X149010D01*
X148783Y-77752D02*
X149010D01*
X148783Y-77827D02*
X149085D01*
X148858Y-77903D02*
X149085D01*
X148858Y-77978D02*
X149085D01*
X148934Y-78054D02*
X149161D01*
X148934Y-78130D02*
X149161D01*
X148934Y-78206D02*
X149161D01*
X149010Y-78281D02*
X149236D01*
X149010Y-78357D02*
X149236D01*
X149085Y-78432D02*
X149312D01*
X149085Y-78508D02*
X149312D01*
X149085Y-78584D02*
X149312D01*
X149161Y-78659D02*
X149388D01*
X149161Y-78735D02*
X149388D01*
X149161Y-78811D02*
X149388D01*
X149236Y-78886D02*
X149463D01*
X149236Y-78962D02*
X149463D01*
X149236Y-79038D02*
X149463D01*
X149312Y-79113D02*
X149539D01*
X149312Y-79189D02*
X149539D01*
X149312Y-79265D02*
X149539D01*
X149388Y-79340D02*
X149615D01*
X149388Y-79416D02*
X149615D01*
X149388Y-79492D02*
X149615D01*
X149463Y-79567D02*
X149615D01*
X149463Y-79643D02*
X149690D01*
X149463Y-79719D02*
X149690D01*
X149539Y-79794D02*
X149690D01*
X149539Y-79945D02*
X149766D01*
X149539Y-80021D02*
X149766D01*
X148480Y-77071D02*
X148707D01*
X148480Y-77146D02*
X148707D01*
X148404Y-76995D02*
X148631D01*
X148329Y-76919D02*
X148631D01*
X148329Y-76844D02*
X148556D01*
X148253Y-76768D02*
X148556D01*
X148177Y-76692D02*
X148480D01*
X148177Y-76617D02*
X148404D01*
X148102Y-76541D02*
X148329D01*
X148026Y-76465D02*
X148329D01*
X147950Y-76390D02*
X148253D01*
X147875Y-76314D02*
X148177D01*
X147723Y-76239D02*
X148102D01*
X147572Y-76163D02*
X148026D01*
X147118Y-76012D02*
X147723D01*
X146967Y-76087D02*
X147875D01*
X146891Y-76163D02*
X147269D01*
X146740Y-76239D02*
X147118D01*
X146664Y-76314D02*
X147043D01*
X146664Y-76390D02*
X146967D01*
X146589Y-76465D02*
X146891D01*
X146513Y-76541D02*
X146816D01*
X146437Y-76617D02*
X146740D01*
X146362Y-76692D02*
X146664D01*
X146362Y-76768D02*
X146589D01*
X146286Y-76844D02*
X146589D01*
X146286Y-76919D02*
X146513D01*
X146210Y-76995D02*
X146437D01*
X146135Y-77071D02*
X146437D01*
X146135Y-77146D02*
X146362D01*
X148707Y-77600D02*
X148934D01*
X148631Y-77373D02*
X148858D01*
X148631Y-77449D02*
X148858D01*
X148556Y-77222D02*
X148783D01*
X148556Y-77298D02*
X148783D01*
X146059Y-77222D02*
X146362D01*
X146059Y-77298D02*
X146286D01*
X145984Y-77373D02*
X146286D01*
X145984Y-77449D02*
X146210D01*
X145984Y-77525D02*
X146210D01*
X145908Y-77600D02*
X146135D01*
X145908Y-77676D02*
X146135D01*
X145832Y-77827D02*
X146059D01*
X145832Y-77752D02*
X146059D01*
X145756Y-77978D02*
X145984D01*
X145756Y-78054D02*
X145984D01*
X145756Y-77903D02*
X145984D01*
X145681Y-78206D02*
X145908D01*
X145681Y-78130D02*
X145908D01*
X145605Y-78281D02*
X145832D01*
X145605Y-78357D02*
X145832D01*
X145605Y-78432D02*
X145832D01*
X145530Y-78659D02*
X145756D01*
X145530Y-78584D02*
X145756D01*
X145530Y-78508D02*
X145756D01*
X145454Y-78811D02*
X145681D01*
X145454Y-78886D02*
X145681D01*
X145454Y-78735D02*
X145681D01*
X145378Y-79038D02*
X145605D01*
X145378Y-79113D02*
X145605D01*
X145378Y-78962D02*
X145605D01*
X145303Y-79189D02*
X145530D01*
X145303Y-79265D02*
X145530D01*
X145303Y-79340D02*
X145530D01*
X145303Y-79416D02*
X145454D01*
X145227Y-79567D02*
X145454D01*
X145227Y-79492D02*
X145454D01*
X145227Y-79643D02*
X145378D01*
X145151Y-79794D02*
X145378D01*
X145151Y-79870D02*
X145378D01*
X145151Y-79719D02*
X145378D01*
X145076Y-80097D02*
X145303D01*
X145076Y-79945D02*
X145303D01*
X145076Y-80021D02*
X145303D01*
X145076Y-80172D02*
X145227D01*
X145000Y-80248D02*
X145227D01*
X145000Y-80324D02*
X145227D01*
X145000Y-80399D02*
X145227D01*
X145000Y-80475D02*
X145151D01*
X144924Y-80702D02*
X145151D01*
X144924Y-80551D02*
X145151D01*
X144924Y-80626D02*
X145151D01*
X144849Y-80778D02*
X145076D01*
X144849Y-80853D02*
X145076D01*
X144849Y-80929D02*
X145076D01*
X144849Y-81005D02*
X145076D01*
X144773Y-81080D02*
X145000D01*
X139780D02*
X140007D01*
X139780Y-81005D02*
X139931D01*
X144773Y-81156D02*
X145000D01*
X144773Y-81231D02*
X145000D01*
X144773Y-81307D02*
X145000D01*
X144697Y-81458D02*
X144924D01*
X144697Y-81383D02*
X144924D01*
X144697Y-81534D02*
X144924D01*
X144697Y-81610D02*
X144849D01*
X144622Y-81685D02*
X144849D01*
X144622Y-81761D02*
X144849D01*
X144622Y-81837D02*
X144849D01*
X144622Y-81912D02*
X144773D01*
X144546Y-81988D02*
X144773D01*
X144546Y-82064D02*
X144773D01*
X144546Y-82139D02*
X144773D01*
X144471Y-82215D02*
X144697D01*
X144471Y-82291D02*
X144697D01*
X140083Y-82215D02*
X140310D01*
X140083Y-82291D02*
X140310D01*
X140007Y-81988D02*
X140234D01*
X140007Y-82064D02*
X140234D01*
X140007Y-82139D02*
X140234D01*
X140007Y-81912D02*
X140158D01*
X139931Y-81685D02*
X140158D01*
X139931Y-81761D02*
X140158D01*
X139931Y-81837D02*
X140158D01*
X139931Y-81610D02*
X140083D01*
X139856Y-81534D02*
X140083D01*
X139856Y-81383D02*
X140083D01*
X139856Y-81458D02*
X140083D01*
X139856Y-81307D02*
X140007D01*
X139780Y-81156D02*
X140007D01*
X139780Y-81231D02*
X140007D01*
X144471Y-82366D02*
X144697D01*
X144471Y-82442D02*
X144622D01*
X144395Y-82517D02*
X144622D01*
X144395Y-82593D02*
X144622D01*
X144395Y-82669D02*
X144622D01*
X144319Y-82820D02*
X144546D01*
X144319Y-82896D02*
X144546D01*
X144319Y-82744D02*
X144546D01*
X144244Y-82971D02*
X144471D01*
X144244Y-83047D02*
X144471D01*
X144244Y-83123D02*
X144471D01*
X144168Y-83274D02*
X144395D01*
X144168Y-83198D02*
X144395D01*
X144168Y-83350D02*
X144395D01*
X144092Y-83425D02*
X144319D01*
X144092Y-83501D02*
X144319D01*
X144092Y-83577D02*
X144319D01*
X144017Y-83652D02*
X144244D01*
X144017Y-83728D02*
X144244D01*
X144017Y-83804D02*
X144244D01*
X143941Y-83879D02*
X144168D01*
X143941Y-83955D02*
X144168D01*
X143941Y-84030D02*
X144168D01*
X143865Y-84106D02*
X144092D01*
X143865Y-84182D02*
X144092D01*
X143790Y-84258D02*
X144017D01*
X143790Y-84333D02*
X144017D01*
X143714Y-84409D02*
X144017D01*
X143714Y-84484D02*
X143941D01*
X143714Y-84560D02*
X143941D01*
X143638Y-84636D02*
X143865D01*
X143638Y-84711D02*
X143865D01*
X143563Y-84787D02*
X143790D01*
X143563Y-84863D02*
X143790D01*
X143487Y-84938D02*
X143714D01*
X143487Y-85014D02*
X143714D01*
X143411Y-85090D02*
X143638D01*
X143336Y-85165D02*
X143638D01*
X143336Y-85241D02*
X143563D01*
X143260Y-85317D02*
X143563D01*
X143260Y-85392D02*
X143487D01*
X143184Y-85468D02*
X143411D01*
X143109Y-85544D02*
X143411D01*
X143033Y-85619D02*
X143336D01*
X142957Y-85695D02*
X143260D01*
X142882Y-85770D02*
X143184D01*
X142806Y-85846D02*
X143109D01*
X142730Y-85922D02*
X143033D01*
X142579Y-85997D02*
X142957D01*
X142277Y-86224D02*
X142504D01*
X141898Y-86073D02*
X142882D01*
X142050Y-86149D02*
X142730D01*
X141823Y-85997D02*
X142201D01*
X141747Y-85922D02*
X142050D01*
X141671Y-85846D02*
X141974D01*
X141596Y-85770D02*
X141898D01*
X141520Y-85695D02*
X141823D01*
X141445Y-85619D02*
X141747D01*
X141369Y-85544D02*
X141671D01*
X141369Y-85468D02*
X141596D01*
X141293Y-85392D02*
X141520D01*
X141218Y-85317D02*
X141520D01*
X141218Y-85241D02*
X141445D01*
X141142Y-85165D02*
X141445D01*
X140915Y-84636D02*
X141142D01*
X140915Y-84711D02*
X141142D01*
X140839Y-84484D02*
X141066D01*
X140839Y-84560D02*
X141066D01*
X140764Y-84409D02*
X141066D01*
X140764Y-84258D02*
X140991D01*
X140764Y-84333D02*
X140991D01*
X140688Y-84106D02*
X140915D01*
X140688Y-84182D02*
X140915D01*
X140612Y-83879D02*
X140839D01*
X140612Y-83955D02*
X140839D01*
X140612Y-84030D02*
X140839D01*
X140537Y-83652D02*
X140764D01*
X140537Y-83728D02*
X140764D01*
X140537Y-83804D02*
X140764D01*
X140461Y-83425D02*
X140688D01*
X140461Y-83501D02*
X140688D01*
X140461Y-83577D02*
X140688D01*
X140385Y-83198D02*
X140612D01*
X140385Y-83274D02*
X140612D01*
X140385Y-83350D02*
X140612D01*
X140310Y-83047D02*
X140537D01*
X140310Y-83123D02*
X140537D01*
X140310Y-82971D02*
X140537D01*
X140234Y-82896D02*
X140461D01*
X140234Y-82820D02*
X140461D01*
X140234Y-82744D02*
X140461D01*
X140158Y-82669D02*
X140385D01*
X140158Y-82593D02*
X140385D01*
X140158Y-82517D02*
X140385D01*
X140158Y-82442D02*
X140310D01*
X140083Y-82366D02*
X140310D01*
X141142Y-85090D02*
X141369D01*
X141066Y-84938D02*
X141293D01*
X141066Y-85014D02*
X141293D01*
X140991Y-84787D02*
X141218D01*
X140991Y-84863D02*
X141218D01*
D15*
X125993Y-103399D02*
X126320D01*
X125928Y-103334D02*
X126189D01*
X125798Y-103269D02*
X126124D01*
X125667Y-103203D02*
X126059D01*
X125602Y-103138D02*
X125928D01*
X125471Y-103073D02*
X125863D01*
X125341Y-103007D02*
X125732D01*
X125210Y-102942D02*
X125602D01*
X125080Y-102877D02*
X125537D01*
X124884Y-102812D02*
X125406D01*
X124688Y-102746D02*
X125210D01*
X124361Y-102681D02*
X125080D01*
X123252Y-102551D02*
X124623D01*
X123709Y-102485D02*
X124166D01*
X122991Y-102616D02*
X124884D01*
X122795Y-102681D02*
X123513D01*
X122664Y-102746D02*
X123186D01*
X122468Y-102812D02*
X122991D01*
X122338Y-102877D02*
X122795D01*
X122273Y-102942D02*
X122664D01*
X122142Y-103007D02*
X122534D01*
X122011Y-103073D02*
X122403D01*
X121946Y-103138D02*
X122273D01*
X121816Y-103203D02*
X122207D01*
X121750Y-103269D02*
X122077D01*
X121685Y-103334D02*
X122011D01*
X121554Y-103399D02*
X121881D01*
X127103Y-104444D02*
X127364D01*
X127038Y-104378D02*
X127299D01*
X126973Y-104313D02*
X127234D01*
X126907Y-104183D02*
X127169D01*
X126907Y-104248D02*
X127169D01*
X126842Y-104117D02*
X127103D01*
X126777Y-104052D02*
X127038D01*
X126711Y-103987D02*
X126973D01*
X126581Y-103921D02*
X126907D01*
X126516Y-103856D02*
X126842D01*
X126450Y-103791D02*
X126777D01*
X126385Y-103726D02*
X126711D01*
X126320Y-103660D02*
X126581D01*
X126255Y-103595D02*
X126516D01*
X126189Y-103530D02*
X126450D01*
X126059Y-103464D02*
X126385D01*
X121489D02*
X121816D01*
X121424Y-103530D02*
X121685D01*
X121359Y-103595D02*
X121620D01*
X121293Y-103660D02*
X121554D01*
X121163Y-103726D02*
X121489D01*
X121097Y-103791D02*
X121424D01*
X121032Y-103856D02*
X121359D01*
X120967Y-103921D02*
X121293D01*
X120902Y-103987D02*
X121163D01*
X120836Y-104052D02*
X121097D01*
X120771Y-104117D02*
X121032D01*
X120706Y-104183D02*
X121032D01*
X120706Y-104248D02*
X120967D01*
X120641Y-104313D02*
X120902D01*
X120575Y-104378D02*
X120836D01*
X120510Y-104444D02*
X120771D01*
X128213Y-105880D02*
X128343D01*
X128148Y-105749D02*
X128343D01*
X128148Y-105815D02*
X128343D01*
X128082Y-105684D02*
X128278D01*
X128017Y-105619D02*
X128278D01*
X128017Y-105553D02*
X128213D01*
X127952Y-105488D02*
X128148D01*
X127887Y-105423D02*
X128148D01*
X127821Y-105358D02*
X128082D01*
X127821Y-105292D02*
X128017D01*
X127756Y-105227D02*
X128017D01*
X127691Y-105162D02*
X127952D01*
X127625Y-105096D02*
X127887D01*
X127625Y-105031D02*
X127821D01*
X127560Y-104966D02*
X127821D01*
X127495Y-104901D02*
X127756D01*
X127430Y-104835D02*
X127691D01*
X127430Y-104770D02*
X127625D01*
X127364Y-104705D02*
X127560D01*
X127299Y-104640D02*
X127560D01*
X127234Y-104574D02*
X127495D01*
X127169Y-104509D02*
X127430D01*
X120445D02*
X120706D01*
X120379Y-104574D02*
X120641D01*
X120314Y-104640D02*
X120575D01*
X120314Y-104705D02*
X120510D01*
X120249Y-104770D02*
X120510D01*
X120184Y-104835D02*
X120445D01*
X120118Y-104901D02*
X120379D01*
X120053Y-104966D02*
X120314D01*
X120053Y-105031D02*
X120249D01*
X119988Y-105096D02*
X120249D01*
X119922Y-105162D02*
X120184D01*
X119857Y-105227D02*
X120118D01*
X119857Y-105292D02*
X120053D01*
X119792Y-105358D02*
X120053D01*
X119727Y-105423D02*
X119988D01*
X119727Y-105488D02*
X119922D01*
X119661Y-105553D02*
X119857D01*
X119596Y-105619D02*
X119857D01*
X119596Y-105684D02*
X119792D01*
X119531Y-105749D02*
X119727D01*
X119465Y-105815D02*
X119727D01*
X119465Y-105880D02*
X119661D01*
X119400Y-105945D02*
X119596D01*
X119335Y-106010D02*
X119596D01*
X119270Y-106076D02*
X119531D01*
X119270Y-106141D02*
X119465D01*
X119204Y-106206D02*
X119465D01*
X119139Y-106272D02*
X119400D01*
X119139Y-106337D02*
X119335D01*
X119074Y-106402D02*
X119270D01*
X111175D02*
X111436D01*
X111110Y-106337D02*
X111371D01*
X111044Y-106272D02*
X111305D01*
X111044Y-106206D02*
X111240D01*
X110979Y-106141D02*
X111240D01*
X110914Y-106076D02*
X111175D01*
X110914Y-106010D02*
X111110D01*
X110848Y-105945D02*
X111110D01*
X110783Y-105880D02*
X111044D01*
X110783Y-105815D02*
X110979D01*
X119009Y-106467D02*
X119270D01*
X118943Y-106533D02*
X119204D01*
X118943Y-106598D02*
X119139D01*
X118878Y-106663D02*
X119074D01*
X118813Y-106728D02*
X119074D01*
X118747Y-106794D02*
X119009D01*
X118682Y-106859D02*
X118943D01*
X118682Y-106924D02*
X118878D01*
X118617Y-106990D02*
X118813D01*
X118552Y-107055D02*
X118813D01*
X118486Y-107120D02*
X118747D01*
X118421Y-107185D02*
X118682D01*
X118356Y-107251D02*
X118617D01*
X118290Y-107316D02*
X118552D01*
X118225Y-107381D02*
X118486D01*
X118160Y-107447D02*
X118421D01*
X112023D02*
X112285D01*
X111958Y-107381D02*
X112219D01*
X111893Y-107316D02*
X112154D01*
X111828Y-107251D02*
X112089D01*
X111762Y-107185D02*
X112023D01*
X111762Y-107120D02*
X111958D01*
X111697Y-107055D02*
X111893D01*
X111632Y-106990D02*
X111893D01*
X111567Y-106924D02*
X111828D01*
X111501Y-106859D02*
X111762D01*
X111436Y-106794D02*
X111697D01*
X111436Y-106728D02*
X111632D01*
X111371Y-106663D02*
X111632D01*
X111305Y-106598D02*
X111567D01*
X111240Y-106533D02*
X111501D01*
X111240Y-106467D02*
X111436D01*
X118095Y-107512D02*
X118356D01*
X118029Y-107577D02*
X118356D01*
X117964Y-107642D02*
X118290D01*
X117899Y-107708D02*
X118225D01*
X117833Y-107773D02*
X118160D01*
X117768Y-107838D02*
X118095D01*
X117703Y-107904D02*
X117964D01*
X117638Y-107969D02*
X117899D01*
X117572Y-108034D02*
X117833D01*
X117507Y-108099D02*
X117768D01*
X117376Y-108165D02*
X117703D01*
X117311Y-108230D02*
X117638D01*
X117246Y-108295D02*
X117507D01*
X117115Y-108361D02*
X117442D01*
X117050Y-108426D02*
X117376D01*
X116920Y-108491D02*
X117246D01*
X113199D02*
X113525D01*
X113133Y-108426D02*
X113460D01*
X113003Y-108361D02*
X113329D01*
X112937Y-108295D02*
X113264D01*
X112872Y-108230D02*
X113133D01*
X112742Y-108165D02*
X113068D01*
X112676Y-108099D02*
X113003D01*
X112611Y-108034D02*
X112937D01*
X112546Y-107969D02*
X112807D01*
X112480Y-107904D02*
X112742D01*
X112415Y-107838D02*
X112676D01*
X112350Y-107773D02*
X112611D01*
X112285Y-107708D02*
X112546D01*
X112219Y-107642D02*
X112480D01*
X112154Y-107577D02*
X112415D01*
X112089Y-107512D02*
X112350D01*
X116789Y-108556D02*
X117181D01*
X116658Y-108622D02*
X117050D01*
X116528Y-108687D02*
X116920D01*
X116397Y-108752D02*
X116854D01*
X116267Y-108818D02*
X116724D01*
X116006Y-108883D02*
X116593D01*
X115744Y-108948D02*
X116397D01*
X114504Y-109079D02*
X116006D01*
X114243Y-109013D02*
X116201D01*
X114831Y-109144D02*
X115614D01*
X114047Y-108948D02*
X114700D01*
X113917Y-108883D02*
X114439D01*
X113786Y-108818D02*
X114243D01*
X113655Y-108752D02*
X114047D01*
X113525Y-108687D02*
X113917D01*
X113394Y-108622D02*
X113786D01*
X113329Y-108556D02*
X113655D01*
D16*
X150020Y-127414D02*
X150251D01*
X150020Y-127491D02*
X150251D01*
X149943Y-127337D02*
X150251D01*
X149943Y-127260D02*
X150174D01*
X149866Y-127183D02*
X150174D01*
X149866Y-127106D02*
X150098D01*
X149173Y-126027D02*
X149481D01*
X149173Y-126104D02*
X149481D01*
X149096Y-125950D02*
X149404D01*
X149019Y-125873D02*
X149327D01*
X148942Y-125796D02*
X149250D01*
X148865Y-125719D02*
X149250D01*
X148788Y-125642D02*
X149173D01*
X148711Y-125565D02*
X149096D01*
X148634Y-125488D02*
X149019D01*
X148557Y-125411D02*
X148942D01*
X148480Y-125334D02*
X148865D01*
X148403Y-125257D02*
X148788D01*
X148249Y-125180D02*
X148711D01*
X148094Y-125103D02*
X148557D01*
X147940Y-125026D02*
X148480D01*
X146785Y-124949D02*
X148326D01*
X147170Y-124794D02*
X147940D01*
X146939Y-124872D02*
X148171D01*
X146631Y-125026D02*
X147247D01*
X146554Y-125103D02*
X147016D01*
X146476Y-125180D02*
X146862D01*
X146399Y-125257D02*
X146785D01*
X146245Y-125334D02*
X146631D01*
X146168Y-125411D02*
X146554D01*
X146091Y-125488D02*
X146476D01*
X146014Y-125565D02*
X146399D01*
X146014Y-125642D02*
X146323D01*
X145937Y-125719D02*
X146245D01*
X145860Y-125796D02*
X146168D01*
X145783Y-125873D02*
X146091D01*
X145706Y-125950D02*
X146014D01*
X145706Y-126027D02*
X146014D01*
X149789Y-127029D02*
X150098D01*
X149789Y-126952D02*
X150020D01*
X149712Y-126875D02*
X150020D01*
X149635Y-126797D02*
X149943D01*
X149635Y-126720D02*
X149866D01*
X149558Y-126643D02*
X149866D01*
X149558Y-126566D02*
X149789D01*
X149481Y-126489D02*
X149789D01*
X149404Y-126412D02*
X149712D01*
X149404Y-126335D02*
X149635D01*
X149327Y-126258D02*
X149635D01*
X149250Y-126181D02*
X149558D01*
X145629Y-126104D02*
X145937D01*
X145552Y-126181D02*
X145860D01*
X145552Y-126258D02*
X145783D01*
X145475Y-126335D02*
X145783D01*
X145398Y-126412D02*
X145706D01*
X145398Y-126489D02*
X145629D01*
X145321Y-126566D02*
X145629D01*
X145321Y-126643D02*
X145552D01*
X145244Y-126720D02*
X145552D01*
X145167Y-126797D02*
X145475D01*
X145167Y-126875D02*
X145398D01*
X145090Y-126952D02*
X145398D01*
X145090Y-127029D02*
X145321D01*
X145013Y-127106D02*
X145321D01*
X145013Y-127183D02*
X145244D01*
X144936Y-127260D02*
X145244D01*
X144936Y-127337D02*
X145167D01*
X144859Y-127414D02*
X145167D01*
X144859Y-127491D02*
X145090D01*
X144782Y-127568D02*
X145090D01*
X144782Y-127645D02*
X145013D01*
X144705Y-127722D02*
X145013D01*
X144705Y-127799D02*
X144936D01*
X144628Y-127876D02*
X144936D01*
X144551Y-127953D02*
X144859D01*
X144551Y-128030D02*
X144782D01*
X144474Y-128107D02*
X144782D01*
X144474Y-128184D02*
X144705D01*
X144396Y-128261D02*
X144705D01*
X144319Y-128338D02*
X144628D01*
X144319Y-128415D02*
X144551D01*
X144242Y-128492D02*
X144551D01*
X144165Y-128569D02*
X144474D01*
X144165Y-128647D02*
X144474D01*
X144088Y-128724D02*
X144396D01*
X140467D02*
X140776D01*
X140390Y-128569D02*
X140699D01*
X140390Y-128647D02*
X140699D01*
X140313Y-128492D02*
X140621D01*
X140313Y-128415D02*
X140544D01*
X140236Y-128338D02*
X140544D01*
X140159Y-128261D02*
X140467D01*
X140159Y-128184D02*
X140390D01*
X140082Y-128107D02*
X140390D01*
X140082Y-128030D02*
X140313D01*
X140005Y-127953D02*
X140313D01*
X139928Y-127876D02*
X140236D01*
X139928Y-127799D02*
X140159D01*
X139851Y-127722D02*
X140159D01*
X144011Y-128801D02*
X144319D01*
X143934Y-128878D02*
X144242D01*
X143934Y-128955D02*
X144242D01*
X143857Y-129032D02*
X144165D01*
X143780Y-129109D02*
X144088D01*
X143703Y-129186D02*
X144011D01*
X143626Y-129263D02*
X143934D01*
X143549Y-129340D02*
X143857D01*
X143472Y-129417D02*
X143857D01*
X143395Y-129494D02*
X143780D01*
X143241Y-129571D02*
X143626D01*
X143164Y-129648D02*
X143549D01*
X143010Y-129725D02*
X143472D01*
X142856Y-129802D02*
X143395D01*
X142548Y-129879D02*
X143241D01*
X141777Y-129956D02*
X143087D01*
X142008Y-130033D02*
X142856D01*
X141623Y-129879D02*
X142316D01*
X141469Y-129802D02*
X142008D01*
X141392Y-129725D02*
X141854D01*
X141315Y-129648D02*
X141700D01*
X141238Y-129571D02*
X141623D01*
X141084Y-129494D02*
X141469D01*
X141007Y-129417D02*
X141392D01*
X141007Y-129340D02*
X141315D01*
X140930Y-129263D02*
X141238D01*
X140853Y-129186D02*
X141161D01*
X140776Y-129109D02*
X141084D01*
X140699Y-129032D02*
X141007D01*
X140621Y-128878D02*
X140930D01*
X140621Y-128955D02*
X140930D01*
X140544Y-128801D02*
X140853D01*
X139851Y-127645D02*
X140082D01*
X139774Y-127568D02*
X140082D01*
X139774Y-127491D02*
X140005D01*
X139774Y-127414D02*
X140005D01*
X139774Y-127337D02*
X139928D01*
M02*
