G04*
G04 #@! TF.GenerationSoftware,Altium Limited,Altium Designer,22.0.2 (36)*
G04*
G04 Layer_Color=8388736*
%FSLAX25Y25*%
%MOIN*%
G70*
G04*
G04 #@! TF.SameCoordinates,9B726C29-AE44-4639-9992-66E433AB5CB2*
G04*
G04*
G04 #@! TF.FilePolarity,Negative*
G04*
G01*
G75*
%ADD10R,0.51900X0.04700*%
%ADD11C,0.09363*%
G36*
X23786Y-167189D02*
Y-169513D01*
X22854Y-170455D01*
X20852D01*
X20027Y-169524D01*
Y-167424D01*
X18635D01*
Y-169277D01*
X19309D01*
Y-170455D01*
X18410D01*
X17457Y-169513D01*
Y-167189D01*
X18410Y-166246D01*
X20134D01*
X21087Y-167189D01*
Y-169277D01*
X22619D01*
Y-167424D01*
X21934D01*
Y-166246D01*
X22844D01*
X23786Y-167189D01*
D02*
G37*
G36*
X27995Y-172512D02*
X16300Y-174589D01*
Y-173240D01*
X27995Y-171151D01*
Y-172512D01*
D02*
G37*
G36*
X26967Y-176185D02*
Y-179452D01*
X26014Y-180373D01*
X22458D01*
X21537Y-179430D01*
Y-176431D01*
X18635D01*
Y-179195D01*
X20563D01*
Y-180373D01*
X18410D01*
X17457Y-179430D01*
Y-176185D01*
X18410Y-175253D01*
X21762D01*
X22705Y-176185D01*
Y-179195D01*
X25789D01*
Y-176431D01*
X23733D01*
Y-175253D01*
X26014D01*
X26967Y-176185D01*
D02*
G37*
G36*
X26742Y-182268D02*
X19620Y-184378D01*
X26742Y-186595D01*
Y-187763D01*
X17478D01*
Y-186595D01*
X23112D01*
X18281Y-185064D01*
Y-183661D01*
X23079Y-182247D01*
X17478D01*
Y-181080D01*
X26742D01*
Y-182268D01*
D02*
G37*
G36*
X26774Y-189915D02*
Y-193321D01*
X25843Y-194264D01*
X18378D01*
X17446Y-193332D01*
Y-189937D01*
X18378Y-188984D01*
X25821D01*
X26774Y-189915D01*
D02*
G37*
G36*
X26796Y-200293D02*
X25864Y-201236D01*
X22501D01*
X21601Y-200293D01*
Y-197134D01*
X18635D01*
Y-201236D01*
X17457D01*
Y-196909D01*
X18399Y-195956D01*
X21837D01*
X22780Y-196909D01*
Y-200058D01*
X25618D01*
Y-195956D01*
X26796D01*
Y-200293D01*
D02*
G37*
G36*
X26774Y-203817D02*
Y-208144D01*
X25596D01*
Y-204042D01*
X22662D01*
Y-207223D01*
X21741Y-208144D01*
X18292D01*
X17457Y-207212D01*
Y-202874D01*
X18635D01*
Y-206966D01*
X21484D01*
Y-203817D01*
X22426Y-202874D01*
X25821D01*
X26774Y-203817D01*
D02*
G37*
G36*
X23786Y-213756D02*
Y-215833D01*
X26721D01*
Y-217012D01*
X17446D01*
Y-215833D01*
X22608D01*
Y-213991D01*
X17446D01*
Y-212813D01*
X22833D01*
X23786Y-213756D01*
D02*
G37*
G36*
Y-219261D02*
X25350D01*
Y-220439D01*
X23786D01*
Y-221467D01*
X22619D01*
Y-220439D01*
X18410D01*
X17457Y-219496D01*
Y-217708D01*
X18635D01*
Y-219261D01*
X22619D01*
Y-217708D01*
X23786D01*
Y-219261D01*
D02*
G37*
G36*
X26742Y-223330D02*
X23808D01*
Y-225419D01*
X22876Y-226351D01*
X18410D01*
X17457Y-225408D01*
Y-222152D01*
X26742D01*
Y-223330D01*
D02*
G37*
G36*
X24847Y-228214D02*
X17467D01*
Y-227047D01*
X24847D01*
Y-228214D01*
D02*
G37*
G36*
X26742Y-227636D02*
X26142Y-228236D01*
X25543Y-227636D01*
X26142Y-227047D01*
X26742Y-227636D01*
D02*
G37*
G36*
X26753Y-230110D02*
X20456Y-230806D01*
X23444Y-231931D01*
Y-232980D01*
X20423Y-234105D01*
X26753Y-234801D01*
Y-235979D01*
X17467Y-235047D01*
Y-233912D01*
X21505Y-232445D01*
X17467Y-230978D01*
Y-229864D01*
X26753Y-228932D01*
Y-230110D01*
D02*
G37*
G36*
X26742Y-237843D02*
X23808D01*
Y-239931D01*
X22876Y-240863D01*
X18410D01*
X17457Y-239920D01*
Y-236665D01*
X26742D01*
Y-237843D01*
D02*
G37*
G36*
X23851Y-242491D02*
Y-244847D01*
X22897Y-245789D01*
X17446D01*
Y-244611D01*
X22672D01*
Y-242726D01*
X17446D01*
Y-241559D01*
X22897D01*
X23851Y-242491D01*
D02*
G37*
G36*
X23840Y-247482D02*
Y-250727D01*
X22662D01*
Y-247707D01*
X21591D01*
Y-249827D01*
X20659Y-250769D01*
X18431D01*
X17478Y-249827D01*
Y-246528D01*
X22887D01*
X23840Y-247482D01*
D02*
G37*
G36*
X26742Y-252397D02*
Y-256574D01*
X17457D01*
Y-252397D01*
X18410Y-251466D01*
X21473D01*
X22051Y-252055D01*
X22651Y-251466D01*
X25800D01*
X26742Y-252397D01*
D02*
G37*
G36*
X24354Y-264950D02*
X23176D01*
Y-262251D01*
X18667Y-264950D01*
X17457D01*
Y-260773D01*
X18635D01*
Y-263354D01*
X23058Y-260762D01*
X24354D01*
Y-264950D01*
D02*
G37*
G36*
X26774Y-266802D02*
X23047D01*
Y-269576D01*
X26774D01*
Y-270754D01*
X17467D01*
Y-269576D01*
X21869D01*
Y-266802D01*
X17467D01*
Y-265624D01*
X26774D01*
Y-266802D01*
D02*
G37*
G36*
X26742Y-272629D02*
X19620Y-274739D01*
X26742Y-276956D01*
Y-278123D01*
X17478D01*
Y-276956D01*
X23112D01*
X18281Y-275424D01*
Y-274021D01*
X23079Y-272607D01*
X17478D01*
Y-271440D01*
X26742D01*
Y-272629D01*
D02*
G37*
G36*
X26774Y-280276D02*
Y-283681D01*
X25843Y-284624D01*
X18378D01*
X17446Y-283692D01*
Y-280297D01*
X18378Y-279344D01*
X25821D01*
X26774Y-280276D01*
D02*
G37*
G36*
X26796Y-290654D02*
X25864Y-291596D01*
X22501D01*
X21601Y-290654D01*
Y-287494D01*
X18635D01*
Y-291596D01*
X17457D01*
Y-287269D01*
X18399Y-286316D01*
X21837D01*
X22780Y-287269D01*
Y-290418D01*
X25618D01*
Y-286316D01*
X26796D01*
Y-290654D01*
D02*
G37*
G36*
X44080Y-166678D02*
X45416D01*
Y-172050D01*
X44080D01*
Y-173401D01*
X37357D01*
Y-172050D01*
X36022D01*
Y-166678D01*
X37357D01*
Y-170715D01*
X40043D01*
Y-165342D01*
X44080D01*
Y-166678D01*
D02*
G37*
G36*
Y-177423D02*
X45416D01*
Y-184146D01*
X32000D01*
Y-181460D01*
X36022D01*
Y-177423D01*
X37357D01*
Y-176087D01*
X44080D01*
Y-177423D01*
D02*
G37*
G36*
Y-188168D02*
X45416D01*
Y-193540D01*
X44080D01*
Y-194891D01*
X37357D01*
Y-193540D01*
X36022D01*
Y-188168D01*
X37357D01*
Y-186832D01*
X44080D01*
Y-188168D01*
D02*
G37*
G36*
Y-198913D02*
X45416D01*
Y-204285D01*
X44080D01*
Y-205636D01*
X37357D01*
Y-204285D01*
X36022D01*
Y-198913D01*
X37357D01*
Y-197577D01*
X38708D01*
Y-200264D01*
X37357D01*
Y-202950D01*
X44080D01*
Y-200264D01*
X42730D01*
Y-197577D01*
X44080D01*
Y-198913D01*
D02*
G37*
G36*
X45416Y-215030D02*
X44080D01*
Y-216381D01*
X41394D01*
Y-215030D01*
X40043D01*
Y-211009D01*
X37357D01*
Y-216381D01*
X36022D01*
Y-209658D01*
X37357D01*
Y-208322D01*
X40043D01*
Y-209658D01*
X41394D01*
Y-213695D01*
X44080D01*
Y-208322D01*
X45416D01*
Y-215030D01*
D02*
G37*
G36*
X44080Y-220403D02*
X45416D01*
Y-225775D01*
X44080D01*
Y-227126D01*
X37357D01*
Y-225775D01*
X36022D01*
Y-220403D01*
X37357D01*
Y-219067D01*
X44080D01*
Y-220403D01*
D02*
G37*
G36*
X37357Y-232499D02*
X48102D01*
Y-237871D01*
X46767D01*
Y-235185D01*
X37357D01*
Y-237871D01*
X36022D01*
Y-229812D01*
X37357D01*
Y-232499D01*
D02*
G37*
G36*
X53205Y-243244D02*
X63950D01*
Y-248616D01*
X62614D01*
Y-245930D01*
X53205D01*
Y-248616D01*
X51869D01*
Y-240557D01*
X53205D01*
Y-243244D01*
D02*
G37*
G36*
X37357D02*
X48102D01*
Y-248616D01*
X46767D01*
Y-245930D01*
X37357D01*
Y-248616D01*
X36022D01*
Y-240557D01*
X37357D01*
Y-243244D01*
D02*
G37*
G36*
X49453Y-256675D02*
X46767D01*
Y-253989D01*
X49453D01*
Y-256675D01*
D02*
G37*
G36*
X59928Y-252638D02*
X61263D01*
Y-258010D01*
X59928D01*
Y-259361D01*
X53205D01*
Y-258010D01*
X51869D01*
Y-252638D01*
X53205D01*
Y-256675D01*
X55891D01*
Y-251302D01*
X59928D01*
Y-252638D01*
D02*
G37*
G36*
X37357Y-253989D02*
X45416D01*
Y-259361D01*
X44080D01*
Y-256675D01*
X37357D01*
Y-259361D01*
X36022D01*
Y-251302D01*
X37357D01*
Y-253989D01*
D02*
G37*
G36*
X61263Y-264734D02*
X58577D01*
Y-267420D01*
X61263D01*
Y-270106D01*
X58577D01*
Y-268755D01*
X57241D01*
Y-267420D01*
X55891D01*
Y-268755D01*
X54555D01*
Y-270106D01*
X51869D01*
Y-267420D01*
X54555D01*
Y-264734D01*
X51869D01*
Y-262047D01*
X54555D01*
Y-263383D01*
X55891D01*
Y-264734D01*
X57241D01*
Y-263383D01*
X58577D01*
Y-262047D01*
X61263D01*
Y-264734D01*
D02*
G37*
G36*
X44080Y-263383D02*
X45416D01*
Y-268755D01*
X44080D01*
Y-270106D01*
X37357D01*
Y-268755D01*
X36022D01*
Y-263383D01*
X37357D01*
Y-262047D01*
X38708D01*
Y-264734D01*
X37357D01*
Y-267420D01*
X44080D01*
Y-264734D01*
X42730D01*
Y-262047D01*
X44080D01*
Y-263383D01*
D02*
G37*
G36*
X65300Y-278165D02*
X62614D01*
Y-275479D01*
X65300D01*
Y-278165D01*
D02*
G37*
G36*
X45416Y-279500D02*
X44080D01*
Y-280851D01*
X41394D01*
Y-279500D01*
X40043D01*
Y-275479D01*
X37357D01*
Y-280851D01*
X36022D01*
Y-274128D01*
X37357D01*
Y-272792D01*
X40043D01*
Y-274128D01*
X41394D01*
Y-278165D01*
X44080D01*
Y-272792D01*
X45416D01*
Y-279500D01*
D02*
G37*
G36*
X53205Y-275479D02*
X61263D01*
Y-280851D01*
X59928D01*
Y-278165D01*
X53205D01*
Y-280851D01*
X51869D01*
Y-272792D01*
X53205D01*
Y-275479D01*
D02*
G37*
G36*
X46767Y-284873D02*
X48102D01*
Y-290245D01*
X46767D01*
Y-291596D01*
X37357D01*
Y-290245D01*
X36022D01*
Y-284873D01*
X37357D01*
Y-283537D01*
X46767D01*
Y-284873D01*
D02*
G37*
G36*
X62614D02*
X63950D01*
Y-291596D01*
X51869D01*
Y-288910D01*
X57241D01*
Y-284873D01*
X58577D01*
Y-283537D01*
X62614D01*
Y-284873D01*
D02*
G37*
G36*
X191722Y-48803D02*
X190980Y-49553D01*
X188426D01*
X187692Y-48803D01*
Y-42236D01*
X188619D01*
Y-48625D01*
X190794D01*
Y-42236D01*
X191722D01*
Y-48803D01*
D02*
G37*
G36*
X206339Y-43180D02*
X204780D01*
Y-49553D01*
X203853D01*
Y-43180D01*
X202310D01*
Y-42252D01*
X206339D01*
Y-43180D01*
D02*
G37*
G36*
X196308D02*
X194748D01*
Y-49553D01*
X193821D01*
Y-43180D01*
X192278D01*
Y-42252D01*
X196308D01*
Y-43180D01*
D02*
G37*
G36*
X201796Y-49561D02*
X200843D01*
X200447Y-47614D01*
X198179D01*
X197783Y-49561D01*
X196839D01*
X198322Y-42261D01*
X200337D01*
X201796Y-49561D01*
D02*
G37*
G36*
X210908Y-42834D02*
Y-45633D01*
X210167Y-46358D01*
X207806D01*
Y-48642D01*
X209981D01*
Y-47125D01*
X210908D01*
Y-48819D01*
X210167Y-49570D01*
X207612D01*
X206879Y-48819D01*
Y-46181D01*
X207612Y-45439D01*
X209981D01*
Y-43011D01*
X207806D01*
Y-44630D01*
X206879D01*
Y-42834D01*
X207612Y-42084D01*
X210183D01*
X210908Y-42834D01*
D02*
G37*
G36*
X187144D02*
Y-45633D01*
X186402Y-46358D01*
X184042D01*
Y-48642D01*
X186217D01*
Y-47125D01*
X187144D01*
Y-48819D01*
X186402Y-49570D01*
X183848D01*
X183115Y-48819D01*
Y-46181D01*
X183848Y-45439D01*
X186217D01*
Y-43011D01*
X184042D01*
Y-44630D01*
X183115D01*
Y-42834D01*
X183848Y-42084D01*
X186419D01*
X187144Y-42834D01*
D02*
G37*
G36*
X204416Y-119740D02*
X203489D01*
Y-116275D01*
X201305D01*
Y-119740D01*
X200378D01*
Y-112414D01*
X201305D01*
Y-115348D01*
X203489D01*
Y-112414D01*
X204416D01*
Y-119740D01*
D02*
G37*
G36*
X197099Y-116713D02*
X194401D01*
Y-115744D01*
X197099D01*
Y-116713D01*
D02*
G37*
G36*
X208977Y-113181D02*
Y-118998D01*
X208235Y-119748D01*
X205697D01*
X204947Y-118998D01*
Y-117017D01*
X205874D01*
Y-118821D01*
X208049D01*
Y-113358D01*
X205874D01*
Y-115272D01*
X204947D01*
Y-113181D01*
X205697Y-112431D01*
X208235D01*
X208977Y-113181D01*
D02*
G37*
G36*
X191096Y-119748D02*
X187809D01*
X187075Y-118998D01*
Y-116587D01*
X187539Y-116132D01*
X187075Y-115659D01*
Y-113181D01*
X187809Y-112439D01*
X191096D01*
Y-119748D01*
D02*
G37*
G36*
X204416Y-98240D02*
X203489D01*
Y-94775D01*
X201305D01*
Y-98240D01*
X200378D01*
Y-90914D01*
X201305D01*
Y-93848D01*
X203489D01*
Y-90914D01*
X204416D01*
Y-98240D01*
D02*
G37*
G36*
X197099Y-95213D02*
X194401D01*
Y-94244D01*
X197099D01*
Y-95213D01*
D02*
G37*
G36*
X208977Y-91681D02*
Y-97498D01*
X208235Y-98248D01*
X205697D01*
X204947Y-97498D01*
Y-95517D01*
X205874D01*
Y-97321D01*
X208049D01*
Y-91858D01*
X205874D01*
Y-93772D01*
X204947D01*
Y-91681D01*
X205697Y-90931D01*
X208235D01*
X208977Y-91681D01*
D02*
G37*
G36*
X191139Y-98240D02*
X190186D01*
X189790Y-96292D01*
X187522D01*
X187126Y-98240D01*
X186182D01*
X187665Y-90939D01*
X189680D01*
X191139Y-98240D01*
D02*
G37*
G36*
X191682Y-168610D02*
X190755D01*
Y-165145D01*
X188572D01*
Y-168610D01*
X187644D01*
Y-161284D01*
X188572D01*
Y-164218D01*
X190755D01*
Y-161284D01*
X191682D01*
Y-168610D01*
D02*
G37*
G36*
X207514Y-168601D02*
X206595D01*
Y-164167D01*
X205390Y-167969D01*
X204285D01*
X203172Y-164192D01*
Y-168601D01*
X202254D01*
Y-161309D01*
X203189D01*
X204850Y-166915D01*
X206595Y-161309D01*
X207514D01*
Y-168601D01*
D02*
G37*
G36*
X196251Y-162228D02*
X194692D01*
Y-168601D01*
X193765D01*
Y-162228D01*
X192222D01*
Y-161301D01*
X196251D01*
Y-162228D01*
D02*
G37*
G36*
X201739Y-168610D02*
X200787D01*
X200391Y-166662D01*
X198123D01*
X197727Y-168610D01*
X196783D01*
X198266Y-161309D01*
X200281D01*
X201739Y-168610D01*
D02*
G37*
G36*
X200412Y-221740D02*
Y-227566D01*
X199678Y-228299D01*
X197124D01*
X196391Y-227549D01*
Y-224548D01*
X198363D01*
Y-225475D01*
X197309D01*
Y-227372D01*
X199484D01*
Y-221917D01*
X197309D01*
Y-223730D01*
X196391D01*
Y-221740D01*
X197124Y-220990D01*
X199678D01*
X200412Y-221740D01*
D02*
G37*
G36*
X195834D02*
Y-227566D01*
X195101Y-228299D01*
X192546D01*
X191813Y-227549D01*
Y-224548D01*
X193786D01*
Y-225475D01*
X192732D01*
Y-227372D01*
X194907D01*
Y-221917D01*
X192732D01*
Y-223730D01*
X191813D01*
Y-221740D01*
X192546Y-220990D01*
X195101D01*
X195834Y-221740D01*
D02*
G37*
G36*
X191265Y-227523D02*
X190532Y-228274D01*
X187244D01*
Y-227346D01*
X190346D01*
Y-224994D01*
X187244D01*
Y-224067D01*
X190346D01*
Y-221892D01*
X187244D01*
Y-220965D01*
X191265D01*
Y-227523D01*
D02*
G37*
G36*
X212483Y-221909D02*
X210924D01*
Y-228282D01*
X209997D01*
Y-221909D01*
X208454D01*
Y-220982D01*
X212483D01*
Y-221909D01*
D02*
G37*
G36*
X207897Y-228282D02*
X206970D01*
Y-225610D01*
X205697D01*
Y-227549D01*
X204955Y-228291D01*
X203885D01*
Y-227363D01*
X204770D01*
Y-225610D01*
X204635D01*
X203885Y-224885D01*
Y-221740D01*
X204627Y-220990D01*
X207897D01*
Y-228282D01*
D02*
G37*
G36*
X186688D02*
X185760D01*
Y-225610D01*
X184487D01*
Y-227549D01*
X183746Y-228291D01*
X182675D01*
Y-227363D01*
X183560D01*
Y-225610D01*
X183425D01*
X182675Y-224885D01*
Y-221740D01*
X183417Y-220990D01*
X186688Y-220990D01*
Y-228282D01*
D02*
G37*
G36*
X203328Y-221909D02*
X202620D01*
Y-227372D01*
X203328D01*
Y-228299D01*
X200968D01*
Y-227372D01*
X201693D01*
Y-221909D01*
X200968D01*
Y-220982D01*
X203328D01*
Y-221909D01*
D02*
G37*
G36*
X204214Y-287976D02*
X203286D01*
Y-282631D01*
X200951Y-287976D01*
X200091D01*
Y-280667D01*
X201019D01*
Y-285843D01*
X203269Y-280667D01*
X204214D01*
Y-287976D01*
D02*
G37*
G36*
X213369Y-281417D02*
Y-287234D01*
X212627Y-287984D01*
X210089D01*
X209339Y-287234D01*
Y-285253D01*
X210266D01*
Y-287057D01*
X212441D01*
Y-281594D01*
X210266D01*
Y-283508D01*
X209339D01*
Y-281417D01*
X210089Y-280667D01*
X212627D01*
X213369Y-281417D01*
D02*
G37*
G36*
X199543Y-281594D02*
X197984D01*
Y-287967D01*
X197056D01*
Y-281594D01*
X195514D01*
Y-280667D01*
X199543D01*
Y-281594D01*
D02*
G37*
G36*
X194957Y-287967D02*
X194030D01*
Y-285295D01*
X192757D01*
Y-287234D01*
X192015Y-287976D01*
X190945D01*
Y-287048D01*
X191830D01*
Y-285295D01*
X191695D01*
X190945Y-284570D01*
Y-281425D01*
X191687Y-280675D01*
X194957D01*
Y-287967D01*
D02*
G37*
G36*
X208791Y-281400D02*
Y-287234D01*
X208049Y-287984D01*
X205495D01*
X204762Y-287234D01*
Y-281400D01*
X205495Y-280650D01*
X208066D01*
X208791Y-281400D01*
D02*
G37*
G36*
X190388D02*
Y-287234D01*
X189647Y-287984D01*
X187092D01*
X186359Y-287234D01*
Y-281400D01*
X187092Y-280650D01*
X189663D01*
X190388Y-281400D01*
D02*
G37*
G36*
X185802Y-287234D02*
X185069Y-287984D01*
X181790Y-287984D01*
Y-287057D01*
X184875Y-287057D01*
Y-280667D01*
X185802D01*
Y-287234D01*
D02*
G37*
%LPC*%
G36*
X25596Y-190162D02*
X18613D01*
Y-193086D01*
X25596D01*
Y-190162D01*
D02*
G37*
G36*
X22630Y-223330D02*
X18635D01*
Y-225173D01*
X22630D01*
Y-223330D01*
D02*
G37*
G36*
Y-237843D02*
X18635D01*
Y-239685D01*
X22630D01*
Y-237843D01*
D02*
G37*
G36*
X20530Y-247707D02*
X18538D01*
Y-249591D01*
X20530D01*
Y-247707D01*
D02*
G37*
G36*
X25564Y-252633D02*
X22651Y-252644D01*
Y-255396D01*
X25564D01*
Y-252633D01*
D02*
G37*
G36*
X21473D02*
X18635D01*
Y-255396D01*
X21473D01*
Y-252633D01*
D02*
G37*
G36*
X25596Y-280522D02*
X18613D01*
Y-283446D01*
X25596D01*
Y-280522D01*
D02*
G37*
G36*
X44080Y-168029D02*
X41394D01*
Y-170715D01*
X44080D01*
Y-168029D01*
D02*
G37*
G36*
Y-178774D02*
X37357D01*
Y-181460D01*
X44080D01*
Y-178774D01*
D02*
G37*
G36*
Y-189519D02*
X37357D01*
Y-192205D01*
X44080D01*
Y-189519D01*
D02*
G37*
G36*
Y-221754D02*
X37357D01*
Y-224440D01*
X44080D01*
Y-221754D01*
D02*
G37*
G36*
X59928Y-253989D02*
X57241D01*
Y-256675D01*
X59928D01*
Y-253989D01*
D02*
G37*
G36*
X46767Y-286224D02*
X37357D01*
Y-288910D01*
X46767D01*
Y-286224D01*
D02*
G37*
G36*
X62614D02*
X58577D01*
Y-288910D01*
X62614D01*
Y-286224D01*
D02*
G37*
G36*
X199562Y-43188D02*
X199098D01*
X198373Y-46695D01*
X200261D01*
X199562Y-43188D01*
D02*
G37*
G36*
X190169Y-113366D02*
X187994D01*
X188003Y-115659D01*
X190169D01*
Y-113366D01*
D02*
G37*
G36*
Y-116587D02*
X187994D01*
Y-118821D01*
X190169D01*
Y-116587D01*
D02*
G37*
G36*
X188905Y-91866D02*
X188441D01*
X187716Y-95373D01*
X189604D01*
X188905Y-91866D01*
D02*
G37*
G36*
X199505Y-162237D02*
X199042D01*
X198317Y-165744D01*
X200205D01*
X199505Y-162237D01*
D02*
G37*
G36*
X206970Y-221917D02*
X204812D01*
Y-224691D01*
X206970D01*
Y-221917D01*
D02*
G37*
G36*
X185760D02*
X183602Y-221917D01*
Y-224691D01*
X185760Y-224691D01*
Y-221917D01*
D02*
G37*
G36*
X194030Y-281603D02*
X191872D01*
Y-284376D01*
X194030D01*
Y-281603D01*
D02*
G37*
G36*
X207864Y-281577D02*
X205689D01*
Y-287057D01*
X207864D01*
Y-281577D01*
D02*
G37*
G36*
X189461D02*
X187286D01*
Y-287057D01*
X189461D01*
Y-281577D01*
D02*
G37*
%LPD*%
D10*
X40250Y-159246D02*
D03*
Y-298246D02*
D03*
D11*
X216535Y-325984D02*
D03*
X11811D02*
D03*
X216535Y-11811D02*
D03*
X11811D02*
D03*
M02*
